G04 #@! TF.GenerationSoftware,KiCad,Pcbnew,(5.1.2)-1*
G04 #@! TF.CreationDate,2021-03-02T15:10:39-08:00*
G04 #@! TF.ProjectId,Spankulator,5370616e-6b75-46c6-9174-6f722e6b6963,2.2*
G04 #@! TF.SameCoordinates,Original*
G04 #@! TF.FileFunction,Legend,Top*
G04 #@! TF.FilePolarity,Positive*
%FSLAX46Y46*%
G04 Gerber Fmt 4.6, Leading zero omitted, Abs format (unit mm)*
G04 Created by KiCad (PCBNEW (5.1.2)-1) date 2021-03-02 15:10:39*
%MOMM*%
%LPD*%
G04 APERTURE LIST*
%ADD10C,0.150000*%
%ADD11C,0.120000*%
%ADD12C,0.100000*%
G04 APERTURE END LIST*
D10*
X81957142Y-40225000D02*
X81842857Y-40167857D01*
X81671428Y-40167857D01*
X81500000Y-40225000D01*
X81385714Y-40339285D01*
X81328571Y-40453571D01*
X81271428Y-40682142D01*
X81271428Y-40853571D01*
X81328571Y-41082142D01*
X81385714Y-41196428D01*
X81500000Y-41310714D01*
X81671428Y-41367857D01*
X81785714Y-41367857D01*
X81957142Y-41310714D01*
X82014285Y-41253571D01*
X82014285Y-40853571D01*
X81785714Y-40853571D01*
X82528571Y-41367857D02*
X82528571Y-40567857D01*
X82528571Y-40796428D02*
X82585714Y-40682142D01*
X82642857Y-40625000D01*
X82757142Y-40567857D01*
X82871428Y-40567857D01*
X83728571Y-41310714D02*
X83614285Y-41367857D01*
X83385714Y-41367857D01*
X83271428Y-41310714D01*
X83214285Y-41196428D01*
X83214285Y-40739285D01*
X83271428Y-40625000D01*
X83385714Y-40567857D01*
X83614285Y-40567857D01*
X83728571Y-40625000D01*
X83785714Y-40739285D01*
X83785714Y-40853571D01*
X83214285Y-40967857D01*
X84757142Y-41310714D02*
X84642857Y-41367857D01*
X84414285Y-41367857D01*
X84300000Y-41310714D01*
X84242857Y-41196428D01*
X84242857Y-40739285D01*
X84300000Y-40625000D01*
X84414285Y-40567857D01*
X84642857Y-40567857D01*
X84757142Y-40625000D01*
X84814285Y-40739285D01*
X84814285Y-40853571D01*
X84242857Y-40967857D01*
X85328571Y-40567857D02*
X85328571Y-41367857D01*
X85328571Y-40682142D02*
X85385714Y-40625000D01*
X85500000Y-40567857D01*
X85671428Y-40567857D01*
X85785714Y-40625000D01*
X85842857Y-40739285D01*
X85842857Y-41367857D01*
X86242857Y-40567857D02*
X86700000Y-40567857D01*
X86414285Y-41367857D02*
X86414285Y-40339285D01*
X86471428Y-40225000D01*
X86585714Y-40167857D01*
X86700000Y-40167857D01*
X87614285Y-41367857D02*
X87614285Y-40739285D01*
X87557142Y-40625000D01*
X87442857Y-40567857D01*
X87214285Y-40567857D01*
X87100000Y-40625000D01*
X87614285Y-41310714D02*
X87500000Y-41367857D01*
X87214285Y-41367857D01*
X87100000Y-41310714D01*
X87042857Y-41196428D01*
X87042857Y-41082142D01*
X87100000Y-40967857D01*
X87214285Y-40910714D01*
X87500000Y-40910714D01*
X87614285Y-40853571D01*
X88700000Y-41310714D02*
X88585714Y-41367857D01*
X88357142Y-41367857D01*
X88242857Y-41310714D01*
X88185714Y-41253571D01*
X88128571Y-41139285D01*
X88128571Y-40796428D01*
X88185714Y-40682142D01*
X88242857Y-40625000D01*
X88357142Y-40567857D01*
X88585714Y-40567857D01*
X88700000Y-40625000D01*
X89671428Y-41310714D02*
X89557142Y-41367857D01*
X89328571Y-41367857D01*
X89214285Y-41310714D01*
X89157142Y-41196428D01*
X89157142Y-40739285D01*
X89214285Y-40625000D01*
X89328571Y-40567857D01*
X89557142Y-40567857D01*
X89671428Y-40625000D01*
X89728571Y-40739285D01*
X89728571Y-40853571D01*
X89157142Y-40967857D01*
X84300000Y-43317857D02*
X83728571Y-43317857D01*
X83728571Y-42117857D01*
X85214285Y-43317857D02*
X85214285Y-42689285D01*
X85157142Y-42575000D01*
X85042857Y-42517857D01*
X84814285Y-42517857D01*
X84700000Y-42575000D01*
X85214285Y-43260714D02*
X85100000Y-43317857D01*
X84814285Y-43317857D01*
X84700000Y-43260714D01*
X84642857Y-43146428D01*
X84642857Y-43032142D01*
X84700000Y-42917857D01*
X84814285Y-42860714D01*
X85100000Y-42860714D01*
X85214285Y-42803571D01*
X85785714Y-43317857D02*
X85785714Y-42117857D01*
X85785714Y-42575000D02*
X85900000Y-42517857D01*
X86128571Y-42517857D01*
X86242857Y-42575000D01*
X86300000Y-42632142D01*
X86357142Y-42746428D01*
X86357142Y-43089285D01*
X86300000Y-43203571D01*
X86242857Y-43260714D01*
X86128571Y-43317857D01*
X85900000Y-43317857D01*
X85785714Y-43260714D01*
X86814285Y-43260714D02*
X86928571Y-43317857D01*
X87157142Y-43317857D01*
X87271428Y-43260714D01*
X87328571Y-43146428D01*
X87328571Y-43089285D01*
X87271428Y-42975000D01*
X87157142Y-42917857D01*
X86985714Y-42917857D01*
X86871428Y-42860714D01*
X86814285Y-42746428D01*
X86814285Y-42689285D01*
X86871428Y-42575000D01*
X86985714Y-42517857D01*
X87157142Y-42517857D01*
X87271428Y-42575000D01*
D11*
X71120000Y-141970000D02*
X67255000Y-141970000D01*
X62745000Y-141970000D02*
X58880000Y-141970000D01*
X71120000Y-132030000D02*
X67255000Y-132030000D01*
X62745000Y-132030000D02*
X58880000Y-132030000D01*
X71120000Y-141970000D02*
X71120000Y-140371000D01*
X71120000Y-138629000D02*
X71120000Y-137870000D01*
X71120000Y-136129000D02*
X71120000Y-135370000D01*
X71120000Y-133630000D02*
X71120000Y-132030000D01*
X58880000Y-141970000D02*
X58880000Y-132030000D01*
X81750000Y-78850000D02*
X80250000Y-78850000D01*
X77750000Y-80100000D02*
X77750000Y-84600000D01*
X80250000Y-85850000D02*
X81750000Y-85850000D01*
X84250000Y-84600000D02*
X84250000Y-80100000D01*
X99520000Y-63750000D02*
X98750000Y-63750000D01*
X91440000Y-63750000D02*
X92210000Y-63750000D01*
X98750000Y-62380000D02*
X92210000Y-62380000D01*
X98750000Y-65120000D02*
X98750000Y-62380000D01*
X92210000Y-65120000D02*
X98750000Y-65120000D01*
X92210000Y-62380000D02*
X92210000Y-65120000D01*
D12*
X91575000Y-91675000D02*
X91575000Y-92175000D01*
X90875000Y-91675000D02*
X91575000Y-91675000D01*
X91575000Y-105325000D02*
X90775000Y-105325000D01*
X91575000Y-104750000D02*
X91575000Y-105325000D01*
X78825000Y-91675000D02*
X78825000Y-92350000D01*
X79675000Y-91675000D02*
X78825000Y-91675000D01*
X78825000Y-105325000D02*
X78825000Y-104650000D01*
X79775000Y-105325000D02*
X78825000Y-105325000D01*
D11*
X55700302Y-55765000D02*
X55700302Y-56565000D01*
X55300302Y-56165000D02*
X56100302Y-56165000D01*
X63791000Y-57947000D02*
X63791000Y-59013000D01*
X63751000Y-57712000D02*
X63751000Y-59248000D01*
X63711000Y-57532000D02*
X63711000Y-59428000D01*
X63671000Y-57382000D02*
X63671000Y-59578000D01*
X63631000Y-57251000D02*
X63631000Y-59709000D01*
X63591000Y-57134000D02*
X63591000Y-59826000D01*
X63551000Y-57027000D02*
X63551000Y-59933000D01*
X63511000Y-56928000D02*
X63511000Y-60032000D01*
X63471000Y-56835000D02*
X63471000Y-60125000D01*
X63431000Y-56749000D02*
X63431000Y-60211000D01*
X63391000Y-56667000D02*
X63391000Y-60293000D01*
X63351000Y-56590000D02*
X63351000Y-60370000D01*
X63311000Y-56516000D02*
X63311000Y-60444000D01*
X63271000Y-56446000D02*
X63271000Y-60514000D01*
X63231000Y-56378000D02*
X63231000Y-60582000D01*
X63191000Y-56314000D02*
X63191000Y-60646000D01*
X63151000Y-56252000D02*
X63151000Y-60708000D01*
X63111000Y-56193000D02*
X63111000Y-60767000D01*
X63071000Y-56135000D02*
X63071000Y-60825000D01*
X63031000Y-56080000D02*
X63031000Y-60880000D01*
X62991000Y-56026000D02*
X62991000Y-60934000D01*
X62951000Y-55975000D02*
X62951000Y-60985000D01*
X62911000Y-55924000D02*
X62911000Y-61036000D01*
X62871000Y-55876000D02*
X62871000Y-61084000D01*
X62831000Y-55829000D02*
X62831000Y-61131000D01*
X62791000Y-55783000D02*
X62791000Y-61177000D01*
X62751000Y-55739000D02*
X62751000Y-61221000D01*
X62711000Y-55696000D02*
X62711000Y-61264000D01*
X62671000Y-55654000D02*
X62671000Y-61306000D01*
X62631000Y-55613000D02*
X62631000Y-61347000D01*
X62591000Y-55573000D02*
X62591000Y-61387000D01*
X62551000Y-55535000D02*
X62551000Y-61425000D01*
X62511000Y-55497000D02*
X62511000Y-61463000D01*
X62471000Y-59520000D02*
X62471000Y-61499000D01*
X62471000Y-55461000D02*
X62471000Y-57440000D01*
X62431000Y-59520000D02*
X62431000Y-61535000D01*
X62431000Y-55425000D02*
X62431000Y-57440000D01*
X62391000Y-59520000D02*
X62391000Y-61570000D01*
X62391000Y-55390000D02*
X62391000Y-57440000D01*
X62351000Y-59520000D02*
X62351000Y-61604000D01*
X62351000Y-55356000D02*
X62351000Y-57440000D01*
X62311000Y-59520000D02*
X62311000Y-61636000D01*
X62311000Y-55324000D02*
X62311000Y-57440000D01*
X62271000Y-59520000D02*
X62271000Y-61669000D01*
X62271000Y-55291000D02*
X62271000Y-57440000D01*
X62231000Y-59520000D02*
X62231000Y-61700000D01*
X62231000Y-55260000D02*
X62231000Y-57440000D01*
X62191000Y-59520000D02*
X62191000Y-61730000D01*
X62191000Y-55230000D02*
X62191000Y-57440000D01*
X62151000Y-59520000D02*
X62151000Y-61760000D01*
X62151000Y-55200000D02*
X62151000Y-57440000D01*
X62111000Y-59520000D02*
X62111000Y-61789000D01*
X62111000Y-55171000D02*
X62111000Y-57440000D01*
X62071000Y-59520000D02*
X62071000Y-61818000D01*
X62071000Y-55142000D02*
X62071000Y-57440000D01*
X62031000Y-59520000D02*
X62031000Y-61845000D01*
X62031000Y-55115000D02*
X62031000Y-57440000D01*
X61991000Y-59520000D02*
X61991000Y-61872000D01*
X61991000Y-55088000D02*
X61991000Y-57440000D01*
X61951000Y-59520000D02*
X61951000Y-61898000D01*
X61951000Y-55062000D02*
X61951000Y-57440000D01*
X61911000Y-59520000D02*
X61911000Y-61924000D01*
X61911000Y-55036000D02*
X61911000Y-57440000D01*
X61871000Y-59520000D02*
X61871000Y-61949000D01*
X61871000Y-55011000D02*
X61871000Y-57440000D01*
X61831000Y-59520000D02*
X61831000Y-61973000D01*
X61831000Y-54987000D02*
X61831000Y-57440000D01*
X61791000Y-59520000D02*
X61791000Y-61997000D01*
X61791000Y-54963000D02*
X61791000Y-57440000D01*
X61751000Y-59520000D02*
X61751000Y-62020000D01*
X61751000Y-54940000D02*
X61751000Y-57440000D01*
X61711000Y-59520000D02*
X61711000Y-62042000D01*
X61711000Y-54918000D02*
X61711000Y-57440000D01*
X61671000Y-59520000D02*
X61671000Y-62064000D01*
X61671000Y-54896000D02*
X61671000Y-57440000D01*
X61631000Y-59520000D02*
X61631000Y-62086000D01*
X61631000Y-54874000D02*
X61631000Y-57440000D01*
X61591000Y-59520000D02*
X61591000Y-62107000D01*
X61591000Y-54853000D02*
X61591000Y-57440000D01*
X61551000Y-59520000D02*
X61551000Y-62127000D01*
X61551000Y-54833000D02*
X61551000Y-57440000D01*
X61511000Y-59520000D02*
X61511000Y-62146000D01*
X61511000Y-54814000D02*
X61511000Y-57440000D01*
X61471000Y-59520000D02*
X61471000Y-62166000D01*
X61471000Y-54794000D02*
X61471000Y-57440000D01*
X61431000Y-59520000D02*
X61431000Y-62184000D01*
X61431000Y-54776000D02*
X61431000Y-57440000D01*
X61391000Y-59520000D02*
X61391000Y-62202000D01*
X61391000Y-54758000D02*
X61391000Y-57440000D01*
X61351000Y-59520000D02*
X61351000Y-62220000D01*
X61351000Y-54740000D02*
X61351000Y-57440000D01*
X61311000Y-59520000D02*
X61311000Y-62237000D01*
X61311000Y-54723000D02*
X61311000Y-57440000D01*
X61271000Y-59520000D02*
X61271000Y-62254000D01*
X61271000Y-54706000D02*
X61271000Y-57440000D01*
X61231000Y-59520000D02*
X61231000Y-62270000D01*
X61231000Y-54690000D02*
X61231000Y-57440000D01*
X61191000Y-59520000D02*
X61191000Y-62285000D01*
X61191000Y-54675000D02*
X61191000Y-57440000D01*
X61151000Y-59520000D02*
X61151000Y-62301000D01*
X61151000Y-54659000D02*
X61151000Y-57440000D01*
X61111000Y-59520000D02*
X61111000Y-62315000D01*
X61111000Y-54645000D02*
X61111000Y-57440000D01*
X61071000Y-59520000D02*
X61071000Y-62330000D01*
X61071000Y-54630000D02*
X61071000Y-57440000D01*
X61031000Y-59520000D02*
X61031000Y-62343000D01*
X61031000Y-54617000D02*
X61031000Y-57440000D01*
X60991000Y-59520000D02*
X60991000Y-62357000D01*
X60991000Y-54603000D02*
X60991000Y-57440000D01*
X60951000Y-59520000D02*
X60951000Y-62369000D01*
X60951000Y-54591000D02*
X60951000Y-57440000D01*
X60911000Y-59520000D02*
X60911000Y-62382000D01*
X60911000Y-54578000D02*
X60911000Y-57440000D01*
X60871000Y-59520000D02*
X60871000Y-62394000D01*
X60871000Y-54566000D02*
X60871000Y-57440000D01*
X60831000Y-59520000D02*
X60831000Y-62405000D01*
X60831000Y-54555000D02*
X60831000Y-57440000D01*
X60791000Y-59520000D02*
X60791000Y-62416000D01*
X60791000Y-54544000D02*
X60791000Y-57440000D01*
X60751000Y-59520000D02*
X60751000Y-62427000D01*
X60751000Y-54533000D02*
X60751000Y-57440000D01*
X60711000Y-59520000D02*
X60711000Y-62437000D01*
X60711000Y-54523000D02*
X60711000Y-57440000D01*
X60671000Y-59520000D02*
X60671000Y-62447000D01*
X60671000Y-54513000D02*
X60671000Y-57440000D01*
X60631000Y-59520000D02*
X60631000Y-62456000D01*
X60631000Y-54504000D02*
X60631000Y-57440000D01*
X60591000Y-59520000D02*
X60591000Y-62465000D01*
X60591000Y-54495000D02*
X60591000Y-57440000D01*
X60551000Y-59520000D02*
X60551000Y-62474000D01*
X60551000Y-54486000D02*
X60551000Y-57440000D01*
X60511000Y-59520000D02*
X60511000Y-62482000D01*
X60511000Y-54478000D02*
X60511000Y-57440000D01*
X60471000Y-59520000D02*
X60471000Y-62490000D01*
X60471000Y-54470000D02*
X60471000Y-57440000D01*
X60431000Y-59520000D02*
X60431000Y-62497000D01*
X60431000Y-54463000D02*
X60431000Y-57440000D01*
X60390000Y-54456000D02*
X60390000Y-62504000D01*
X60350000Y-54450000D02*
X60350000Y-62510000D01*
X60310000Y-54443000D02*
X60310000Y-62517000D01*
X60270000Y-54438000D02*
X60270000Y-62522000D01*
X60230000Y-54432000D02*
X60230000Y-62528000D01*
X60190000Y-54428000D02*
X60190000Y-62532000D01*
X60150000Y-54423000D02*
X60150000Y-62537000D01*
X60110000Y-54419000D02*
X60110000Y-62541000D01*
X60070000Y-54415000D02*
X60070000Y-62545000D01*
X60030000Y-54412000D02*
X60030000Y-62548000D01*
X59990000Y-54409000D02*
X59990000Y-62551000D01*
X59950000Y-54406000D02*
X59950000Y-62554000D01*
X59910000Y-54404000D02*
X59910000Y-62556000D01*
X59870000Y-54403000D02*
X59870000Y-62557000D01*
X59830000Y-54401000D02*
X59830000Y-62559000D01*
X59790000Y-54400000D02*
X59790000Y-62560000D01*
X59750000Y-54400000D02*
X59750000Y-62560000D01*
X59710000Y-54400000D02*
X59710000Y-62560000D01*
X63830000Y-58480000D02*
G75*
G03X63830000Y-58480000I-4120000J0D01*
G01*
X63539698Y-52035000D02*
X63539698Y-51235000D01*
X63939698Y-51635000D02*
X63139698Y-51635000D01*
X55449000Y-49853000D02*
X55449000Y-48787000D01*
X55489000Y-50088000D02*
X55489000Y-48552000D01*
X55529000Y-50268000D02*
X55529000Y-48372000D01*
X55569000Y-50418000D02*
X55569000Y-48222000D01*
X55609000Y-50549000D02*
X55609000Y-48091000D01*
X55649000Y-50666000D02*
X55649000Y-47974000D01*
X55689000Y-50773000D02*
X55689000Y-47867000D01*
X55729000Y-50872000D02*
X55729000Y-47768000D01*
X55769000Y-50965000D02*
X55769000Y-47675000D01*
X55809000Y-51051000D02*
X55809000Y-47589000D01*
X55849000Y-51133000D02*
X55849000Y-47507000D01*
X55889000Y-51210000D02*
X55889000Y-47430000D01*
X55929000Y-51284000D02*
X55929000Y-47356000D01*
X55969000Y-51354000D02*
X55969000Y-47286000D01*
X56009000Y-51422000D02*
X56009000Y-47218000D01*
X56049000Y-51486000D02*
X56049000Y-47154000D01*
X56089000Y-51548000D02*
X56089000Y-47092000D01*
X56129000Y-51607000D02*
X56129000Y-47033000D01*
X56169000Y-51665000D02*
X56169000Y-46975000D01*
X56209000Y-51720000D02*
X56209000Y-46920000D01*
X56249000Y-51774000D02*
X56249000Y-46866000D01*
X56289000Y-51825000D02*
X56289000Y-46815000D01*
X56329000Y-51876000D02*
X56329000Y-46764000D01*
X56369000Y-51924000D02*
X56369000Y-46716000D01*
X56409000Y-51971000D02*
X56409000Y-46669000D01*
X56449000Y-52017000D02*
X56449000Y-46623000D01*
X56489000Y-52061000D02*
X56489000Y-46579000D01*
X56529000Y-52104000D02*
X56529000Y-46536000D01*
X56569000Y-52146000D02*
X56569000Y-46494000D01*
X56609000Y-52187000D02*
X56609000Y-46453000D01*
X56649000Y-52227000D02*
X56649000Y-46413000D01*
X56689000Y-52265000D02*
X56689000Y-46375000D01*
X56729000Y-52303000D02*
X56729000Y-46337000D01*
X56769000Y-48280000D02*
X56769000Y-46301000D01*
X56769000Y-52339000D02*
X56769000Y-50360000D01*
X56809000Y-48280000D02*
X56809000Y-46265000D01*
X56809000Y-52375000D02*
X56809000Y-50360000D01*
X56849000Y-48280000D02*
X56849000Y-46230000D01*
X56849000Y-52410000D02*
X56849000Y-50360000D01*
X56889000Y-48280000D02*
X56889000Y-46196000D01*
X56889000Y-52444000D02*
X56889000Y-50360000D01*
X56929000Y-48280000D02*
X56929000Y-46164000D01*
X56929000Y-52476000D02*
X56929000Y-50360000D01*
X56969000Y-48280000D02*
X56969000Y-46131000D01*
X56969000Y-52509000D02*
X56969000Y-50360000D01*
X57009000Y-48280000D02*
X57009000Y-46100000D01*
X57009000Y-52540000D02*
X57009000Y-50360000D01*
X57049000Y-48280000D02*
X57049000Y-46070000D01*
X57049000Y-52570000D02*
X57049000Y-50360000D01*
X57089000Y-48280000D02*
X57089000Y-46040000D01*
X57089000Y-52600000D02*
X57089000Y-50360000D01*
X57129000Y-48280000D02*
X57129000Y-46011000D01*
X57129000Y-52629000D02*
X57129000Y-50360000D01*
X57169000Y-48280000D02*
X57169000Y-45982000D01*
X57169000Y-52658000D02*
X57169000Y-50360000D01*
X57209000Y-48280000D02*
X57209000Y-45955000D01*
X57209000Y-52685000D02*
X57209000Y-50360000D01*
X57249000Y-48280000D02*
X57249000Y-45928000D01*
X57249000Y-52712000D02*
X57249000Y-50360000D01*
X57289000Y-48280000D02*
X57289000Y-45902000D01*
X57289000Y-52738000D02*
X57289000Y-50360000D01*
X57329000Y-48280000D02*
X57329000Y-45876000D01*
X57329000Y-52764000D02*
X57329000Y-50360000D01*
X57369000Y-48280000D02*
X57369000Y-45851000D01*
X57369000Y-52789000D02*
X57369000Y-50360000D01*
X57409000Y-48280000D02*
X57409000Y-45827000D01*
X57409000Y-52813000D02*
X57409000Y-50360000D01*
X57449000Y-48280000D02*
X57449000Y-45803000D01*
X57449000Y-52837000D02*
X57449000Y-50360000D01*
X57489000Y-48280000D02*
X57489000Y-45780000D01*
X57489000Y-52860000D02*
X57489000Y-50360000D01*
X57529000Y-48280000D02*
X57529000Y-45758000D01*
X57529000Y-52882000D02*
X57529000Y-50360000D01*
X57569000Y-48280000D02*
X57569000Y-45736000D01*
X57569000Y-52904000D02*
X57569000Y-50360000D01*
X57609000Y-48280000D02*
X57609000Y-45714000D01*
X57609000Y-52926000D02*
X57609000Y-50360000D01*
X57649000Y-48280000D02*
X57649000Y-45693000D01*
X57649000Y-52947000D02*
X57649000Y-50360000D01*
X57689000Y-48280000D02*
X57689000Y-45673000D01*
X57689000Y-52967000D02*
X57689000Y-50360000D01*
X57729000Y-48280000D02*
X57729000Y-45654000D01*
X57729000Y-52986000D02*
X57729000Y-50360000D01*
X57769000Y-48280000D02*
X57769000Y-45634000D01*
X57769000Y-53006000D02*
X57769000Y-50360000D01*
X57809000Y-48280000D02*
X57809000Y-45616000D01*
X57809000Y-53024000D02*
X57809000Y-50360000D01*
X57849000Y-48280000D02*
X57849000Y-45598000D01*
X57849000Y-53042000D02*
X57849000Y-50360000D01*
X57889000Y-48280000D02*
X57889000Y-45580000D01*
X57889000Y-53060000D02*
X57889000Y-50360000D01*
X57929000Y-48280000D02*
X57929000Y-45563000D01*
X57929000Y-53077000D02*
X57929000Y-50360000D01*
X57969000Y-48280000D02*
X57969000Y-45546000D01*
X57969000Y-53094000D02*
X57969000Y-50360000D01*
X58009000Y-48280000D02*
X58009000Y-45530000D01*
X58009000Y-53110000D02*
X58009000Y-50360000D01*
X58049000Y-48280000D02*
X58049000Y-45515000D01*
X58049000Y-53125000D02*
X58049000Y-50360000D01*
X58089000Y-48280000D02*
X58089000Y-45499000D01*
X58089000Y-53141000D02*
X58089000Y-50360000D01*
X58129000Y-48280000D02*
X58129000Y-45485000D01*
X58129000Y-53155000D02*
X58129000Y-50360000D01*
X58169000Y-48280000D02*
X58169000Y-45470000D01*
X58169000Y-53170000D02*
X58169000Y-50360000D01*
X58209000Y-48280000D02*
X58209000Y-45457000D01*
X58209000Y-53183000D02*
X58209000Y-50360000D01*
X58249000Y-48280000D02*
X58249000Y-45443000D01*
X58249000Y-53197000D02*
X58249000Y-50360000D01*
X58289000Y-48280000D02*
X58289000Y-45431000D01*
X58289000Y-53209000D02*
X58289000Y-50360000D01*
X58329000Y-48280000D02*
X58329000Y-45418000D01*
X58329000Y-53222000D02*
X58329000Y-50360000D01*
X58369000Y-48280000D02*
X58369000Y-45406000D01*
X58369000Y-53234000D02*
X58369000Y-50360000D01*
X58409000Y-48280000D02*
X58409000Y-45395000D01*
X58409000Y-53245000D02*
X58409000Y-50360000D01*
X58449000Y-48280000D02*
X58449000Y-45384000D01*
X58449000Y-53256000D02*
X58449000Y-50360000D01*
X58489000Y-48280000D02*
X58489000Y-45373000D01*
X58489000Y-53267000D02*
X58489000Y-50360000D01*
X58529000Y-48280000D02*
X58529000Y-45363000D01*
X58529000Y-53277000D02*
X58529000Y-50360000D01*
X58569000Y-48280000D02*
X58569000Y-45353000D01*
X58569000Y-53287000D02*
X58569000Y-50360000D01*
X58609000Y-48280000D02*
X58609000Y-45344000D01*
X58609000Y-53296000D02*
X58609000Y-50360000D01*
X58649000Y-48280000D02*
X58649000Y-45335000D01*
X58649000Y-53305000D02*
X58649000Y-50360000D01*
X58689000Y-48280000D02*
X58689000Y-45326000D01*
X58689000Y-53314000D02*
X58689000Y-50360000D01*
X58729000Y-48280000D02*
X58729000Y-45318000D01*
X58729000Y-53322000D02*
X58729000Y-50360000D01*
X58769000Y-48280000D02*
X58769000Y-45310000D01*
X58769000Y-53330000D02*
X58769000Y-50360000D01*
X58809000Y-48280000D02*
X58809000Y-45303000D01*
X58809000Y-53337000D02*
X58809000Y-50360000D01*
X58850000Y-53344000D02*
X58850000Y-45296000D01*
X58890000Y-53350000D02*
X58890000Y-45290000D01*
X58930000Y-53357000D02*
X58930000Y-45283000D01*
X58970000Y-53362000D02*
X58970000Y-45278000D01*
X59010000Y-53368000D02*
X59010000Y-45272000D01*
X59050000Y-53372000D02*
X59050000Y-45268000D01*
X59090000Y-53377000D02*
X59090000Y-45263000D01*
X59130000Y-53381000D02*
X59130000Y-45259000D01*
X59170000Y-53385000D02*
X59170000Y-45255000D01*
X59210000Y-53388000D02*
X59210000Y-45252000D01*
X59250000Y-53391000D02*
X59250000Y-45249000D01*
X59290000Y-53394000D02*
X59290000Y-45246000D01*
X59330000Y-53396000D02*
X59330000Y-45244000D01*
X59370000Y-53397000D02*
X59370000Y-45243000D01*
X59410000Y-53399000D02*
X59410000Y-45241000D01*
X59450000Y-53400000D02*
X59450000Y-45240000D01*
X59490000Y-53400000D02*
X59490000Y-45240000D01*
X59530000Y-53400000D02*
X59530000Y-45240000D01*
X63650000Y-49320000D02*
G75*
G03X63650000Y-49320000I-4120000J0D01*
G01*
X105870000Y-49080000D02*
X105870000Y-49236000D01*
X105870000Y-46764000D02*
X105870000Y-46920000D01*
X108471130Y-49079837D02*
G75*
G02X106389039Y-49080000I-1041130J1079837D01*
G01*
X108471130Y-46920163D02*
G75*
G03X106389039Y-46920000I-1041130J-1079837D01*
G01*
X109102335Y-49078608D02*
G75*
G02X105870000Y-49235516I-1672335J1078608D01*
G01*
X109102335Y-46921392D02*
G75*
G03X105870000Y-46764484I-1672335J-1078608D01*
G01*
X105870000Y-79080000D02*
X105870000Y-79236000D01*
X105870000Y-76764000D02*
X105870000Y-76920000D01*
X108471130Y-79079837D02*
G75*
G02X106389039Y-79080000I-1041130J1079837D01*
G01*
X108471130Y-76920163D02*
G75*
G03X106389039Y-76920000I-1041130J-1079837D01*
G01*
X109102335Y-79078608D02*
G75*
G02X105870000Y-79235516I-1672335J1078608D01*
G01*
X109102335Y-76921392D02*
G75*
G03X105870000Y-76764484I-1672335J-1078608D01*
G01*
X62710000Y-106580000D02*
X62710000Y-106736000D01*
X62710000Y-104264000D02*
X62710000Y-104420000D01*
X65311130Y-106579837D02*
G75*
G02X63229039Y-106580000I-1041130J1079837D01*
G01*
X65311130Y-104420163D02*
G75*
G03X63229039Y-104420000I-1041130J-1079837D01*
G01*
X65942335Y-106578608D02*
G75*
G02X62710000Y-106735516I-1672335J1078608D01*
G01*
X65942335Y-104421392D02*
G75*
G03X62710000Y-104264484I-1672335J-1078608D01*
G01*
X68550000Y-103130000D02*
X68550000Y-90870000D01*
X60450000Y-90870000D02*
X68550000Y-90870000D01*
X60450000Y-103130000D02*
X60450000Y-90870000D01*
X68550000Y-103130000D02*
X60450000Y-103130000D01*
X110050000Y-62630000D02*
X110050000Y-50370000D01*
X101950000Y-50370000D02*
X110050000Y-50370000D01*
X101950000Y-62630000D02*
X101950000Y-50370000D01*
X110050000Y-62630000D02*
X101950000Y-62630000D01*
X110050000Y-75630000D02*
X110050000Y-63370000D01*
X101950000Y-63370000D02*
X110050000Y-63370000D01*
X101950000Y-75630000D02*
X101950000Y-63370000D01*
X110050000Y-75630000D02*
X101950000Y-75630000D01*
X110050000Y-103130000D02*
X110050000Y-90870000D01*
X101950000Y-90870000D02*
X110050000Y-90870000D01*
X101950000Y-103130000D02*
X101950000Y-90870000D01*
X110050000Y-103130000D02*
X101950000Y-103130000D01*
X68550000Y-130130000D02*
X68550000Y-117870000D01*
X60450000Y-117870000D02*
X68550000Y-117870000D01*
X60450000Y-130130000D02*
X60450000Y-117870000D01*
X68550000Y-130130000D02*
X60450000Y-130130000D01*
X70680000Y-112600000D02*
X71450000Y-112600000D01*
X78760000Y-112600000D02*
X77990000Y-112600000D01*
X71450000Y-113970000D02*
X77990000Y-113970000D01*
X71450000Y-111230000D02*
X71450000Y-113970000D01*
X77990000Y-111230000D02*
X71450000Y-111230000D01*
X77990000Y-113970000D02*
X77990000Y-111230000D01*
X112650000Y-53630000D02*
X112650000Y-54400000D01*
X112650000Y-61710000D02*
X112650000Y-60940000D01*
X111280000Y-54400000D02*
X111280000Y-60940000D01*
X114020000Y-54400000D02*
X111280000Y-54400000D01*
X114020000Y-60940000D02*
X114020000Y-54400000D01*
X111280000Y-60940000D02*
X114020000Y-60940000D01*
X96750000Y-114630000D02*
X96750000Y-115400000D01*
X96750000Y-122710000D02*
X96750000Y-121940000D01*
X95380000Y-115400000D02*
X95380000Y-121940000D01*
X98120000Y-115400000D02*
X95380000Y-115400000D01*
X98120000Y-121940000D02*
X98120000Y-115400000D01*
X95380000Y-121940000D02*
X98120000Y-121940000D01*
X70680000Y-115800000D02*
X71450000Y-115800000D01*
X78760000Y-115800000D02*
X77990000Y-115800000D01*
X71450000Y-117170000D02*
X77990000Y-117170000D01*
X71450000Y-114430000D02*
X71450000Y-117170000D01*
X77990000Y-114430000D02*
X71450000Y-114430000D01*
X77990000Y-117170000D02*
X77990000Y-114430000D01*
X57000000Y-126380000D02*
X57000000Y-127150000D01*
X57000000Y-134460000D02*
X57000000Y-133690000D01*
X55630000Y-127150000D02*
X55630000Y-133690000D01*
X58370000Y-127150000D02*
X55630000Y-127150000D01*
X58370000Y-133690000D02*
X58370000Y-127150000D01*
X55630000Y-133690000D02*
X58370000Y-133690000D01*
X57000000Y-138880000D02*
X57000000Y-139650000D01*
X57000000Y-146960000D02*
X57000000Y-146190000D01*
X55630000Y-139650000D02*
X55630000Y-146190000D01*
X58370000Y-139650000D02*
X55630000Y-139650000D01*
X58370000Y-146190000D02*
X58370000Y-139650000D01*
X55630000Y-146190000D02*
X58370000Y-146190000D01*
X69630000Y-64680000D02*
X69630000Y-63910000D01*
X69630000Y-56600000D02*
X69630000Y-57370000D01*
X71000000Y-63910000D02*
X71000000Y-57370000D01*
X68260000Y-63910000D02*
X71000000Y-63910000D01*
X68260000Y-57370000D02*
X68260000Y-63910000D01*
X71000000Y-57370000D02*
X68260000Y-57370000D01*
X97380000Y-104500000D02*
X98150000Y-104500000D01*
X105460000Y-104500000D02*
X104690000Y-104500000D01*
X98150000Y-105870000D02*
X104690000Y-105870000D01*
X98150000Y-103130000D02*
X98150000Y-105870000D01*
X104690000Y-103130000D02*
X98150000Y-103130000D01*
X104690000Y-105870000D02*
X104690000Y-103130000D01*
X99520000Y-54500000D02*
X98750000Y-54500000D01*
X91440000Y-54500000D02*
X92210000Y-54500000D01*
X98750000Y-53130000D02*
X92210000Y-53130000D01*
X98750000Y-55870000D02*
X98750000Y-53130000D01*
X92210000Y-55870000D02*
X98750000Y-55870000D01*
X92210000Y-53130000D02*
X92210000Y-55870000D01*
X76500000Y-41000000D02*
X75000000Y-41000000D01*
X72500000Y-42250000D02*
X72500000Y-46750000D01*
X75000000Y-48000000D02*
X76500000Y-48000000D01*
X79000000Y-46750000D02*
X79000000Y-42250000D01*
X95500000Y-41000000D02*
X94000000Y-41000000D01*
X91500000Y-42250000D02*
X91500000Y-46750000D01*
X94000000Y-48000000D02*
X95500000Y-48000000D01*
X98000000Y-46750000D02*
X98000000Y-42250000D01*
X65000000Y-109250000D02*
X63500000Y-109250000D01*
X61000000Y-110500000D02*
X61000000Y-115000000D01*
X63500000Y-116250000D02*
X65000000Y-116250000D01*
X67500000Y-115000000D02*
X67500000Y-110500000D01*
X90250000Y-78850000D02*
X88750000Y-78850000D01*
X86250000Y-80100000D02*
X86250000Y-84600000D01*
X88750000Y-85850000D02*
X90250000Y-85850000D01*
X92750000Y-84600000D02*
X92750000Y-80100000D01*
X73500000Y-78850000D02*
X72000000Y-78850000D01*
X69500000Y-80100000D02*
X69500000Y-84600000D01*
X72000000Y-85850000D02*
X73500000Y-85850000D01*
X76000000Y-84600000D02*
X76000000Y-80100000D01*
X98500000Y-78850000D02*
X97000000Y-78850000D01*
X94500000Y-80100000D02*
X94500000Y-84600000D01*
X97000000Y-85850000D02*
X98500000Y-85850000D01*
X101000000Y-84600000D02*
X101000000Y-80100000D01*
D10*
X114375000Y-146550000D02*
G75*
G03X114375000Y-146550000I-1750000J0D01*
G01*
D11*
X105950000Y-125360000D02*
X95670000Y-125360000D01*
X105950000Y-143380000D02*
X105950000Y-125360000D01*
X95670000Y-143380000D02*
X105950000Y-143380000D01*
X95670000Y-125360000D02*
X95670000Y-143380000D01*
X103460000Y-125420000D02*
X101810000Y-125420000D01*
X103460000Y-143320000D02*
X103460000Y-125420000D01*
X98160000Y-143320000D02*
X103460000Y-143320000D01*
X98160000Y-125420000D02*
X98160000Y-143320000D01*
X99810000Y-125420000D02*
X98160000Y-125420000D01*
X101810000Y-125420000D02*
G75*
G02X99810000Y-125420000I-1000000J0D01*
G01*
X76820000Y-107630000D02*
X76820000Y-109870000D01*
X69580000Y-107630000D02*
X69580000Y-109870000D01*
X69580000Y-109870000D02*
X76820000Y-109870000D01*
X69580000Y-107630000D02*
X76820000Y-107630000D01*
X77120000Y-90880000D02*
X77120000Y-93120000D01*
X69880000Y-90880000D02*
X69880000Y-93120000D01*
X69880000Y-93120000D02*
X77120000Y-93120000D01*
X69880000Y-90880000D02*
X77120000Y-90880000D01*
X98580000Y-124920000D02*
X98580000Y-122680000D01*
X105820000Y-124920000D02*
X105820000Y-122680000D01*
X105820000Y-122680000D02*
X98580000Y-122680000D01*
X105820000Y-124920000D02*
X98580000Y-124920000D01*
X97130000Y-148620000D02*
X97130000Y-146380000D01*
X104370000Y-148620000D02*
X104370000Y-146380000D01*
X104370000Y-146380000D02*
X97130000Y-146380000D01*
X104370000Y-148620000D02*
X97130000Y-148620000D01*
X71680000Y-56170000D02*
X71680000Y-53930000D01*
X78920000Y-56170000D02*
X78920000Y-53930000D01*
X78920000Y-53930000D02*
X71680000Y-53930000D01*
X78920000Y-56170000D02*
X71680000Y-56170000D01*
X71680000Y-53570000D02*
X71680000Y-51330000D01*
X78920000Y-53570000D02*
X78920000Y-51330000D01*
X78920000Y-51330000D02*
X71680000Y-51330000D01*
X78920000Y-53570000D02*
X71680000Y-53570000D01*
D12*
X80140000Y-53000000D02*
X80640000Y-53000000D01*
X80140000Y-53000000D02*
X80140000Y-52500000D01*
X80140000Y-50000000D02*
X80640000Y-50000000D01*
X80140000Y-50000000D02*
X80140000Y-50500000D01*
D11*
X97380000Y-107900000D02*
X98150000Y-107900000D01*
X105460000Y-107900000D02*
X104690000Y-107900000D01*
X98150000Y-109270000D02*
X104690000Y-109270000D01*
X98150000Y-106530000D02*
X98150000Y-109270000D01*
X104690000Y-106530000D02*
X98150000Y-106530000D01*
X104690000Y-109270000D02*
X104690000Y-106530000D01*
D12*
X106800000Y-115650000D02*
X106500000Y-115800000D01*
X106800000Y-115350000D02*
X106800000Y-115650000D01*
X106800000Y-110950000D02*
X106800000Y-111250000D01*
X106800000Y-110950000D02*
X106500000Y-110800000D01*
D10*
X103650000Y-111350000D02*
G75*
G03X103600000Y-115200000I1900000J-1950000D01*
G01*
D11*
X86760000Y-113720000D02*
X86760000Y-113564000D01*
X86760000Y-116036000D02*
X86760000Y-115880000D01*
X84158870Y-113720163D02*
G75*
G02X86240961Y-113720000I1041130J-1079837D01*
G01*
X84158870Y-115879837D02*
G75*
G03X86240961Y-115880000I1041130J1079837D01*
G01*
X83527665Y-113721392D02*
G75*
G02X86760000Y-113564484I1672335J-1078608D01*
G01*
X83527665Y-115878608D02*
G75*
G03X86760000Y-116035516I1672335J1078608D01*
G01*
X84500000Y-146720000D02*
X84500000Y-145950000D01*
X84500000Y-138640000D02*
X84500000Y-139410000D01*
X85870000Y-145950000D02*
X85870000Y-139410000D01*
X83130000Y-145950000D02*
X85870000Y-145950000D01*
X83130000Y-139410000D02*
X83130000Y-145950000D01*
X85870000Y-139410000D02*
X83130000Y-139410000D01*
X90400000Y-113980000D02*
X90400000Y-114750000D01*
X90400000Y-122060000D02*
X90400000Y-121290000D01*
X89030000Y-114750000D02*
X89030000Y-121290000D01*
X91770000Y-114750000D02*
X89030000Y-114750000D01*
X91770000Y-121290000D02*
X91770000Y-114750000D01*
X89030000Y-121290000D02*
X91770000Y-121290000D01*
X83920000Y-121000000D02*
X83150000Y-121000000D01*
X75840000Y-121000000D02*
X76610000Y-121000000D01*
X83150000Y-119630000D02*
X76610000Y-119630000D01*
X83150000Y-122370000D02*
X83150000Y-119630000D01*
X76610000Y-122370000D02*
X83150000Y-122370000D01*
X76610000Y-119630000D02*
X76610000Y-122370000D01*
X75880000Y-125000000D02*
X76650000Y-125000000D01*
X83960000Y-125000000D02*
X83190000Y-125000000D01*
X76650000Y-126370000D02*
X83190000Y-126370000D01*
X76650000Y-123630000D02*
X76650000Y-126370000D01*
X83190000Y-123630000D02*
X76650000Y-123630000D01*
X83190000Y-126370000D02*
X83190000Y-123630000D01*
X90400000Y-126280000D02*
X90400000Y-127050000D01*
X90400000Y-134360000D02*
X90400000Y-133590000D01*
X89030000Y-127050000D02*
X89030000Y-133590000D01*
X91770000Y-127050000D02*
X89030000Y-127050000D01*
X91770000Y-133590000D02*
X91770000Y-127050000D01*
X89030000Y-133590000D02*
X91770000Y-133590000D01*
X81500000Y-138680000D02*
X81500000Y-139450000D01*
X81500000Y-146760000D02*
X81500000Y-145990000D01*
X80130000Y-139450000D02*
X80130000Y-145990000D01*
X82870000Y-139450000D02*
X80130000Y-139450000D01*
X82870000Y-145990000D02*
X82870000Y-139450000D01*
X80130000Y-145990000D02*
X82870000Y-145990000D01*
X78500000Y-146820000D02*
X78500000Y-146050000D01*
X78500000Y-138740000D02*
X78500000Y-139510000D01*
X79870000Y-146050000D02*
X79870000Y-139510000D01*
X77130000Y-146050000D02*
X79870000Y-146050000D01*
X77130000Y-139510000D02*
X77130000Y-146050000D01*
X79870000Y-139510000D02*
X77130000Y-139510000D01*
X86280000Y-119080000D02*
X88520000Y-119080000D01*
X86280000Y-126320000D02*
X88520000Y-126320000D01*
X88520000Y-126320000D02*
X88520000Y-119080000D01*
X86280000Y-126320000D02*
X86280000Y-119080000D01*
X75480000Y-126730000D02*
X77720000Y-126730000D01*
X75480000Y-133970000D02*
X77720000Y-133970000D01*
X77720000Y-133970000D02*
X77720000Y-126730000D01*
X75480000Y-133970000D02*
X75480000Y-126730000D01*
X92120000Y-107380000D02*
X92120000Y-109620000D01*
X84880000Y-107380000D02*
X84880000Y-109620000D01*
X84880000Y-109620000D02*
X92120000Y-109620000D01*
X84880000Y-107380000D02*
X92120000Y-107380000D01*
X77380000Y-109620000D02*
X77380000Y-107380000D01*
X84620000Y-109620000D02*
X84620000Y-107380000D01*
X84620000Y-107380000D02*
X77380000Y-107380000D01*
X84620000Y-109620000D02*
X77380000Y-109620000D01*
X98410000Y-51920000D02*
X98410000Y-49680000D01*
X98410000Y-49680000D02*
X94170000Y-49680000D01*
X94170000Y-49680000D02*
X94170000Y-51920000D01*
X94170000Y-51920000D02*
X98410000Y-51920000D01*
X99060000Y-50800000D02*
X98410000Y-50800000D01*
X93520000Y-50800000D02*
X94170000Y-50800000D01*
X97690000Y-51920000D02*
X97690000Y-49680000D01*
X97570000Y-51920000D02*
X97570000Y-49680000D01*
X97810000Y-51920000D02*
X97810000Y-49680000D01*
X97720000Y-93690000D02*
X95480000Y-93690000D01*
X95480000Y-93690000D02*
X95480000Y-97930000D01*
X95480000Y-97930000D02*
X97720000Y-97930000D01*
X97720000Y-97930000D02*
X97720000Y-93690000D01*
X96600000Y-93040000D02*
X96600000Y-93690000D01*
X96600000Y-98580000D02*
X96600000Y-97930000D01*
X97720000Y-94410000D02*
X95480000Y-94410000D01*
X97720000Y-94530000D02*
X95480000Y-94530000D01*
X97720000Y-94290000D02*
X95480000Y-94290000D01*
X73320000Y-124830000D02*
X73320000Y-129670000D01*
X71080000Y-124830000D02*
X71080000Y-129670000D01*
X73320000Y-124830000D02*
X71080000Y-124830000D01*
X73320000Y-129670000D02*
X71080000Y-129670000D01*
X98760000Y-67720000D02*
X98760000Y-65480000D01*
X98760000Y-65480000D02*
X94520000Y-65480000D01*
X94520000Y-65480000D02*
X94520000Y-67720000D01*
X94520000Y-67720000D02*
X98760000Y-67720000D01*
X99410000Y-66600000D02*
X98760000Y-66600000D01*
X93870000Y-66600000D02*
X94520000Y-66600000D01*
X98040000Y-67720000D02*
X98040000Y-65480000D01*
X97920000Y-67720000D02*
X97920000Y-65480000D01*
X98160000Y-67720000D02*
X98160000Y-65480000D01*
X98880000Y-97310000D02*
X101120000Y-97310000D01*
X98880000Y-97070000D02*
X101120000Y-97070000D01*
X98880000Y-97190000D02*
X101120000Y-97190000D01*
X100000000Y-93020000D02*
X100000000Y-93670000D01*
X100000000Y-98560000D02*
X100000000Y-97910000D01*
X98880000Y-93670000D02*
X98880000Y-97910000D01*
X101120000Y-93670000D02*
X98880000Y-93670000D01*
X101120000Y-97910000D02*
X101120000Y-93670000D01*
X98880000Y-97910000D02*
X101120000Y-97910000D01*
X88920000Y-139410000D02*
X86180000Y-139410000D01*
X86180000Y-139410000D02*
X86180000Y-145950000D01*
X86180000Y-145950000D02*
X88920000Y-145950000D01*
X88920000Y-145950000D02*
X88920000Y-139410000D01*
X87550000Y-138640000D02*
X87550000Y-139410000D01*
X87550000Y-146720000D02*
X87550000Y-145950000D01*
X78370000Y-90050000D02*
X78370000Y-87310000D01*
X78370000Y-87310000D02*
X71830000Y-87310000D01*
X71830000Y-87310000D02*
X71830000Y-90050000D01*
X71830000Y-90050000D02*
X78370000Y-90050000D01*
X79140000Y-88680000D02*
X78370000Y-88680000D01*
X71060000Y-88680000D02*
X71830000Y-88680000D01*
X77210000Y-56620000D02*
G75*
G02X75210000Y-56620000I-1000000J0D01*
G01*
X75210000Y-56620000D02*
X73560000Y-56620000D01*
X73560000Y-56620000D02*
X73560000Y-66900000D01*
X73560000Y-66900000D02*
X78860000Y-66900000D01*
X78860000Y-66900000D02*
X78860000Y-56620000D01*
X78860000Y-56620000D02*
X77210000Y-56620000D01*
X88580000Y-134210000D02*
X88580000Y-132560000D01*
X78300000Y-134210000D02*
X88580000Y-134210000D01*
X78300000Y-128910000D02*
X78300000Y-134210000D01*
X88580000Y-128910000D02*
X78300000Y-128910000D01*
X88580000Y-130560000D02*
X88580000Y-128910000D01*
X88580000Y-132560000D02*
G75*
G02X88580000Y-130560000I0J1000000D01*
G01*
D10*
X111400000Y-137550000D02*
G75*
G03X111350000Y-141400000I1900000J-1950000D01*
G01*
D12*
X114550000Y-137150000D02*
X114250000Y-137000000D01*
X114550000Y-137150000D02*
X114550000Y-137450000D01*
X114550000Y-141550000D02*
X114550000Y-141850000D01*
X114550000Y-141850000D02*
X114250000Y-142000000D01*
D11*
X111580000Y-132190000D02*
X114320000Y-132190000D01*
X114320000Y-132190000D02*
X114320000Y-125650000D01*
X114320000Y-125650000D02*
X111580000Y-125650000D01*
X111580000Y-125650000D02*
X111580000Y-132190000D01*
X112950000Y-132960000D02*
X112950000Y-132190000D01*
X112950000Y-124880000D02*
X112950000Y-125650000D01*
X112110000Y-119810000D02*
X114350000Y-119810000D01*
X114350000Y-119810000D02*
X114350000Y-115570000D01*
X114350000Y-115570000D02*
X112110000Y-115570000D01*
X112110000Y-115570000D02*
X112110000Y-119810000D01*
X113230000Y-120460000D02*
X113230000Y-119810000D01*
X113230000Y-114920000D02*
X113230000Y-115570000D01*
X112110000Y-119090000D02*
X114350000Y-119090000D01*
X112110000Y-118970000D02*
X114350000Y-118970000D01*
X112110000Y-119210000D02*
X114350000Y-119210000D01*
X99210000Y-146095000D02*
X99210000Y-143855000D01*
X98970000Y-146095000D02*
X98970000Y-143855000D01*
X99090000Y-146095000D02*
X99090000Y-143855000D01*
X94920000Y-144975000D02*
X95570000Y-144975000D01*
X100460000Y-144975000D02*
X99810000Y-144975000D01*
X95570000Y-146095000D02*
X99810000Y-146095000D01*
X95570000Y-143855000D02*
X95570000Y-146095000D01*
X99810000Y-143855000D02*
X95570000Y-143855000D01*
X99810000Y-146095000D02*
X99810000Y-143855000D01*
X67920000Y-61980000D02*
X65180000Y-61980000D01*
X65180000Y-61980000D02*
X65180000Y-68520000D01*
X65180000Y-68520000D02*
X67920000Y-68520000D01*
X67920000Y-68520000D02*
X67920000Y-61980000D01*
X66550000Y-61210000D02*
X66550000Y-61980000D01*
X66550000Y-69290000D02*
X66550000Y-68520000D01*
X57990000Y-108480000D02*
X57990000Y-115720000D01*
X55750000Y-108480000D02*
X55750000Y-115720000D01*
X57990000Y-108480000D02*
X55750000Y-108480000D01*
X57990000Y-115720000D02*
X55750000Y-115720000D01*
X56200000Y-95340000D02*
X58440000Y-95340000D01*
X56200000Y-102580000D02*
X58440000Y-102580000D01*
X58440000Y-102580000D02*
X58440000Y-95340000D01*
X56200000Y-102580000D02*
X56200000Y-95340000D01*
X60220000Y-107300000D02*
X60220000Y-103700000D01*
X60208478Y-107338478D02*
G75*
G02X55770000Y-105500000I-1838478J1838478D01*
G01*
X60208478Y-103661522D02*
G75*
G03X55770000Y-105500000I-1838478J-1838478D01*
G01*
D12*
X88960000Y-68710000D02*
X88660000Y-68860000D01*
X88960000Y-68410000D02*
X88960000Y-68710000D01*
X88960000Y-64010000D02*
X88960000Y-64310000D01*
X88960000Y-64010000D02*
X88660000Y-63860000D01*
D10*
X85810000Y-64410000D02*
G75*
G03X85760000Y-68260000I1900000J-1950000D01*
G01*
X85840000Y-55120000D02*
G75*
G03X85790000Y-58970000I1900000J-1950000D01*
G01*
D12*
X88990000Y-54720000D02*
X88690000Y-54570000D01*
X88990000Y-54720000D02*
X88990000Y-55020000D01*
X88990000Y-59120000D02*
X88990000Y-59420000D01*
X88990000Y-59420000D02*
X88690000Y-59570000D01*
D11*
X91450000Y-60700000D02*
X92220000Y-60700000D01*
X99530000Y-60700000D02*
X98760000Y-60700000D01*
X92220000Y-62070000D02*
X98760000Y-62070000D01*
X92220000Y-59330000D02*
X92220000Y-62070000D01*
X98760000Y-59330000D02*
X92220000Y-59330000D01*
X98760000Y-62070000D02*
X98760000Y-59330000D01*
X98710000Y-58940000D02*
X98710000Y-56200000D01*
X98710000Y-56200000D02*
X92170000Y-56200000D01*
X92170000Y-56200000D02*
X92170000Y-58940000D01*
X92170000Y-58940000D02*
X98710000Y-58940000D01*
X99480000Y-57570000D02*
X98710000Y-57570000D01*
X91400000Y-57570000D02*
X92170000Y-57570000D01*
X78000000Y-73640000D02*
X78000000Y-70900000D01*
X78000000Y-70900000D02*
X71460000Y-70900000D01*
X71460000Y-70900000D02*
X71460000Y-73640000D01*
X71460000Y-73640000D02*
X78000000Y-73640000D01*
X78770000Y-72270000D02*
X78000000Y-72270000D01*
X70690000Y-72270000D02*
X71460000Y-72270000D01*
X71420000Y-67300000D02*
X71420000Y-70040000D01*
X71420000Y-70040000D02*
X77960000Y-70040000D01*
X77960000Y-70040000D02*
X77960000Y-67300000D01*
X77960000Y-67300000D02*
X71420000Y-67300000D01*
X70650000Y-68670000D02*
X71420000Y-68670000D01*
X78730000Y-68670000D02*
X77960000Y-68670000D01*
X82850000Y-59550000D02*
X82850000Y-60320000D01*
X82850000Y-67630000D02*
X82850000Y-66860000D01*
X81480000Y-60320000D02*
X81480000Y-66860000D01*
X84220000Y-60320000D02*
X81480000Y-60320000D01*
X84220000Y-66860000D02*
X84220000Y-60320000D01*
X81480000Y-66860000D02*
X84220000Y-66860000D01*
X64150000Y-79500000D02*
X64150000Y-75260000D01*
X66890000Y-79500000D02*
X66890000Y-75260000D01*
X64150000Y-79500000D02*
X64855000Y-79500000D01*
X66185000Y-79500000D02*
X66890000Y-79500000D01*
X64150000Y-75260000D02*
X64855000Y-75260000D01*
X66185000Y-75260000D02*
X66890000Y-75260000D01*
X56410000Y-77300000D02*
X63650000Y-77300000D01*
X56410000Y-79540000D02*
X63650000Y-79540000D01*
X56410000Y-77300000D02*
X56410000Y-79540000D01*
X63650000Y-77300000D02*
X63650000Y-79540000D01*
X62360000Y-80180000D02*
G75*
G02X60360000Y-80180000I-1000000J0D01*
G01*
X60360000Y-80180000D02*
X59110000Y-80180000D01*
X59110000Y-80180000D02*
X59110000Y-90460000D01*
X59110000Y-90460000D02*
X63610000Y-90460000D01*
X63610000Y-90460000D02*
X63610000Y-80180000D01*
X63610000Y-80180000D02*
X62360000Y-80180000D01*
X56110000Y-80120000D02*
X56110000Y-90520000D01*
X56110000Y-90520000D02*
X66610000Y-90520000D01*
X66610000Y-90520000D02*
X66610000Y-80120000D01*
X66610000Y-80120000D02*
X56110000Y-80120000D01*
X68930000Y-144010000D02*
X68930000Y-146250000D01*
X68930000Y-146250000D02*
X73170000Y-146250000D01*
X73170000Y-146250000D02*
X73170000Y-144010000D01*
X73170000Y-144010000D02*
X68930000Y-144010000D01*
X68280000Y-145130000D02*
X68930000Y-145130000D01*
X73820000Y-145130000D02*
X73170000Y-145130000D01*
X69650000Y-144010000D02*
X69650000Y-146250000D01*
X69770000Y-144010000D02*
X69770000Y-146250000D01*
X69530000Y-144010000D02*
X69530000Y-146250000D01*
X72610000Y-148840000D02*
X72610000Y-146600000D01*
X72370000Y-148840000D02*
X72370000Y-146600000D01*
X72490000Y-148840000D02*
X72490000Y-146600000D01*
X68320000Y-147720000D02*
X68970000Y-147720000D01*
X73860000Y-147720000D02*
X73210000Y-147720000D01*
X68970000Y-148840000D02*
X73210000Y-148840000D01*
X68970000Y-146600000D02*
X68970000Y-148840000D01*
X73210000Y-146600000D02*
X68970000Y-146600000D01*
X73210000Y-148840000D02*
X73210000Y-146600000D01*
X77050000Y-97730000D02*
X74810000Y-97730000D01*
X74810000Y-97730000D02*
X74810000Y-101970000D01*
X74810000Y-101970000D02*
X77050000Y-101970000D01*
X77050000Y-101970000D02*
X77050000Y-97730000D01*
X75930000Y-97080000D02*
X75930000Y-97730000D01*
X75930000Y-102620000D02*
X75930000Y-101970000D01*
X77050000Y-98450000D02*
X74810000Y-98450000D01*
X77050000Y-98570000D02*
X74810000Y-98570000D01*
X77050000Y-98330000D02*
X74810000Y-98330000D01*
X73680000Y-107160000D02*
X73680000Y-104920000D01*
X73440000Y-107160000D02*
X73440000Y-104920000D01*
X73560000Y-107160000D02*
X73560000Y-104920000D01*
X69390000Y-106040000D02*
X70040000Y-106040000D01*
X74930000Y-106040000D02*
X74280000Y-106040000D01*
X70040000Y-107160000D02*
X74280000Y-107160000D01*
X70040000Y-104920000D02*
X70040000Y-107160000D01*
X74280000Y-104920000D02*
X70040000Y-104920000D01*
X74280000Y-107160000D02*
X74280000Y-104920000D01*
X114350000Y-105670000D02*
X112110000Y-105670000D01*
X112110000Y-105670000D02*
X112110000Y-109910000D01*
X112110000Y-109910000D02*
X114350000Y-109910000D01*
X114350000Y-109910000D02*
X114350000Y-105670000D01*
X113230000Y-105020000D02*
X113230000Y-105670000D01*
X113230000Y-110560000D02*
X113230000Y-109910000D01*
X114350000Y-106390000D02*
X112110000Y-106390000D01*
X114350000Y-106510000D02*
X112110000Y-106510000D01*
X114350000Y-106270000D02*
X112110000Y-106270000D01*
X96690000Y-87470000D02*
X96690000Y-90210000D01*
X96690000Y-90210000D02*
X103230000Y-90210000D01*
X103230000Y-90210000D02*
X103230000Y-87470000D01*
X103230000Y-87470000D02*
X96690000Y-87470000D01*
X95920000Y-88840000D02*
X96690000Y-88840000D01*
X104000000Y-88840000D02*
X103230000Y-88840000D01*
D10*
X63604761Y-137752380D02*
X63271428Y-137276190D01*
X63033333Y-137752380D02*
X63033333Y-136752380D01*
X63414285Y-136752380D01*
X63509523Y-136800000D01*
X63557142Y-136847619D01*
X63604761Y-136942857D01*
X63604761Y-137085714D01*
X63557142Y-137180952D01*
X63509523Y-137228571D01*
X63414285Y-137276190D01*
X63033333Y-137276190D01*
X63890476Y-136752380D02*
X64223809Y-137752380D01*
X64557142Y-136752380D01*
X65414285Y-137752380D02*
X64842857Y-137752380D01*
X65128571Y-137752380D02*
X65128571Y-136752380D01*
X65033333Y-136895238D01*
X64938095Y-136990476D01*
X64842857Y-137038095D01*
X79666666Y-82454761D02*
X79809523Y-82502380D01*
X80047619Y-82502380D01*
X80142857Y-82454761D01*
X80190476Y-82407142D01*
X80238095Y-82311904D01*
X80238095Y-82216666D01*
X80190476Y-82121428D01*
X80142857Y-82073809D01*
X80047619Y-82026190D01*
X79857142Y-81978571D01*
X79761904Y-81930952D01*
X79714285Y-81883333D01*
X79666666Y-81788095D01*
X79666666Y-81692857D01*
X79714285Y-81597619D01*
X79761904Y-81550000D01*
X79857142Y-81502380D01*
X80095238Y-81502380D01*
X80238095Y-81550000D01*
X80571428Y-81502380D02*
X80809523Y-82502380D01*
X81000000Y-81788095D01*
X81190476Y-82502380D01*
X81428571Y-81502380D01*
X81714285Y-81502380D02*
X82380952Y-81502380D01*
X81952380Y-82502380D01*
X95257142Y-64452380D02*
X94923809Y-63976190D01*
X94685714Y-64452380D02*
X94685714Y-63452380D01*
X95066666Y-63452380D01*
X95161904Y-63500000D01*
X95209523Y-63547619D01*
X95257142Y-63642857D01*
X95257142Y-63785714D01*
X95209523Y-63880952D01*
X95161904Y-63928571D01*
X95066666Y-63976190D01*
X94685714Y-63976190D01*
X95638095Y-63547619D02*
X95685714Y-63500000D01*
X95780952Y-63452380D01*
X96019047Y-63452380D01*
X96114285Y-63500000D01*
X96161904Y-63547619D01*
X96209523Y-63642857D01*
X96209523Y-63738095D01*
X96161904Y-63880952D01*
X95590476Y-64452380D01*
X96209523Y-64452380D01*
X96828571Y-63452380D02*
X96923809Y-63452380D01*
X97019047Y-63500000D01*
X97066666Y-63547619D01*
X97114285Y-63642857D01*
X97161904Y-63833333D01*
X97161904Y-64071428D01*
X97114285Y-64261904D01*
X97066666Y-64357142D01*
X97019047Y-64404761D01*
X96923809Y-64452380D01*
X96828571Y-64452380D01*
X96733333Y-64404761D01*
X96685714Y-64357142D01*
X96638095Y-64261904D01*
X96590476Y-64071428D01*
X96590476Y-63833333D01*
X96638095Y-63642857D01*
X96685714Y-63547619D01*
X96733333Y-63500000D01*
X96828571Y-63452380D01*
X84866666Y-98904761D02*
X85009523Y-98952380D01*
X85247619Y-98952380D01*
X85342857Y-98904761D01*
X85390476Y-98857142D01*
X85438095Y-98761904D01*
X85438095Y-98666666D01*
X85390476Y-98571428D01*
X85342857Y-98523809D01*
X85247619Y-98476190D01*
X85057142Y-98428571D01*
X84961904Y-98380952D01*
X84914285Y-98333333D01*
X84866666Y-98238095D01*
X84866666Y-98142857D01*
X84914285Y-98047619D01*
X84961904Y-98000000D01*
X85057142Y-97952380D01*
X85295238Y-97952380D01*
X85438095Y-98000000D01*
X85771428Y-97952380D02*
X86009523Y-98952380D01*
X86200000Y-98238095D01*
X86390476Y-98952380D01*
X86628571Y-97952380D01*
X87533333Y-98952380D02*
X86961904Y-98952380D01*
X87247619Y-98952380D02*
X87247619Y-97952380D01*
X87152380Y-98095238D01*
X87057142Y-98190476D01*
X86961904Y-98238095D01*
X58043333Y-56537142D02*
X57995714Y-56584761D01*
X57852857Y-56632380D01*
X57757619Y-56632380D01*
X57614761Y-56584761D01*
X57519523Y-56489523D01*
X57471904Y-56394285D01*
X57424285Y-56203809D01*
X57424285Y-56060952D01*
X57471904Y-55870476D01*
X57519523Y-55775238D01*
X57614761Y-55680000D01*
X57757619Y-55632380D01*
X57852857Y-55632380D01*
X57995714Y-55680000D01*
X58043333Y-55727619D01*
X58900476Y-55965714D02*
X58900476Y-56632380D01*
X58662380Y-55584761D02*
X58424285Y-56299047D01*
X59043333Y-56299047D01*
X60863333Y-47327142D02*
X60815714Y-47374761D01*
X60672857Y-47422380D01*
X60577619Y-47422380D01*
X60434761Y-47374761D01*
X60339523Y-47279523D01*
X60291904Y-47184285D01*
X60244285Y-46993809D01*
X60244285Y-46850952D01*
X60291904Y-46660476D01*
X60339523Y-46565238D01*
X60434761Y-46470000D01*
X60577619Y-46422380D01*
X60672857Y-46422380D01*
X60815714Y-46470000D01*
X60863333Y-46517619D01*
X61196666Y-46422380D02*
X61815714Y-46422380D01*
X61482380Y-46803333D01*
X61625238Y-46803333D01*
X61720476Y-46850952D01*
X61768095Y-46898571D01*
X61815714Y-46993809D01*
X61815714Y-47231904D01*
X61768095Y-47327142D01*
X61720476Y-47374761D01*
X61625238Y-47422380D01*
X61339523Y-47422380D01*
X61244285Y-47374761D01*
X61196666Y-47327142D01*
X110171904Y-49702380D02*
X110171904Y-48702380D01*
X110410000Y-48702380D01*
X110552857Y-48750000D01*
X110648095Y-48845238D01*
X110695714Y-48940476D01*
X110743333Y-49130952D01*
X110743333Y-49273809D01*
X110695714Y-49464285D01*
X110648095Y-49559523D01*
X110552857Y-49654761D01*
X110410000Y-49702380D01*
X110171904Y-49702380D01*
X111076666Y-48702380D02*
X111695714Y-48702380D01*
X111362380Y-49083333D01*
X111505238Y-49083333D01*
X111600476Y-49130952D01*
X111648095Y-49178571D01*
X111695714Y-49273809D01*
X111695714Y-49511904D01*
X111648095Y-49607142D01*
X111600476Y-49654761D01*
X111505238Y-49702380D01*
X111219523Y-49702380D01*
X111124285Y-49654761D01*
X111076666Y-49607142D01*
X103571904Y-76732380D02*
X103571904Y-75732380D01*
X103810000Y-75732380D01*
X103952857Y-75780000D01*
X104048095Y-75875238D01*
X104095714Y-75970476D01*
X104143333Y-76160952D01*
X104143333Y-76303809D01*
X104095714Y-76494285D01*
X104048095Y-76589523D01*
X103952857Y-76684761D01*
X103810000Y-76732380D01*
X103571904Y-76732380D01*
X105000476Y-76065714D02*
X105000476Y-76732380D01*
X104762380Y-75684761D02*
X104524285Y-76399047D01*
X105143333Y-76399047D01*
X66911904Y-104532380D02*
X66911904Y-103532380D01*
X67150000Y-103532380D01*
X67292857Y-103580000D01*
X67388095Y-103675238D01*
X67435714Y-103770476D01*
X67483333Y-103960952D01*
X67483333Y-104103809D01*
X67435714Y-104294285D01*
X67388095Y-104389523D01*
X67292857Y-104484761D01*
X67150000Y-104532380D01*
X66911904Y-104532380D01*
X68388095Y-103532380D02*
X67911904Y-103532380D01*
X67864285Y-104008571D01*
X67911904Y-103960952D01*
X68007142Y-103913333D01*
X68245238Y-103913333D01*
X68340476Y-103960952D01*
X68388095Y-104008571D01*
X68435714Y-104103809D01*
X68435714Y-104341904D01*
X68388095Y-104437142D01*
X68340476Y-104484761D01*
X68245238Y-104532380D01*
X68007142Y-104532380D01*
X67911904Y-104484761D01*
X67864285Y-104437142D01*
X64252380Y-97433333D02*
X64966666Y-97433333D01*
X65109523Y-97480952D01*
X65204761Y-97576190D01*
X65252380Y-97719047D01*
X65252380Y-97814285D01*
X65252380Y-96433333D02*
X65252380Y-97004761D01*
X65252380Y-96719047D02*
X64252380Y-96719047D01*
X64395238Y-96814285D01*
X64490476Y-96909523D01*
X64538095Y-97004761D01*
X105652380Y-56833333D02*
X106366666Y-56833333D01*
X106509523Y-56880952D01*
X106604761Y-56976190D01*
X106652380Y-57119047D01*
X106652380Y-57214285D01*
X105652380Y-56452380D02*
X105652380Y-55833333D01*
X106033333Y-56166666D01*
X106033333Y-56023809D01*
X106080952Y-55928571D01*
X106128571Y-55880952D01*
X106223809Y-55833333D01*
X106461904Y-55833333D01*
X106557142Y-55880952D01*
X106604761Y-55928571D01*
X106652380Y-56023809D01*
X106652380Y-56309523D01*
X106604761Y-56404761D01*
X106557142Y-56452380D01*
X106052380Y-68433333D02*
X106766666Y-68433333D01*
X106909523Y-68480952D01*
X107004761Y-68576190D01*
X107052380Y-68719047D01*
X107052380Y-68814285D01*
X106385714Y-67528571D02*
X107052380Y-67528571D01*
X106004761Y-67766666D02*
X106719047Y-68004761D01*
X106719047Y-67385714D01*
X106052380Y-96033333D02*
X106766666Y-96033333D01*
X106909523Y-96080952D01*
X107004761Y-96176190D01*
X107052380Y-96319047D01*
X107052380Y-96414285D01*
X106052380Y-95080952D02*
X106052380Y-95557142D01*
X106528571Y-95604761D01*
X106480952Y-95557142D01*
X106433333Y-95461904D01*
X106433333Y-95223809D01*
X106480952Y-95128571D01*
X106528571Y-95080952D01*
X106623809Y-95033333D01*
X106861904Y-95033333D01*
X106957142Y-95080952D01*
X107004761Y-95128571D01*
X107052380Y-95223809D01*
X107052380Y-95461904D01*
X107004761Y-95557142D01*
X106957142Y-95604761D01*
X64452380Y-124333333D02*
X65166666Y-124333333D01*
X65309523Y-124380952D01*
X65404761Y-124476190D01*
X65452380Y-124619047D01*
X65452380Y-124714285D01*
X64452380Y-123428571D02*
X64452380Y-123619047D01*
X64500000Y-123714285D01*
X64547619Y-123761904D01*
X64690476Y-123857142D01*
X64880952Y-123904761D01*
X65261904Y-123904761D01*
X65357142Y-123857142D01*
X65404761Y-123809523D01*
X65452380Y-123714285D01*
X65452380Y-123523809D01*
X65404761Y-123428571D01*
X65357142Y-123380952D01*
X65261904Y-123333333D01*
X65023809Y-123333333D01*
X64928571Y-123380952D01*
X64880952Y-123428571D01*
X64833333Y-123523809D01*
X64833333Y-123714285D01*
X64880952Y-123809523D01*
X64928571Y-123857142D01*
X65023809Y-123904761D01*
X74183333Y-113102380D02*
X73850000Y-112626190D01*
X73611904Y-113102380D02*
X73611904Y-112102380D01*
X73992857Y-112102380D01*
X74088095Y-112150000D01*
X74135714Y-112197619D01*
X74183333Y-112292857D01*
X74183333Y-112435714D01*
X74135714Y-112530952D01*
X74088095Y-112578571D01*
X73992857Y-112626190D01*
X73611904Y-112626190D01*
X75135714Y-113102380D02*
X74564285Y-113102380D01*
X74850000Y-113102380D02*
X74850000Y-112102380D01*
X74754761Y-112245238D01*
X74659523Y-112340476D01*
X74564285Y-112388095D01*
X113252380Y-57616666D02*
X112776190Y-57950000D01*
X113252380Y-58188095D02*
X112252380Y-58188095D01*
X112252380Y-57807142D01*
X112300000Y-57711904D01*
X112347619Y-57664285D01*
X112442857Y-57616666D01*
X112585714Y-57616666D01*
X112680952Y-57664285D01*
X112728571Y-57711904D01*
X112776190Y-57807142D01*
X112776190Y-58188095D01*
X112347619Y-57235714D02*
X112300000Y-57188095D01*
X112252380Y-57092857D01*
X112252380Y-56854761D01*
X112300000Y-56759523D01*
X112347619Y-56711904D01*
X112442857Y-56664285D01*
X112538095Y-56664285D01*
X112680952Y-56711904D01*
X113252380Y-57283333D01*
X113252380Y-56664285D01*
X97252380Y-118866666D02*
X96776190Y-119200000D01*
X97252380Y-119438095D02*
X96252380Y-119438095D01*
X96252380Y-119057142D01*
X96300000Y-118961904D01*
X96347619Y-118914285D01*
X96442857Y-118866666D01*
X96585714Y-118866666D01*
X96680952Y-118914285D01*
X96728571Y-118961904D01*
X96776190Y-119057142D01*
X96776190Y-119438095D01*
X96252380Y-118533333D02*
X96252380Y-117914285D01*
X96633333Y-118247619D01*
X96633333Y-118104761D01*
X96680952Y-118009523D01*
X96728571Y-117961904D01*
X96823809Y-117914285D01*
X97061904Y-117914285D01*
X97157142Y-117961904D01*
X97204761Y-118009523D01*
X97252380Y-118104761D01*
X97252380Y-118390476D01*
X97204761Y-118485714D01*
X97157142Y-118533333D01*
X74533333Y-116302380D02*
X74200000Y-115826190D01*
X73961904Y-116302380D02*
X73961904Y-115302380D01*
X74342857Y-115302380D01*
X74438095Y-115350000D01*
X74485714Y-115397619D01*
X74533333Y-115492857D01*
X74533333Y-115635714D01*
X74485714Y-115730952D01*
X74438095Y-115778571D01*
X74342857Y-115826190D01*
X73961904Y-115826190D01*
X75390476Y-115635714D02*
X75390476Y-116302380D01*
X75152380Y-115254761D02*
X74914285Y-115969047D01*
X75533333Y-115969047D01*
X57352380Y-130516666D02*
X56876190Y-130850000D01*
X57352380Y-131088095D02*
X56352380Y-131088095D01*
X56352380Y-130707142D01*
X56400000Y-130611904D01*
X56447619Y-130564285D01*
X56542857Y-130516666D01*
X56685714Y-130516666D01*
X56780952Y-130564285D01*
X56828571Y-130611904D01*
X56876190Y-130707142D01*
X56876190Y-131088095D01*
X56352380Y-130183333D02*
X56352380Y-129516666D01*
X57352380Y-129945238D01*
X57502380Y-143266666D02*
X57026190Y-143600000D01*
X57502380Y-143838095D02*
X56502380Y-143838095D01*
X56502380Y-143457142D01*
X56550000Y-143361904D01*
X56597619Y-143314285D01*
X56692857Y-143266666D01*
X56835714Y-143266666D01*
X56930952Y-143314285D01*
X56978571Y-143361904D01*
X57026190Y-143457142D01*
X57026190Y-143838095D01*
X57502380Y-142790476D02*
X57502380Y-142600000D01*
X57454761Y-142504761D01*
X57407142Y-142457142D01*
X57264285Y-142361904D01*
X57073809Y-142314285D01*
X56692857Y-142314285D01*
X56597619Y-142361904D01*
X56550000Y-142409523D01*
X56502380Y-142504761D01*
X56502380Y-142695238D01*
X56550000Y-142790476D01*
X56597619Y-142838095D01*
X56692857Y-142885714D01*
X56930952Y-142885714D01*
X57026190Y-142838095D01*
X57073809Y-142790476D01*
X57121428Y-142695238D01*
X57121428Y-142504761D01*
X57073809Y-142409523D01*
X57026190Y-142361904D01*
X56930952Y-142314285D01*
X70082380Y-61302857D02*
X69606190Y-61636190D01*
X70082380Y-61874285D02*
X69082380Y-61874285D01*
X69082380Y-61493333D01*
X69130000Y-61398095D01*
X69177619Y-61350476D01*
X69272857Y-61302857D01*
X69415714Y-61302857D01*
X69510952Y-61350476D01*
X69558571Y-61398095D01*
X69606190Y-61493333D01*
X69606190Y-61874285D01*
X70082380Y-60350476D02*
X70082380Y-60921904D01*
X70082380Y-60636190D02*
X69082380Y-60636190D01*
X69225238Y-60731428D01*
X69320476Y-60826666D01*
X69368095Y-60921904D01*
X69082380Y-60017142D02*
X69082380Y-59350476D01*
X70082380Y-59779047D01*
X100777142Y-104752380D02*
X100443809Y-104276190D01*
X100205714Y-104752380D02*
X100205714Y-103752380D01*
X100586666Y-103752380D01*
X100681904Y-103800000D01*
X100729523Y-103847619D01*
X100777142Y-103942857D01*
X100777142Y-104085714D01*
X100729523Y-104180952D01*
X100681904Y-104228571D01*
X100586666Y-104276190D01*
X100205714Y-104276190D01*
X101729523Y-104752380D02*
X101158095Y-104752380D01*
X101443809Y-104752380D02*
X101443809Y-103752380D01*
X101348571Y-103895238D01*
X101253333Y-103990476D01*
X101158095Y-104038095D01*
X102300952Y-104180952D02*
X102205714Y-104133333D01*
X102158095Y-104085714D01*
X102110476Y-103990476D01*
X102110476Y-103942857D01*
X102158095Y-103847619D01*
X102205714Y-103800000D01*
X102300952Y-103752380D01*
X102491428Y-103752380D01*
X102586666Y-103800000D01*
X102634285Y-103847619D01*
X102681904Y-103942857D01*
X102681904Y-103990476D01*
X102634285Y-104085714D01*
X102586666Y-104133333D01*
X102491428Y-104180952D01*
X102300952Y-104180952D01*
X102205714Y-104228571D01*
X102158095Y-104276190D01*
X102110476Y-104371428D01*
X102110476Y-104561904D01*
X102158095Y-104657142D01*
X102205714Y-104704761D01*
X102300952Y-104752380D01*
X102491428Y-104752380D01*
X102586666Y-104704761D01*
X102634285Y-104657142D01*
X102681904Y-104561904D01*
X102681904Y-104371428D01*
X102634285Y-104276190D01*
X102586666Y-104228571D01*
X102491428Y-104180952D01*
X95357142Y-55252380D02*
X95023809Y-54776190D01*
X94785714Y-55252380D02*
X94785714Y-54252380D01*
X95166666Y-54252380D01*
X95261904Y-54300000D01*
X95309523Y-54347619D01*
X95357142Y-54442857D01*
X95357142Y-54585714D01*
X95309523Y-54680952D01*
X95261904Y-54728571D01*
X95166666Y-54776190D01*
X94785714Y-54776190D01*
X96309523Y-55252380D02*
X95738095Y-55252380D01*
X96023809Y-55252380D02*
X96023809Y-54252380D01*
X95928571Y-54395238D01*
X95833333Y-54490476D01*
X95738095Y-54538095D01*
X96785714Y-55252380D02*
X96976190Y-55252380D01*
X97071428Y-55204761D01*
X97119047Y-55157142D01*
X97214285Y-55014285D01*
X97261904Y-54823809D01*
X97261904Y-54442857D01*
X97214285Y-54347619D01*
X97166666Y-54300000D01*
X97071428Y-54252380D01*
X96880952Y-54252380D01*
X96785714Y-54300000D01*
X96738095Y-54347619D01*
X96690476Y-54442857D01*
X96690476Y-54680952D01*
X96738095Y-54776190D01*
X96785714Y-54823809D01*
X96880952Y-54871428D01*
X97071428Y-54871428D01*
X97166666Y-54823809D01*
X97214285Y-54776190D01*
X97261904Y-54680952D01*
X74416666Y-44854761D02*
X74559523Y-44902380D01*
X74797619Y-44902380D01*
X74892857Y-44854761D01*
X74940476Y-44807142D01*
X74988095Y-44711904D01*
X74988095Y-44616666D01*
X74940476Y-44521428D01*
X74892857Y-44473809D01*
X74797619Y-44426190D01*
X74607142Y-44378571D01*
X74511904Y-44330952D01*
X74464285Y-44283333D01*
X74416666Y-44188095D01*
X74416666Y-44092857D01*
X74464285Y-43997619D01*
X74511904Y-43950000D01*
X74607142Y-43902380D01*
X74845238Y-43902380D01*
X74988095Y-43950000D01*
X75321428Y-43902380D02*
X75559523Y-44902380D01*
X75750000Y-44188095D01*
X75940476Y-44902380D01*
X76178571Y-43902380D01*
X76511904Y-43997619D02*
X76559523Y-43950000D01*
X76654761Y-43902380D01*
X76892857Y-43902380D01*
X76988095Y-43950000D01*
X77035714Y-43997619D01*
X77083333Y-44092857D01*
X77083333Y-44188095D01*
X77035714Y-44330952D01*
X76464285Y-44902380D01*
X77083333Y-44902380D01*
X93266666Y-43054761D02*
X93409523Y-43102380D01*
X93647619Y-43102380D01*
X93742857Y-43054761D01*
X93790476Y-43007142D01*
X93838095Y-42911904D01*
X93838095Y-42816666D01*
X93790476Y-42721428D01*
X93742857Y-42673809D01*
X93647619Y-42626190D01*
X93457142Y-42578571D01*
X93361904Y-42530952D01*
X93314285Y-42483333D01*
X93266666Y-42388095D01*
X93266666Y-42292857D01*
X93314285Y-42197619D01*
X93361904Y-42150000D01*
X93457142Y-42102380D01*
X93695238Y-42102380D01*
X93838095Y-42150000D01*
X94171428Y-42102380D02*
X94409523Y-43102380D01*
X94600000Y-42388095D01*
X94790476Y-43102380D01*
X95028571Y-42102380D01*
X95314285Y-42102380D02*
X95933333Y-42102380D01*
X95600000Y-42483333D01*
X95742857Y-42483333D01*
X95838095Y-42530952D01*
X95885714Y-42578571D01*
X95933333Y-42673809D01*
X95933333Y-42911904D01*
X95885714Y-43007142D01*
X95838095Y-43054761D01*
X95742857Y-43102380D01*
X95457142Y-43102380D01*
X95361904Y-43054761D01*
X95314285Y-43007142D01*
X64604761Y-113833333D02*
X64652380Y-113690476D01*
X64652380Y-113452380D01*
X64604761Y-113357142D01*
X64557142Y-113309523D01*
X64461904Y-113261904D01*
X64366666Y-113261904D01*
X64271428Y-113309523D01*
X64223809Y-113357142D01*
X64176190Y-113452380D01*
X64128571Y-113642857D01*
X64080952Y-113738095D01*
X64033333Y-113785714D01*
X63938095Y-113833333D01*
X63842857Y-113833333D01*
X63747619Y-113785714D01*
X63700000Y-113738095D01*
X63652380Y-113642857D01*
X63652380Y-113404761D01*
X63700000Y-113261904D01*
X63652380Y-112928571D02*
X64652380Y-112690476D01*
X63938095Y-112500000D01*
X64652380Y-112309523D01*
X63652380Y-112071428D01*
X63985714Y-111261904D02*
X64652380Y-111261904D01*
X63604761Y-111500000D02*
X64319047Y-111738095D01*
X64319047Y-111119047D01*
X87866666Y-82454761D02*
X88009523Y-82502380D01*
X88247619Y-82502380D01*
X88342857Y-82454761D01*
X88390476Y-82407142D01*
X88438095Y-82311904D01*
X88438095Y-82216666D01*
X88390476Y-82121428D01*
X88342857Y-82073809D01*
X88247619Y-82026190D01*
X88057142Y-81978571D01*
X87961904Y-81930952D01*
X87914285Y-81883333D01*
X87866666Y-81788095D01*
X87866666Y-81692857D01*
X87914285Y-81597619D01*
X87961904Y-81550000D01*
X88057142Y-81502380D01*
X88295238Y-81502380D01*
X88438095Y-81550000D01*
X88771428Y-81502380D02*
X89009523Y-82502380D01*
X89200000Y-81788095D01*
X89390476Y-82502380D01*
X89628571Y-81502380D01*
X90485714Y-81502380D02*
X90009523Y-81502380D01*
X89961904Y-81978571D01*
X90009523Y-81930952D01*
X90104761Y-81883333D01*
X90342857Y-81883333D01*
X90438095Y-81930952D01*
X90485714Y-81978571D01*
X90533333Y-82073809D01*
X90533333Y-82311904D01*
X90485714Y-82407142D01*
X90438095Y-82454761D01*
X90342857Y-82502380D01*
X90104761Y-82502380D01*
X90009523Y-82454761D01*
X89961904Y-82407142D01*
X71466666Y-82454761D02*
X71609523Y-82502380D01*
X71847619Y-82502380D01*
X71942857Y-82454761D01*
X71990476Y-82407142D01*
X72038095Y-82311904D01*
X72038095Y-82216666D01*
X71990476Y-82121428D01*
X71942857Y-82073809D01*
X71847619Y-82026190D01*
X71657142Y-81978571D01*
X71561904Y-81930952D01*
X71514285Y-81883333D01*
X71466666Y-81788095D01*
X71466666Y-81692857D01*
X71514285Y-81597619D01*
X71561904Y-81550000D01*
X71657142Y-81502380D01*
X71895238Y-81502380D01*
X72038095Y-81550000D01*
X72371428Y-81502380D02*
X72609523Y-82502380D01*
X72800000Y-81788095D01*
X72990476Y-82502380D01*
X73228571Y-81502380D01*
X74038095Y-81502380D02*
X73847619Y-81502380D01*
X73752380Y-81550000D01*
X73704761Y-81597619D01*
X73609523Y-81740476D01*
X73561904Y-81930952D01*
X73561904Y-82311904D01*
X73609523Y-82407142D01*
X73657142Y-82454761D01*
X73752380Y-82502380D01*
X73942857Y-82502380D01*
X74038095Y-82454761D01*
X74085714Y-82407142D01*
X74133333Y-82311904D01*
X74133333Y-82073809D01*
X74085714Y-81978571D01*
X74038095Y-81930952D01*
X73942857Y-81883333D01*
X73752380Y-81883333D01*
X73657142Y-81930952D01*
X73609523Y-81978571D01*
X73561904Y-82073809D01*
X95466666Y-82454761D02*
X95609523Y-82502380D01*
X95847619Y-82502380D01*
X95942857Y-82454761D01*
X95990476Y-82407142D01*
X96038095Y-82311904D01*
X96038095Y-82216666D01*
X95990476Y-82121428D01*
X95942857Y-82073809D01*
X95847619Y-82026190D01*
X95657142Y-81978571D01*
X95561904Y-81930952D01*
X95514285Y-81883333D01*
X95466666Y-81788095D01*
X95466666Y-81692857D01*
X95514285Y-81597619D01*
X95561904Y-81550000D01*
X95657142Y-81502380D01*
X95895238Y-81502380D01*
X96038095Y-81550000D01*
X96371428Y-81502380D02*
X96609523Y-82502380D01*
X96800000Y-81788095D01*
X96990476Y-82502380D01*
X97228571Y-81502380D01*
X97752380Y-81930952D02*
X97657142Y-81883333D01*
X97609523Y-81835714D01*
X97561904Y-81740476D01*
X97561904Y-81692857D01*
X97609523Y-81597619D01*
X97657142Y-81550000D01*
X97752380Y-81502380D01*
X97942857Y-81502380D01*
X98038095Y-81550000D01*
X98085714Y-81597619D01*
X98133333Y-81692857D01*
X98133333Y-81740476D01*
X98085714Y-81835714D01*
X98038095Y-81883333D01*
X97942857Y-81930952D01*
X97752380Y-81930952D01*
X97657142Y-81978571D01*
X97609523Y-82026190D01*
X97561904Y-82121428D01*
X97561904Y-82311904D01*
X97609523Y-82407142D01*
X97657142Y-82454761D01*
X97752380Y-82502380D01*
X97942857Y-82502380D01*
X98038095Y-82454761D01*
X98085714Y-82407142D01*
X98133333Y-82311904D01*
X98133333Y-82121428D01*
X98085714Y-82026190D01*
X98038095Y-81978571D01*
X97942857Y-81930952D01*
X111363095Y-143252380D02*
X111934523Y-143252380D01*
X111648809Y-144252380D02*
X111648809Y-143252380D01*
X112267857Y-144252380D02*
X112267857Y-143252380D01*
X112648809Y-143252380D01*
X112744047Y-143300000D01*
X112791666Y-143347619D01*
X112839285Y-143442857D01*
X112839285Y-143585714D01*
X112791666Y-143680952D01*
X112744047Y-143728571D01*
X112648809Y-143776190D01*
X112267857Y-143776190D01*
X113791666Y-144252380D02*
X113220238Y-144252380D01*
X113505952Y-144252380D02*
X113505952Y-143252380D01*
X113410714Y-143395238D01*
X113315476Y-143490476D01*
X113220238Y-143538095D01*
X100138095Y-129552380D02*
X100138095Y-130361904D01*
X100185714Y-130457142D01*
X100233333Y-130504761D01*
X100328571Y-130552380D01*
X100519047Y-130552380D01*
X100614285Y-130504761D01*
X100661904Y-130457142D01*
X100709523Y-130361904D01*
X100709523Y-129552380D01*
X101138095Y-129647619D02*
X101185714Y-129600000D01*
X101280952Y-129552380D01*
X101519047Y-129552380D01*
X101614285Y-129600000D01*
X101661904Y-129647619D01*
X101709523Y-129742857D01*
X101709523Y-129838095D01*
X101661904Y-129980952D01*
X101090476Y-130552380D01*
X101709523Y-130552380D01*
X106763095Y-146827380D02*
X106763095Y-145827380D01*
X106763095Y-146303571D02*
X107334523Y-146303571D01*
X107334523Y-146827380D02*
X107334523Y-145827380D01*
X108334523Y-146827380D02*
X107763095Y-146827380D01*
X108048809Y-146827380D02*
X108048809Y-145827380D01*
X107953571Y-145970238D01*
X107858333Y-146065476D01*
X107763095Y-146113095D01*
X62188095Y-146952380D02*
X62188095Y-145952380D01*
X62188095Y-146428571D02*
X62759523Y-146428571D01*
X62759523Y-146952380D02*
X62759523Y-145952380D01*
X63188095Y-146047619D02*
X63235714Y-146000000D01*
X63330952Y-145952380D01*
X63569047Y-145952380D01*
X63664285Y-146000000D01*
X63711904Y-146047619D01*
X63759523Y-146142857D01*
X63759523Y-146238095D01*
X63711904Y-146380952D01*
X63140476Y-146952380D01*
X63759523Y-146952380D01*
X62238095Y-43002380D02*
X62238095Y-42002380D01*
X62238095Y-42478571D02*
X62809523Y-42478571D01*
X62809523Y-43002380D02*
X62809523Y-42002380D01*
X63190476Y-42002380D02*
X63809523Y-42002380D01*
X63476190Y-42383333D01*
X63619047Y-42383333D01*
X63714285Y-42430952D01*
X63761904Y-42478571D01*
X63809523Y-42573809D01*
X63809523Y-42811904D01*
X63761904Y-42907142D01*
X63714285Y-42954761D01*
X63619047Y-43002380D01*
X63333333Y-43002380D01*
X63238095Y-42954761D01*
X63190476Y-42907142D01*
X106738095Y-42812380D02*
X106738095Y-41812380D01*
X106738095Y-42288571D02*
X107309523Y-42288571D01*
X107309523Y-42812380D02*
X107309523Y-41812380D01*
X108214285Y-42145714D02*
X108214285Y-42812380D01*
X107976190Y-41764761D02*
X107738095Y-42479047D01*
X108357142Y-42479047D01*
X73233333Y-109357142D02*
X73185714Y-109404761D01*
X73042857Y-109452380D01*
X72947619Y-109452380D01*
X72804761Y-109404761D01*
X72709523Y-109309523D01*
X72661904Y-109214285D01*
X72614285Y-109023809D01*
X72614285Y-108880952D01*
X72661904Y-108690476D01*
X72709523Y-108595238D01*
X72804761Y-108500000D01*
X72947619Y-108452380D01*
X73042857Y-108452380D01*
X73185714Y-108500000D01*
X73233333Y-108547619D01*
X73566666Y-108452380D02*
X74233333Y-108452380D01*
X73804761Y-109452380D01*
X73233333Y-92457142D02*
X73185714Y-92504761D01*
X73042857Y-92552380D01*
X72947619Y-92552380D01*
X72804761Y-92504761D01*
X72709523Y-92409523D01*
X72661904Y-92314285D01*
X72614285Y-92123809D01*
X72614285Y-91980952D01*
X72661904Y-91790476D01*
X72709523Y-91695238D01*
X72804761Y-91600000D01*
X72947619Y-91552380D01*
X73042857Y-91552380D01*
X73185714Y-91600000D01*
X73233333Y-91647619D01*
X73804761Y-91980952D02*
X73709523Y-91933333D01*
X73661904Y-91885714D01*
X73614285Y-91790476D01*
X73614285Y-91742857D01*
X73661904Y-91647619D01*
X73709523Y-91600000D01*
X73804761Y-91552380D01*
X73995238Y-91552380D01*
X74090476Y-91600000D01*
X74138095Y-91647619D01*
X74185714Y-91742857D01*
X74185714Y-91790476D01*
X74138095Y-91885714D01*
X74090476Y-91933333D01*
X73995238Y-91980952D01*
X73804761Y-91980952D01*
X73709523Y-92028571D01*
X73661904Y-92076190D01*
X73614285Y-92171428D01*
X73614285Y-92361904D01*
X73661904Y-92457142D01*
X73709523Y-92504761D01*
X73804761Y-92552380D01*
X73995238Y-92552380D01*
X74090476Y-92504761D01*
X74138095Y-92457142D01*
X74185714Y-92361904D01*
X74185714Y-92171428D01*
X74138095Y-92076190D01*
X74090476Y-92028571D01*
X73995238Y-91980952D01*
X101933333Y-124257142D02*
X101885714Y-124304761D01*
X101742857Y-124352380D01*
X101647619Y-124352380D01*
X101504761Y-124304761D01*
X101409523Y-124209523D01*
X101361904Y-124114285D01*
X101314285Y-123923809D01*
X101314285Y-123780952D01*
X101361904Y-123590476D01*
X101409523Y-123495238D01*
X101504761Y-123400000D01*
X101647619Y-123352380D01*
X101742857Y-123352380D01*
X101885714Y-123400000D01*
X101933333Y-123447619D01*
X102409523Y-124352380D02*
X102600000Y-124352380D01*
X102695238Y-124304761D01*
X102742857Y-124257142D01*
X102838095Y-124114285D01*
X102885714Y-123923809D01*
X102885714Y-123542857D01*
X102838095Y-123447619D01*
X102790476Y-123400000D01*
X102695238Y-123352380D01*
X102504761Y-123352380D01*
X102409523Y-123400000D01*
X102361904Y-123447619D01*
X102314285Y-123542857D01*
X102314285Y-123780952D01*
X102361904Y-123876190D01*
X102409523Y-123923809D01*
X102504761Y-123971428D01*
X102695238Y-123971428D01*
X102790476Y-123923809D01*
X102838095Y-123876190D01*
X102885714Y-123780952D01*
X100107142Y-147907142D02*
X100059523Y-147954761D01*
X99916666Y-148002380D01*
X99821428Y-148002380D01*
X99678571Y-147954761D01*
X99583333Y-147859523D01*
X99535714Y-147764285D01*
X99488095Y-147573809D01*
X99488095Y-147430952D01*
X99535714Y-147240476D01*
X99583333Y-147145238D01*
X99678571Y-147050000D01*
X99821428Y-147002380D01*
X99916666Y-147002380D01*
X100059523Y-147050000D01*
X100107142Y-147097619D01*
X101059523Y-148002380D02*
X100488095Y-148002380D01*
X100773809Y-148002380D02*
X100773809Y-147002380D01*
X100678571Y-147145238D01*
X100583333Y-147240476D01*
X100488095Y-147288095D01*
X101678571Y-147002380D02*
X101773809Y-147002380D01*
X101869047Y-147050000D01*
X101916666Y-147097619D01*
X101964285Y-147192857D01*
X102011904Y-147383333D01*
X102011904Y-147621428D01*
X101964285Y-147811904D01*
X101916666Y-147907142D01*
X101869047Y-147954761D01*
X101773809Y-148002380D01*
X101678571Y-148002380D01*
X101583333Y-147954761D01*
X101535714Y-147907142D01*
X101488095Y-147811904D01*
X101440476Y-147621428D01*
X101440476Y-147383333D01*
X101488095Y-147192857D01*
X101535714Y-147097619D01*
X101583333Y-147050000D01*
X101678571Y-147002380D01*
X75333333Y-55357142D02*
X75285714Y-55404761D01*
X75142857Y-55452380D01*
X75047619Y-55452380D01*
X74904761Y-55404761D01*
X74809523Y-55309523D01*
X74761904Y-55214285D01*
X74714285Y-55023809D01*
X74714285Y-54880952D01*
X74761904Y-54690476D01*
X74809523Y-54595238D01*
X74904761Y-54500000D01*
X75047619Y-54452380D01*
X75142857Y-54452380D01*
X75285714Y-54500000D01*
X75333333Y-54547619D01*
X76238095Y-54452380D02*
X75761904Y-54452380D01*
X75714285Y-54928571D01*
X75761904Y-54880952D01*
X75857142Y-54833333D01*
X76095238Y-54833333D01*
X76190476Y-54880952D01*
X76238095Y-54928571D01*
X76285714Y-55023809D01*
X76285714Y-55261904D01*
X76238095Y-55357142D01*
X76190476Y-55404761D01*
X76095238Y-55452380D01*
X75857142Y-55452380D01*
X75761904Y-55404761D01*
X75714285Y-55357142D01*
X75133333Y-52807142D02*
X75085714Y-52854761D01*
X74942857Y-52902380D01*
X74847619Y-52902380D01*
X74704761Y-52854761D01*
X74609523Y-52759523D01*
X74561904Y-52664285D01*
X74514285Y-52473809D01*
X74514285Y-52330952D01*
X74561904Y-52140476D01*
X74609523Y-52045238D01*
X74704761Y-51950000D01*
X74847619Y-51902380D01*
X74942857Y-51902380D01*
X75085714Y-51950000D01*
X75133333Y-51997619D01*
X75990476Y-51902380D02*
X75800000Y-51902380D01*
X75704761Y-51950000D01*
X75657142Y-51997619D01*
X75561904Y-52140476D01*
X75514285Y-52330952D01*
X75514285Y-52711904D01*
X75561904Y-52807142D01*
X75609523Y-52854761D01*
X75704761Y-52902380D01*
X75895238Y-52902380D01*
X75990476Y-52854761D01*
X76038095Y-52807142D01*
X76085714Y-52711904D01*
X76085714Y-52473809D01*
X76038095Y-52378571D01*
X75990476Y-52330952D01*
X75895238Y-52283333D01*
X75704761Y-52283333D01*
X75609523Y-52330952D01*
X75561904Y-52378571D01*
X75514285Y-52473809D01*
X78616666Y-49652380D02*
X78616666Y-50366666D01*
X78569047Y-50509523D01*
X78473809Y-50604761D01*
X78330952Y-50652380D01*
X78235714Y-50652380D01*
X79140476Y-50652380D02*
X79330952Y-50652380D01*
X79426190Y-50604761D01*
X79473809Y-50557142D01*
X79569047Y-50414285D01*
X79616666Y-50223809D01*
X79616666Y-49842857D01*
X79569047Y-49747619D01*
X79521428Y-49700000D01*
X79426190Y-49652380D01*
X79235714Y-49652380D01*
X79140476Y-49700000D01*
X79092857Y-49747619D01*
X79045238Y-49842857D01*
X79045238Y-50080952D01*
X79092857Y-50176190D01*
X79140476Y-50223809D01*
X79235714Y-50271428D01*
X79426190Y-50271428D01*
X79521428Y-50223809D01*
X79569047Y-50176190D01*
X79616666Y-50080952D01*
X103962380Y-82971904D02*
X102962380Y-82971904D01*
X103438571Y-82971904D02*
X103438571Y-82400476D01*
X103962380Y-82400476D02*
X102962380Y-82400476D01*
X102962380Y-81448095D02*
X102962380Y-81924285D01*
X103438571Y-81971904D01*
X103390952Y-81924285D01*
X103343333Y-81829047D01*
X103343333Y-81590952D01*
X103390952Y-81495714D01*
X103438571Y-81448095D01*
X103533809Y-81400476D01*
X103771904Y-81400476D01*
X103867142Y-81448095D01*
X103914761Y-81495714D01*
X103962380Y-81590952D01*
X103962380Y-81829047D01*
X103914761Y-81924285D01*
X103867142Y-81971904D01*
X101253333Y-108352380D02*
X100920000Y-107876190D01*
X100681904Y-108352380D02*
X100681904Y-107352380D01*
X101062857Y-107352380D01*
X101158095Y-107400000D01*
X101205714Y-107447619D01*
X101253333Y-107542857D01*
X101253333Y-107685714D01*
X101205714Y-107780952D01*
X101158095Y-107828571D01*
X101062857Y-107876190D01*
X100681904Y-107876190D01*
X102158095Y-107352380D02*
X101681904Y-107352380D01*
X101634285Y-107828571D01*
X101681904Y-107780952D01*
X101777142Y-107733333D01*
X102015238Y-107733333D01*
X102110476Y-107780952D01*
X102158095Y-107828571D01*
X102205714Y-107923809D01*
X102205714Y-108161904D01*
X102158095Y-108257142D01*
X102110476Y-108304761D01*
X102015238Y-108352380D01*
X101777142Y-108352380D01*
X101681904Y-108304761D01*
X101634285Y-108257142D01*
X107554761Y-116397619D02*
X107459523Y-116350000D01*
X107364285Y-116254761D01*
X107221428Y-116111904D01*
X107126190Y-116064285D01*
X107030952Y-116064285D01*
X107078571Y-116302380D02*
X106983333Y-116254761D01*
X106888095Y-116159523D01*
X106840476Y-115969047D01*
X106840476Y-115635714D01*
X106888095Y-115445238D01*
X106983333Y-115350000D01*
X107078571Y-115302380D01*
X107269047Y-115302380D01*
X107364285Y-115350000D01*
X107459523Y-115445238D01*
X107507142Y-115635714D01*
X107507142Y-115969047D01*
X107459523Y-116159523D01*
X107364285Y-116254761D01*
X107269047Y-116302380D01*
X107078571Y-116302380D01*
X108459523Y-116302380D02*
X107888095Y-116302380D01*
X108173809Y-116302380D02*
X108173809Y-115302380D01*
X108078571Y-115445238D01*
X107983333Y-115540476D01*
X107888095Y-115588095D01*
X83985714Y-118212380D02*
X83985714Y-117212380D01*
X84223809Y-117212380D01*
X84366666Y-117260000D01*
X84461904Y-117355238D01*
X84509523Y-117450476D01*
X84557142Y-117640952D01*
X84557142Y-117783809D01*
X84509523Y-117974285D01*
X84461904Y-118069523D01*
X84366666Y-118164761D01*
X84223809Y-118212380D01*
X83985714Y-118212380D01*
X85509523Y-118212380D02*
X84938095Y-118212380D01*
X85223809Y-118212380D02*
X85223809Y-117212380D01*
X85128571Y-117355238D01*
X85033333Y-117450476D01*
X84938095Y-117498095D01*
X86366666Y-117545714D02*
X86366666Y-118212380D01*
X86128571Y-117164761D02*
X85890476Y-117879047D01*
X86509523Y-117879047D01*
X84952380Y-143342857D02*
X84476190Y-143676190D01*
X84952380Y-143914285D02*
X83952380Y-143914285D01*
X83952380Y-143533333D01*
X84000000Y-143438095D01*
X84047619Y-143390476D01*
X84142857Y-143342857D01*
X84285714Y-143342857D01*
X84380952Y-143390476D01*
X84428571Y-143438095D01*
X84476190Y-143533333D01*
X84476190Y-143914285D01*
X84952380Y-142390476D02*
X84952380Y-142961904D01*
X84952380Y-142676190D02*
X83952380Y-142676190D01*
X84095238Y-142771428D01*
X84190476Y-142866666D01*
X84238095Y-142961904D01*
X84285714Y-141533333D02*
X84952380Y-141533333D01*
X83904761Y-141771428D02*
X84619047Y-142009523D01*
X84619047Y-141390476D01*
X90952380Y-118842857D02*
X90476190Y-119176190D01*
X90952380Y-119414285D02*
X89952380Y-119414285D01*
X89952380Y-119033333D01*
X90000000Y-118938095D01*
X90047619Y-118890476D01*
X90142857Y-118842857D01*
X90285714Y-118842857D01*
X90380952Y-118890476D01*
X90428571Y-118938095D01*
X90476190Y-119033333D01*
X90476190Y-119414285D01*
X90952380Y-117890476D02*
X90952380Y-118461904D01*
X90952380Y-118176190D02*
X89952380Y-118176190D01*
X90095238Y-118271428D01*
X90190476Y-118366666D01*
X90238095Y-118461904D01*
X89952380Y-116985714D02*
X89952380Y-117461904D01*
X90428571Y-117509523D01*
X90380952Y-117461904D01*
X90333333Y-117366666D01*
X90333333Y-117128571D01*
X90380952Y-117033333D01*
X90428571Y-116985714D01*
X90523809Y-116938095D01*
X90761904Y-116938095D01*
X90857142Y-116985714D01*
X90904761Y-117033333D01*
X90952380Y-117128571D01*
X90952380Y-117366666D01*
X90904761Y-117461904D01*
X90857142Y-117509523D01*
X78957142Y-121552380D02*
X78623809Y-121076190D01*
X78385714Y-121552380D02*
X78385714Y-120552380D01*
X78766666Y-120552380D01*
X78861904Y-120600000D01*
X78909523Y-120647619D01*
X78957142Y-120742857D01*
X78957142Y-120885714D01*
X78909523Y-120980952D01*
X78861904Y-121028571D01*
X78766666Y-121076190D01*
X78385714Y-121076190D01*
X79338095Y-120647619D02*
X79385714Y-120600000D01*
X79480952Y-120552380D01*
X79719047Y-120552380D01*
X79814285Y-120600000D01*
X79861904Y-120647619D01*
X79909523Y-120742857D01*
X79909523Y-120838095D01*
X79861904Y-120980952D01*
X79290476Y-121552380D01*
X79909523Y-121552380D01*
X80242857Y-120552380D02*
X80861904Y-120552380D01*
X80528571Y-120933333D01*
X80671428Y-120933333D01*
X80766666Y-120980952D01*
X80814285Y-121028571D01*
X80861904Y-121123809D01*
X80861904Y-121361904D01*
X80814285Y-121457142D01*
X80766666Y-121504761D01*
X80671428Y-121552380D01*
X80385714Y-121552380D01*
X80290476Y-121504761D01*
X80242857Y-121457142D01*
X79482143Y-125427381D02*
X79148810Y-124951191D01*
X78910715Y-125427381D02*
X78910715Y-124427381D01*
X79291667Y-124427381D01*
X79386905Y-124475001D01*
X79434524Y-124522620D01*
X79482143Y-124617858D01*
X79482143Y-124760715D01*
X79434524Y-124855953D01*
X79386905Y-124903572D01*
X79291667Y-124951191D01*
X78910715Y-124951191D01*
X79863096Y-124522620D02*
X79910715Y-124475001D01*
X80005953Y-124427381D01*
X80244048Y-124427381D01*
X80339286Y-124475001D01*
X80386905Y-124522620D01*
X80434524Y-124617858D01*
X80434524Y-124713096D01*
X80386905Y-124855953D01*
X79815477Y-125427381D01*
X80434524Y-125427381D01*
X81291667Y-124760715D02*
X81291667Y-125427381D01*
X81053572Y-124379762D02*
X80815477Y-125094048D01*
X81434524Y-125094048D01*
X90777379Y-131027858D02*
X90301189Y-131361191D01*
X90777379Y-131599286D02*
X89777379Y-131599286D01*
X89777379Y-131218334D01*
X89824999Y-131123096D01*
X89872618Y-131075477D01*
X89967856Y-131027858D01*
X90110713Y-131027858D01*
X90205951Y-131075477D01*
X90253570Y-131123096D01*
X90301189Y-131218334D01*
X90301189Y-131599286D01*
X89872618Y-130646905D02*
X89824999Y-130599286D01*
X89777379Y-130504048D01*
X89777379Y-130265953D01*
X89824999Y-130170715D01*
X89872618Y-130123096D01*
X89967856Y-130075477D01*
X90063094Y-130075477D01*
X90205951Y-130123096D01*
X90777379Y-130694524D01*
X90777379Y-130075477D01*
X89777379Y-129218334D02*
X89777379Y-129408810D01*
X89824999Y-129504048D01*
X89872618Y-129551667D01*
X90015475Y-129646905D01*
X90205951Y-129694524D01*
X90586903Y-129694524D01*
X90682141Y-129646905D01*
X90729760Y-129599286D01*
X90777379Y-129504048D01*
X90777379Y-129313572D01*
X90729760Y-129218334D01*
X90682141Y-129170715D01*
X90586903Y-129123096D01*
X90348808Y-129123096D01*
X90253570Y-129170715D01*
X90205951Y-129218334D01*
X90158332Y-129313572D01*
X90158332Y-129504048D01*
X90205951Y-129599286D01*
X90253570Y-129646905D01*
X90348808Y-129694524D01*
X82152380Y-143242857D02*
X81676190Y-143576190D01*
X82152380Y-143814285D02*
X81152380Y-143814285D01*
X81152380Y-143433333D01*
X81200000Y-143338095D01*
X81247619Y-143290476D01*
X81342857Y-143242857D01*
X81485714Y-143242857D01*
X81580952Y-143290476D01*
X81628571Y-143338095D01*
X81676190Y-143433333D01*
X81676190Y-143814285D01*
X81247619Y-142861904D02*
X81200000Y-142814285D01*
X81152380Y-142719047D01*
X81152380Y-142480952D01*
X81200000Y-142385714D01*
X81247619Y-142338095D01*
X81342857Y-142290476D01*
X81438095Y-142290476D01*
X81580952Y-142338095D01*
X82152380Y-142909523D01*
X82152380Y-142290476D01*
X81152380Y-141957142D02*
X81152380Y-141290476D01*
X82152380Y-141719047D01*
X78952380Y-143242857D02*
X78476190Y-143576190D01*
X78952380Y-143814285D02*
X77952380Y-143814285D01*
X77952380Y-143433333D01*
X78000000Y-143338095D01*
X78047619Y-143290476D01*
X78142857Y-143242857D01*
X78285714Y-143242857D01*
X78380952Y-143290476D01*
X78428571Y-143338095D01*
X78476190Y-143433333D01*
X78476190Y-143814285D01*
X78047619Y-142861904D02*
X78000000Y-142814285D01*
X77952380Y-142719047D01*
X77952380Y-142480952D01*
X78000000Y-142385714D01*
X78047619Y-142338095D01*
X78142857Y-142290476D01*
X78238095Y-142290476D01*
X78380952Y-142338095D01*
X78952380Y-142909523D01*
X78952380Y-142290476D01*
X78380952Y-141719047D02*
X78333333Y-141814285D01*
X78285714Y-141861904D01*
X78190476Y-141909523D01*
X78142857Y-141909523D01*
X78047619Y-141861904D01*
X78000000Y-141814285D01*
X77952380Y-141719047D01*
X77952380Y-141528571D01*
X78000000Y-141433333D01*
X78047619Y-141385714D01*
X78142857Y-141338095D01*
X78190476Y-141338095D01*
X78285714Y-141385714D01*
X78333333Y-141433333D01*
X78380952Y-141528571D01*
X78380952Y-141719047D01*
X78428571Y-141814285D01*
X78476190Y-141861904D01*
X78571428Y-141909523D01*
X78761904Y-141909523D01*
X78857142Y-141861904D01*
X78904761Y-141814285D01*
X78952380Y-141719047D01*
X78952380Y-141528571D01*
X78904761Y-141433333D01*
X78857142Y-141385714D01*
X78761904Y-141338095D01*
X78571428Y-141338095D01*
X78476190Y-141385714D01*
X78428571Y-141433333D01*
X78380952Y-141528571D01*
X87857142Y-123342857D02*
X87904761Y-123390476D01*
X87952380Y-123533333D01*
X87952380Y-123628571D01*
X87904761Y-123771428D01*
X87809523Y-123866666D01*
X87714285Y-123914285D01*
X87523809Y-123961904D01*
X87380952Y-123961904D01*
X87190476Y-123914285D01*
X87095238Y-123866666D01*
X87000000Y-123771428D01*
X86952380Y-123628571D01*
X86952380Y-123533333D01*
X87000000Y-123390476D01*
X87047619Y-123342857D01*
X87952380Y-122390476D02*
X87952380Y-122961904D01*
X87952380Y-122676190D02*
X86952380Y-122676190D01*
X87095238Y-122771428D01*
X87190476Y-122866666D01*
X87238095Y-122961904D01*
X87047619Y-122009523D02*
X87000000Y-121961904D01*
X86952380Y-121866666D01*
X86952380Y-121628571D01*
X87000000Y-121533333D01*
X87047619Y-121485714D01*
X87142857Y-121438095D01*
X87238095Y-121438095D01*
X87380952Y-121485714D01*
X87952380Y-122057142D01*
X87952380Y-121438095D01*
X77057142Y-130792857D02*
X77104761Y-130840476D01*
X77152380Y-130983333D01*
X77152380Y-131078571D01*
X77104761Y-131221428D01*
X77009523Y-131316666D01*
X76914285Y-131364285D01*
X76723809Y-131411904D01*
X76580952Y-131411904D01*
X76390476Y-131364285D01*
X76295238Y-131316666D01*
X76200000Y-131221428D01*
X76152380Y-131078571D01*
X76152380Y-130983333D01*
X76200000Y-130840476D01*
X76247619Y-130792857D01*
X77152380Y-129840476D02*
X77152380Y-130411904D01*
X77152380Y-130126190D02*
X76152380Y-130126190D01*
X76295238Y-130221428D01*
X76390476Y-130316666D01*
X76438095Y-130411904D01*
X76152380Y-129507142D02*
X76152380Y-128888095D01*
X76533333Y-129221428D01*
X76533333Y-129078571D01*
X76580952Y-128983333D01*
X76628571Y-128935714D01*
X76723809Y-128888095D01*
X76961904Y-128888095D01*
X77057142Y-128935714D01*
X77104761Y-128983333D01*
X77152380Y-129078571D01*
X77152380Y-129364285D01*
X77104761Y-129459523D01*
X77057142Y-129507142D01*
X88333333Y-108857142D02*
X88285714Y-108904761D01*
X88142857Y-108952380D01*
X88047619Y-108952380D01*
X87904761Y-108904761D01*
X87809523Y-108809523D01*
X87761904Y-108714285D01*
X87714285Y-108523809D01*
X87714285Y-108380952D01*
X87761904Y-108190476D01*
X87809523Y-108095238D01*
X87904761Y-108000000D01*
X88047619Y-107952380D01*
X88142857Y-107952380D01*
X88285714Y-108000000D01*
X88333333Y-108047619D01*
X89285714Y-108952380D02*
X88714285Y-108952380D01*
X89000000Y-108952380D02*
X89000000Y-107952380D01*
X88904761Y-108095238D01*
X88809523Y-108190476D01*
X88714285Y-108238095D01*
X80833333Y-108857142D02*
X80785714Y-108904761D01*
X80642857Y-108952380D01*
X80547619Y-108952380D01*
X80404761Y-108904761D01*
X80309523Y-108809523D01*
X80261904Y-108714285D01*
X80214285Y-108523809D01*
X80214285Y-108380952D01*
X80261904Y-108190476D01*
X80309523Y-108095238D01*
X80404761Y-108000000D01*
X80547619Y-107952380D01*
X80642857Y-107952380D01*
X80785714Y-108000000D01*
X80833333Y-108047619D01*
X81214285Y-108047619D02*
X81261904Y-108000000D01*
X81357142Y-107952380D01*
X81595238Y-107952380D01*
X81690476Y-108000000D01*
X81738095Y-108047619D01*
X81785714Y-108142857D01*
X81785714Y-108238095D01*
X81738095Y-108380952D01*
X81166666Y-108952380D01*
X81785714Y-108952380D01*
X95311904Y-51252380D02*
X95311904Y-50252380D01*
X95550000Y-50252380D01*
X95692857Y-50300000D01*
X95788095Y-50395238D01*
X95835714Y-50490476D01*
X95883333Y-50680952D01*
X95883333Y-50823809D01*
X95835714Y-51014285D01*
X95788095Y-51109523D01*
X95692857Y-51204761D01*
X95550000Y-51252380D01*
X95311904Y-51252380D01*
X96454761Y-50680952D02*
X96359523Y-50633333D01*
X96311904Y-50585714D01*
X96264285Y-50490476D01*
X96264285Y-50442857D01*
X96311904Y-50347619D01*
X96359523Y-50300000D01*
X96454761Y-50252380D01*
X96645238Y-50252380D01*
X96740476Y-50300000D01*
X96788095Y-50347619D01*
X96835714Y-50442857D01*
X96835714Y-50490476D01*
X96788095Y-50585714D01*
X96740476Y-50633333D01*
X96645238Y-50680952D01*
X96454761Y-50680952D01*
X96359523Y-50728571D01*
X96311904Y-50776190D01*
X96264285Y-50871428D01*
X96264285Y-51061904D01*
X96311904Y-51157142D01*
X96359523Y-51204761D01*
X96454761Y-51252380D01*
X96645238Y-51252380D01*
X96740476Y-51204761D01*
X96788095Y-51157142D01*
X96835714Y-51061904D01*
X96835714Y-50871428D01*
X96788095Y-50776190D01*
X96740476Y-50728571D01*
X96645238Y-50680952D01*
X99838095Y-53052380D02*
X99838095Y-52052380D01*
X100409523Y-53052380D02*
X99980952Y-52480952D01*
X100409523Y-52052380D02*
X99838095Y-52623809D01*
X97052380Y-97664285D02*
X96052380Y-97664285D01*
X96052380Y-97426190D01*
X96100000Y-97283333D01*
X96195238Y-97188095D01*
X96290476Y-97140476D01*
X96480952Y-97092857D01*
X96623809Y-97092857D01*
X96814285Y-97140476D01*
X96909523Y-97188095D01*
X97004761Y-97283333D01*
X97052380Y-97426190D01*
X97052380Y-97664285D01*
X97052380Y-96140476D02*
X97052380Y-96711904D01*
X97052380Y-96426190D02*
X96052380Y-96426190D01*
X96195238Y-96521428D01*
X96290476Y-96616666D01*
X96338095Y-96711904D01*
X97052380Y-95188095D02*
X97052380Y-95759523D01*
X97052380Y-95473809D02*
X96052380Y-95473809D01*
X96195238Y-95569047D01*
X96290476Y-95664285D01*
X96338095Y-95759523D01*
X98852380Y-92261904D02*
X97852380Y-92261904D01*
X98852380Y-91690476D02*
X98280952Y-92119047D01*
X97852380Y-91690476D02*
X98423809Y-92261904D01*
X71507142Y-124457142D02*
X71459523Y-124504761D01*
X71316666Y-124552380D01*
X71221428Y-124552380D01*
X71078571Y-124504761D01*
X70983333Y-124409523D01*
X70935714Y-124314285D01*
X70888095Y-124123809D01*
X70888095Y-123980952D01*
X70935714Y-123790476D01*
X70983333Y-123695238D01*
X71078571Y-123600000D01*
X71221428Y-123552380D01*
X71316666Y-123552380D01*
X71459523Y-123600000D01*
X71507142Y-123647619D01*
X72459523Y-124552380D02*
X71888095Y-124552380D01*
X72173809Y-124552380D02*
X72173809Y-123552380D01*
X72078571Y-123695238D01*
X71983333Y-123790476D01*
X71888095Y-123838095D01*
X73316666Y-123885714D02*
X73316666Y-124552380D01*
X73078571Y-123504761D02*
X72840476Y-124219047D01*
X73459523Y-124219047D01*
X95241904Y-67052380D02*
X95241904Y-66052380D01*
X95480000Y-66052380D01*
X95622857Y-66100000D01*
X95718095Y-66195238D01*
X95765714Y-66290476D01*
X95813333Y-66480952D01*
X95813333Y-66623809D01*
X95765714Y-66814285D01*
X95718095Y-66909523D01*
X95622857Y-67004761D01*
X95480000Y-67052380D01*
X95241904Y-67052380D01*
X96146666Y-66052380D02*
X96813333Y-66052380D01*
X96384761Y-67052380D01*
X100188095Y-68852380D02*
X100188095Y-67852380D01*
X100759523Y-68852380D02*
X100330952Y-68280952D01*
X100759523Y-67852380D02*
X100188095Y-68423809D01*
X100452380Y-97114285D02*
X99452380Y-97114285D01*
X99452380Y-96876190D01*
X99500000Y-96733333D01*
X99595238Y-96638095D01*
X99690476Y-96590476D01*
X99880952Y-96542857D01*
X100023809Y-96542857D01*
X100214285Y-96590476D01*
X100309523Y-96638095D01*
X100404761Y-96733333D01*
X100452380Y-96876190D01*
X100452380Y-97114285D01*
X100452380Y-95590476D02*
X100452380Y-96161904D01*
X100452380Y-95876190D02*
X99452380Y-95876190D01*
X99595238Y-95971428D01*
X99690476Y-96066666D01*
X99738095Y-96161904D01*
X99547619Y-95209523D02*
X99500000Y-95161904D01*
X99452380Y-95066666D01*
X99452380Y-94828571D01*
X99500000Y-94733333D01*
X99547619Y-94685714D01*
X99642857Y-94638095D01*
X99738095Y-94638095D01*
X99880952Y-94685714D01*
X100452380Y-95257142D01*
X100452380Y-94638095D01*
X98652380Y-99861904D02*
X97652380Y-99861904D01*
X98652380Y-99290476D02*
X98080952Y-99719047D01*
X97652380Y-99290476D02*
X98223809Y-99861904D01*
X88002380Y-143242857D02*
X87526190Y-143576190D01*
X88002380Y-143814285D02*
X87002380Y-143814285D01*
X87002380Y-143433333D01*
X87050000Y-143338095D01*
X87097619Y-143290476D01*
X87192857Y-143242857D01*
X87335714Y-143242857D01*
X87430952Y-143290476D01*
X87478571Y-143338095D01*
X87526190Y-143433333D01*
X87526190Y-143814285D01*
X88002380Y-142290476D02*
X88002380Y-142861904D01*
X88002380Y-142576190D02*
X87002380Y-142576190D01*
X87145238Y-142671428D01*
X87240476Y-142766666D01*
X87288095Y-142861904D01*
X88002380Y-141338095D02*
X88002380Y-141909523D01*
X88002380Y-141623809D02*
X87002380Y-141623809D01*
X87145238Y-141719047D01*
X87240476Y-141814285D01*
X87288095Y-141909523D01*
X75313333Y-89282380D02*
X74980000Y-88806190D01*
X74741904Y-89282380D02*
X74741904Y-88282380D01*
X75122857Y-88282380D01*
X75218095Y-88330000D01*
X75265714Y-88377619D01*
X75313333Y-88472857D01*
X75313333Y-88615714D01*
X75265714Y-88710952D01*
X75218095Y-88758571D01*
X75122857Y-88806190D01*
X74741904Y-88806190D01*
X75884761Y-88710952D02*
X75789523Y-88663333D01*
X75741904Y-88615714D01*
X75694285Y-88520476D01*
X75694285Y-88472857D01*
X75741904Y-88377619D01*
X75789523Y-88330000D01*
X75884761Y-88282380D01*
X76075238Y-88282380D01*
X76170476Y-88330000D01*
X76218095Y-88377619D01*
X76265714Y-88472857D01*
X76265714Y-88520476D01*
X76218095Y-88615714D01*
X76170476Y-88663333D01*
X76075238Y-88710952D01*
X75884761Y-88710952D01*
X75789523Y-88758571D01*
X75741904Y-88806190D01*
X75694285Y-88901428D01*
X75694285Y-89091904D01*
X75741904Y-89187142D01*
X75789523Y-89234761D01*
X75884761Y-89282380D01*
X76075238Y-89282380D01*
X76170476Y-89234761D01*
X76218095Y-89187142D01*
X76265714Y-89091904D01*
X76265714Y-88901428D01*
X76218095Y-88806190D01*
X76170476Y-88758571D01*
X76075238Y-88710952D01*
X75638095Y-58702380D02*
X75638095Y-59511904D01*
X75685714Y-59607142D01*
X75733333Y-59654761D01*
X75828571Y-59702380D01*
X76019047Y-59702380D01*
X76114285Y-59654761D01*
X76161904Y-59607142D01*
X76209523Y-59511904D01*
X76209523Y-58702380D01*
X77209523Y-59702380D02*
X76638095Y-59702380D01*
X76923809Y-59702380D02*
X76923809Y-58702380D01*
X76828571Y-58845238D01*
X76733333Y-58940476D01*
X76638095Y-58988095D01*
X86038095Y-129502380D02*
X86038095Y-130311904D01*
X86085714Y-130407142D01*
X86133333Y-130454761D01*
X86228571Y-130502380D01*
X86419047Y-130502380D01*
X86514285Y-130454761D01*
X86561904Y-130407142D01*
X86609523Y-130311904D01*
X86609523Y-129502380D01*
X86990476Y-129502380D02*
X87609523Y-129502380D01*
X87276190Y-129883333D01*
X87419047Y-129883333D01*
X87514285Y-129930952D01*
X87561904Y-129978571D01*
X87609523Y-130073809D01*
X87609523Y-130311904D01*
X87561904Y-130407142D01*
X87514285Y-130454761D01*
X87419047Y-130502380D01*
X87133333Y-130502380D01*
X87038095Y-130454761D01*
X86990476Y-130407142D01*
X111697619Y-136920238D02*
X111650000Y-137015476D01*
X111554761Y-137110714D01*
X111411904Y-137253571D01*
X111364285Y-137348809D01*
X111364285Y-137444047D01*
X111602380Y-137396428D02*
X111554761Y-137491666D01*
X111459523Y-137586904D01*
X111269047Y-137634523D01*
X110935714Y-137634523D01*
X110745238Y-137586904D01*
X110650000Y-137491666D01*
X110602380Y-137396428D01*
X110602380Y-137205952D01*
X110650000Y-137110714D01*
X110745238Y-137015476D01*
X110935714Y-136967857D01*
X111269047Y-136967857D01*
X111459523Y-137015476D01*
X111554761Y-137110714D01*
X111602380Y-137205952D01*
X111602380Y-137396428D01*
X110602380Y-136110714D02*
X110602380Y-136301190D01*
X110650000Y-136396428D01*
X110697619Y-136444047D01*
X110840476Y-136539285D01*
X111030952Y-136586904D01*
X111411904Y-136586904D01*
X111507142Y-136539285D01*
X111554761Y-136491666D01*
X111602380Y-136396428D01*
X111602380Y-136205952D01*
X111554761Y-136110714D01*
X111507142Y-136063095D01*
X111411904Y-136015476D01*
X111173809Y-136015476D01*
X111078571Y-136063095D01*
X111030952Y-136110714D01*
X110983333Y-136205952D01*
X110983333Y-136396428D01*
X111030952Y-136491666D01*
X111078571Y-136539285D01*
X111173809Y-136586904D01*
X113402380Y-129442857D02*
X112926190Y-129776190D01*
X113402380Y-130014285D02*
X112402380Y-130014285D01*
X112402380Y-129633333D01*
X112450000Y-129538095D01*
X112497619Y-129490476D01*
X112592857Y-129442857D01*
X112735714Y-129442857D01*
X112830952Y-129490476D01*
X112878571Y-129538095D01*
X112926190Y-129633333D01*
X112926190Y-130014285D01*
X112497619Y-129061904D02*
X112450000Y-129014285D01*
X112402380Y-128919047D01*
X112402380Y-128680952D01*
X112450000Y-128585714D01*
X112497619Y-128538095D01*
X112592857Y-128490476D01*
X112688095Y-128490476D01*
X112830952Y-128538095D01*
X113402380Y-129109523D01*
X113402380Y-128490476D01*
X113402380Y-127538095D02*
X113402380Y-128109523D01*
X113402380Y-127823809D02*
X112402380Y-127823809D01*
X112545238Y-127919047D01*
X112640476Y-128014285D01*
X112688095Y-128109523D01*
X113732380Y-118488095D02*
X112732380Y-118488095D01*
X112732380Y-118250000D01*
X112780000Y-118107142D01*
X112875238Y-118011904D01*
X112970476Y-117964285D01*
X113160952Y-117916666D01*
X113303809Y-117916666D01*
X113494285Y-117964285D01*
X113589523Y-118011904D01*
X113684761Y-118107142D01*
X113732380Y-118250000D01*
X113732380Y-118488095D01*
X112732380Y-117059523D02*
X112732380Y-117250000D01*
X112780000Y-117345238D01*
X112827619Y-117392857D01*
X112970476Y-117488095D01*
X113160952Y-117535714D01*
X113541904Y-117535714D01*
X113637142Y-117488095D01*
X113684761Y-117440476D01*
X113732380Y-117345238D01*
X113732380Y-117154761D01*
X113684761Y-117059523D01*
X113637142Y-117011904D01*
X113541904Y-116964285D01*
X113303809Y-116964285D01*
X113208571Y-117011904D01*
X113160952Y-117059523D01*
X113113333Y-117154761D01*
X113113333Y-117345238D01*
X113160952Y-117440476D01*
X113208571Y-117488095D01*
X113303809Y-117535714D01*
X111882380Y-121761904D02*
X110882380Y-121761904D01*
X111882380Y-121190476D02*
X111310952Y-121619047D01*
X110882380Y-121190476D02*
X111453809Y-121761904D01*
X96085714Y-145452380D02*
X96085714Y-144452380D01*
X96323809Y-144452380D01*
X96466666Y-144500000D01*
X96561904Y-144595238D01*
X96609523Y-144690476D01*
X96657142Y-144880952D01*
X96657142Y-145023809D01*
X96609523Y-145214285D01*
X96561904Y-145309523D01*
X96466666Y-145404761D01*
X96323809Y-145452380D01*
X96085714Y-145452380D01*
X97609523Y-145452380D02*
X97038095Y-145452380D01*
X97323809Y-145452380D02*
X97323809Y-144452380D01*
X97228571Y-144595238D01*
X97133333Y-144690476D01*
X97038095Y-144738095D01*
X97942857Y-144452380D02*
X98561904Y-144452380D01*
X98228571Y-144833333D01*
X98371428Y-144833333D01*
X98466666Y-144880952D01*
X98514285Y-144928571D01*
X98561904Y-145023809D01*
X98561904Y-145261904D01*
X98514285Y-145357142D01*
X98466666Y-145404761D01*
X98371428Y-145452380D01*
X98085714Y-145452380D01*
X97990476Y-145404761D01*
X97942857Y-145357142D01*
X102788095Y-145477380D02*
X102788095Y-144477380D01*
X103359523Y-145477380D02*
X102930952Y-144905952D01*
X103359523Y-144477380D02*
X102788095Y-145048809D01*
X96228095Y-76612380D02*
X96228095Y-75612380D01*
X96228095Y-76088571D02*
X96799523Y-76088571D01*
X96799523Y-76612380D02*
X96799523Y-75612380D01*
X97180476Y-75612380D02*
X97847142Y-75612380D01*
X97418571Y-76612380D01*
X66977380Y-65587857D02*
X66501190Y-65921190D01*
X66977380Y-66159285D02*
X65977380Y-66159285D01*
X65977380Y-65778333D01*
X66025000Y-65683095D01*
X66072619Y-65635476D01*
X66167857Y-65587857D01*
X66310714Y-65587857D01*
X66405952Y-65635476D01*
X66453571Y-65683095D01*
X66501190Y-65778333D01*
X66501190Y-66159285D01*
X66977380Y-64635476D02*
X66977380Y-65206904D01*
X66977380Y-64921190D02*
X65977380Y-64921190D01*
X66120238Y-65016428D01*
X66215476Y-65111666D01*
X66263095Y-65206904D01*
X66072619Y-64254523D02*
X66025000Y-64206904D01*
X65977380Y-64111666D01*
X65977380Y-63873571D01*
X66025000Y-63778333D01*
X66072619Y-63730714D01*
X66167857Y-63683095D01*
X66263095Y-63683095D01*
X66405952Y-63730714D01*
X66977380Y-64302142D01*
X66977380Y-63683095D01*
X57367142Y-112522857D02*
X57414761Y-112570476D01*
X57462380Y-112713333D01*
X57462380Y-112808571D01*
X57414761Y-112951428D01*
X57319523Y-113046666D01*
X57224285Y-113094285D01*
X57033809Y-113141904D01*
X56890952Y-113141904D01*
X56700476Y-113094285D01*
X56605238Y-113046666D01*
X56510000Y-112951428D01*
X56462380Y-112808571D01*
X56462380Y-112713333D01*
X56510000Y-112570476D01*
X56557619Y-112522857D01*
X57462380Y-111570476D02*
X57462380Y-112141904D01*
X57462380Y-111856190D02*
X56462380Y-111856190D01*
X56605238Y-111951428D01*
X56700476Y-112046666D01*
X56748095Y-112141904D01*
X57462380Y-110618095D02*
X57462380Y-111189523D01*
X57462380Y-110903809D02*
X56462380Y-110903809D01*
X56605238Y-110999047D01*
X56700476Y-111094285D01*
X56748095Y-111189523D01*
X57757142Y-99552857D02*
X57804761Y-99600476D01*
X57852380Y-99743333D01*
X57852380Y-99838571D01*
X57804761Y-99981428D01*
X57709523Y-100076666D01*
X57614285Y-100124285D01*
X57423809Y-100171904D01*
X57280952Y-100171904D01*
X57090476Y-100124285D01*
X56995238Y-100076666D01*
X56900000Y-99981428D01*
X56852380Y-99838571D01*
X56852380Y-99743333D01*
X56900000Y-99600476D01*
X56947619Y-99552857D01*
X57852380Y-98600476D02*
X57852380Y-99171904D01*
X57852380Y-98886190D02*
X56852380Y-98886190D01*
X56995238Y-98981428D01*
X57090476Y-99076666D01*
X57138095Y-99171904D01*
X56852380Y-97695714D02*
X56852380Y-98171904D01*
X57328571Y-98219523D01*
X57280952Y-98171904D01*
X57233333Y-98076666D01*
X57233333Y-97838571D01*
X57280952Y-97743333D01*
X57328571Y-97695714D01*
X57423809Y-97648095D01*
X57661904Y-97648095D01*
X57757142Y-97695714D01*
X57804761Y-97743333D01*
X57852380Y-97838571D01*
X57852380Y-98076666D01*
X57804761Y-98171904D01*
X57757142Y-98219523D01*
X59588095Y-108342380D02*
X59588095Y-109151904D01*
X59635714Y-109247142D01*
X59683333Y-109294761D01*
X59778571Y-109342380D01*
X59969047Y-109342380D01*
X60064285Y-109294761D01*
X60111904Y-109247142D01*
X60159523Y-109151904D01*
X60159523Y-108342380D01*
X61111904Y-108342380D02*
X60635714Y-108342380D01*
X60588095Y-108818571D01*
X60635714Y-108770952D01*
X60730952Y-108723333D01*
X60969047Y-108723333D01*
X61064285Y-108770952D01*
X61111904Y-108818571D01*
X61159523Y-108913809D01*
X61159523Y-109151904D01*
X61111904Y-109247142D01*
X61064285Y-109294761D01*
X60969047Y-109342380D01*
X60730952Y-109342380D01*
X60635714Y-109294761D01*
X60588095Y-109247142D01*
X90457619Y-66555238D02*
X90410000Y-66650476D01*
X90314761Y-66745714D01*
X90171904Y-66888571D01*
X90124285Y-66983809D01*
X90124285Y-67079047D01*
X90362380Y-67031428D02*
X90314761Y-67126666D01*
X90219523Y-67221904D01*
X90029047Y-67269523D01*
X89695714Y-67269523D01*
X89505238Y-67221904D01*
X89410000Y-67126666D01*
X89362380Y-67031428D01*
X89362380Y-66840952D01*
X89410000Y-66745714D01*
X89505238Y-66650476D01*
X89695714Y-66602857D01*
X90029047Y-66602857D01*
X90219523Y-66650476D01*
X90314761Y-66745714D01*
X90362380Y-66840952D01*
X90362380Y-67031428D01*
X89362380Y-66269523D02*
X89362380Y-65650476D01*
X89743333Y-65983809D01*
X89743333Y-65840952D01*
X89790952Y-65745714D01*
X89838571Y-65698095D01*
X89933809Y-65650476D01*
X90171904Y-65650476D01*
X90267142Y-65698095D01*
X90314761Y-65745714D01*
X90362380Y-65840952D01*
X90362380Y-66126666D01*
X90314761Y-66221904D01*
X90267142Y-66269523D01*
X84587619Y-57165238D02*
X84540000Y-57260476D01*
X84444761Y-57355714D01*
X84301904Y-57498571D01*
X84254285Y-57593809D01*
X84254285Y-57689047D01*
X84492380Y-57641428D02*
X84444761Y-57736666D01*
X84349523Y-57831904D01*
X84159047Y-57879523D01*
X83825714Y-57879523D01*
X83635238Y-57831904D01*
X83540000Y-57736666D01*
X83492380Y-57641428D01*
X83492380Y-57450952D01*
X83540000Y-57355714D01*
X83635238Y-57260476D01*
X83825714Y-57212857D01*
X84159047Y-57212857D01*
X84349523Y-57260476D01*
X84444761Y-57355714D01*
X84492380Y-57450952D01*
X84492380Y-57641428D01*
X83492380Y-56308095D02*
X83492380Y-56784285D01*
X83968571Y-56831904D01*
X83920952Y-56784285D01*
X83873333Y-56689047D01*
X83873333Y-56450952D01*
X83920952Y-56355714D01*
X83968571Y-56308095D01*
X84063809Y-56260476D01*
X84301904Y-56260476D01*
X84397142Y-56308095D01*
X84444761Y-56355714D01*
X84492380Y-56450952D01*
X84492380Y-56689047D01*
X84444761Y-56784285D01*
X84397142Y-56831904D01*
X94977142Y-61212380D02*
X94643809Y-60736190D01*
X94405714Y-61212380D02*
X94405714Y-60212380D01*
X94786666Y-60212380D01*
X94881904Y-60260000D01*
X94929523Y-60307619D01*
X94977142Y-60402857D01*
X94977142Y-60545714D01*
X94929523Y-60640952D01*
X94881904Y-60688571D01*
X94786666Y-60736190D01*
X94405714Y-60736190D01*
X95929523Y-61212380D02*
X95358095Y-61212380D01*
X95643809Y-61212380D02*
X95643809Y-60212380D01*
X95548571Y-60355238D01*
X95453333Y-60450476D01*
X95358095Y-60498095D01*
X96548571Y-60212380D02*
X96643809Y-60212380D01*
X96739047Y-60260000D01*
X96786666Y-60307619D01*
X96834285Y-60402857D01*
X96881904Y-60593333D01*
X96881904Y-60831428D01*
X96834285Y-61021904D01*
X96786666Y-61117142D01*
X96739047Y-61164761D01*
X96643809Y-61212380D01*
X96548571Y-61212380D01*
X96453333Y-61164761D01*
X96405714Y-61117142D01*
X96358095Y-61021904D01*
X96310476Y-60831428D01*
X96310476Y-60593333D01*
X96358095Y-60402857D01*
X96405714Y-60307619D01*
X96453333Y-60260000D01*
X96548571Y-60212380D01*
X95147142Y-58052380D02*
X94813809Y-57576190D01*
X94575714Y-58052380D02*
X94575714Y-57052380D01*
X94956666Y-57052380D01*
X95051904Y-57100000D01*
X95099523Y-57147619D01*
X95147142Y-57242857D01*
X95147142Y-57385714D01*
X95099523Y-57480952D01*
X95051904Y-57528571D01*
X94956666Y-57576190D01*
X94575714Y-57576190D01*
X96099523Y-58052380D02*
X95528095Y-58052380D01*
X95813809Y-58052380D02*
X95813809Y-57052380D01*
X95718571Y-57195238D01*
X95623333Y-57290476D01*
X95528095Y-57338095D01*
X96956666Y-57052380D02*
X96766190Y-57052380D01*
X96670952Y-57100000D01*
X96623333Y-57147619D01*
X96528095Y-57290476D01*
X96480476Y-57480952D01*
X96480476Y-57861904D01*
X96528095Y-57957142D01*
X96575714Y-58004761D01*
X96670952Y-58052380D01*
X96861428Y-58052380D01*
X96956666Y-58004761D01*
X97004285Y-57957142D01*
X97051904Y-57861904D01*
X97051904Y-57623809D01*
X97004285Y-57528571D01*
X96956666Y-57480952D01*
X96861428Y-57433333D01*
X96670952Y-57433333D01*
X96575714Y-57480952D01*
X96528095Y-57528571D01*
X96480476Y-57623809D01*
X73797142Y-72502380D02*
X73463809Y-72026190D01*
X73225714Y-72502380D02*
X73225714Y-71502380D01*
X73606666Y-71502380D01*
X73701904Y-71550000D01*
X73749523Y-71597619D01*
X73797142Y-71692857D01*
X73797142Y-71835714D01*
X73749523Y-71930952D01*
X73701904Y-71978571D01*
X73606666Y-72026190D01*
X73225714Y-72026190D01*
X74178095Y-71597619D02*
X74225714Y-71550000D01*
X74320952Y-71502380D01*
X74559047Y-71502380D01*
X74654285Y-71550000D01*
X74701904Y-71597619D01*
X74749523Y-71692857D01*
X74749523Y-71788095D01*
X74701904Y-71930952D01*
X74130476Y-72502380D01*
X74749523Y-72502380D01*
X75225714Y-72502380D02*
X75416190Y-72502380D01*
X75511428Y-72454761D01*
X75559047Y-72407142D01*
X75654285Y-72264285D01*
X75701904Y-72073809D01*
X75701904Y-71692857D01*
X75654285Y-71597619D01*
X75606666Y-71550000D01*
X75511428Y-71502380D01*
X75320952Y-71502380D01*
X75225714Y-71550000D01*
X75178095Y-71597619D01*
X75130476Y-71692857D01*
X75130476Y-71930952D01*
X75178095Y-72026190D01*
X75225714Y-72073809D01*
X75320952Y-72121428D01*
X75511428Y-72121428D01*
X75606666Y-72073809D01*
X75654285Y-72026190D01*
X75701904Y-71930952D01*
X74067142Y-69122380D02*
X73733809Y-68646190D01*
X73495714Y-69122380D02*
X73495714Y-68122380D01*
X73876666Y-68122380D01*
X73971904Y-68170000D01*
X74019523Y-68217619D01*
X74067142Y-68312857D01*
X74067142Y-68455714D01*
X74019523Y-68550952D01*
X73971904Y-68598571D01*
X73876666Y-68646190D01*
X73495714Y-68646190D01*
X74400476Y-68122380D02*
X75019523Y-68122380D01*
X74686190Y-68503333D01*
X74829047Y-68503333D01*
X74924285Y-68550952D01*
X74971904Y-68598571D01*
X75019523Y-68693809D01*
X75019523Y-68931904D01*
X74971904Y-69027142D01*
X74924285Y-69074761D01*
X74829047Y-69122380D01*
X74543333Y-69122380D01*
X74448095Y-69074761D01*
X74400476Y-69027142D01*
X75638571Y-68122380D02*
X75733809Y-68122380D01*
X75829047Y-68170000D01*
X75876666Y-68217619D01*
X75924285Y-68312857D01*
X75971904Y-68503333D01*
X75971904Y-68741428D01*
X75924285Y-68931904D01*
X75876666Y-69027142D01*
X75829047Y-69074761D01*
X75733809Y-69122380D01*
X75638571Y-69122380D01*
X75543333Y-69074761D01*
X75495714Y-69027142D01*
X75448095Y-68931904D01*
X75400476Y-68741428D01*
X75400476Y-68503333D01*
X75448095Y-68312857D01*
X75495714Y-68217619D01*
X75543333Y-68170000D01*
X75638571Y-68122380D01*
X83342380Y-63722857D02*
X82866190Y-64056190D01*
X83342380Y-64294285D02*
X82342380Y-64294285D01*
X82342380Y-63913333D01*
X82390000Y-63818095D01*
X82437619Y-63770476D01*
X82532857Y-63722857D01*
X82675714Y-63722857D01*
X82770952Y-63770476D01*
X82818571Y-63818095D01*
X82866190Y-63913333D01*
X82866190Y-64294285D01*
X82342380Y-63389523D02*
X82342380Y-62770476D01*
X82723333Y-63103809D01*
X82723333Y-62960952D01*
X82770952Y-62865714D01*
X82818571Y-62818095D01*
X82913809Y-62770476D01*
X83151904Y-62770476D01*
X83247142Y-62818095D01*
X83294761Y-62865714D01*
X83342380Y-62960952D01*
X83342380Y-63246666D01*
X83294761Y-63341904D01*
X83247142Y-63389523D01*
X83342380Y-61818095D02*
X83342380Y-62389523D01*
X83342380Y-62103809D02*
X82342380Y-62103809D01*
X82485238Y-62199047D01*
X82580476Y-62294285D01*
X82628095Y-62389523D01*
X64887142Y-74667142D02*
X64839523Y-74714761D01*
X64696666Y-74762380D01*
X64601428Y-74762380D01*
X64458571Y-74714761D01*
X64363333Y-74619523D01*
X64315714Y-74524285D01*
X64268095Y-74333809D01*
X64268095Y-74190952D01*
X64315714Y-74000476D01*
X64363333Y-73905238D01*
X64458571Y-73810000D01*
X64601428Y-73762380D01*
X64696666Y-73762380D01*
X64839523Y-73810000D01*
X64887142Y-73857619D01*
X65839523Y-74762380D02*
X65268095Y-74762380D01*
X65553809Y-74762380D02*
X65553809Y-73762380D01*
X65458571Y-73905238D01*
X65363333Y-74000476D01*
X65268095Y-74048095D01*
X66696666Y-73762380D02*
X66506190Y-73762380D01*
X66410952Y-73810000D01*
X66363333Y-73857619D01*
X66268095Y-74000476D01*
X66220476Y-74190952D01*
X66220476Y-74571904D01*
X66268095Y-74667142D01*
X66315714Y-74714761D01*
X66410952Y-74762380D01*
X66601428Y-74762380D01*
X66696666Y-74714761D01*
X66744285Y-74667142D01*
X66791904Y-74571904D01*
X66791904Y-74333809D01*
X66744285Y-74238571D01*
X66696666Y-74190952D01*
X66601428Y-74143333D01*
X66410952Y-74143333D01*
X66315714Y-74190952D01*
X66268095Y-74238571D01*
X66220476Y-74333809D01*
X59277142Y-78717142D02*
X59229523Y-78764761D01*
X59086666Y-78812380D01*
X58991428Y-78812380D01*
X58848571Y-78764761D01*
X58753333Y-78669523D01*
X58705714Y-78574285D01*
X58658095Y-78383809D01*
X58658095Y-78240952D01*
X58705714Y-78050476D01*
X58753333Y-77955238D01*
X58848571Y-77860000D01*
X58991428Y-77812380D01*
X59086666Y-77812380D01*
X59229523Y-77860000D01*
X59277142Y-77907619D01*
X60229523Y-78812380D02*
X59658095Y-78812380D01*
X59943809Y-78812380D02*
X59943809Y-77812380D01*
X59848571Y-77955238D01*
X59753333Y-78050476D01*
X59658095Y-78098095D01*
X60562857Y-77812380D02*
X61229523Y-77812380D01*
X60800952Y-78812380D01*
X60768095Y-88752380D02*
X60768095Y-89561904D01*
X60815714Y-89657142D01*
X60863333Y-89704761D01*
X60958571Y-89752380D01*
X61149047Y-89752380D01*
X61244285Y-89704761D01*
X61291904Y-89657142D01*
X61339523Y-89561904D01*
X61339523Y-88752380D01*
X62244285Y-88752380D02*
X62053809Y-88752380D01*
X61958571Y-88800000D01*
X61910952Y-88847619D01*
X61815714Y-88990476D01*
X61768095Y-89180952D01*
X61768095Y-89561904D01*
X61815714Y-89657142D01*
X61863333Y-89704761D01*
X61958571Y-89752380D01*
X62149047Y-89752380D01*
X62244285Y-89704761D01*
X62291904Y-89657142D01*
X62339523Y-89561904D01*
X62339523Y-89323809D01*
X62291904Y-89228571D01*
X62244285Y-89180952D01*
X62149047Y-89133333D01*
X61958571Y-89133333D01*
X61863333Y-89180952D01*
X61815714Y-89228571D01*
X61768095Y-89323809D01*
X70245714Y-145552380D02*
X70245714Y-144552380D01*
X70483809Y-144552380D01*
X70626666Y-144600000D01*
X70721904Y-144695238D01*
X70769523Y-144790476D01*
X70817142Y-144980952D01*
X70817142Y-145123809D01*
X70769523Y-145314285D01*
X70721904Y-145409523D01*
X70626666Y-145504761D01*
X70483809Y-145552380D01*
X70245714Y-145552380D01*
X71769523Y-145552380D02*
X71198095Y-145552380D01*
X71483809Y-145552380D02*
X71483809Y-144552380D01*
X71388571Y-144695238D01*
X71293333Y-144790476D01*
X71198095Y-144838095D01*
X72674285Y-144552380D02*
X72198095Y-144552380D01*
X72150476Y-145028571D01*
X72198095Y-144980952D01*
X72293333Y-144933333D01*
X72531428Y-144933333D01*
X72626666Y-144980952D01*
X72674285Y-145028571D01*
X72721904Y-145123809D01*
X72721904Y-145361904D01*
X72674285Y-145457142D01*
X72626666Y-145504761D01*
X72531428Y-145552380D01*
X72293333Y-145552380D01*
X72198095Y-145504761D01*
X72150476Y-145457142D01*
X66978095Y-143782380D02*
X66978095Y-142782380D01*
X67549523Y-143782380D02*
X67120952Y-143210952D01*
X67549523Y-142782380D02*
X66978095Y-143353809D01*
X69575714Y-148122380D02*
X69575714Y-147122380D01*
X69813809Y-147122380D01*
X69956666Y-147170000D01*
X70051904Y-147265238D01*
X70099523Y-147360476D01*
X70147142Y-147550952D01*
X70147142Y-147693809D01*
X70099523Y-147884285D01*
X70051904Y-147979523D01*
X69956666Y-148074761D01*
X69813809Y-148122380D01*
X69575714Y-148122380D01*
X71099523Y-148122380D02*
X70528095Y-148122380D01*
X70813809Y-148122380D02*
X70813809Y-147122380D01*
X70718571Y-147265238D01*
X70623333Y-147360476D01*
X70528095Y-147408095D01*
X71956666Y-147122380D02*
X71766190Y-147122380D01*
X71670952Y-147170000D01*
X71623333Y-147217619D01*
X71528095Y-147360476D01*
X71480476Y-147550952D01*
X71480476Y-147931904D01*
X71528095Y-148027142D01*
X71575714Y-148074761D01*
X71670952Y-148122380D01*
X71861428Y-148122380D01*
X71956666Y-148074761D01*
X72004285Y-148027142D01*
X72051904Y-147931904D01*
X72051904Y-147693809D01*
X72004285Y-147598571D01*
X71956666Y-147550952D01*
X71861428Y-147503333D01*
X71670952Y-147503333D01*
X71575714Y-147550952D01*
X71528095Y-147598571D01*
X71480476Y-147693809D01*
X76118095Y-148042380D02*
X76118095Y-147042380D01*
X76689523Y-148042380D02*
X76260952Y-147470952D01*
X76689523Y-147042380D02*
X76118095Y-147613809D01*
X76372380Y-101384285D02*
X75372380Y-101384285D01*
X75372380Y-101146190D01*
X75420000Y-101003333D01*
X75515238Y-100908095D01*
X75610476Y-100860476D01*
X75800952Y-100812857D01*
X75943809Y-100812857D01*
X76134285Y-100860476D01*
X76229523Y-100908095D01*
X76324761Y-101003333D01*
X76372380Y-101146190D01*
X76372380Y-101384285D01*
X76372380Y-99860476D02*
X76372380Y-100431904D01*
X76372380Y-100146190D02*
X75372380Y-100146190D01*
X75515238Y-100241428D01*
X75610476Y-100336666D01*
X75658095Y-100431904D01*
X76372380Y-99384285D02*
X76372380Y-99193809D01*
X76324761Y-99098571D01*
X76277142Y-99050952D01*
X76134285Y-98955714D01*
X75943809Y-98908095D01*
X75562857Y-98908095D01*
X75467619Y-98955714D01*
X75420000Y-99003333D01*
X75372380Y-99098571D01*
X75372380Y-99289047D01*
X75420000Y-99384285D01*
X75467619Y-99431904D01*
X75562857Y-99479523D01*
X75800952Y-99479523D01*
X75896190Y-99431904D01*
X75943809Y-99384285D01*
X75991428Y-99289047D01*
X75991428Y-99098571D01*
X75943809Y-99003333D01*
X75896190Y-98955714D01*
X75800952Y-98908095D01*
X78182380Y-96301904D02*
X77182380Y-96301904D01*
X78182380Y-95730476D02*
X77610952Y-96159047D01*
X77182380Y-95730476D02*
X77753809Y-96301904D01*
X70695714Y-106432380D02*
X70695714Y-105432380D01*
X70933809Y-105432380D01*
X71076666Y-105480000D01*
X71171904Y-105575238D01*
X71219523Y-105670476D01*
X71267142Y-105860952D01*
X71267142Y-106003809D01*
X71219523Y-106194285D01*
X71171904Y-106289523D01*
X71076666Y-106384761D01*
X70933809Y-106432380D01*
X70695714Y-106432380D01*
X71648095Y-105527619D02*
X71695714Y-105480000D01*
X71790952Y-105432380D01*
X72029047Y-105432380D01*
X72124285Y-105480000D01*
X72171904Y-105527619D01*
X72219523Y-105622857D01*
X72219523Y-105718095D01*
X72171904Y-105860952D01*
X71600476Y-106432380D01*
X72219523Y-106432380D01*
X72838571Y-105432380D02*
X72933809Y-105432380D01*
X73029047Y-105480000D01*
X73076666Y-105527619D01*
X73124285Y-105622857D01*
X73171904Y-105813333D01*
X73171904Y-106051428D01*
X73124285Y-106241904D01*
X73076666Y-106337142D01*
X73029047Y-106384761D01*
X72933809Y-106432380D01*
X72838571Y-106432380D01*
X72743333Y-106384761D01*
X72695714Y-106337142D01*
X72648095Y-106241904D01*
X72600476Y-106051428D01*
X72600476Y-105813333D01*
X72648095Y-105622857D01*
X72695714Y-105527619D01*
X72743333Y-105480000D01*
X72838571Y-105432380D01*
X75708095Y-108292380D02*
X75708095Y-107292380D01*
X76279523Y-108292380D02*
X75850952Y-107720952D01*
X76279523Y-107292380D02*
X75708095Y-107863809D01*
X113702380Y-108558095D02*
X112702380Y-108558095D01*
X112702380Y-108320000D01*
X112750000Y-108177142D01*
X112845238Y-108081904D01*
X112940476Y-108034285D01*
X113130952Y-107986666D01*
X113273809Y-107986666D01*
X113464285Y-108034285D01*
X113559523Y-108081904D01*
X113654761Y-108177142D01*
X113702380Y-108320000D01*
X113702380Y-108558095D01*
X113702380Y-107034285D02*
X113702380Y-107605714D01*
X113702380Y-107320000D02*
X112702380Y-107320000D01*
X112845238Y-107415238D01*
X112940476Y-107510476D01*
X112988095Y-107605714D01*
X113652380Y-102751904D02*
X112652380Y-102751904D01*
X113652380Y-102180476D02*
X113080952Y-102609047D01*
X112652380Y-102180476D02*
X113223809Y-102751904D01*
X99213333Y-89142380D02*
X98880000Y-88666190D01*
X98641904Y-89142380D02*
X98641904Y-88142380D01*
X99022857Y-88142380D01*
X99118095Y-88190000D01*
X99165714Y-88237619D01*
X99213333Y-88332857D01*
X99213333Y-88475714D01*
X99165714Y-88570952D01*
X99118095Y-88618571D01*
X99022857Y-88666190D01*
X98641904Y-88666190D01*
X100070476Y-88142380D02*
X99880000Y-88142380D01*
X99784761Y-88190000D01*
X99737142Y-88237619D01*
X99641904Y-88380476D01*
X99594285Y-88570952D01*
X99594285Y-88951904D01*
X99641904Y-89047142D01*
X99689523Y-89094761D01*
X99784761Y-89142380D01*
X99975238Y-89142380D01*
X100070476Y-89094761D01*
X100118095Y-89047142D01*
X100165714Y-88951904D01*
X100165714Y-88713809D01*
X100118095Y-88618571D01*
X100070476Y-88570952D01*
X99975238Y-88523333D01*
X99784761Y-88523333D01*
X99689523Y-88570952D01*
X99641904Y-88618571D01*
X99594285Y-88713809D01*
M02*
