M48
; DRILL file {KiCad (5.1.2)-1} date 4/26/2021 4:40:21 AM
; FORMAT={-:-/ absolute / inch / decimal}
; #@! TF.CreationDate,2021-04-26T04:40:21-07:00
; #@! TF.GenerationSoftware,Kicad,Pcbnew,(5.1.2)-1
; #@! TF.FileFunction,Plated,1,4,PTH
FMAT,2
INCH
T1C0.0157
T2C0.0276
T3C0.0315
T4C0.0354
T5C0.0394
T6C0.0402
T7C0.0433
T8C0.0591
T9C0.0630
T10C0.0709
%
G90
G05
T1
X2.2441Y-5.6427
X2.3179Y-5.315
X2.3752Y-3.3091
X2.3777Y-5.3947
X2.3898Y-4.6378
X2.4768Y-3.2091
X2.4931Y-4.4321
X2.4965Y-2.8453
X2.5449Y-4.5012
X2.6083Y-2.372
X2.6199Y-2.5394
X2.6199Y-2.8919
X2.6575Y-3.0807
X2.6669Y-4.6442
X2.677Y-2.9301
X2.7165Y-3.002
X2.7309Y-2.0051
X2.7352Y-4.3504
X2.7476Y-4.0807
X2.8425Y-4.7638
X2.8711Y-4.6703
X2.9006Y-5.4656
X2.9134Y-3.6909
X2.9331Y-5.0591
X2.9331Y-5.3543
X2.9552Y-2.0051
X2.9894Y-4.0189
X3.0346Y-4.7594
X3.0351Y-4.644
X3.061Y-4.0945
X3.0669Y-5.1587
X3.1693Y-2.8937
X3.2028Y-3.9764
X3.2451Y-2.9528
X3.2539Y-4.0512
X3.2579Y-4.9587
X3.3169Y-4.0157
X3.335Y-5.228
X3.3465Y-4.0945
X3.3602Y-2.2839
X3.4035Y-3.7402
X3.4063Y-1.9382
X3.4567Y-4.3957
X3.5012Y-3.2425
X3.5061Y-1.8278
X3.5335Y-2.9528
X3.5374Y-4.3701
X3.5453Y-2.9972
X3.5551Y-4.1102
X3.5587Y-5.228
X3.5591Y-5.0276
X3.563Y-5.4134
X3.5866Y-4.7126
X3.5876Y-4.5679
X3.622Y-4.3622
X3.7197Y-3.6264
X3.7197Y-3.7917
X3.7638Y-5.6427
X3.7717Y-5.4449
X3.7992Y-4.815
X3.8091Y-2.4902
X3.8287Y-3.7402
X3.8368Y-3.1734
X3.837Y-4.6118
X3.8386Y-4.0512
X3.8654Y-3.2425
X3.9055Y-4.5163
X3.9217Y-5.7067
X3.9311Y-4.248
X3.937Y-4.0157
X3.937Y-4.7343
X3.9409Y-3.7067
X3.9567Y-4.9331
X3.9921Y-5.0394
X3.9961Y-5.1752
X4.0108Y-3.5581
X4.0114Y-2.0673
X4.0236Y-4.811
X4.0315Y-5.4449
X4.048Y-2.2469
X4.0551Y-4.4094
X4.0551Y-4.4685
X4.0699Y-4.6118
X4.0748Y-3.9764
X4.0984Y-4.1909
X4.124Y-4.7343
X4.2205Y-4.9921
X4.3087Y-4.0228
X4.3091Y-1.9724
X4.3445Y-3.4551
X4.3772Y-2.2469
X4.3984Y-3.0709
X4.4026Y-4.1191
X4.4569Y-4.6561
X4.4724Y-4.7114
X4.5039Y-4.0228
T2
X2.8425Y-4.9606
X2.8425Y-5.0591
T3
X3.3858Y-4.2717
X3.5827Y-4.2717
X4.4579Y-4.0937
X4.4579Y-4.3937
X2.8661Y-2.065
X3.063Y-2.065
X3.8091Y-4.472
X3.8091Y-4.872
X3.6961Y-5.7077
X3.9961Y-5.7077
X2.2736Y-3.7303
X2.2736Y-3.9272
X3.9252Y-4.874
X4.122Y-4.874
X2.2441Y-5.0937
X2.2441Y-5.3937
X3.7354Y-3.4976
X4.1354Y-3.4976
X2.8661Y-2.1673
X3.063Y-2.1673
X3.2449Y-2.874
X3.3449Y-2.874
X3.4449Y-2.874
X3.5567Y-2.4902
X3.9567Y-2.4902
X2.9449Y-4.7638
X3.3449Y-4.7638
X3.135Y-5.0295
X3.135Y-5.3295
X3.235Y-5.0295
X3.235Y-5.3295
X3.335Y-5.0295
X3.335Y-5.3295
X3.435Y-5.0295
X3.435Y-5.3295
X3.9469Y-2.602
X3.9469Y-3.002
X3.5591Y-4.9307
X3.5591Y-5.3307
X3.0906Y-5.4213
X3.0906Y-5.8213
X2.2748Y-1.9417
X2.4126Y-1.9417
X3.0906Y-4.2717
X3.2874Y-4.2717
X4.435Y-1.6472
X4.435Y-2.0472
X3.8189Y-4.9902
X3.8189Y-5.0902
X3.8189Y-5.1902
X3.8189Y-5.2902
X3.8189Y-5.3902
X3.8189Y-5.4902
X3.8189Y-5.5902
X4.1189Y-4.9902
X4.1189Y-5.0902
X4.1189Y-5.1902
X4.1189Y-5.2902
X4.1189Y-5.3902
X4.1189Y-5.4902
X4.1189Y-5.5902
X3.2618Y-2.3035
X3.2618Y-2.7035
X2.7413Y-2.1874
X2.7413Y-2.5874
X2.7406Y-2.7035
X3.1406Y-2.7035
X3.563Y-5.5315
X3.563Y-5.7283
X3.8681Y-5.8071
X4.065Y-5.8071
X4.4291Y-2.1394
X4.4291Y-2.5394
X2.7421Y-2.8453
X3.1421Y-2.8453
X2.2736Y-4.3307
X2.2736Y-4.5276
X2.7567Y-3.4913
X3.1567Y-3.4913
X2.2657Y-3.2091
X2.2657Y-3.3091
X2.2657Y-3.4091
X2.2657Y-3.5091
X2.5657Y-3.2091
X2.5657Y-3.3091
X2.5657Y-3.4091
X2.5657Y-3.5091
X2.6083Y-2.0669
X2.6083Y-2.4669
X3.3268Y-5.4173
X3.3268Y-5.8173
X2.9894Y-3.7811
X2.9894Y-4.0811
X2.7953Y-3.622
X2.9921Y-3.622
X3.2087Y-5.4189
X3.2087Y-5.8189
X3.6811Y-4.1118
X3.6811Y-4.2118
X3.6811Y-4.3118
X3.6811Y-4.4118
X3.6811Y-4.5118
X3.6811Y-4.6118
X3.6811Y-4.7118
X3.6811Y-4.8118
X3.6811Y-4.9118
X3.6811Y-5.0118
X3.6811Y-5.1118
X3.6811Y-5.2118
X3.6811Y-5.3118
X3.6811Y-5.4118
X3.6811Y-5.5118
X4.2811Y-4.1118
X4.2811Y-4.2118
X4.2811Y-4.3118
X4.2811Y-4.4118
X4.2811Y-4.5118
X4.2811Y-4.6118
X4.2811Y-4.7118
X4.2811Y-4.8118
X4.2811Y-4.9118
X4.2811Y-5.0118
X4.2811Y-5.1118
X4.2811Y-5.2118
X4.2811Y-5.3118
X4.2811Y-5.4118
X4.2811Y-5.5118
X4.4469Y-4.8756
X4.4469Y-5.2756
X3.4409Y-4.7323
X3.4409Y-4.9291
X2.7417Y-4.4331
X3.1417Y-4.4331
X3.0157Y-5.0335
X3.0157Y-5.2303
X2.7417Y-4.5591
X3.1417Y-4.5591
X3.4469Y-5.4173
X3.4469Y-5.8173
X3.2579Y-2.1555
X3.6579Y-2.1555
X2.7835Y-4.2815
X2.9803Y-4.2815
X2.5795Y-2.9972
X2.5795Y-3.0957
X3.7929Y-4.1142
X4.1929Y-4.1142
X2.265Y-3.0874
X2.4618Y-3.0874
X2.9921Y-2.4181
X2.9921Y-2.5181
X2.9921Y-2.6181
X2.9724Y-5.4213
X2.9724Y-5.8213
X3.7929Y-4.248
X4.1929Y-4.248
X2.8504Y-2.2815
X2.8504Y-2.3815
X2.8504Y-2.4815
X2.8504Y-2.5815
X3.1504Y-2.2815
X3.1504Y-2.3815
X3.1504Y-2.4815
X3.1504Y-2.5815
X2.2441Y-5.4874
X2.2441Y-5.7874
X2.6909Y-4.1748
X2.9909Y-4.1748
X3.5591Y-4.4465
X3.5591Y-4.8465
X4.4579Y-4.4835
X4.4579Y-4.7835
X2.2819Y-2.3024
X2.4197Y-2.3024
X2.9465Y-4.9213
X3.3465Y-4.9213
T4
X4.1795Y-3.0709
X4.2795Y-3.0709
X3.7795Y-2.628
X3.7795Y-2.7303
X3.7795Y-2.8327
X2.2736Y-4.0226
X2.2736Y-4.125
X2.2736Y-4.2274
X4.1795Y-1.8898
X4.2795Y-1.8898
X4.4469Y-5.3898
X4.4469Y-5.4921
X4.4469Y-5.5945
X4.1417Y-4.3583
X4.1417Y-4.4606
X4.1417Y-4.563
X3.4394Y-2.5102
X3.4394Y-2.6126
X3.4394Y-2.715
X3.75Y-2.1752
X3.8524Y-2.1752
X3.9547Y-2.1752
X3.5925Y-2.628
X3.5925Y-2.7303
X3.5925Y-2.8327
X3.4547Y-2.3524
X3.5571Y-2.3524
X3.6594Y-2.3524
X3.3043Y-4.5197
X3.4043Y-4.5197
X2.4803Y-4.1535
X2.5803Y-4.1535
X3.75Y-2.3524
X3.8524Y-2.3524
X3.9547Y-2.3524
T5
X2.6772Y-1.6331
X2.6772Y-1.7331
X2.6772Y-1.8331
X2.6772Y-1.9331
X2.7772Y-1.6331
X2.7772Y-1.7331
X2.7772Y-1.8331
X2.7772Y-1.9331
X2.2827Y-2.5563
X2.2827Y-2.6563
X2.2827Y-2.7563
X2.2827Y-2.8563
X2.2827Y-2.9563
X2.3827Y-2.5563
X2.3827Y-2.6563
X2.3827Y-2.7563
X2.3827Y-2.8563
X2.3827Y-2.9563
X3.2559Y-3.6024
X3.2559Y-4.1732
X3.3543Y-4.1732
X3.4528Y-3.6024
X3.4528Y-4.1732
X2.8248Y-3.8189
X2.8248Y-3.9189
X2.8248Y-4.0189
X2.8346Y-5.2953
X2.8346Y-5.3937
X2.8346Y-5.4921
T6
X4.4689Y-3.1579
X4.4689Y-3.2579
X4.4689Y-3.3579
X4.4689Y-3.4579
X4.4689Y-3.5579
X4.4689Y-3.6579
X4.4689Y-3.7579
X4.4689Y-3.8579
X3.2063Y-2.0276
X3.3063Y-2.0276
X3.4063Y-2.0276
X3.5063Y-2.0276
T7
X2.7756Y-3.1142
X2.7756Y-3.3701
X2.9528Y-3.1142
X2.9528Y-3.3701
X3.8031Y-3.622
X3.8031Y-3.922
X3.6417Y-1.624
X3.6417Y-1.8799
X3.8189Y-1.624
X3.8189Y-1.8799
X3.1004Y-3.1142
X3.1004Y-3.3701
X3.2776Y-3.1142
X3.2776Y-3.3701
X3.435Y-3.1142
X3.435Y-3.3701
X3.6122Y-3.1142
X3.6122Y-3.3701
X3.7598Y-3.1142
X3.7598Y-3.3701
X3.937Y-3.1142
X3.937Y-3.3701
X3.937Y-3.6213
X3.937Y-3.9213
X2.8937Y-1.624
X2.8937Y-1.8799
X3.0709Y-1.624
X3.0709Y-1.8799
X2.4409Y-4.311
X2.4409Y-4.5669
X2.6181Y-4.311
X2.6181Y-4.5669
T8
X2.4803Y-3.7295
X2.4803Y-3.9047
X2.5394Y-3.639
X2.5394Y-3.9894
X4.1142Y-2.6469
X4.1142Y-2.822
X4.1732Y-2.5563
X4.1732Y-2.9067
X4.1142Y-3.7295
X4.1142Y-3.9047
X4.1732Y-3.639
X4.1732Y-3.9894
X4.1142Y-2.135
X4.1142Y-2.3102
X4.1732Y-2.0445
X4.1732Y-2.3949
X2.4803Y-4.7925
X2.4803Y-4.9677
X2.5394Y-4.702
X2.5394Y-5.0524
T9
X4.2736Y-3.9476
X4.0008Y-1.7689
X4.2736Y-2.3531
X2.7461Y-5.7677
X2.6398Y-5.0106
X2.6398Y-3.9476
X4.2736Y-2.865
T9
G00X4.2736Y-3.7043
M15
G01X4.2736Y-3.665
M16
G05
G00X4.2736Y-2.1098
M15
G01X4.2736Y-2.0705
M16
G05
G00X2.6398Y-4.7673
M15
G01X2.6398Y-4.728
M16
G05
G00X2.6398Y-3.7043
M15
G01X2.6398Y-3.665
M16
G05
G00X4.2736Y-2.6217
M15
G01X4.2736Y-2.5823
M16
G05
T10
G00X3.1299Y-3.8622
M15
G01X3.1299Y-3.8937
M16
G05
G00X3.5787Y-3.8622
M15
G01X3.5787Y-3.8937
M16
G05
T0
M30
