G04 #@! TF.GenerationSoftware,KiCad,Pcbnew,(5.1.2)-1*
G04 #@! TF.CreationDate,2021-04-26T04:40:24-07:00*
G04 #@! TF.ProjectId,Spankulator,5370616e-6b75-46c6-9174-6f722e6b6963,2.2*
G04 #@! TF.SameCoordinates,Original*
G04 #@! TF.FileFunction,Copper,L4,Bot*
G04 #@! TF.FilePolarity,Positive*
%FSLAX46Y46*%
G04 Gerber Fmt 4.6, Leading zero omitted, Abs format (unit mm)*
G04 Created by KiCad (PCBNEW (5.1.2)-1) date 2021-04-26 04:40:24*
%MOMM*%
%LPD*%
G04 APERTURE LIST*
%ADD10O,1.600000X1.600000*%
%ADD11C,1.600000*%
%ADD12C,2.020000*%
%ADD13R,2.020000X2.020000*%
%ADD14C,1.800000*%
%ADD15C,4.000000*%
%ADD16C,2.000000*%
%ADD17R,1.600000X1.600000*%
%ADD18R,2.800000X3.600000*%
%ADD19R,1.800000X1.800000*%
%ADD20O,1.600000X2.600000*%
%ADD21C,2.250000*%
%ADD22C,2.800000*%
%ADD23R,2.000000X2.000000*%
%ADD24R,1.500000X1.500000*%
%ADD25C,1.500000*%
%ADD26O,2.000000X2.000000*%
%ADD27C,1.400000*%
%ADD28R,1.700000X1.700000*%
%ADD29O,1.700000X1.700000*%
%ADD30R,2.400000X1.600000*%
%ADD31O,2.400000X1.600000*%
%ADD32C,1.440000*%
%ADD33C,0.800000*%
%ADD34C,0.250000*%
%ADD35C,0.200000*%
%ADD36C,0.254000*%
G04 APERTURE END LIST*
D10*
X112500000Y-54340000D03*
D11*
X112500000Y-64500000D03*
D12*
X113510000Y-80210000D03*
X113510000Y-82750000D03*
X113510000Y-85290000D03*
X113510000Y-87830000D03*
X113510000Y-90370000D03*
X113510000Y-92910000D03*
X113510000Y-95450000D03*
D13*
X113510000Y-97990000D03*
D14*
X72000000Y-139500000D03*
X72000000Y-137000000D03*
X72000000Y-134500000D03*
D15*
X65000000Y-141400000D03*
X65000000Y-132600000D03*
D16*
X78750000Y-79100000D03*
X83250000Y-79100000D03*
X78750000Y-85600000D03*
X83250000Y-85600000D03*
D10*
X100250000Y-66090000D03*
D11*
X100250000Y-76250000D03*
D10*
X108740000Y-104440000D03*
X93500000Y-104440000D03*
X108740000Y-140000000D03*
X93500000Y-106980000D03*
X108740000Y-137460000D03*
X93500000Y-109520000D03*
X108740000Y-134920000D03*
X93500000Y-112060000D03*
X108740000Y-132380000D03*
X93500000Y-114600000D03*
X108740000Y-129840000D03*
X93500000Y-117140000D03*
X108740000Y-127300000D03*
X93500000Y-119680000D03*
X108740000Y-124760000D03*
X93500000Y-122220000D03*
X108740000Y-122220000D03*
X93500000Y-124760000D03*
X108740000Y-119680000D03*
X93500000Y-127300000D03*
X108740000Y-117140000D03*
X93500000Y-129840000D03*
X108740000Y-114600000D03*
X93500000Y-132380000D03*
X108740000Y-112060000D03*
X93500000Y-134920000D03*
X108740000Y-109520000D03*
X93500000Y-137460000D03*
X108740000Y-106980000D03*
D17*
X93500000Y-140000000D03*
D16*
X87700000Y-106000000D03*
X85200000Y-106000000D03*
X82700000Y-106000000D03*
X87700000Y-91500000D03*
X82700000Y-91500000D03*
D18*
X90900000Y-98500000D03*
X79500000Y-98500000D03*
D11*
X61460000Y-58480000D03*
D17*
X57960000Y-58480000D03*
D11*
X57780000Y-49320000D03*
D17*
X61280000Y-49320000D03*
D14*
X108700000Y-48000000D03*
D19*
X106160000Y-48000000D03*
D14*
X108700000Y-78000000D03*
D19*
X106160000Y-78000000D03*
D14*
X65540000Y-105500000D03*
D19*
X63000000Y-105500000D03*
D11*
X67050000Y-100270000D03*
D20*
X67050000Y-93590000D03*
D21*
X64500000Y-92430000D03*
X63000000Y-94730000D03*
X63000000Y-99180000D03*
X64500000Y-101330000D03*
D11*
X108550000Y-59770000D03*
D20*
X108550000Y-53090000D03*
D21*
X106000000Y-51930000D03*
X104500000Y-54230000D03*
X104500000Y-58680000D03*
X106000000Y-60830000D03*
D11*
X108550000Y-72770000D03*
D20*
X108550000Y-66090000D03*
D21*
X106000000Y-64930000D03*
X104500000Y-67230000D03*
X104500000Y-71680000D03*
X106000000Y-73830000D03*
D11*
X108550000Y-100270000D03*
D20*
X108550000Y-93590000D03*
D21*
X106000000Y-92430000D03*
X104500000Y-94730000D03*
X104500000Y-99180000D03*
X106000000Y-101330000D03*
D11*
X67050000Y-127270000D03*
D20*
X67050000Y-120590000D03*
D21*
X64500000Y-119430000D03*
X63000000Y-121730000D03*
X63000000Y-126180000D03*
X64500000Y-128330000D03*
D10*
X69640000Y-112600000D03*
D11*
X79800000Y-112600000D03*
D10*
X112650000Y-41840000D03*
D11*
X112650000Y-52000000D03*
D10*
X96750000Y-113590000D03*
D11*
X96750000Y-123750000D03*
D10*
X69640000Y-115800000D03*
D11*
X79800000Y-115800000D03*
D10*
X69630000Y-65720000D03*
D11*
X69630000Y-55560000D03*
D10*
X96340000Y-104500000D03*
D11*
X106500000Y-104500000D03*
D16*
X73500000Y-41250000D03*
X78000000Y-41250000D03*
X73500000Y-47750000D03*
X78000000Y-47750000D03*
X92500000Y-41250000D03*
X97000000Y-41250000D03*
X92500000Y-47750000D03*
X97000000Y-47750000D03*
X62000000Y-109500000D03*
X66500000Y-109500000D03*
X62000000Y-116000000D03*
X66500000Y-116000000D03*
X87250000Y-79100000D03*
X91750000Y-79100000D03*
X87250000Y-85600000D03*
X91750000Y-85600000D03*
X70500000Y-79100000D03*
X75000000Y-79100000D03*
X70500000Y-85600000D03*
X75000000Y-85600000D03*
X95500000Y-79100000D03*
X100000000Y-79100000D03*
X95500000Y-85600000D03*
X100000000Y-85600000D03*
D22*
X69750000Y-146500000D03*
D10*
X104620000Y-126750000D03*
X97000000Y-141990000D03*
X104620000Y-129290000D03*
X97000000Y-139450000D03*
X104620000Y-131830000D03*
X97000000Y-136910000D03*
X104620000Y-134370000D03*
X97000000Y-134370000D03*
X104620000Y-136910000D03*
X97000000Y-131830000D03*
X104620000Y-139450000D03*
X97000000Y-129290000D03*
X104620000Y-141990000D03*
D17*
X97000000Y-126750000D03*
D16*
X71750000Y-102080000D03*
X71750000Y-99540000D03*
D23*
X71750000Y-97000000D03*
D11*
X75700000Y-108750000D03*
X70700000Y-108750000D03*
X76000000Y-92000000D03*
X71000000Y-92000000D03*
X99700000Y-123800000D03*
X104700000Y-123800000D03*
X98250000Y-147500000D03*
X103250000Y-147500000D03*
X72800000Y-55050000D03*
X77800000Y-55050000D03*
X72800000Y-52450000D03*
X77800000Y-52450000D03*
D12*
X89060000Y-51500000D03*
X86520000Y-51500000D03*
X83980000Y-51500000D03*
X81440000Y-51500000D03*
D10*
X96340000Y-107900000D03*
D11*
X106500000Y-107900000D03*
D24*
X105200000Y-115900000D03*
D25*
X105200000Y-110700000D03*
X105200000Y-113300000D03*
D14*
X83930000Y-114800000D03*
D19*
X86470000Y-114800000D03*
D10*
X84500000Y-147760000D03*
D11*
X84500000Y-137600000D03*
D10*
X90400000Y-112940000D03*
D11*
X90400000Y-123100000D03*
D10*
X84960000Y-121000000D03*
D11*
X74800000Y-121000000D03*
D10*
X74840000Y-125000000D03*
D11*
X85000000Y-125000000D03*
D10*
X90400000Y-125240000D03*
D11*
X90400000Y-135400000D03*
D10*
X81500000Y-137640000D03*
D11*
X81500000Y-147800000D03*
D10*
X78500000Y-147860000D03*
D11*
X78500000Y-137700000D03*
X87400000Y-120200000D03*
X87400000Y-125200000D03*
X76600000Y-127850000D03*
X76600000Y-132850000D03*
X91000000Y-108500000D03*
X86000000Y-108500000D03*
X78500000Y-108500000D03*
X83500000Y-108500000D03*
D23*
X96600000Y-92000000D03*
D26*
X96600000Y-99620000D03*
D27*
X72200000Y-126000000D03*
X72200000Y-128500000D03*
D26*
X100000000Y-91980000D03*
D23*
X100000000Y-99600000D03*
D11*
X87550000Y-137600000D03*
D10*
X87550000Y-147760000D03*
D28*
X68000000Y-49100000D03*
D29*
X70540000Y-49100000D03*
X68000000Y-46560000D03*
X70540000Y-46560000D03*
X68000000Y-44020000D03*
X70540000Y-44020000D03*
X68000000Y-41480000D03*
X70540000Y-41480000D03*
D11*
X80180000Y-88680000D03*
D10*
X70020000Y-88680000D03*
D17*
X72400000Y-57950000D03*
D10*
X80020000Y-65570000D03*
X72400000Y-60490000D03*
X80020000Y-63030000D03*
X72400000Y-63030000D03*
X80020000Y-60490000D03*
X72400000Y-65570000D03*
X80020000Y-57950000D03*
X87250000Y-135370000D03*
X79630000Y-127750000D03*
X84710000Y-135370000D03*
X82170000Y-127750000D03*
X82170000Y-135370000D03*
X84710000Y-127750000D03*
X79630000Y-135370000D03*
D17*
X87250000Y-127750000D03*
D22*
X101620000Y-44930000D03*
D25*
X112950000Y-139500000D03*
X112950000Y-136900000D03*
D24*
X112950000Y-142100000D03*
D11*
X112950000Y-134000000D03*
D10*
X112950000Y-123840000D03*
D17*
X113230000Y-121500000D03*
D10*
X113230000Y-113880000D03*
X93880000Y-144975000D03*
D17*
X101500000Y-144975000D03*
D24*
X87360000Y-68960000D03*
D25*
X87360000Y-63760000D03*
X87360000Y-66360000D03*
X90350000Y-59750000D03*
X92950000Y-59750000D03*
D24*
X87750000Y-59750000D03*
D10*
X90340000Y-63250000D03*
D11*
X100500000Y-63250000D03*
X79810000Y-72270000D03*
D10*
X69650000Y-72270000D03*
D11*
X69610000Y-68670000D03*
D10*
X79770000Y-68670000D03*
X82850000Y-58510000D03*
D11*
X82850000Y-68670000D03*
D28*
X57980000Y-75090000D03*
D29*
X60520000Y-75090000D03*
X57980000Y-72550000D03*
X60520000Y-72550000D03*
X57980000Y-70010000D03*
X60520000Y-70010000D03*
X57980000Y-67470000D03*
X60520000Y-67470000D03*
X57980000Y-64930000D03*
X60520000Y-64930000D03*
D11*
X65520000Y-78630000D03*
X65520000Y-76130000D03*
X57530000Y-78420000D03*
X62530000Y-78420000D03*
D30*
X57550000Y-81510000D03*
D31*
X65170000Y-89130000D03*
X57550000Y-84050000D03*
X65170000Y-86590000D03*
X57550000Y-86590000D03*
X65170000Y-84050000D03*
X57550000Y-89130000D03*
X65170000Y-81510000D03*
D17*
X57000000Y-147000000D03*
D10*
X57000000Y-139380000D03*
X57000000Y-129380000D03*
D17*
X57000000Y-137000000D03*
X75930000Y-96040000D03*
D10*
X75930000Y-103660000D03*
X68350000Y-106040000D03*
D17*
X75970000Y-106040000D03*
X113230000Y-103980000D03*
D10*
X113230000Y-111600000D03*
D11*
X94880000Y-88840000D03*
D10*
X105040000Y-88840000D03*
D25*
X57750000Y-104774999D03*
X57750000Y-102174999D03*
D24*
X57750000Y-107374999D03*
D11*
X57750000Y-115000000D03*
D17*
X57750000Y-110000000D03*
X57750000Y-99750000D03*
D11*
X57750000Y-94750000D03*
X90500000Y-140500000D03*
X90500000Y-145500000D03*
D10*
X75500000Y-137700000D03*
D11*
X75500000Y-147860000D03*
X66250000Y-52500000D03*
D10*
X66250000Y-62660000D03*
D32*
X76000000Y-61420000D03*
X76000000Y-63960000D03*
X76000000Y-66500000D03*
X87500000Y-73000000D03*
X84960000Y-73000000D03*
X82420000Y-73000000D03*
D24*
X96000000Y-66750000D03*
D25*
X96000000Y-71950000D03*
X96000000Y-69350000D03*
X97850000Y-59750000D03*
X100450000Y-59750000D03*
D24*
X95250000Y-59750000D03*
D11*
X82750000Y-54750000D03*
D10*
X92910000Y-54750000D03*
D24*
X91250000Y-66750000D03*
D25*
X91250000Y-71950000D03*
X91250000Y-69350000D03*
X97850000Y-55250000D03*
X100450000Y-55250000D03*
D24*
X95250000Y-55250000D03*
D33*
X111720000Y-78000000D03*
X67500000Y-78250000D03*
X69000000Y-76250000D03*
X103500000Y-101000000D03*
X81350000Y-101000000D03*
X80500000Y-73500000D03*
X66545001Y-73454999D03*
X66545001Y-64500000D03*
X60700000Y-117800000D03*
X60394345Y-137025655D03*
X113600000Y-119670000D03*
X114400000Y-102180000D03*
X109440000Y-102180000D03*
X88930000Y-82360000D03*
X98180000Y-82360000D03*
X91124999Y-116025001D03*
X91100000Y-119700000D03*
X103000000Y-112000000D03*
X102820000Y-57070000D03*
X111180000Y-57070000D03*
X104100000Y-106450000D03*
X107200000Y-126800000D03*
X97500000Y-102900000D03*
X82650000Y-102900000D03*
X60330000Y-84050000D03*
X75930000Y-102080000D03*
X99850000Y-107900000D03*
X100000000Y-120250000D03*
X104750000Y-120250000D03*
X82426000Y-75000000D03*
X89750000Y-75000000D03*
X96750000Y-63250000D03*
X87800000Y-111650000D03*
X89850000Y-111000000D03*
X90300000Y-104400000D03*
X111824999Y-104625001D03*
X94480000Y-92110000D03*
X94480000Y-96310000D03*
X64640001Y-114330001D03*
X96500000Y-122300000D03*
X97250000Y-95000000D03*
X86450000Y-95000000D03*
X85350000Y-58010000D03*
X66250000Y-60250000D03*
X63325001Y-112574999D03*
X97460000Y-117140000D03*
X72925000Y-118625000D03*
X99610000Y-144950000D03*
X69364999Y-50928589D03*
X75061411Y-50928589D03*
X113204999Y-118265001D03*
X86520000Y-49230000D03*
X109450000Y-50100000D03*
X110350000Y-87760000D03*
X102200000Y-122200000D03*
X101890001Y-52509999D03*
X101874999Y-90375001D03*
X89054999Y-46424999D03*
X67738095Y-117961905D03*
X77091667Y-117958333D03*
X77080000Y-120890000D03*
X82750000Y-125950000D03*
X92000000Y-110800000D03*
X90400000Y-127700000D03*
X90390000Y-132790000D03*
X84710000Y-132790000D03*
X101500000Y-131450000D03*
X72200000Y-121000000D03*
X74500000Y-128500000D03*
X74500000Y-136000000D03*
X97454999Y-80605001D03*
X63410000Y-72270000D03*
X58875001Y-135000000D03*
X90050000Y-76130000D03*
X67995001Y-74424999D03*
X62910000Y-81510000D03*
X77900000Y-131030001D03*
X69790000Y-103650000D03*
X103374999Y-117140000D03*
X102400000Y-138300000D03*
X95800000Y-138300000D03*
X95600000Y-143325001D03*
X103000000Y-113500000D03*
X69475001Y-110500000D03*
X57000000Y-143325001D03*
X99200000Y-114715001D03*
X100100001Y-94149999D03*
X101400000Y-128000000D03*
X74000000Y-93750000D03*
X84250000Y-102000000D03*
X100000000Y-102000000D03*
X100500000Y-125300000D03*
X73674999Y-138825001D03*
X90500000Y-137500000D03*
X85000000Y-104000000D03*
X77750000Y-104000000D03*
D34*
X107940001Y-111260001D02*
X108740000Y-112060000D01*
X107614999Y-110934999D02*
X107940001Y-111260001D01*
X107614999Y-108979999D02*
X107614999Y-110934999D01*
X107625001Y-108969997D02*
X107614999Y-108979999D01*
X107625001Y-107290003D02*
X107625001Y-108969997D01*
X103500000Y-103165002D02*
X107625001Y-107290003D01*
X103500000Y-101000000D02*
X103500000Y-103165002D01*
X66545001Y-73454999D02*
X66545001Y-73454999D01*
X81341738Y-74341738D02*
X80500000Y-73500000D01*
X81350000Y-101000000D02*
X81341738Y-74500000D01*
X81341738Y-74500000D02*
X81341738Y-74341738D01*
X66545001Y-64500000D02*
X66545001Y-64500000D01*
X66545001Y-64500000D02*
X66545001Y-73454999D01*
X87750000Y-78930000D02*
X87770000Y-78950000D01*
X60700000Y-117800000D02*
X60700000Y-117800000D01*
X60374999Y-118125001D02*
X60700000Y-117800000D01*
X60394345Y-137025655D02*
X60374999Y-118125001D01*
X114355001Y-112725001D02*
X114355001Y-118914999D01*
X113230000Y-111600000D02*
X114355001Y-112725001D01*
X114355001Y-118914999D02*
X113600000Y-119670000D01*
X113600000Y-119670000D02*
X113600000Y-119670000D01*
X113230000Y-111600000D02*
X114400000Y-110430000D01*
X114400000Y-110430000D02*
X114400000Y-102180000D01*
X114400000Y-102180000D02*
X114400000Y-102180000D01*
X105839999Y-89639999D02*
X105040000Y-88840000D01*
X106691003Y-89639999D02*
X105839999Y-89639999D01*
X109839999Y-92788995D02*
X106691003Y-89639999D01*
X109839999Y-101780001D02*
X109839999Y-92788995D01*
X109440000Y-102180000D02*
X109839999Y-101780001D01*
X98224989Y-101136390D02*
X98224989Y-82155011D01*
X97549999Y-122950001D02*
X97549999Y-118303001D01*
X98350000Y-101261401D02*
X98224989Y-101136390D01*
X96750000Y-123750000D02*
X97549999Y-122950001D01*
X97549999Y-118303001D02*
X96734999Y-117488001D01*
X96734999Y-117488001D02*
X96734999Y-115270003D01*
X96734999Y-115270003D02*
X98350000Y-113655002D01*
X98350000Y-113655002D02*
X98350000Y-101261401D01*
X88930000Y-82360000D02*
X88930000Y-82360000D01*
X88930000Y-67930000D02*
X87360000Y-66360000D01*
X88930000Y-82360000D02*
X88930000Y-67930000D01*
X91100000Y-119700000D02*
X91100000Y-119700000D01*
X91124999Y-119675001D02*
X91100000Y-119700000D01*
X91124999Y-116025001D02*
X91124999Y-119675001D01*
X103000000Y-112000000D02*
X103000000Y-112000000D01*
X102660000Y-57230000D02*
X102820000Y-57070000D01*
X102660000Y-62750000D02*
X102660000Y-57230000D01*
X103000000Y-111434315D02*
X103000000Y-112000000D01*
X102660000Y-111094315D02*
X103000000Y-111434315D01*
X105085001Y-82966001D02*
X102660000Y-85391002D01*
X102660000Y-85391002D02*
X102660000Y-111094315D01*
X105085001Y-81453999D02*
X105085001Y-82966001D01*
X102660000Y-79028998D02*
X105085001Y-81453999D01*
X102660000Y-62750000D02*
X102660000Y-79028998D01*
X111180000Y-53470000D02*
X112650000Y-52000000D01*
X111180000Y-57070000D02*
X111180000Y-53470000D01*
X104450001Y-112550001D02*
X105200000Y-113300000D01*
X104100000Y-106450000D02*
X104124999Y-112224999D01*
X104124999Y-112224999D02*
X104450001Y-112550001D01*
X107614999Y-127200000D02*
X107200000Y-126800000D01*
X108740000Y-140000000D02*
X107614999Y-138874999D01*
X107614999Y-138874999D02*
X107614999Y-127200000D01*
X107200000Y-126800000D02*
X107200000Y-126800000D01*
X97500000Y-106740000D02*
X96340000Y-107900000D01*
X97500000Y-102900000D02*
X97500000Y-106740000D01*
X104700000Y-126670000D02*
X104620000Y-126750000D01*
X104700000Y-123800000D02*
X104700000Y-126670000D01*
X82650000Y-91550000D02*
X82700000Y-91500000D01*
X82650000Y-102900000D02*
X82650000Y-91550000D01*
X81924999Y-81411411D02*
X81925010Y-81411400D01*
X81924999Y-89310786D02*
X81924999Y-81411411D01*
X82700000Y-91500000D02*
X82700000Y-90085787D01*
X82700000Y-90085787D02*
X81924999Y-89310786D01*
X103250000Y-140820000D02*
X104620000Y-139450000D01*
X103250000Y-147500000D02*
X103250000Y-140820000D01*
X82000000Y-75426000D02*
X82426000Y-75000000D01*
X70700000Y-103130000D02*
X71750000Y-102080000D01*
X70700000Y-108750000D02*
X70700000Y-103130000D01*
X57950000Y-89130000D02*
X57550000Y-89130000D01*
X60330000Y-86750000D02*
X57950000Y-89130000D01*
X60330000Y-84050000D02*
X60330000Y-86750000D01*
X75930000Y-97090000D02*
X75930000Y-102080000D01*
X75930000Y-96040000D02*
X75930000Y-97090000D01*
X99850000Y-114291999D02*
X100000000Y-114441999D01*
X99850000Y-107900000D02*
X99850000Y-114291999D01*
X100000000Y-114441999D02*
X100000000Y-120250000D01*
X100000000Y-120250000D02*
X100000000Y-120250000D01*
X104700000Y-120300000D02*
X104750000Y-120250000D01*
X104700000Y-123800000D02*
X104700000Y-120300000D01*
X57750000Y-98700000D02*
X57750000Y-99750000D01*
X56624999Y-97574999D02*
X57750000Y-98700000D01*
X56624999Y-91105001D02*
X56624999Y-97574999D01*
X57550000Y-90180000D02*
X56624999Y-91105001D01*
X57550000Y-89130000D02*
X57550000Y-90180000D01*
X57750000Y-99750000D02*
X57750000Y-102174999D01*
X81924000Y-81411400D02*
X81924000Y-75500000D01*
X82426000Y-75000000D02*
X82426000Y-75000000D01*
X89750000Y-74434315D02*
X89750000Y-75000000D01*
X89750000Y-69250000D02*
X89750000Y-74434315D01*
X91250000Y-67750000D02*
X89750000Y-69250000D01*
X91250000Y-66750000D02*
X91250000Y-67750000D01*
X95250000Y-56250000D02*
X96750000Y-57750000D01*
X95250000Y-55250000D02*
X95250000Y-56250000D01*
X96750000Y-57750000D02*
X96750000Y-63250000D01*
X96750000Y-63250000D02*
X96750000Y-63250000D01*
X84450010Y-147809990D02*
X84500000Y-147760000D01*
X86274999Y-117380003D02*
X87800000Y-115855002D01*
X86274999Y-125675001D02*
X86274999Y-117380003D01*
X85835001Y-126114999D02*
X86274999Y-125675001D01*
X84500000Y-147760000D02*
X85835001Y-146424999D01*
X85835001Y-146424999D02*
X85835001Y-126114999D01*
X87800000Y-115855002D02*
X87800000Y-111650000D01*
X87800000Y-111650000D02*
X87800000Y-111650000D01*
X89850000Y-111000000D02*
X89850000Y-104850000D01*
X89850000Y-104850000D02*
X90300000Y-104400000D01*
X90300000Y-104400000D02*
X90300000Y-104400000D01*
X111824999Y-138374999D02*
X111824999Y-104625001D01*
X112950000Y-139500000D02*
X111824999Y-138374999D01*
X111824999Y-104625001D02*
X111824999Y-104625001D01*
X94480000Y-96310000D02*
X94480000Y-92110000D01*
X88049999Y-134570001D02*
X87250000Y-135370000D01*
X88375001Y-134244999D02*
X88049999Y-134570001D01*
X88375001Y-126175001D02*
X88375001Y-134244999D01*
X87400000Y-125200000D02*
X88375001Y-126175001D01*
X64640001Y-106399999D02*
X64640001Y-114330001D01*
X65540000Y-105500000D02*
X64640001Y-106399999D01*
X64640001Y-114330001D02*
X64640001Y-114330001D01*
X95624999Y-123175001D02*
X96500000Y-122300000D01*
X97000000Y-129290000D02*
X95624999Y-127914999D01*
X95624999Y-127914999D02*
X95624999Y-123175001D01*
X96500000Y-122300000D02*
X96500000Y-122300000D01*
X97250000Y-99620000D02*
X97250000Y-95000000D01*
X97250000Y-95000000D02*
X97250000Y-95000000D01*
X95740000Y-103900000D02*
X96340000Y-104500000D01*
X95700000Y-103900000D02*
X95740000Y-103900000D01*
X95700000Y-101221410D02*
X95700000Y-103900000D01*
X97250000Y-99620000D02*
X97250000Y-99671410D01*
X97250000Y-99671410D02*
X95700000Y-101221410D01*
X97250000Y-95000000D02*
X97250000Y-95000000D01*
X72020000Y-57950000D02*
X72400000Y-57950000D01*
X69630000Y-55560000D02*
X72020000Y-57950000D01*
X85350000Y-58010000D02*
X85350000Y-57900000D01*
X85749999Y-58409999D02*
X85350000Y-58010000D01*
X86284999Y-58944999D02*
X85749999Y-58409999D01*
X86284999Y-73215001D02*
X86284999Y-58944999D01*
X85924999Y-73575001D02*
X86284999Y-73215001D01*
X85924999Y-91686001D02*
X85924999Y-73575001D01*
X86450000Y-92211002D02*
X85924999Y-91686001D01*
X86450000Y-95000000D02*
X86450000Y-92211002D01*
X69630000Y-63260000D02*
X72400000Y-60490000D01*
X69630000Y-65720000D02*
X69630000Y-63260000D01*
X69610000Y-65740000D02*
X69630000Y-65720000D01*
X69610000Y-68670000D02*
X69610000Y-65740000D01*
X66250000Y-52500000D02*
X66250000Y-53631370D01*
X66250000Y-53631370D02*
X66250000Y-60250000D01*
X66250000Y-60250000D02*
X66250000Y-60250000D01*
X63325001Y-112574999D02*
X63325001Y-112574999D01*
X63325001Y-108863999D02*
X63325001Y-112574999D01*
X61549999Y-107088997D02*
X63325001Y-108863999D01*
X61549999Y-93789011D02*
X61549999Y-107088997D01*
X62909010Y-92430000D02*
X61549999Y-93789011D01*
X64500000Y-92430000D02*
X62909010Y-92430000D01*
X106000000Y-104250000D02*
X106250000Y-104500000D01*
X107124999Y-93554999D02*
X106000000Y-92430000D01*
X107124999Y-100308997D02*
X107124999Y-93554999D01*
X107450001Y-100633999D02*
X107124999Y-100308997D01*
X107507499Y-100892501D02*
X107450001Y-100835003D01*
X107507499Y-103492501D02*
X107507499Y-100892501D01*
X107450001Y-100835003D02*
X107450001Y-100633999D01*
X106500000Y-104500000D02*
X107507499Y-103492501D01*
X99610000Y-143818630D02*
X99610000Y-144950000D01*
X99610000Y-138883590D02*
X99610000Y-143818630D01*
X98125001Y-137398591D02*
X99610000Y-138883590D01*
X98125001Y-117805001D02*
X98125001Y-137398591D01*
X97460000Y-117140000D02*
X98125001Y-117805001D01*
X68000000Y-41480000D02*
X69364999Y-42844999D01*
X69364999Y-42844999D02*
X69364999Y-50928589D01*
X99610000Y-144950000D02*
X99610000Y-144950000D01*
X72925000Y-113150000D02*
X72925000Y-118625000D01*
X72950000Y-112750000D02*
X72925000Y-113150000D01*
X73075001Y-112374999D02*
X72950000Y-112750000D01*
X73075001Y-95739999D02*
X73075001Y-112374999D01*
X72140000Y-81050000D02*
X72130862Y-89420862D01*
X72125001Y-94789999D02*
X73075001Y-95739999D01*
X69364999Y-50928589D02*
X69364999Y-50928589D01*
X75061411Y-71157587D02*
X71974999Y-74243999D01*
X71974999Y-74243999D02*
X71974999Y-80379314D01*
X71974999Y-80379314D02*
X72130000Y-80534315D01*
X72130000Y-80534315D02*
X72130000Y-81100000D01*
X72130862Y-89420862D02*
X72125001Y-94789999D01*
X113204999Y-113905001D02*
X113230000Y-113880000D01*
X113204999Y-118265001D02*
X113204999Y-113905001D01*
X74954999Y-60918399D02*
X74954999Y-67001601D01*
X75061411Y-50928589D02*
X75061411Y-60811987D01*
X75061411Y-60811987D02*
X74954999Y-60918399D01*
X74954999Y-67001601D02*
X75101699Y-67148301D01*
X75061411Y-67188589D02*
X75061411Y-67438589D01*
X75101699Y-67148301D02*
X75061411Y-67188589D01*
X75061411Y-71157587D02*
X75061411Y-67438589D01*
X75061411Y-67438589D02*
X75061411Y-67108013D01*
X86520000Y-49230000D02*
X86520000Y-51500000D01*
X109450000Y-50100000D02*
X109450000Y-50100000D01*
X110000000Y-50650000D02*
X109450000Y-50100000D01*
X110315011Y-50965011D02*
X110000000Y-50650000D01*
X110315011Y-106041399D02*
X110315011Y-87884989D01*
X109865001Y-106491409D02*
X110315011Y-106041399D01*
X109865001Y-123634999D02*
X109865001Y-106491409D01*
X108740000Y-124760000D02*
X109865001Y-123634999D01*
X110315011Y-87884989D02*
X110315011Y-50965011D01*
X102200000Y-122200000D02*
X102200000Y-122200000D01*
X101890001Y-53075684D02*
X101890001Y-52509999D01*
X101890001Y-61703409D02*
X101890001Y-53075684D01*
X102200000Y-122200000D02*
X101900000Y-121900000D01*
X101900000Y-121900000D02*
X101874999Y-121900000D01*
X101874999Y-121900000D02*
X101874999Y-90375001D01*
X101874999Y-90375001D02*
X101874999Y-61703409D01*
X89060000Y-46430000D02*
X89054999Y-46424999D01*
X89060000Y-51500000D02*
X89060000Y-46430000D01*
X66500000Y-116000000D02*
X66500000Y-109500000D01*
X66500000Y-116200000D02*
X67738095Y-117961905D01*
X66500000Y-116000000D02*
X66500000Y-116200000D01*
X67738095Y-117961905D02*
X67800000Y-118050000D01*
X77080000Y-117970000D02*
X77091667Y-117958333D01*
X77080000Y-120890000D02*
X77080000Y-117970000D01*
X82500000Y-106200000D02*
X82700000Y-106000000D01*
X82700001Y-109299999D02*
X83500000Y-108500000D01*
X83125001Y-117024999D02*
X83125001Y-125079997D01*
X82700001Y-116599999D02*
X83125001Y-117024999D01*
X82700001Y-109299999D02*
X82700001Y-116599999D01*
X83500000Y-106800000D02*
X82700000Y-106000000D01*
X83500000Y-108500000D02*
X83500000Y-106800000D01*
D35*
X83125001Y-125079997D02*
X83149999Y-125104995D01*
D34*
X82750000Y-125850002D02*
X82750000Y-125950000D01*
X83125001Y-125475001D02*
X82750000Y-125850002D01*
X83125001Y-125079997D02*
X83125001Y-125475001D01*
X92374999Y-128714999D02*
X92374999Y-111174999D01*
X93500000Y-129840000D02*
X92374999Y-128714999D01*
X92374999Y-111174999D02*
X92000000Y-110800000D01*
X92000000Y-110800000D02*
X92000000Y-110800000D01*
X87700000Y-106800000D02*
X87700000Y-106000000D01*
X86000000Y-108500000D02*
X87700000Y-106800000D01*
X83700001Y-136800001D02*
X84500000Y-137600000D01*
X83584999Y-136684999D02*
X83700001Y-136800001D01*
X83584999Y-116417793D02*
X83584999Y-136684999D01*
X83930000Y-116072792D02*
X83584999Y-116417793D01*
X83930000Y-114800000D02*
X83930000Y-116072792D01*
X90400000Y-123100000D02*
X90400000Y-125240000D01*
X90400000Y-125240000D02*
X90400000Y-127700000D01*
X90400000Y-127700000D02*
X90400000Y-127700000D01*
X84710000Y-132790000D02*
X84710000Y-132790000D01*
X90400000Y-132800000D02*
X90390000Y-132790000D01*
X90400000Y-135400000D02*
X90400000Y-132800000D01*
X84710000Y-125290000D02*
X85000000Y-125000000D01*
X84710000Y-127700000D02*
X84710000Y-125290000D01*
X84710000Y-127700000D02*
X84710000Y-132790000D01*
X85000000Y-121040000D02*
X84960000Y-121000000D01*
X85000000Y-125000000D02*
X85000000Y-121040000D01*
X82969999Y-136169999D02*
X82170000Y-135370000D01*
X82969999Y-146330001D02*
X82969999Y-136169999D01*
X81500000Y-147800000D02*
X82969999Y-146330001D01*
X79010001Y-71470001D02*
X79810000Y-72270000D01*
X78644999Y-71104999D02*
X79010001Y-71470001D01*
X78644999Y-64405001D02*
X78644999Y-71104999D01*
X80020000Y-63030000D02*
X78644999Y-64405001D01*
X82050001Y-59309999D02*
X82850000Y-58510000D01*
X81995001Y-59364999D02*
X82050001Y-59309999D01*
X79479999Y-59364999D02*
X81995001Y-59364999D01*
X78894999Y-59949999D02*
X79479999Y-59364999D01*
X78894999Y-61904999D02*
X78894999Y-59949999D01*
X80020000Y-63030000D02*
X78894999Y-61904999D01*
X101500000Y-144300000D02*
X102150000Y-144950000D01*
X101500000Y-131450000D02*
X101500000Y-144300000D01*
X105000000Y-109400000D02*
X106500000Y-107900000D01*
X105000000Y-110500000D02*
X105000000Y-109400000D01*
X105200000Y-111708998D02*
X106400000Y-112908998D01*
X105200000Y-110700000D02*
X105200000Y-111708998D01*
X106400000Y-112908998D02*
X106400000Y-120150000D01*
X106400001Y-135049999D02*
X106400000Y-120200000D01*
X104620000Y-136910000D02*
X106400001Y-135129999D01*
X106400001Y-135129999D02*
X106400001Y-135049999D01*
X64500000Y-118500000D02*
X64500000Y-119430000D01*
X72200000Y-126000000D02*
X72200000Y-121000000D01*
X74500000Y-128500000D02*
X74500000Y-136000000D01*
X74500000Y-136000000D02*
X74500000Y-136000000D01*
X81500000Y-137640000D02*
X81500000Y-136365002D01*
X81500000Y-136365002D02*
X81044999Y-135910001D01*
X81044999Y-109379997D02*
X81044999Y-119694999D01*
X80180000Y-88680000D02*
X77774999Y-91085001D01*
X81044999Y-135910001D02*
X81044999Y-119694999D01*
X81044999Y-119694999D02*
X81044999Y-119605001D01*
X81044999Y-106221997D02*
X81044999Y-109379997D01*
X77774999Y-102951997D02*
X81044999Y-106221997D01*
X77774999Y-91085001D02*
X77774999Y-102951997D01*
X106490000Y-48000000D02*
X106160000Y-48000000D01*
X112650000Y-41840000D02*
X106490000Y-48000000D01*
X95214999Y-112054999D02*
X96750000Y-113590000D01*
X95214999Y-90485001D02*
X95214999Y-112054999D01*
X97454999Y-87995001D02*
X97454999Y-80605001D01*
X95214999Y-90485001D02*
X95214999Y-90235001D01*
X95214999Y-90235001D02*
X97454999Y-87995001D01*
X97454999Y-80605001D02*
X97454999Y-80605001D01*
X112950000Y-135839340D02*
X112950000Y-134000000D01*
X112950000Y-136900000D02*
X112950000Y-135839340D01*
X61404999Y-76390003D02*
X63410000Y-74385002D01*
X61404999Y-86311411D02*
X61404999Y-76390003D01*
X59445001Y-88271409D02*
X61404999Y-86311411D01*
X63410000Y-74385002D02*
X63410000Y-72270000D01*
X63410000Y-72270000D02*
X63410000Y-72270000D01*
X57750000Y-107374999D02*
X57750000Y-110000000D01*
X59445001Y-106679998D02*
X59445001Y-88271409D01*
X58750000Y-107374999D02*
X59445001Y-106679998D01*
X57750000Y-107374999D02*
X58750000Y-107374999D01*
X58875001Y-114459999D02*
X58875001Y-135000000D01*
X57750000Y-110000000D02*
X57750000Y-113334998D01*
X57750000Y-113334998D02*
X58875001Y-114459999D01*
X92625001Y-91175624D02*
X90050000Y-88600623D01*
X91799991Y-101813599D02*
X92625001Y-100988589D01*
X91799990Y-107581402D02*
X91799991Y-101813599D01*
X92125001Y-107906413D02*
X91799990Y-107581402D01*
X92125001Y-109040001D02*
X92125001Y-107906413D01*
X93500000Y-134920000D02*
X93500000Y-134045002D01*
X93500000Y-134045002D02*
X91924989Y-132469991D01*
X91924989Y-132469991D02*
X91924989Y-111797991D01*
X91924989Y-111797991D02*
X91274999Y-111148001D01*
X91274999Y-111148001D02*
X91274999Y-109890003D01*
X92625001Y-100988589D02*
X92625001Y-91175624D01*
X91274999Y-109890003D02*
X92125001Y-109040001D01*
X90050000Y-88600623D02*
X90050000Y-76130000D01*
X90050000Y-76130000D02*
X90050000Y-76130000D01*
X67995001Y-49104999D02*
X68000000Y-49100000D01*
X67995001Y-74424999D02*
X67995001Y-49104999D01*
X82420000Y-71320000D02*
X79770000Y-68670000D01*
X82420000Y-73000000D02*
X82420000Y-71320000D01*
X65170000Y-78340000D02*
X65120000Y-78290000D01*
X65170000Y-78980000D02*
X65520000Y-78630000D01*
X65170000Y-81510000D02*
X65170000Y-78980000D01*
X57550000Y-78440000D02*
X57530000Y-78420000D01*
X57550000Y-81510000D02*
X57550000Y-78440000D01*
X64770000Y-86590000D02*
X65170000Y-86590000D01*
X62910000Y-84730000D02*
X64770000Y-86590000D01*
X62910000Y-81510000D02*
X62910000Y-84730000D01*
X77900000Y-114500000D02*
X77900000Y-131030001D01*
X79800000Y-112600000D02*
X77900000Y-114500000D01*
X75970000Y-103700000D02*
X75930000Y-103660000D01*
X75970000Y-106040000D02*
X75970000Y-103700000D01*
X70020000Y-91314998D02*
X69790000Y-91544998D01*
X70020000Y-88680000D02*
X70020000Y-91314998D01*
X69790000Y-91544998D02*
X69790000Y-103650000D01*
X69790000Y-103650000D02*
X69790000Y-103650000D01*
X103374999Y-117140000D02*
X103374999Y-117140000D01*
X103374999Y-137325001D02*
X103374999Y-117140000D01*
X102400000Y-138300000D02*
X102400000Y-138300000D01*
X103400000Y-117114999D02*
X103374999Y-117140000D01*
X102400000Y-138300000D02*
X103374999Y-137325001D01*
X95800000Y-143125001D02*
X95600000Y-143325001D01*
X95800000Y-138300000D02*
X95800000Y-143125001D01*
X103000000Y-116765001D02*
X103374999Y-117140000D01*
X103000000Y-113500000D02*
X103000000Y-116765001D01*
X69475001Y-105499999D02*
X69475001Y-110500000D01*
X68894999Y-104919997D02*
X69475001Y-105499999D01*
X68894999Y-77839997D02*
X68894999Y-104919997D01*
X64394999Y-73339997D02*
X68894999Y-77839997D01*
X68000000Y-46560000D02*
X64394999Y-50165001D01*
X64394999Y-50165001D02*
X64394999Y-73339997D01*
X57000000Y-139380000D02*
X57000000Y-143325001D01*
X57000000Y-139380000D02*
X57000000Y-137000000D01*
X93500000Y-108645002D02*
X93500000Y-109520000D01*
X92374999Y-107520001D02*
X93500000Y-108645002D01*
X92374999Y-107474999D02*
X92374999Y-107520001D01*
X91750000Y-89664213D02*
X93075011Y-90989224D01*
X91750000Y-84600000D02*
X91750000Y-89664213D01*
X93075011Y-90989224D02*
X93075011Y-101174989D01*
X93075011Y-101174989D02*
X92250000Y-102000000D01*
X92250000Y-102000000D02*
X92250000Y-107350000D01*
X92250000Y-107350000D02*
X92374999Y-107474999D01*
X91750000Y-84600000D02*
X91750000Y-78100000D01*
X100000000Y-89664213D02*
X100000000Y-84600000D01*
X99200000Y-114600000D02*
X98825009Y-114225009D01*
X99200000Y-114715001D02*
X99200000Y-114600000D01*
X98825009Y-114225009D02*
X98825009Y-101100000D01*
X98825009Y-101100000D02*
X98674999Y-100949990D01*
X98674999Y-100949990D02*
X98674999Y-90989214D01*
X98674999Y-90989214D02*
X100000000Y-89664213D01*
X100000000Y-84600000D02*
X100000000Y-78100000D01*
X100500000Y-94549998D02*
X100100001Y-94149999D01*
X101400000Y-128000000D02*
X101424989Y-95474987D01*
X101424989Y-95474987D02*
X100500000Y-94549998D01*
X75000000Y-88250000D02*
X75000000Y-78100000D01*
X74000000Y-93750000D02*
X74000001Y-89249999D01*
X74000001Y-89249999D02*
X75000000Y-88250000D01*
X84250000Y-102000000D02*
X84250000Y-102000000D01*
X100000000Y-102000000D02*
X100000000Y-102000000D01*
X100900000Y-102900000D02*
X100900000Y-124900000D01*
X100000000Y-102000000D02*
X100900000Y-102900000D01*
X100900000Y-124900000D02*
X100500000Y-125300000D01*
X100500000Y-125300000D02*
X100500000Y-125300000D01*
X83250000Y-86835787D02*
X83250000Y-78100000D01*
X83250000Y-89664213D02*
X83250000Y-86835787D01*
X84250000Y-102000000D02*
X84250000Y-90664213D01*
X84250000Y-90664213D02*
X83250000Y-89664213D01*
X73674999Y-138825001D02*
X73674999Y-138825001D01*
X74874999Y-90325001D02*
X77000000Y-88250000D01*
X74874999Y-94790003D02*
X74874999Y-90325001D01*
X73674999Y-138825001D02*
X73674999Y-95990003D01*
X73674999Y-95990003D02*
X74874999Y-94790003D01*
X77045001Y-60918399D02*
X77045001Y-88250000D01*
X76374999Y-60248397D02*
X77045001Y-60918399D01*
X78000000Y-47750000D02*
X76374999Y-49375001D01*
X76374999Y-49375001D02*
X76374999Y-60248397D01*
X94550000Y-140000000D02*
X93500000Y-140000000D01*
X94625001Y-136919999D02*
X94625001Y-139924999D01*
X94449988Y-136744986D02*
X94625001Y-136919999D01*
X94625001Y-139924999D02*
X94550000Y-140000000D01*
X94449988Y-135776988D02*
X94449988Y-136744986D01*
X94724979Y-135501997D02*
X94449988Y-135776988D01*
X94724979Y-119205001D02*
X94724979Y-135501997D01*
X94764990Y-119164990D02*
X94724979Y-119205001D01*
X94764990Y-102149992D02*
X94764990Y-119164990D01*
X97000000Y-47750000D02*
X97000000Y-49164213D01*
X94174000Y-51989212D02*
X94174000Y-81724999D01*
X97000000Y-49164213D02*
X94175001Y-51989212D01*
X94175001Y-81724999D02*
X93550000Y-82350000D01*
X93550000Y-82350000D02*
X93550000Y-100950000D01*
X93550000Y-100950000D02*
X94764990Y-102149992D01*
X88349999Y-136800001D02*
X87550000Y-137600000D01*
X89025001Y-136124999D02*
X88349999Y-136800001D01*
X89025001Y-92825001D02*
X89025001Y-136124999D01*
X87700000Y-91500000D02*
X89025001Y-92825001D01*
X90500000Y-140500000D02*
X90500000Y-137500000D01*
X82850000Y-63320000D02*
X82850000Y-68670000D01*
X80020000Y-60490000D02*
X82850000Y-63320000D01*
X82850000Y-70890000D02*
X84960000Y-73000000D01*
X82850000Y-68670000D02*
X82850000Y-70890000D01*
X74840000Y-126131370D02*
X74840000Y-125000000D01*
X75225001Y-126516371D02*
X74840000Y-126131370D01*
X75225001Y-136293631D02*
X75225001Y-126516371D01*
X75500000Y-136568630D02*
X75225001Y-136293631D01*
X75500000Y-137700000D02*
X75500000Y-136568630D01*
X84960000Y-101636998D02*
X85000000Y-101676998D01*
X84960000Y-73000000D02*
X84960000Y-101636998D01*
X85000000Y-101676998D02*
X85000000Y-104000000D01*
X85000000Y-104000000D02*
X85000000Y-104000000D01*
X75925001Y-110190001D02*
X77250000Y-108865002D01*
X74840000Y-125000000D02*
X75925001Y-123914999D01*
X75925001Y-123914999D02*
X75925001Y-110190001D01*
X77374999Y-108375001D02*
X77374999Y-104375001D01*
X77250000Y-108865002D02*
X77250000Y-108500000D01*
X77250000Y-108500000D02*
X77374999Y-108375001D01*
X77374999Y-104375001D02*
X77750000Y-104000000D01*
X77750000Y-104000000D02*
X77750000Y-104000000D01*
X91999999Y-68600001D02*
X91250000Y-69350000D01*
X92325001Y-68274999D02*
X91999999Y-68600001D01*
X92325001Y-65235001D02*
X92325001Y-68274999D01*
X90340000Y-63250000D02*
X92325001Y-65235001D01*
X97850000Y-55250000D02*
X97850000Y-59750000D01*
X100250000Y-76200000D02*
X100250000Y-76250000D01*
X96000000Y-71950000D02*
X100250000Y-76200000D01*
X100450000Y-56310660D02*
X100450000Y-59750000D01*
X100450000Y-55250000D02*
X100450000Y-56310660D01*
D36*
G36*
X68134999Y-78154799D02*
G01*
X68135000Y-92150073D01*
X68069607Y-92070392D01*
X67851100Y-91891068D01*
X67601807Y-91757818D01*
X67331308Y-91675764D01*
X67050000Y-91648057D01*
X66768691Y-91675764D01*
X66498192Y-91757818D01*
X66248899Y-91891068D01*
X66195927Y-91934541D01*
X66192364Y-91916627D01*
X66059692Y-91596327D01*
X65867081Y-91308065D01*
X65621935Y-91062919D01*
X65333673Y-90870308D01*
X65013373Y-90737636D01*
X64673345Y-90670000D01*
X64326655Y-90670000D01*
X63986627Y-90737636D01*
X63666327Y-90870308D01*
X63378065Y-91062919D01*
X63132919Y-91308065D01*
X62940308Y-91596327D01*
X62911224Y-91666542D01*
X62909010Y-91666324D01*
X62871685Y-91670000D01*
X62871677Y-91670000D01*
X62760024Y-91680997D01*
X62616763Y-91724454D01*
X62484734Y-91795026D01*
X62369009Y-91889999D01*
X62345211Y-91918997D01*
X61039002Y-93225207D01*
X61009998Y-93249010D01*
X60955842Y-93315000D01*
X60915025Y-93364735D01*
X60872415Y-93444453D01*
X60844453Y-93496765D01*
X60800996Y-93640026D01*
X60789999Y-93751679D01*
X60789999Y-93751689D01*
X60786323Y-93789011D01*
X60789999Y-93826333D01*
X60790000Y-107051665D01*
X60786323Y-107088997D01*
X60790000Y-107126330D01*
X60800997Y-107237983D01*
X60805837Y-107253937D01*
X60844453Y-107381243D01*
X60915025Y-107513273D01*
X60984643Y-107598102D01*
X61009999Y-107628998D01*
X61038997Y-107652796D01*
X61375264Y-107989063D01*
X61225537Y-108051082D01*
X60957748Y-108230013D01*
X60730013Y-108457748D01*
X60551082Y-108725537D01*
X60427832Y-109023088D01*
X60365000Y-109338967D01*
X60365000Y-109661033D01*
X60427832Y-109976912D01*
X60551082Y-110274463D01*
X60730013Y-110542252D01*
X60957748Y-110769987D01*
X61225537Y-110948918D01*
X61523088Y-111072168D01*
X61838967Y-111135000D01*
X62161033Y-111135000D01*
X62476912Y-111072168D01*
X62565002Y-111035680D01*
X62565002Y-111871287D01*
X62521064Y-111915225D01*
X62407796Y-112084743D01*
X62329775Y-112273101D01*
X62290001Y-112473060D01*
X62290001Y-112676938D01*
X62329775Y-112876897D01*
X62407796Y-113065255D01*
X62521064Y-113234773D01*
X62665227Y-113378936D01*
X62834745Y-113492204D01*
X63023103Y-113570225D01*
X63223062Y-113609999D01*
X63426940Y-113609999D01*
X63626899Y-113570225D01*
X63815257Y-113492204D01*
X63880002Y-113448943D01*
X63880002Y-113626289D01*
X63836064Y-113670227D01*
X63722796Y-113839745D01*
X63644775Y-114028103D01*
X63605001Y-114228062D01*
X63605001Y-114431940D01*
X63644775Y-114631899D01*
X63722796Y-114820257D01*
X63836064Y-114989775D01*
X63980227Y-115133938D01*
X64149745Y-115247206D01*
X64338103Y-115325227D01*
X64538062Y-115365001D01*
X64741940Y-115365001D01*
X64941899Y-115325227D01*
X65023850Y-115291282D01*
X64927832Y-115523088D01*
X64865000Y-115838967D01*
X64865000Y-116161033D01*
X64927832Y-116476912D01*
X65051082Y-116774463D01*
X65230013Y-117042252D01*
X65457748Y-117269987D01*
X65725537Y-117448918D01*
X66023088Y-117572168D01*
X66338967Y-117635000D01*
X66579501Y-117635000D01*
X66710704Y-117821712D01*
X66703095Y-117859966D01*
X66703095Y-118063844D01*
X66742869Y-118263803D01*
X66820890Y-118452161D01*
X66934158Y-118621679D01*
X66968558Y-118656079D01*
X66768691Y-118675764D01*
X66498192Y-118757818D01*
X66248899Y-118891068D01*
X66195927Y-118934541D01*
X66192364Y-118916627D01*
X66059692Y-118596327D01*
X65867081Y-118308065D01*
X65621935Y-118062919D01*
X65333673Y-117870308D01*
X65013373Y-117737636D01*
X64673345Y-117670000D01*
X64326655Y-117670000D01*
X63986627Y-117737636D01*
X63666327Y-117870308D01*
X63378065Y-118062919D01*
X63132919Y-118308065D01*
X62940308Y-118596327D01*
X62807636Y-118916627D01*
X62740000Y-119256655D01*
X62740000Y-119603345D01*
X62807636Y-119943373D01*
X62819273Y-119971468D01*
X62486627Y-120037636D01*
X62166327Y-120170308D01*
X61878065Y-120362919D01*
X61632919Y-120608065D01*
X61440308Y-120896327D01*
X61307636Y-121216627D01*
X61240000Y-121556655D01*
X61240000Y-121903345D01*
X61307636Y-122243373D01*
X61440308Y-122563673D01*
X61632919Y-122851935D01*
X61878065Y-123097081D01*
X62166327Y-123289692D01*
X62486627Y-123422364D01*
X62826655Y-123490000D01*
X63173345Y-123490000D01*
X63513373Y-123422364D01*
X63833673Y-123289692D01*
X64121935Y-123097081D01*
X64367081Y-122851935D01*
X64559692Y-122563673D01*
X64692364Y-122243373D01*
X64760000Y-121903345D01*
X64760000Y-121556655D01*
X64692364Y-121216627D01*
X64680727Y-121188532D01*
X65013373Y-121122364D01*
X65333673Y-120989692D01*
X65615000Y-120801715D01*
X65615000Y-121160492D01*
X65635764Y-121371309D01*
X65717818Y-121641808D01*
X65851068Y-121891101D01*
X66030393Y-122109608D01*
X66248900Y-122288932D01*
X66498193Y-122422182D01*
X66768692Y-122504236D01*
X67050000Y-122531943D01*
X67331309Y-122504236D01*
X67601808Y-122422182D01*
X67851101Y-122288932D01*
X68069608Y-122109608D01*
X68248932Y-121891101D01*
X68382182Y-121641808D01*
X68464236Y-121371309D01*
X68485000Y-121160492D01*
X68485000Y-120019508D01*
X68464236Y-119808691D01*
X68382182Y-119538192D01*
X68248932Y-119288899D01*
X68069607Y-119070392D01*
X67952745Y-118974486D01*
X68039993Y-118957131D01*
X68228351Y-118879110D01*
X68397869Y-118765842D01*
X68542032Y-118621679D01*
X68655300Y-118452161D01*
X68733321Y-118263803D01*
X68773095Y-118063844D01*
X68773095Y-117859966D01*
X68733321Y-117660007D01*
X68655300Y-117471649D01*
X68542032Y-117302131D01*
X68397869Y-117157968D01*
X68228351Y-117044700D01*
X68039993Y-116966679D01*
X67955866Y-116949945D01*
X67892201Y-116859345D01*
X67948918Y-116774463D01*
X68072168Y-116476912D01*
X68135000Y-116161033D01*
X68135000Y-115838967D01*
X68127250Y-115800000D01*
X68198057Y-115800000D01*
X68225764Y-116081309D01*
X68307818Y-116351808D01*
X68441068Y-116601101D01*
X68620392Y-116819608D01*
X68838899Y-116998932D01*
X69088192Y-117132182D01*
X69358691Y-117214236D01*
X69569508Y-117235000D01*
X69710492Y-117235000D01*
X69921309Y-117214236D01*
X70191808Y-117132182D01*
X70441101Y-116998932D01*
X70659608Y-116819608D01*
X70838932Y-116601101D01*
X70972182Y-116351808D01*
X71054236Y-116081309D01*
X71081943Y-115800000D01*
X71054236Y-115518691D01*
X70972182Y-115248192D01*
X70838932Y-114998899D01*
X70659608Y-114780392D01*
X70441101Y-114601068D01*
X70191808Y-114467818D01*
X69921309Y-114385764D01*
X69710492Y-114365000D01*
X69569508Y-114365000D01*
X69358691Y-114385764D01*
X69088192Y-114467818D01*
X68838899Y-114601068D01*
X68620392Y-114780392D01*
X68441068Y-114998899D01*
X68307818Y-115248192D01*
X68225764Y-115518691D01*
X68198057Y-115800000D01*
X68127250Y-115800000D01*
X68072168Y-115523088D01*
X67948918Y-115225537D01*
X67769987Y-114957748D01*
X67542252Y-114730013D01*
X67274463Y-114551082D01*
X67260000Y-114545091D01*
X67260000Y-110954909D01*
X67274463Y-110948918D01*
X67542252Y-110769987D01*
X67769987Y-110542252D01*
X67948918Y-110274463D01*
X68072168Y-109976912D01*
X68135000Y-109661033D01*
X68135000Y-109338967D01*
X68072168Y-109023088D01*
X67948918Y-108725537D01*
X67769987Y-108457748D01*
X67542252Y-108230013D01*
X67274463Y-108051082D01*
X66976912Y-107927832D01*
X66661033Y-107865000D01*
X66338967Y-107865000D01*
X66023088Y-107927832D01*
X65725537Y-108051082D01*
X65457748Y-108230013D01*
X65400001Y-108287760D01*
X65400001Y-107035000D01*
X65691184Y-107035000D01*
X65987743Y-106976011D01*
X66267095Y-106860299D01*
X66518505Y-106692312D01*
X66732312Y-106478505D01*
X66900299Y-106227095D01*
X66921454Y-106176022D01*
X66935764Y-106321309D01*
X67017818Y-106591808D01*
X67151068Y-106841101D01*
X67330392Y-107059608D01*
X67548899Y-107238932D01*
X67798192Y-107372182D01*
X68068691Y-107454236D01*
X68279508Y-107475000D01*
X68420492Y-107475000D01*
X68631309Y-107454236D01*
X68715001Y-107428848D01*
X68715002Y-109796288D01*
X68671064Y-109840226D01*
X68557796Y-110009744D01*
X68479775Y-110198102D01*
X68440001Y-110398061D01*
X68440001Y-110601939D01*
X68479775Y-110801898D01*
X68557796Y-110990256D01*
X68671064Y-111159774D01*
X68815227Y-111303937D01*
X68906509Y-111364930D01*
X68838899Y-111401068D01*
X68620392Y-111580392D01*
X68441068Y-111798899D01*
X68307818Y-112048192D01*
X68225764Y-112318691D01*
X68198057Y-112600000D01*
X68225764Y-112881309D01*
X68307818Y-113151808D01*
X68441068Y-113401101D01*
X68620392Y-113619608D01*
X68838899Y-113798932D01*
X69088192Y-113932182D01*
X69358691Y-114014236D01*
X69569508Y-114035000D01*
X69710492Y-114035000D01*
X69921309Y-114014236D01*
X70191808Y-113932182D01*
X70441101Y-113798932D01*
X70659608Y-113619608D01*
X70838932Y-113401101D01*
X70972182Y-113151808D01*
X71054236Y-112881309D01*
X71081943Y-112600000D01*
X71054236Y-112318691D01*
X70972182Y-112048192D01*
X70838932Y-111798899D01*
X70659608Y-111580392D01*
X70441101Y-111401068D01*
X70191808Y-111267818D01*
X70175762Y-111262950D01*
X70278938Y-111159774D01*
X70392206Y-110990256D01*
X70470227Y-110801898D01*
X70510001Y-110601939D01*
X70510001Y-110398061D01*
X70470227Y-110198102D01*
X70456372Y-110164652D01*
X70558665Y-110185000D01*
X70841335Y-110185000D01*
X71118574Y-110129853D01*
X71379727Y-110021680D01*
X71614759Y-109864637D01*
X71814637Y-109664759D01*
X71971680Y-109429727D01*
X72079853Y-109168574D01*
X72135000Y-108891335D01*
X72135000Y-108608665D01*
X72079853Y-108331426D01*
X71971680Y-108070273D01*
X71814637Y-107835241D01*
X71614759Y-107635363D01*
X71460000Y-107531957D01*
X71460000Y-103689347D01*
X71588967Y-103715000D01*
X71911033Y-103715000D01*
X72226912Y-103652168D01*
X72315001Y-103615680D01*
X72315002Y-112251666D01*
X72233227Y-112496990D01*
X72211750Y-112554584D01*
X72203608Y-112604842D01*
X72192321Y-112654484D01*
X72190647Y-112715923D01*
X72167329Y-113089024D01*
X72165000Y-113112668D01*
X72165000Y-113126285D01*
X72164152Y-113139853D01*
X72165000Y-113163558D01*
X72165001Y-117921288D01*
X72121063Y-117965226D01*
X72007795Y-118134744D01*
X71929774Y-118323102D01*
X71890000Y-118523061D01*
X71890000Y-118726939D01*
X71929774Y-118926898D01*
X72007795Y-119115256D01*
X72121063Y-119284774D01*
X72265226Y-119428937D01*
X72434744Y-119542205D01*
X72623102Y-119620226D01*
X72823061Y-119660000D01*
X72914999Y-119660000D01*
X72914999Y-120251288D01*
X72859774Y-120196063D01*
X72690256Y-120082795D01*
X72501898Y-120004774D01*
X72301939Y-119965000D01*
X72098061Y-119965000D01*
X71898102Y-120004774D01*
X71709744Y-120082795D01*
X71540226Y-120196063D01*
X71396063Y-120340226D01*
X71282795Y-120509744D01*
X71204774Y-120698102D01*
X71165000Y-120898061D01*
X71165000Y-121101939D01*
X71204774Y-121301898D01*
X71282795Y-121490256D01*
X71396063Y-121659774D01*
X71440001Y-121703712D01*
X71440000Y-124902225D01*
X71348987Y-124963038D01*
X71163038Y-125148987D01*
X71016939Y-125367641D01*
X70916304Y-125610595D01*
X70865000Y-125868514D01*
X70865000Y-126131486D01*
X70916304Y-126389405D01*
X71016939Y-126632359D01*
X71163038Y-126851013D01*
X71348987Y-127036962D01*
X71567641Y-127183061D01*
X71729246Y-127250000D01*
X71567641Y-127316939D01*
X71348987Y-127463038D01*
X71163038Y-127648987D01*
X71016939Y-127867641D01*
X70916304Y-128110595D01*
X70865000Y-128368514D01*
X70865000Y-128631486D01*
X70916304Y-128889405D01*
X71016939Y-129132359D01*
X71163038Y-129351013D01*
X71348987Y-129536962D01*
X71567641Y-129683061D01*
X71810595Y-129783696D01*
X72068514Y-129835000D01*
X72331486Y-129835000D01*
X72589405Y-129783696D01*
X72832359Y-129683061D01*
X72914999Y-129627843D01*
X72914999Y-133265255D01*
X72727095Y-133139701D01*
X72447743Y-133023989D01*
X72151184Y-132965000D01*
X71848816Y-132965000D01*
X71552257Y-133023989D01*
X71272905Y-133139701D01*
X71021495Y-133307688D01*
X70807688Y-133521495D01*
X70639701Y-133772905D01*
X70523989Y-134052257D01*
X70465000Y-134348816D01*
X70465000Y-134651184D01*
X70523989Y-134947743D01*
X70639701Y-135227095D01*
X70807688Y-135478505D01*
X71021495Y-135692312D01*
X71107831Y-135750000D01*
X71021495Y-135807688D01*
X70807688Y-136021495D01*
X70639701Y-136272905D01*
X70523989Y-136552257D01*
X70465000Y-136848816D01*
X70465000Y-137151184D01*
X70523989Y-137447743D01*
X70639701Y-137727095D01*
X70807688Y-137978505D01*
X71021495Y-138192312D01*
X71107831Y-138250000D01*
X71021495Y-138307688D01*
X70807688Y-138521495D01*
X70639701Y-138772905D01*
X70523989Y-139052257D01*
X70465000Y-139348816D01*
X70465000Y-139651184D01*
X70523989Y-139947743D01*
X70639701Y-140227095D01*
X70807688Y-140478505D01*
X71021495Y-140692312D01*
X71272905Y-140860299D01*
X71552257Y-140976011D01*
X71848816Y-141035000D01*
X72151184Y-141035000D01*
X72447743Y-140976011D01*
X72727095Y-140860299D01*
X72978505Y-140692312D01*
X73192312Y-140478505D01*
X73360299Y-140227095D01*
X73476011Y-139947743D01*
X73496493Y-139844771D01*
X73573060Y-139860001D01*
X73776938Y-139860001D01*
X73976897Y-139820227D01*
X74165255Y-139742206D01*
X74334773Y-139628938D01*
X74478936Y-139484775D01*
X74592204Y-139315257D01*
X74670225Y-139126899D01*
X74709999Y-138926940D01*
X74709999Y-138904865D01*
X74948192Y-139032182D01*
X75218691Y-139114236D01*
X75429508Y-139135000D01*
X75570492Y-139135000D01*
X75781309Y-139114236D01*
X76051808Y-139032182D01*
X76301101Y-138898932D01*
X76519608Y-138719608D01*
X76698932Y-138501101D01*
X76832182Y-138251808D01*
X76914236Y-137981309D01*
X76941943Y-137700000D01*
X76914236Y-137418691D01*
X76832182Y-137148192D01*
X76698932Y-136898899D01*
X76519608Y-136680392D01*
X76301101Y-136501068D01*
X76254573Y-136476198D01*
X76249003Y-136419644D01*
X76205546Y-136276383D01*
X76134974Y-136144354D01*
X76040001Y-136028629D01*
X76010997Y-136004826D01*
X75985001Y-135978830D01*
X75985001Y-134148491D01*
X76181426Y-134229853D01*
X76458665Y-134285000D01*
X76741335Y-134285000D01*
X77018574Y-134229853D01*
X77279727Y-134121680D01*
X77514759Y-133964637D01*
X77714637Y-133764759D01*
X77871680Y-133529727D01*
X77979853Y-133268574D01*
X78035000Y-132991335D01*
X78035000Y-132708665D01*
X77979853Y-132431426D01*
X77871680Y-132170273D01*
X77801340Y-132065001D01*
X78001939Y-132065001D01*
X78201898Y-132025227D01*
X78390256Y-131947206D01*
X78559774Y-131833938D01*
X78703937Y-131689775D01*
X78817205Y-131520257D01*
X78895226Y-131331899D01*
X78935000Y-131131940D01*
X78935000Y-130928062D01*
X78895226Y-130728103D01*
X78817205Y-130539745D01*
X78703937Y-130370227D01*
X78660000Y-130326290D01*
X78660000Y-128810320D01*
X78828899Y-128948932D01*
X79078192Y-129082182D01*
X79348691Y-129164236D01*
X79559508Y-129185000D01*
X79700492Y-129185000D01*
X79911309Y-129164236D01*
X80181808Y-129082182D01*
X80284999Y-129027025D01*
X80284999Y-134092975D01*
X80181808Y-134037818D01*
X79911309Y-133955764D01*
X79700492Y-133935000D01*
X79559508Y-133935000D01*
X79348691Y-133955764D01*
X79078192Y-134037818D01*
X78828899Y-134171068D01*
X78610392Y-134350392D01*
X78431068Y-134568899D01*
X78297818Y-134818192D01*
X78215764Y-135088691D01*
X78188057Y-135370000D01*
X78215764Y-135651309D01*
X78297818Y-135921808D01*
X78431068Y-136171101D01*
X78508129Y-136265000D01*
X78358665Y-136265000D01*
X78081426Y-136320147D01*
X77820273Y-136428320D01*
X77585241Y-136585363D01*
X77385363Y-136785241D01*
X77228320Y-137020273D01*
X77120147Y-137281426D01*
X77065000Y-137558665D01*
X77065000Y-137841335D01*
X77120147Y-138118574D01*
X77228320Y-138379727D01*
X77385363Y-138614759D01*
X77585241Y-138814637D01*
X77820273Y-138971680D01*
X78081426Y-139079853D01*
X78358665Y-139135000D01*
X78641335Y-139135000D01*
X78918574Y-139079853D01*
X79179727Y-138971680D01*
X79414759Y-138814637D01*
X79614637Y-138614759D01*
X79771680Y-138379727D01*
X79879853Y-138118574D01*
X79935000Y-137841335D01*
X79935000Y-137558665D01*
X79879853Y-137281426D01*
X79771680Y-137020273D01*
X79627840Y-136805000D01*
X79700492Y-136805000D01*
X79911309Y-136784236D01*
X80181808Y-136702182D01*
X80431101Y-136568932D01*
X80539867Y-136479670D01*
X80590349Y-136530152D01*
X80480392Y-136620392D01*
X80301068Y-136838899D01*
X80167818Y-137088192D01*
X80085764Y-137358691D01*
X80058057Y-137640000D01*
X80085764Y-137921309D01*
X80167818Y-138191808D01*
X80301068Y-138441101D01*
X80480392Y-138659608D01*
X80698899Y-138838932D01*
X80948192Y-138972182D01*
X81218691Y-139054236D01*
X81429508Y-139075000D01*
X81570492Y-139075000D01*
X81781309Y-139054236D01*
X82051808Y-138972182D01*
X82210000Y-138887627D01*
X82209999Y-146015199D01*
X81823886Y-146401312D01*
X81641335Y-146365000D01*
X81358665Y-146365000D01*
X81081426Y-146420147D01*
X80820273Y-146528320D01*
X80585241Y-146685363D01*
X80385363Y-146885241D01*
X80228320Y-147120273D01*
X80120147Y-147381426D01*
X80065000Y-147658665D01*
X80065000Y-147941335D01*
X80120147Y-148218574D01*
X80228320Y-148479727D01*
X80385363Y-148714759D01*
X80510604Y-148840000D01*
X79552113Y-148840000D01*
X79698932Y-148661101D01*
X79832182Y-148411808D01*
X79914236Y-148141309D01*
X79941943Y-147860000D01*
X79914236Y-147578691D01*
X79832182Y-147308192D01*
X79698932Y-147058899D01*
X79519608Y-146840392D01*
X79301101Y-146661068D01*
X79051808Y-146527818D01*
X78781309Y-146445764D01*
X78570492Y-146425000D01*
X78429508Y-146425000D01*
X78218691Y-146445764D01*
X77948192Y-146527818D01*
X77698899Y-146661068D01*
X77480392Y-146840392D01*
X77301068Y-147058899D01*
X77167818Y-147308192D01*
X77085764Y-147578691D01*
X77058057Y-147860000D01*
X77085764Y-148141309D01*
X77167818Y-148411808D01*
X77301068Y-148661101D01*
X77447887Y-148840000D01*
X76549396Y-148840000D01*
X76614637Y-148774759D01*
X76771680Y-148539727D01*
X76879853Y-148278574D01*
X76935000Y-148001335D01*
X76935000Y-147718665D01*
X76879853Y-147441426D01*
X76771680Y-147180273D01*
X76614637Y-146945241D01*
X76414759Y-146745363D01*
X76179727Y-146588320D01*
X75918574Y-146480147D01*
X75641335Y-146425000D01*
X75358665Y-146425000D01*
X75081426Y-146480147D01*
X74820273Y-146588320D01*
X74585241Y-146745363D01*
X74385363Y-146945241D01*
X74228320Y-147180273D01*
X74120147Y-147441426D01*
X74065000Y-147718665D01*
X74065000Y-148001335D01*
X74120147Y-148278574D01*
X74228320Y-148539727D01*
X74385363Y-148774759D01*
X74450604Y-148840000D01*
X55660000Y-148840000D01*
X55660000Y-148136790D01*
X55669463Y-148154494D01*
X55748815Y-148251185D01*
X55845506Y-148330537D01*
X55955820Y-148389502D01*
X56075518Y-148425812D01*
X56200000Y-148438072D01*
X56714250Y-148435000D01*
X56873000Y-148276250D01*
X56873000Y-147127000D01*
X57127000Y-147127000D01*
X57127000Y-148276250D01*
X57285750Y-148435000D01*
X57800000Y-148438072D01*
X57924482Y-148425812D01*
X58044180Y-148389502D01*
X58154494Y-148330537D01*
X58251185Y-148251185D01*
X58330537Y-148154494D01*
X58389502Y-148044180D01*
X58425812Y-147924482D01*
X58438072Y-147800000D01*
X58435000Y-147285750D01*
X58276250Y-147127000D01*
X57127000Y-147127000D01*
X56873000Y-147127000D01*
X56853000Y-147127000D01*
X56853000Y-146873000D01*
X56873000Y-146873000D01*
X56873000Y-145723750D01*
X57127000Y-145723750D01*
X57127000Y-146873000D01*
X58276250Y-146873000D01*
X58435000Y-146714250D01*
X58437388Y-146314344D01*
X61115000Y-146314344D01*
X61115000Y-146685656D01*
X61187439Y-147049834D01*
X61329534Y-147392882D01*
X61535825Y-147701618D01*
X61798382Y-147964175D01*
X62107118Y-148170466D01*
X62450166Y-148312561D01*
X62814344Y-148385000D01*
X63185656Y-148385000D01*
X63549834Y-148312561D01*
X63892882Y-148170466D01*
X64201618Y-147964175D01*
X64464175Y-147701618D01*
X64670466Y-147392882D01*
X64812561Y-147049834D01*
X64885000Y-146685656D01*
X64885000Y-146314344D01*
X64882062Y-146299570D01*
X67715000Y-146299570D01*
X67715000Y-146700430D01*
X67793204Y-147093587D01*
X67946607Y-147463934D01*
X68169313Y-147797237D01*
X68452763Y-148080687D01*
X68786066Y-148303393D01*
X69156413Y-148456796D01*
X69549570Y-148535000D01*
X69950430Y-148535000D01*
X70343587Y-148456796D01*
X70713934Y-148303393D01*
X71047237Y-148080687D01*
X71330687Y-147797237D01*
X71553393Y-147463934D01*
X71706796Y-147093587D01*
X71785000Y-146700430D01*
X71785000Y-146299570D01*
X71706796Y-145906413D01*
X71553393Y-145536066D01*
X71330687Y-145202763D01*
X71047237Y-144919313D01*
X70713934Y-144696607D01*
X70343587Y-144543204D01*
X69950430Y-144465000D01*
X69549570Y-144465000D01*
X69156413Y-144543204D01*
X68786066Y-144696607D01*
X68452763Y-144919313D01*
X68169313Y-145202763D01*
X67946607Y-145536066D01*
X67793204Y-145906413D01*
X67715000Y-146299570D01*
X64882062Y-146299570D01*
X64812561Y-145950166D01*
X64670466Y-145607118D01*
X64464175Y-145298382D01*
X64201618Y-145035825D01*
X63892882Y-144829534D01*
X63549834Y-144687439D01*
X63185656Y-144615000D01*
X62814344Y-144615000D01*
X62450166Y-144687439D01*
X62107118Y-144829534D01*
X61798382Y-145035825D01*
X61535825Y-145298382D01*
X61329534Y-145607118D01*
X61187439Y-145950166D01*
X61115000Y-146314344D01*
X58437388Y-146314344D01*
X58438072Y-146200000D01*
X58425812Y-146075518D01*
X58389502Y-145955820D01*
X58330537Y-145845506D01*
X58251185Y-145748815D01*
X58154494Y-145669463D01*
X58044180Y-145610498D01*
X57924482Y-145574188D01*
X57800000Y-145561928D01*
X57285750Y-145565000D01*
X57127000Y-145723750D01*
X56873000Y-145723750D01*
X56714250Y-145565000D01*
X56200000Y-145561928D01*
X56075518Y-145574188D01*
X55955820Y-145610498D01*
X55845506Y-145669463D01*
X55748815Y-145748815D01*
X55669463Y-145845506D01*
X55660000Y-145863210D01*
X55660000Y-139906035D01*
X55667818Y-139931808D01*
X55801068Y-140181101D01*
X55980392Y-140399608D01*
X56198899Y-140578932D01*
X56240000Y-140600901D01*
X56240001Y-142621289D01*
X56196063Y-142665227D01*
X56082795Y-142834745D01*
X56004774Y-143023103D01*
X55965000Y-143223062D01*
X55965000Y-143426940D01*
X56004774Y-143626899D01*
X56082795Y-143815257D01*
X56196063Y-143984775D01*
X56340226Y-144128938D01*
X56509744Y-144242206D01*
X56698102Y-144320227D01*
X56898061Y-144360001D01*
X57101939Y-144360001D01*
X57301898Y-144320227D01*
X57490256Y-144242206D01*
X57659774Y-144128938D01*
X57803937Y-143984775D01*
X57917205Y-143815257D01*
X57995226Y-143626899D01*
X58035000Y-143426940D01*
X58035000Y-143223062D01*
X57995226Y-143023103D01*
X57917205Y-142834745D01*
X57803937Y-142665227D01*
X57760000Y-142621290D01*
X57760000Y-141140475D01*
X62365000Y-141140475D01*
X62365000Y-141659525D01*
X62466261Y-142168601D01*
X62664893Y-142648141D01*
X62953262Y-143079715D01*
X63320285Y-143446738D01*
X63751859Y-143735107D01*
X64231399Y-143933739D01*
X64740475Y-144035000D01*
X65259525Y-144035000D01*
X65768601Y-143933739D01*
X66248141Y-143735107D01*
X66679715Y-143446738D01*
X67046738Y-143079715D01*
X67335107Y-142648141D01*
X67533739Y-142168601D01*
X67635000Y-141659525D01*
X67635000Y-141140475D01*
X67533739Y-140631399D01*
X67335107Y-140151859D01*
X67046738Y-139720285D01*
X66679715Y-139353262D01*
X66248141Y-139064893D01*
X65768601Y-138866261D01*
X65259525Y-138765000D01*
X64740475Y-138765000D01*
X64231399Y-138866261D01*
X63751859Y-139064893D01*
X63320285Y-139353262D01*
X62953262Y-139720285D01*
X62664893Y-140151859D01*
X62466261Y-140631399D01*
X62365000Y-141140475D01*
X57760000Y-141140475D01*
X57760000Y-140600901D01*
X57801101Y-140578932D01*
X58019608Y-140399608D01*
X58198932Y-140181101D01*
X58332182Y-139931808D01*
X58414236Y-139661309D01*
X58441943Y-139380000D01*
X58414236Y-139098691D01*
X58332182Y-138828192D01*
X58198932Y-138578899D01*
X58043634Y-138389668D01*
X58044180Y-138389502D01*
X58154494Y-138330537D01*
X58251185Y-138251185D01*
X58330537Y-138154494D01*
X58389502Y-138044180D01*
X58425812Y-137924482D01*
X58438072Y-137800000D01*
X58438072Y-136200000D01*
X58425812Y-136075518D01*
X58389502Y-135955820D01*
X58360037Y-135900696D01*
X58384745Y-135917205D01*
X58573103Y-135995226D01*
X58773062Y-136035000D01*
X58976940Y-136035000D01*
X59176899Y-135995226D01*
X59365257Y-135917205D01*
X59534775Y-135803937D01*
X59632994Y-135705718D01*
X59633625Y-136322664D01*
X59590408Y-136365881D01*
X59477140Y-136535399D01*
X59399119Y-136723757D01*
X59359345Y-136923716D01*
X59359345Y-137127594D01*
X59399119Y-137327553D01*
X59477140Y-137515911D01*
X59590408Y-137685429D01*
X59734571Y-137829592D01*
X59904089Y-137942860D01*
X60092447Y-138020881D01*
X60292406Y-138060655D01*
X60496284Y-138060655D01*
X60696243Y-138020881D01*
X60884601Y-137942860D01*
X61054119Y-137829592D01*
X61198282Y-137685429D01*
X61311550Y-137515911D01*
X61389571Y-137327553D01*
X61429345Y-137127594D01*
X61429345Y-136923716D01*
X61389571Y-136723757D01*
X61311550Y-136535399D01*
X61198282Y-136365881D01*
X61153624Y-136321223D01*
X61143067Y-126006655D01*
X61240000Y-126006655D01*
X61240000Y-126353345D01*
X61307636Y-126693373D01*
X61440308Y-127013673D01*
X61632919Y-127301935D01*
X61878065Y-127547081D01*
X62166327Y-127739692D01*
X62486627Y-127872364D01*
X62784753Y-127931665D01*
X62740000Y-128156655D01*
X62740000Y-128503345D01*
X62807636Y-128843373D01*
X62940308Y-129163673D01*
X63132919Y-129451935D01*
X63378065Y-129697081D01*
X63666327Y-129889692D01*
X63986627Y-130022364D01*
X64223584Y-130069498D01*
X63751859Y-130264893D01*
X63320285Y-130553262D01*
X62953262Y-130920285D01*
X62664893Y-131351859D01*
X62466261Y-131831399D01*
X62365000Y-132340475D01*
X62365000Y-132859525D01*
X62466261Y-133368601D01*
X62664893Y-133848141D01*
X62953262Y-134279715D01*
X63320285Y-134646738D01*
X63751859Y-134935107D01*
X64231399Y-135133739D01*
X64740475Y-135235000D01*
X65259525Y-135235000D01*
X65768601Y-135133739D01*
X66248141Y-134935107D01*
X66679715Y-134646738D01*
X67046738Y-134279715D01*
X67335107Y-133848141D01*
X67533739Y-133368601D01*
X67635000Y-132859525D01*
X67635000Y-132340475D01*
X67533739Y-131831399D01*
X67335107Y-131351859D01*
X67046738Y-130920285D01*
X66679715Y-130553262D01*
X66248141Y-130264893D01*
X65768601Y-130066261D01*
X65259525Y-129965000D01*
X65151863Y-129965000D01*
X65333673Y-129889692D01*
X65621935Y-129697081D01*
X65867081Y-129451935D01*
X66059692Y-129163673D01*
X66192364Y-128843373D01*
X66260000Y-128503345D01*
X66260000Y-128467998D01*
X66370273Y-128541680D01*
X66631426Y-128649853D01*
X66908665Y-128705000D01*
X67191335Y-128705000D01*
X67468574Y-128649853D01*
X67729727Y-128541680D01*
X67964759Y-128384637D01*
X68164637Y-128184759D01*
X68321680Y-127949727D01*
X68429853Y-127688574D01*
X68485000Y-127411335D01*
X68485000Y-127128665D01*
X68429853Y-126851426D01*
X68321680Y-126590273D01*
X68164637Y-126355241D01*
X67964759Y-126155363D01*
X67729727Y-125998320D01*
X67468574Y-125890147D01*
X67191335Y-125835000D01*
X66908665Y-125835000D01*
X66631426Y-125890147D01*
X66370273Y-125998320D01*
X66135241Y-126155363D01*
X65935363Y-126355241D01*
X65778320Y-126590273D01*
X65670147Y-126851426D01*
X65643650Y-126984634D01*
X65621935Y-126962919D01*
X65333673Y-126770308D01*
X65013373Y-126637636D01*
X64715247Y-126578335D01*
X64760000Y-126353345D01*
X64760000Y-126006655D01*
X64692364Y-125666627D01*
X64559692Y-125346327D01*
X64367081Y-125058065D01*
X64121935Y-124812919D01*
X63833673Y-124620308D01*
X63513373Y-124487636D01*
X63173345Y-124420000D01*
X62826655Y-124420000D01*
X62486627Y-124487636D01*
X62166327Y-124620308D01*
X61878065Y-124812919D01*
X61632919Y-125058065D01*
X61440308Y-125346327D01*
X61307636Y-125666627D01*
X61240000Y-126006655D01*
X61143067Y-126006655D01*
X61135628Y-118739833D01*
X61190256Y-118717205D01*
X61359774Y-118603937D01*
X61503937Y-118459774D01*
X61617205Y-118290256D01*
X61695226Y-118101898D01*
X61735000Y-117901939D01*
X61735000Y-117698061D01*
X61717657Y-117610870D01*
X61838967Y-117635000D01*
X62161033Y-117635000D01*
X62476912Y-117572168D01*
X62774463Y-117448918D01*
X63042252Y-117269987D01*
X63269987Y-117042252D01*
X63448918Y-116774463D01*
X63572168Y-116476912D01*
X63635000Y-116161033D01*
X63635000Y-115838967D01*
X63572168Y-115523088D01*
X63448918Y-115225537D01*
X63269987Y-114957748D01*
X63042252Y-114730013D01*
X62774463Y-114551082D01*
X62476912Y-114427832D01*
X62161033Y-114365000D01*
X61838967Y-114365000D01*
X61523088Y-114427832D01*
X61225537Y-114551082D01*
X60957748Y-114730013D01*
X60730013Y-114957748D01*
X60551082Y-115225537D01*
X60427832Y-115523088D01*
X60365000Y-115838967D01*
X60365000Y-116161033D01*
X60427832Y-116476912D01*
X60551037Y-116774354D01*
X60398102Y-116804774D01*
X60209744Y-116882795D01*
X60040226Y-116996063D01*
X59896063Y-117140226D01*
X59782795Y-117309744D01*
X59704774Y-117498102D01*
X59665000Y-117698061D01*
X59665000Y-117847225D01*
X59647549Y-117904966D01*
X59635001Y-117946333D01*
X59635001Y-114497324D01*
X59638677Y-114459999D01*
X59635001Y-114422674D01*
X59635001Y-114422666D01*
X59624004Y-114311013D01*
X59580547Y-114167752D01*
X59509975Y-114035723D01*
X59415002Y-113919998D01*
X59386005Y-113896201D01*
X58510000Y-113020197D01*
X58510000Y-111438072D01*
X58550000Y-111438072D01*
X58674482Y-111425812D01*
X58794180Y-111389502D01*
X58904494Y-111330537D01*
X59001185Y-111251185D01*
X59080537Y-111154494D01*
X59139502Y-111044180D01*
X59175812Y-110924482D01*
X59188072Y-110800000D01*
X59188072Y-109200000D01*
X59175812Y-109075518D01*
X59139502Y-108955820D01*
X59080537Y-108845506D01*
X59001185Y-108748815D01*
X58904494Y-108669463D01*
X58863938Y-108647785D01*
X58951185Y-108576184D01*
X59030537Y-108479493D01*
X59089502Y-108369179D01*
X59125812Y-108249481D01*
X59138072Y-108124999D01*
X59138072Y-108029325D01*
X59174276Y-108009973D01*
X59290001Y-107915000D01*
X59313803Y-107885997D01*
X59956005Y-107243796D01*
X59985002Y-107219999D01*
X60079975Y-107104274D01*
X60150547Y-106972245D01*
X60194004Y-106828984D01*
X60205001Y-106717331D01*
X60205001Y-106717321D01*
X60208677Y-106679998D01*
X60205001Y-106642675D01*
X60205001Y-88586210D01*
X61916003Y-86875209D01*
X61945000Y-86851412D01*
X62039973Y-86735687D01*
X62110545Y-86603658D01*
X62154002Y-86460397D01*
X62164999Y-86348744D01*
X62164999Y-86348736D01*
X62168675Y-86311411D01*
X62164999Y-86274086D01*
X62164999Y-84892176D01*
X62165021Y-84892247D01*
X62204454Y-85022246D01*
X62275026Y-85154276D01*
X62341254Y-85234974D01*
X62370000Y-85270001D01*
X62398998Y-85293799D01*
X63369292Y-86264094D01*
X63355764Y-86308691D01*
X63328057Y-86590000D01*
X63355764Y-86871309D01*
X63437818Y-87141808D01*
X63571068Y-87391101D01*
X63750392Y-87609608D01*
X63968899Y-87788932D01*
X64101858Y-87860000D01*
X63968899Y-87931068D01*
X63750392Y-88110392D01*
X63571068Y-88328899D01*
X63437818Y-88578192D01*
X63355764Y-88848691D01*
X63328057Y-89130000D01*
X63355764Y-89411309D01*
X63437818Y-89681808D01*
X63571068Y-89931101D01*
X63750392Y-90149608D01*
X63968899Y-90328932D01*
X64218192Y-90462182D01*
X64488691Y-90544236D01*
X64699508Y-90565000D01*
X65640492Y-90565000D01*
X65851309Y-90544236D01*
X66121808Y-90462182D01*
X66371101Y-90328932D01*
X66589608Y-90149608D01*
X66768932Y-89931101D01*
X66902182Y-89681808D01*
X66984236Y-89411309D01*
X67011943Y-89130000D01*
X66984236Y-88848691D01*
X66902182Y-88578192D01*
X66768932Y-88328899D01*
X66589608Y-88110392D01*
X66371101Y-87931068D01*
X66238142Y-87860000D01*
X66371101Y-87788932D01*
X66589608Y-87609608D01*
X66768932Y-87391101D01*
X66902182Y-87141808D01*
X66984236Y-86871309D01*
X67011943Y-86590000D01*
X66984236Y-86308691D01*
X66902182Y-86038192D01*
X66768932Y-85788899D01*
X66589608Y-85570392D01*
X66371101Y-85391068D01*
X66238142Y-85320000D01*
X66371101Y-85248932D01*
X66589608Y-85069608D01*
X66768932Y-84851101D01*
X66902182Y-84601808D01*
X66984236Y-84331309D01*
X67011943Y-84050000D01*
X66984236Y-83768691D01*
X66902182Y-83498192D01*
X66768932Y-83248899D01*
X66589608Y-83030392D01*
X66371101Y-82851068D01*
X66238142Y-82780000D01*
X66371101Y-82708932D01*
X66589608Y-82529608D01*
X66768932Y-82311101D01*
X66902182Y-82061808D01*
X66984236Y-81791309D01*
X67011943Y-81510000D01*
X66984236Y-81228691D01*
X66902182Y-80958192D01*
X66768932Y-80708899D01*
X66589608Y-80490392D01*
X66371101Y-80311068D01*
X66121808Y-80177818D01*
X65930000Y-80119634D01*
X65930000Y-80011558D01*
X65938574Y-80009853D01*
X66199727Y-79901680D01*
X66434759Y-79744637D01*
X66634637Y-79544759D01*
X66791680Y-79309727D01*
X66899853Y-79048574D01*
X66955000Y-78771335D01*
X66955000Y-78488665D01*
X66899853Y-78211426D01*
X66791680Y-77950273D01*
X66634637Y-77715241D01*
X66434759Y-77515363D01*
X66232173Y-77380000D01*
X66434759Y-77244637D01*
X66634637Y-77044759D01*
X66790978Y-76810778D01*
X68134999Y-78154799D01*
X68134999Y-78154799D01*
G37*
X68134999Y-78154799D02*
X68135000Y-92150073D01*
X68069607Y-92070392D01*
X67851100Y-91891068D01*
X67601807Y-91757818D01*
X67331308Y-91675764D01*
X67050000Y-91648057D01*
X66768691Y-91675764D01*
X66498192Y-91757818D01*
X66248899Y-91891068D01*
X66195927Y-91934541D01*
X66192364Y-91916627D01*
X66059692Y-91596327D01*
X65867081Y-91308065D01*
X65621935Y-91062919D01*
X65333673Y-90870308D01*
X65013373Y-90737636D01*
X64673345Y-90670000D01*
X64326655Y-90670000D01*
X63986627Y-90737636D01*
X63666327Y-90870308D01*
X63378065Y-91062919D01*
X63132919Y-91308065D01*
X62940308Y-91596327D01*
X62911224Y-91666542D01*
X62909010Y-91666324D01*
X62871685Y-91670000D01*
X62871677Y-91670000D01*
X62760024Y-91680997D01*
X62616763Y-91724454D01*
X62484734Y-91795026D01*
X62369009Y-91889999D01*
X62345211Y-91918997D01*
X61039002Y-93225207D01*
X61009998Y-93249010D01*
X60955842Y-93315000D01*
X60915025Y-93364735D01*
X60872415Y-93444453D01*
X60844453Y-93496765D01*
X60800996Y-93640026D01*
X60789999Y-93751679D01*
X60789999Y-93751689D01*
X60786323Y-93789011D01*
X60789999Y-93826333D01*
X60790000Y-107051665D01*
X60786323Y-107088997D01*
X60790000Y-107126330D01*
X60800997Y-107237983D01*
X60805837Y-107253937D01*
X60844453Y-107381243D01*
X60915025Y-107513273D01*
X60984643Y-107598102D01*
X61009999Y-107628998D01*
X61038997Y-107652796D01*
X61375264Y-107989063D01*
X61225537Y-108051082D01*
X60957748Y-108230013D01*
X60730013Y-108457748D01*
X60551082Y-108725537D01*
X60427832Y-109023088D01*
X60365000Y-109338967D01*
X60365000Y-109661033D01*
X60427832Y-109976912D01*
X60551082Y-110274463D01*
X60730013Y-110542252D01*
X60957748Y-110769987D01*
X61225537Y-110948918D01*
X61523088Y-111072168D01*
X61838967Y-111135000D01*
X62161033Y-111135000D01*
X62476912Y-111072168D01*
X62565002Y-111035680D01*
X62565002Y-111871287D01*
X62521064Y-111915225D01*
X62407796Y-112084743D01*
X62329775Y-112273101D01*
X62290001Y-112473060D01*
X62290001Y-112676938D01*
X62329775Y-112876897D01*
X62407796Y-113065255D01*
X62521064Y-113234773D01*
X62665227Y-113378936D01*
X62834745Y-113492204D01*
X63023103Y-113570225D01*
X63223062Y-113609999D01*
X63426940Y-113609999D01*
X63626899Y-113570225D01*
X63815257Y-113492204D01*
X63880002Y-113448943D01*
X63880002Y-113626289D01*
X63836064Y-113670227D01*
X63722796Y-113839745D01*
X63644775Y-114028103D01*
X63605001Y-114228062D01*
X63605001Y-114431940D01*
X63644775Y-114631899D01*
X63722796Y-114820257D01*
X63836064Y-114989775D01*
X63980227Y-115133938D01*
X64149745Y-115247206D01*
X64338103Y-115325227D01*
X64538062Y-115365001D01*
X64741940Y-115365001D01*
X64941899Y-115325227D01*
X65023850Y-115291282D01*
X64927832Y-115523088D01*
X64865000Y-115838967D01*
X64865000Y-116161033D01*
X64927832Y-116476912D01*
X65051082Y-116774463D01*
X65230013Y-117042252D01*
X65457748Y-117269987D01*
X65725537Y-117448918D01*
X66023088Y-117572168D01*
X66338967Y-117635000D01*
X66579501Y-117635000D01*
X66710704Y-117821712D01*
X66703095Y-117859966D01*
X66703095Y-118063844D01*
X66742869Y-118263803D01*
X66820890Y-118452161D01*
X66934158Y-118621679D01*
X66968558Y-118656079D01*
X66768691Y-118675764D01*
X66498192Y-118757818D01*
X66248899Y-118891068D01*
X66195927Y-118934541D01*
X66192364Y-118916627D01*
X66059692Y-118596327D01*
X65867081Y-118308065D01*
X65621935Y-118062919D01*
X65333673Y-117870308D01*
X65013373Y-117737636D01*
X64673345Y-117670000D01*
X64326655Y-117670000D01*
X63986627Y-117737636D01*
X63666327Y-117870308D01*
X63378065Y-118062919D01*
X63132919Y-118308065D01*
X62940308Y-118596327D01*
X62807636Y-118916627D01*
X62740000Y-119256655D01*
X62740000Y-119603345D01*
X62807636Y-119943373D01*
X62819273Y-119971468D01*
X62486627Y-120037636D01*
X62166327Y-120170308D01*
X61878065Y-120362919D01*
X61632919Y-120608065D01*
X61440308Y-120896327D01*
X61307636Y-121216627D01*
X61240000Y-121556655D01*
X61240000Y-121903345D01*
X61307636Y-122243373D01*
X61440308Y-122563673D01*
X61632919Y-122851935D01*
X61878065Y-123097081D01*
X62166327Y-123289692D01*
X62486627Y-123422364D01*
X62826655Y-123490000D01*
X63173345Y-123490000D01*
X63513373Y-123422364D01*
X63833673Y-123289692D01*
X64121935Y-123097081D01*
X64367081Y-122851935D01*
X64559692Y-122563673D01*
X64692364Y-122243373D01*
X64760000Y-121903345D01*
X64760000Y-121556655D01*
X64692364Y-121216627D01*
X64680727Y-121188532D01*
X65013373Y-121122364D01*
X65333673Y-120989692D01*
X65615000Y-120801715D01*
X65615000Y-121160492D01*
X65635764Y-121371309D01*
X65717818Y-121641808D01*
X65851068Y-121891101D01*
X66030393Y-122109608D01*
X66248900Y-122288932D01*
X66498193Y-122422182D01*
X66768692Y-122504236D01*
X67050000Y-122531943D01*
X67331309Y-122504236D01*
X67601808Y-122422182D01*
X67851101Y-122288932D01*
X68069608Y-122109608D01*
X68248932Y-121891101D01*
X68382182Y-121641808D01*
X68464236Y-121371309D01*
X68485000Y-121160492D01*
X68485000Y-120019508D01*
X68464236Y-119808691D01*
X68382182Y-119538192D01*
X68248932Y-119288899D01*
X68069607Y-119070392D01*
X67952745Y-118974486D01*
X68039993Y-118957131D01*
X68228351Y-118879110D01*
X68397869Y-118765842D01*
X68542032Y-118621679D01*
X68655300Y-118452161D01*
X68733321Y-118263803D01*
X68773095Y-118063844D01*
X68773095Y-117859966D01*
X68733321Y-117660007D01*
X68655300Y-117471649D01*
X68542032Y-117302131D01*
X68397869Y-117157968D01*
X68228351Y-117044700D01*
X68039993Y-116966679D01*
X67955866Y-116949945D01*
X67892201Y-116859345D01*
X67948918Y-116774463D01*
X68072168Y-116476912D01*
X68135000Y-116161033D01*
X68135000Y-115838967D01*
X68127250Y-115800000D01*
X68198057Y-115800000D01*
X68225764Y-116081309D01*
X68307818Y-116351808D01*
X68441068Y-116601101D01*
X68620392Y-116819608D01*
X68838899Y-116998932D01*
X69088192Y-117132182D01*
X69358691Y-117214236D01*
X69569508Y-117235000D01*
X69710492Y-117235000D01*
X69921309Y-117214236D01*
X70191808Y-117132182D01*
X70441101Y-116998932D01*
X70659608Y-116819608D01*
X70838932Y-116601101D01*
X70972182Y-116351808D01*
X71054236Y-116081309D01*
X71081943Y-115800000D01*
X71054236Y-115518691D01*
X70972182Y-115248192D01*
X70838932Y-114998899D01*
X70659608Y-114780392D01*
X70441101Y-114601068D01*
X70191808Y-114467818D01*
X69921309Y-114385764D01*
X69710492Y-114365000D01*
X69569508Y-114365000D01*
X69358691Y-114385764D01*
X69088192Y-114467818D01*
X68838899Y-114601068D01*
X68620392Y-114780392D01*
X68441068Y-114998899D01*
X68307818Y-115248192D01*
X68225764Y-115518691D01*
X68198057Y-115800000D01*
X68127250Y-115800000D01*
X68072168Y-115523088D01*
X67948918Y-115225537D01*
X67769987Y-114957748D01*
X67542252Y-114730013D01*
X67274463Y-114551082D01*
X67260000Y-114545091D01*
X67260000Y-110954909D01*
X67274463Y-110948918D01*
X67542252Y-110769987D01*
X67769987Y-110542252D01*
X67948918Y-110274463D01*
X68072168Y-109976912D01*
X68135000Y-109661033D01*
X68135000Y-109338967D01*
X68072168Y-109023088D01*
X67948918Y-108725537D01*
X67769987Y-108457748D01*
X67542252Y-108230013D01*
X67274463Y-108051082D01*
X66976912Y-107927832D01*
X66661033Y-107865000D01*
X66338967Y-107865000D01*
X66023088Y-107927832D01*
X65725537Y-108051082D01*
X65457748Y-108230013D01*
X65400001Y-108287760D01*
X65400001Y-107035000D01*
X65691184Y-107035000D01*
X65987743Y-106976011D01*
X66267095Y-106860299D01*
X66518505Y-106692312D01*
X66732312Y-106478505D01*
X66900299Y-106227095D01*
X66921454Y-106176022D01*
X66935764Y-106321309D01*
X67017818Y-106591808D01*
X67151068Y-106841101D01*
X67330392Y-107059608D01*
X67548899Y-107238932D01*
X67798192Y-107372182D01*
X68068691Y-107454236D01*
X68279508Y-107475000D01*
X68420492Y-107475000D01*
X68631309Y-107454236D01*
X68715001Y-107428848D01*
X68715002Y-109796288D01*
X68671064Y-109840226D01*
X68557796Y-110009744D01*
X68479775Y-110198102D01*
X68440001Y-110398061D01*
X68440001Y-110601939D01*
X68479775Y-110801898D01*
X68557796Y-110990256D01*
X68671064Y-111159774D01*
X68815227Y-111303937D01*
X68906509Y-111364930D01*
X68838899Y-111401068D01*
X68620392Y-111580392D01*
X68441068Y-111798899D01*
X68307818Y-112048192D01*
X68225764Y-112318691D01*
X68198057Y-112600000D01*
X68225764Y-112881309D01*
X68307818Y-113151808D01*
X68441068Y-113401101D01*
X68620392Y-113619608D01*
X68838899Y-113798932D01*
X69088192Y-113932182D01*
X69358691Y-114014236D01*
X69569508Y-114035000D01*
X69710492Y-114035000D01*
X69921309Y-114014236D01*
X70191808Y-113932182D01*
X70441101Y-113798932D01*
X70659608Y-113619608D01*
X70838932Y-113401101D01*
X70972182Y-113151808D01*
X71054236Y-112881309D01*
X71081943Y-112600000D01*
X71054236Y-112318691D01*
X70972182Y-112048192D01*
X70838932Y-111798899D01*
X70659608Y-111580392D01*
X70441101Y-111401068D01*
X70191808Y-111267818D01*
X70175762Y-111262950D01*
X70278938Y-111159774D01*
X70392206Y-110990256D01*
X70470227Y-110801898D01*
X70510001Y-110601939D01*
X70510001Y-110398061D01*
X70470227Y-110198102D01*
X70456372Y-110164652D01*
X70558665Y-110185000D01*
X70841335Y-110185000D01*
X71118574Y-110129853D01*
X71379727Y-110021680D01*
X71614759Y-109864637D01*
X71814637Y-109664759D01*
X71971680Y-109429727D01*
X72079853Y-109168574D01*
X72135000Y-108891335D01*
X72135000Y-108608665D01*
X72079853Y-108331426D01*
X71971680Y-108070273D01*
X71814637Y-107835241D01*
X71614759Y-107635363D01*
X71460000Y-107531957D01*
X71460000Y-103689347D01*
X71588967Y-103715000D01*
X71911033Y-103715000D01*
X72226912Y-103652168D01*
X72315001Y-103615680D01*
X72315002Y-112251666D01*
X72233227Y-112496990D01*
X72211750Y-112554584D01*
X72203608Y-112604842D01*
X72192321Y-112654484D01*
X72190647Y-112715923D01*
X72167329Y-113089024D01*
X72165000Y-113112668D01*
X72165000Y-113126285D01*
X72164152Y-113139853D01*
X72165000Y-113163558D01*
X72165001Y-117921288D01*
X72121063Y-117965226D01*
X72007795Y-118134744D01*
X71929774Y-118323102D01*
X71890000Y-118523061D01*
X71890000Y-118726939D01*
X71929774Y-118926898D01*
X72007795Y-119115256D01*
X72121063Y-119284774D01*
X72265226Y-119428937D01*
X72434744Y-119542205D01*
X72623102Y-119620226D01*
X72823061Y-119660000D01*
X72914999Y-119660000D01*
X72914999Y-120251288D01*
X72859774Y-120196063D01*
X72690256Y-120082795D01*
X72501898Y-120004774D01*
X72301939Y-119965000D01*
X72098061Y-119965000D01*
X71898102Y-120004774D01*
X71709744Y-120082795D01*
X71540226Y-120196063D01*
X71396063Y-120340226D01*
X71282795Y-120509744D01*
X71204774Y-120698102D01*
X71165000Y-120898061D01*
X71165000Y-121101939D01*
X71204774Y-121301898D01*
X71282795Y-121490256D01*
X71396063Y-121659774D01*
X71440001Y-121703712D01*
X71440000Y-124902225D01*
X71348987Y-124963038D01*
X71163038Y-125148987D01*
X71016939Y-125367641D01*
X70916304Y-125610595D01*
X70865000Y-125868514D01*
X70865000Y-126131486D01*
X70916304Y-126389405D01*
X71016939Y-126632359D01*
X71163038Y-126851013D01*
X71348987Y-127036962D01*
X71567641Y-127183061D01*
X71729246Y-127250000D01*
X71567641Y-127316939D01*
X71348987Y-127463038D01*
X71163038Y-127648987D01*
X71016939Y-127867641D01*
X70916304Y-128110595D01*
X70865000Y-128368514D01*
X70865000Y-128631486D01*
X70916304Y-128889405D01*
X71016939Y-129132359D01*
X71163038Y-129351013D01*
X71348987Y-129536962D01*
X71567641Y-129683061D01*
X71810595Y-129783696D01*
X72068514Y-129835000D01*
X72331486Y-129835000D01*
X72589405Y-129783696D01*
X72832359Y-129683061D01*
X72914999Y-129627843D01*
X72914999Y-133265255D01*
X72727095Y-133139701D01*
X72447743Y-133023989D01*
X72151184Y-132965000D01*
X71848816Y-132965000D01*
X71552257Y-133023989D01*
X71272905Y-133139701D01*
X71021495Y-133307688D01*
X70807688Y-133521495D01*
X70639701Y-133772905D01*
X70523989Y-134052257D01*
X70465000Y-134348816D01*
X70465000Y-134651184D01*
X70523989Y-134947743D01*
X70639701Y-135227095D01*
X70807688Y-135478505D01*
X71021495Y-135692312D01*
X71107831Y-135750000D01*
X71021495Y-135807688D01*
X70807688Y-136021495D01*
X70639701Y-136272905D01*
X70523989Y-136552257D01*
X70465000Y-136848816D01*
X70465000Y-137151184D01*
X70523989Y-137447743D01*
X70639701Y-137727095D01*
X70807688Y-137978505D01*
X71021495Y-138192312D01*
X71107831Y-138250000D01*
X71021495Y-138307688D01*
X70807688Y-138521495D01*
X70639701Y-138772905D01*
X70523989Y-139052257D01*
X70465000Y-139348816D01*
X70465000Y-139651184D01*
X70523989Y-139947743D01*
X70639701Y-140227095D01*
X70807688Y-140478505D01*
X71021495Y-140692312D01*
X71272905Y-140860299D01*
X71552257Y-140976011D01*
X71848816Y-141035000D01*
X72151184Y-141035000D01*
X72447743Y-140976011D01*
X72727095Y-140860299D01*
X72978505Y-140692312D01*
X73192312Y-140478505D01*
X73360299Y-140227095D01*
X73476011Y-139947743D01*
X73496493Y-139844771D01*
X73573060Y-139860001D01*
X73776938Y-139860001D01*
X73976897Y-139820227D01*
X74165255Y-139742206D01*
X74334773Y-139628938D01*
X74478936Y-139484775D01*
X74592204Y-139315257D01*
X74670225Y-139126899D01*
X74709999Y-138926940D01*
X74709999Y-138904865D01*
X74948192Y-139032182D01*
X75218691Y-139114236D01*
X75429508Y-139135000D01*
X75570492Y-139135000D01*
X75781309Y-139114236D01*
X76051808Y-139032182D01*
X76301101Y-138898932D01*
X76519608Y-138719608D01*
X76698932Y-138501101D01*
X76832182Y-138251808D01*
X76914236Y-137981309D01*
X76941943Y-137700000D01*
X76914236Y-137418691D01*
X76832182Y-137148192D01*
X76698932Y-136898899D01*
X76519608Y-136680392D01*
X76301101Y-136501068D01*
X76254573Y-136476198D01*
X76249003Y-136419644D01*
X76205546Y-136276383D01*
X76134974Y-136144354D01*
X76040001Y-136028629D01*
X76010997Y-136004826D01*
X75985001Y-135978830D01*
X75985001Y-134148491D01*
X76181426Y-134229853D01*
X76458665Y-134285000D01*
X76741335Y-134285000D01*
X77018574Y-134229853D01*
X77279727Y-134121680D01*
X77514759Y-133964637D01*
X77714637Y-133764759D01*
X77871680Y-133529727D01*
X77979853Y-133268574D01*
X78035000Y-132991335D01*
X78035000Y-132708665D01*
X77979853Y-132431426D01*
X77871680Y-132170273D01*
X77801340Y-132065001D01*
X78001939Y-132065001D01*
X78201898Y-132025227D01*
X78390256Y-131947206D01*
X78559774Y-131833938D01*
X78703937Y-131689775D01*
X78817205Y-131520257D01*
X78895226Y-131331899D01*
X78935000Y-131131940D01*
X78935000Y-130928062D01*
X78895226Y-130728103D01*
X78817205Y-130539745D01*
X78703937Y-130370227D01*
X78660000Y-130326290D01*
X78660000Y-128810320D01*
X78828899Y-128948932D01*
X79078192Y-129082182D01*
X79348691Y-129164236D01*
X79559508Y-129185000D01*
X79700492Y-129185000D01*
X79911309Y-129164236D01*
X80181808Y-129082182D01*
X80284999Y-129027025D01*
X80284999Y-134092975D01*
X80181808Y-134037818D01*
X79911309Y-133955764D01*
X79700492Y-133935000D01*
X79559508Y-133935000D01*
X79348691Y-133955764D01*
X79078192Y-134037818D01*
X78828899Y-134171068D01*
X78610392Y-134350392D01*
X78431068Y-134568899D01*
X78297818Y-134818192D01*
X78215764Y-135088691D01*
X78188057Y-135370000D01*
X78215764Y-135651309D01*
X78297818Y-135921808D01*
X78431068Y-136171101D01*
X78508129Y-136265000D01*
X78358665Y-136265000D01*
X78081426Y-136320147D01*
X77820273Y-136428320D01*
X77585241Y-136585363D01*
X77385363Y-136785241D01*
X77228320Y-137020273D01*
X77120147Y-137281426D01*
X77065000Y-137558665D01*
X77065000Y-137841335D01*
X77120147Y-138118574D01*
X77228320Y-138379727D01*
X77385363Y-138614759D01*
X77585241Y-138814637D01*
X77820273Y-138971680D01*
X78081426Y-139079853D01*
X78358665Y-139135000D01*
X78641335Y-139135000D01*
X78918574Y-139079853D01*
X79179727Y-138971680D01*
X79414759Y-138814637D01*
X79614637Y-138614759D01*
X79771680Y-138379727D01*
X79879853Y-138118574D01*
X79935000Y-137841335D01*
X79935000Y-137558665D01*
X79879853Y-137281426D01*
X79771680Y-137020273D01*
X79627840Y-136805000D01*
X79700492Y-136805000D01*
X79911309Y-136784236D01*
X80181808Y-136702182D01*
X80431101Y-136568932D01*
X80539867Y-136479670D01*
X80590349Y-136530152D01*
X80480392Y-136620392D01*
X80301068Y-136838899D01*
X80167818Y-137088192D01*
X80085764Y-137358691D01*
X80058057Y-137640000D01*
X80085764Y-137921309D01*
X80167818Y-138191808D01*
X80301068Y-138441101D01*
X80480392Y-138659608D01*
X80698899Y-138838932D01*
X80948192Y-138972182D01*
X81218691Y-139054236D01*
X81429508Y-139075000D01*
X81570492Y-139075000D01*
X81781309Y-139054236D01*
X82051808Y-138972182D01*
X82210000Y-138887627D01*
X82209999Y-146015199D01*
X81823886Y-146401312D01*
X81641335Y-146365000D01*
X81358665Y-146365000D01*
X81081426Y-146420147D01*
X80820273Y-146528320D01*
X80585241Y-146685363D01*
X80385363Y-146885241D01*
X80228320Y-147120273D01*
X80120147Y-147381426D01*
X80065000Y-147658665D01*
X80065000Y-147941335D01*
X80120147Y-148218574D01*
X80228320Y-148479727D01*
X80385363Y-148714759D01*
X80510604Y-148840000D01*
X79552113Y-148840000D01*
X79698932Y-148661101D01*
X79832182Y-148411808D01*
X79914236Y-148141309D01*
X79941943Y-147860000D01*
X79914236Y-147578691D01*
X79832182Y-147308192D01*
X79698932Y-147058899D01*
X79519608Y-146840392D01*
X79301101Y-146661068D01*
X79051808Y-146527818D01*
X78781309Y-146445764D01*
X78570492Y-146425000D01*
X78429508Y-146425000D01*
X78218691Y-146445764D01*
X77948192Y-146527818D01*
X77698899Y-146661068D01*
X77480392Y-146840392D01*
X77301068Y-147058899D01*
X77167818Y-147308192D01*
X77085764Y-147578691D01*
X77058057Y-147860000D01*
X77085764Y-148141309D01*
X77167818Y-148411808D01*
X77301068Y-148661101D01*
X77447887Y-148840000D01*
X76549396Y-148840000D01*
X76614637Y-148774759D01*
X76771680Y-148539727D01*
X76879853Y-148278574D01*
X76935000Y-148001335D01*
X76935000Y-147718665D01*
X76879853Y-147441426D01*
X76771680Y-147180273D01*
X76614637Y-146945241D01*
X76414759Y-146745363D01*
X76179727Y-146588320D01*
X75918574Y-146480147D01*
X75641335Y-146425000D01*
X75358665Y-146425000D01*
X75081426Y-146480147D01*
X74820273Y-146588320D01*
X74585241Y-146745363D01*
X74385363Y-146945241D01*
X74228320Y-147180273D01*
X74120147Y-147441426D01*
X74065000Y-147718665D01*
X74065000Y-148001335D01*
X74120147Y-148278574D01*
X74228320Y-148539727D01*
X74385363Y-148774759D01*
X74450604Y-148840000D01*
X55660000Y-148840000D01*
X55660000Y-148136790D01*
X55669463Y-148154494D01*
X55748815Y-148251185D01*
X55845506Y-148330537D01*
X55955820Y-148389502D01*
X56075518Y-148425812D01*
X56200000Y-148438072D01*
X56714250Y-148435000D01*
X56873000Y-148276250D01*
X56873000Y-147127000D01*
X57127000Y-147127000D01*
X57127000Y-148276250D01*
X57285750Y-148435000D01*
X57800000Y-148438072D01*
X57924482Y-148425812D01*
X58044180Y-148389502D01*
X58154494Y-148330537D01*
X58251185Y-148251185D01*
X58330537Y-148154494D01*
X58389502Y-148044180D01*
X58425812Y-147924482D01*
X58438072Y-147800000D01*
X58435000Y-147285750D01*
X58276250Y-147127000D01*
X57127000Y-147127000D01*
X56873000Y-147127000D01*
X56853000Y-147127000D01*
X56853000Y-146873000D01*
X56873000Y-146873000D01*
X56873000Y-145723750D01*
X57127000Y-145723750D01*
X57127000Y-146873000D01*
X58276250Y-146873000D01*
X58435000Y-146714250D01*
X58437388Y-146314344D01*
X61115000Y-146314344D01*
X61115000Y-146685656D01*
X61187439Y-147049834D01*
X61329534Y-147392882D01*
X61535825Y-147701618D01*
X61798382Y-147964175D01*
X62107118Y-148170466D01*
X62450166Y-148312561D01*
X62814344Y-148385000D01*
X63185656Y-148385000D01*
X63549834Y-148312561D01*
X63892882Y-148170466D01*
X64201618Y-147964175D01*
X64464175Y-147701618D01*
X64670466Y-147392882D01*
X64812561Y-147049834D01*
X64885000Y-146685656D01*
X64885000Y-146314344D01*
X64882062Y-146299570D01*
X67715000Y-146299570D01*
X67715000Y-146700430D01*
X67793204Y-147093587D01*
X67946607Y-147463934D01*
X68169313Y-147797237D01*
X68452763Y-148080687D01*
X68786066Y-148303393D01*
X69156413Y-148456796D01*
X69549570Y-148535000D01*
X69950430Y-148535000D01*
X70343587Y-148456796D01*
X70713934Y-148303393D01*
X71047237Y-148080687D01*
X71330687Y-147797237D01*
X71553393Y-147463934D01*
X71706796Y-147093587D01*
X71785000Y-146700430D01*
X71785000Y-146299570D01*
X71706796Y-145906413D01*
X71553393Y-145536066D01*
X71330687Y-145202763D01*
X71047237Y-144919313D01*
X70713934Y-144696607D01*
X70343587Y-144543204D01*
X69950430Y-144465000D01*
X69549570Y-144465000D01*
X69156413Y-144543204D01*
X68786066Y-144696607D01*
X68452763Y-144919313D01*
X68169313Y-145202763D01*
X67946607Y-145536066D01*
X67793204Y-145906413D01*
X67715000Y-146299570D01*
X64882062Y-146299570D01*
X64812561Y-145950166D01*
X64670466Y-145607118D01*
X64464175Y-145298382D01*
X64201618Y-145035825D01*
X63892882Y-144829534D01*
X63549834Y-144687439D01*
X63185656Y-144615000D01*
X62814344Y-144615000D01*
X62450166Y-144687439D01*
X62107118Y-144829534D01*
X61798382Y-145035825D01*
X61535825Y-145298382D01*
X61329534Y-145607118D01*
X61187439Y-145950166D01*
X61115000Y-146314344D01*
X58437388Y-146314344D01*
X58438072Y-146200000D01*
X58425812Y-146075518D01*
X58389502Y-145955820D01*
X58330537Y-145845506D01*
X58251185Y-145748815D01*
X58154494Y-145669463D01*
X58044180Y-145610498D01*
X57924482Y-145574188D01*
X57800000Y-145561928D01*
X57285750Y-145565000D01*
X57127000Y-145723750D01*
X56873000Y-145723750D01*
X56714250Y-145565000D01*
X56200000Y-145561928D01*
X56075518Y-145574188D01*
X55955820Y-145610498D01*
X55845506Y-145669463D01*
X55748815Y-145748815D01*
X55669463Y-145845506D01*
X55660000Y-145863210D01*
X55660000Y-139906035D01*
X55667818Y-139931808D01*
X55801068Y-140181101D01*
X55980392Y-140399608D01*
X56198899Y-140578932D01*
X56240000Y-140600901D01*
X56240001Y-142621289D01*
X56196063Y-142665227D01*
X56082795Y-142834745D01*
X56004774Y-143023103D01*
X55965000Y-143223062D01*
X55965000Y-143426940D01*
X56004774Y-143626899D01*
X56082795Y-143815257D01*
X56196063Y-143984775D01*
X56340226Y-144128938D01*
X56509744Y-144242206D01*
X56698102Y-144320227D01*
X56898061Y-144360001D01*
X57101939Y-144360001D01*
X57301898Y-144320227D01*
X57490256Y-144242206D01*
X57659774Y-144128938D01*
X57803937Y-143984775D01*
X57917205Y-143815257D01*
X57995226Y-143626899D01*
X58035000Y-143426940D01*
X58035000Y-143223062D01*
X57995226Y-143023103D01*
X57917205Y-142834745D01*
X57803937Y-142665227D01*
X57760000Y-142621290D01*
X57760000Y-141140475D01*
X62365000Y-141140475D01*
X62365000Y-141659525D01*
X62466261Y-142168601D01*
X62664893Y-142648141D01*
X62953262Y-143079715D01*
X63320285Y-143446738D01*
X63751859Y-143735107D01*
X64231399Y-143933739D01*
X64740475Y-144035000D01*
X65259525Y-144035000D01*
X65768601Y-143933739D01*
X66248141Y-143735107D01*
X66679715Y-143446738D01*
X67046738Y-143079715D01*
X67335107Y-142648141D01*
X67533739Y-142168601D01*
X67635000Y-141659525D01*
X67635000Y-141140475D01*
X67533739Y-140631399D01*
X67335107Y-140151859D01*
X67046738Y-139720285D01*
X66679715Y-139353262D01*
X66248141Y-139064893D01*
X65768601Y-138866261D01*
X65259525Y-138765000D01*
X64740475Y-138765000D01*
X64231399Y-138866261D01*
X63751859Y-139064893D01*
X63320285Y-139353262D01*
X62953262Y-139720285D01*
X62664893Y-140151859D01*
X62466261Y-140631399D01*
X62365000Y-141140475D01*
X57760000Y-141140475D01*
X57760000Y-140600901D01*
X57801101Y-140578932D01*
X58019608Y-140399608D01*
X58198932Y-140181101D01*
X58332182Y-139931808D01*
X58414236Y-139661309D01*
X58441943Y-139380000D01*
X58414236Y-139098691D01*
X58332182Y-138828192D01*
X58198932Y-138578899D01*
X58043634Y-138389668D01*
X58044180Y-138389502D01*
X58154494Y-138330537D01*
X58251185Y-138251185D01*
X58330537Y-138154494D01*
X58389502Y-138044180D01*
X58425812Y-137924482D01*
X58438072Y-137800000D01*
X58438072Y-136200000D01*
X58425812Y-136075518D01*
X58389502Y-135955820D01*
X58360037Y-135900696D01*
X58384745Y-135917205D01*
X58573103Y-135995226D01*
X58773062Y-136035000D01*
X58976940Y-136035000D01*
X59176899Y-135995226D01*
X59365257Y-135917205D01*
X59534775Y-135803937D01*
X59632994Y-135705718D01*
X59633625Y-136322664D01*
X59590408Y-136365881D01*
X59477140Y-136535399D01*
X59399119Y-136723757D01*
X59359345Y-136923716D01*
X59359345Y-137127594D01*
X59399119Y-137327553D01*
X59477140Y-137515911D01*
X59590408Y-137685429D01*
X59734571Y-137829592D01*
X59904089Y-137942860D01*
X60092447Y-138020881D01*
X60292406Y-138060655D01*
X60496284Y-138060655D01*
X60696243Y-138020881D01*
X60884601Y-137942860D01*
X61054119Y-137829592D01*
X61198282Y-137685429D01*
X61311550Y-137515911D01*
X61389571Y-137327553D01*
X61429345Y-137127594D01*
X61429345Y-136923716D01*
X61389571Y-136723757D01*
X61311550Y-136535399D01*
X61198282Y-136365881D01*
X61153624Y-136321223D01*
X61143067Y-126006655D01*
X61240000Y-126006655D01*
X61240000Y-126353345D01*
X61307636Y-126693373D01*
X61440308Y-127013673D01*
X61632919Y-127301935D01*
X61878065Y-127547081D01*
X62166327Y-127739692D01*
X62486627Y-127872364D01*
X62784753Y-127931665D01*
X62740000Y-128156655D01*
X62740000Y-128503345D01*
X62807636Y-128843373D01*
X62940308Y-129163673D01*
X63132919Y-129451935D01*
X63378065Y-129697081D01*
X63666327Y-129889692D01*
X63986627Y-130022364D01*
X64223584Y-130069498D01*
X63751859Y-130264893D01*
X63320285Y-130553262D01*
X62953262Y-130920285D01*
X62664893Y-131351859D01*
X62466261Y-131831399D01*
X62365000Y-132340475D01*
X62365000Y-132859525D01*
X62466261Y-133368601D01*
X62664893Y-133848141D01*
X62953262Y-134279715D01*
X63320285Y-134646738D01*
X63751859Y-134935107D01*
X64231399Y-135133739D01*
X64740475Y-135235000D01*
X65259525Y-135235000D01*
X65768601Y-135133739D01*
X66248141Y-134935107D01*
X66679715Y-134646738D01*
X67046738Y-134279715D01*
X67335107Y-133848141D01*
X67533739Y-133368601D01*
X67635000Y-132859525D01*
X67635000Y-132340475D01*
X67533739Y-131831399D01*
X67335107Y-131351859D01*
X67046738Y-130920285D01*
X66679715Y-130553262D01*
X66248141Y-130264893D01*
X65768601Y-130066261D01*
X65259525Y-129965000D01*
X65151863Y-129965000D01*
X65333673Y-129889692D01*
X65621935Y-129697081D01*
X65867081Y-129451935D01*
X66059692Y-129163673D01*
X66192364Y-128843373D01*
X66260000Y-128503345D01*
X66260000Y-128467998D01*
X66370273Y-128541680D01*
X66631426Y-128649853D01*
X66908665Y-128705000D01*
X67191335Y-128705000D01*
X67468574Y-128649853D01*
X67729727Y-128541680D01*
X67964759Y-128384637D01*
X68164637Y-128184759D01*
X68321680Y-127949727D01*
X68429853Y-127688574D01*
X68485000Y-127411335D01*
X68485000Y-127128665D01*
X68429853Y-126851426D01*
X68321680Y-126590273D01*
X68164637Y-126355241D01*
X67964759Y-126155363D01*
X67729727Y-125998320D01*
X67468574Y-125890147D01*
X67191335Y-125835000D01*
X66908665Y-125835000D01*
X66631426Y-125890147D01*
X66370273Y-125998320D01*
X66135241Y-126155363D01*
X65935363Y-126355241D01*
X65778320Y-126590273D01*
X65670147Y-126851426D01*
X65643650Y-126984634D01*
X65621935Y-126962919D01*
X65333673Y-126770308D01*
X65013373Y-126637636D01*
X64715247Y-126578335D01*
X64760000Y-126353345D01*
X64760000Y-126006655D01*
X64692364Y-125666627D01*
X64559692Y-125346327D01*
X64367081Y-125058065D01*
X64121935Y-124812919D01*
X63833673Y-124620308D01*
X63513373Y-124487636D01*
X63173345Y-124420000D01*
X62826655Y-124420000D01*
X62486627Y-124487636D01*
X62166327Y-124620308D01*
X61878065Y-124812919D01*
X61632919Y-125058065D01*
X61440308Y-125346327D01*
X61307636Y-125666627D01*
X61240000Y-126006655D01*
X61143067Y-126006655D01*
X61135628Y-118739833D01*
X61190256Y-118717205D01*
X61359774Y-118603937D01*
X61503937Y-118459774D01*
X61617205Y-118290256D01*
X61695226Y-118101898D01*
X61735000Y-117901939D01*
X61735000Y-117698061D01*
X61717657Y-117610870D01*
X61838967Y-117635000D01*
X62161033Y-117635000D01*
X62476912Y-117572168D01*
X62774463Y-117448918D01*
X63042252Y-117269987D01*
X63269987Y-117042252D01*
X63448918Y-116774463D01*
X63572168Y-116476912D01*
X63635000Y-116161033D01*
X63635000Y-115838967D01*
X63572168Y-115523088D01*
X63448918Y-115225537D01*
X63269987Y-114957748D01*
X63042252Y-114730013D01*
X62774463Y-114551082D01*
X62476912Y-114427832D01*
X62161033Y-114365000D01*
X61838967Y-114365000D01*
X61523088Y-114427832D01*
X61225537Y-114551082D01*
X60957748Y-114730013D01*
X60730013Y-114957748D01*
X60551082Y-115225537D01*
X60427832Y-115523088D01*
X60365000Y-115838967D01*
X60365000Y-116161033D01*
X60427832Y-116476912D01*
X60551037Y-116774354D01*
X60398102Y-116804774D01*
X60209744Y-116882795D01*
X60040226Y-116996063D01*
X59896063Y-117140226D01*
X59782795Y-117309744D01*
X59704774Y-117498102D01*
X59665000Y-117698061D01*
X59665000Y-117847225D01*
X59647549Y-117904966D01*
X59635001Y-117946333D01*
X59635001Y-114497324D01*
X59638677Y-114459999D01*
X59635001Y-114422674D01*
X59635001Y-114422666D01*
X59624004Y-114311013D01*
X59580547Y-114167752D01*
X59509975Y-114035723D01*
X59415002Y-113919998D01*
X59386005Y-113896201D01*
X58510000Y-113020197D01*
X58510000Y-111438072D01*
X58550000Y-111438072D01*
X58674482Y-111425812D01*
X58794180Y-111389502D01*
X58904494Y-111330537D01*
X59001185Y-111251185D01*
X59080537Y-111154494D01*
X59139502Y-111044180D01*
X59175812Y-110924482D01*
X59188072Y-110800000D01*
X59188072Y-109200000D01*
X59175812Y-109075518D01*
X59139502Y-108955820D01*
X59080537Y-108845506D01*
X59001185Y-108748815D01*
X58904494Y-108669463D01*
X58863938Y-108647785D01*
X58951185Y-108576184D01*
X59030537Y-108479493D01*
X59089502Y-108369179D01*
X59125812Y-108249481D01*
X59138072Y-108124999D01*
X59138072Y-108029325D01*
X59174276Y-108009973D01*
X59290001Y-107915000D01*
X59313803Y-107885997D01*
X59956005Y-107243796D01*
X59985002Y-107219999D01*
X60079975Y-107104274D01*
X60150547Y-106972245D01*
X60194004Y-106828984D01*
X60205001Y-106717331D01*
X60205001Y-106717321D01*
X60208677Y-106679998D01*
X60205001Y-106642675D01*
X60205001Y-88586210D01*
X61916003Y-86875209D01*
X61945000Y-86851412D01*
X62039973Y-86735687D01*
X62110545Y-86603658D01*
X62154002Y-86460397D01*
X62164999Y-86348744D01*
X62164999Y-86348736D01*
X62168675Y-86311411D01*
X62164999Y-86274086D01*
X62164999Y-84892176D01*
X62165021Y-84892247D01*
X62204454Y-85022246D01*
X62275026Y-85154276D01*
X62341254Y-85234974D01*
X62370000Y-85270001D01*
X62398998Y-85293799D01*
X63369292Y-86264094D01*
X63355764Y-86308691D01*
X63328057Y-86590000D01*
X63355764Y-86871309D01*
X63437818Y-87141808D01*
X63571068Y-87391101D01*
X63750392Y-87609608D01*
X63968899Y-87788932D01*
X64101858Y-87860000D01*
X63968899Y-87931068D01*
X63750392Y-88110392D01*
X63571068Y-88328899D01*
X63437818Y-88578192D01*
X63355764Y-88848691D01*
X63328057Y-89130000D01*
X63355764Y-89411309D01*
X63437818Y-89681808D01*
X63571068Y-89931101D01*
X63750392Y-90149608D01*
X63968899Y-90328932D01*
X64218192Y-90462182D01*
X64488691Y-90544236D01*
X64699508Y-90565000D01*
X65640492Y-90565000D01*
X65851309Y-90544236D01*
X66121808Y-90462182D01*
X66371101Y-90328932D01*
X66589608Y-90149608D01*
X66768932Y-89931101D01*
X66902182Y-89681808D01*
X66984236Y-89411309D01*
X67011943Y-89130000D01*
X66984236Y-88848691D01*
X66902182Y-88578192D01*
X66768932Y-88328899D01*
X66589608Y-88110392D01*
X66371101Y-87931068D01*
X66238142Y-87860000D01*
X66371101Y-87788932D01*
X66589608Y-87609608D01*
X66768932Y-87391101D01*
X66902182Y-87141808D01*
X66984236Y-86871309D01*
X67011943Y-86590000D01*
X66984236Y-86308691D01*
X66902182Y-86038192D01*
X66768932Y-85788899D01*
X66589608Y-85570392D01*
X66371101Y-85391068D01*
X66238142Y-85320000D01*
X66371101Y-85248932D01*
X66589608Y-85069608D01*
X66768932Y-84851101D01*
X66902182Y-84601808D01*
X66984236Y-84331309D01*
X67011943Y-84050000D01*
X66984236Y-83768691D01*
X66902182Y-83498192D01*
X66768932Y-83248899D01*
X66589608Y-83030392D01*
X66371101Y-82851068D01*
X66238142Y-82780000D01*
X66371101Y-82708932D01*
X66589608Y-82529608D01*
X66768932Y-82311101D01*
X66902182Y-82061808D01*
X66984236Y-81791309D01*
X67011943Y-81510000D01*
X66984236Y-81228691D01*
X66902182Y-80958192D01*
X66768932Y-80708899D01*
X66589608Y-80490392D01*
X66371101Y-80311068D01*
X66121808Y-80177818D01*
X65930000Y-80119634D01*
X65930000Y-80011558D01*
X65938574Y-80009853D01*
X66199727Y-79901680D01*
X66434759Y-79744637D01*
X66634637Y-79544759D01*
X66791680Y-79309727D01*
X66899853Y-79048574D01*
X66955000Y-78771335D01*
X66955000Y-78488665D01*
X66899853Y-78211426D01*
X66791680Y-77950273D01*
X66634637Y-77715241D01*
X66434759Y-77515363D01*
X66232173Y-77380000D01*
X66434759Y-77244637D01*
X66634637Y-77044759D01*
X66790978Y-76810778D01*
X68134999Y-78154799D01*
G36*
X76730013Y-40207748D02*
G01*
X76551082Y-40475537D01*
X76427832Y-40773088D01*
X76365000Y-41088967D01*
X76365000Y-41411033D01*
X76427832Y-41726912D01*
X76551082Y-42024463D01*
X76730013Y-42292252D01*
X76957748Y-42519987D01*
X77225537Y-42698918D01*
X77523088Y-42822168D01*
X77838967Y-42885000D01*
X78161033Y-42885000D01*
X78476912Y-42822168D01*
X78774463Y-42698918D01*
X79042252Y-42519987D01*
X79269987Y-42292252D01*
X79448918Y-42024463D01*
X79572168Y-41726912D01*
X79635000Y-41411033D01*
X79635000Y-41088967D01*
X79572168Y-40773088D01*
X79448918Y-40475537D01*
X79269987Y-40207748D01*
X79222239Y-40160000D01*
X91277761Y-40160000D01*
X91230013Y-40207748D01*
X91051082Y-40475537D01*
X90927832Y-40773088D01*
X90865000Y-41088967D01*
X90865000Y-41411033D01*
X90927832Y-41726912D01*
X91051082Y-42024463D01*
X91230013Y-42292252D01*
X91457748Y-42519987D01*
X91725537Y-42698918D01*
X92023088Y-42822168D01*
X92338967Y-42885000D01*
X92661033Y-42885000D01*
X92976912Y-42822168D01*
X93274463Y-42698918D01*
X93542252Y-42519987D01*
X93769987Y-42292252D01*
X93948918Y-42024463D01*
X94072168Y-41726912D01*
X94135000Y-41411033D01*
X94135000Y-41088967D01*
X94072168Y-40773088D01*
X93948918Y-40475537D01*
X93769987Y-40207748D01*
X93722239Y-40160000D01*
X95777761Y-40160000D01*
X95730013Y-40207748D01*
X95551082Y-40475537D01*
X95427832Y-40773088D01*
X95365000Y-41088967D01*
X95365000Y-41411033D01*
X95427832Y-41726912D01*
X95551082Y-42024463D01*
X95730013Y-42292252D01*
X95957748Y-42519987D01*
X96225537Y-42698918D01*
X96523088Y-42822168D01*
X96838967Y-42885000D01*
X97161033Y-42885000D01*
X97476912Y-42822168D01*
X97774463Y-42698918D01*
X98042252Y-42519987D01*
X98247895Y-42314344D01*
X105615000Y-42314344D01*
X105615000Y-42685656D01*
X105687439Y-43049834D01*
X105829534Y-43392882D01*
X106035825Y-43701618D01*
X106298382Y-43964175D01*
X106607118Y-44170466D01*
X106950166Y-44312561D01*
X107314344Y-44385000D01*
X107685656Y-44385000D01*
X108049834Y-44312561D01*
X108392882Y-44170466D01*
X108701618Y-43964175D01*
X108964175Y-43701618D01*
X109170466Y-43392882D01*
X109312561Y-43049834D01*
X109385000Y-42685656D01*
X109385000Y-42314344D01*
X109312561Y-41950166D01*
X109170466Y-41607118D01*
X108964175Y-41298382D01*
X108701618Y-41035825D01*
X108392882Y-40829534D01*
X108049834Y-40687439D01*
X107685656Y-40615000D01*
X107314344Y-40615000D01*
X106950166Y-40687439D01*
X106607118Y-40829534D01*
X106298382Y-41035825D01*
X106035825Y-41298382D01*
X105829534Y-41607118D01*
X105687439Y-41950166D01*
X105615000Y-42314344D01*
X98247895Y-42314344D01*
X98269987Y-42292252D01*
X98448918Y-42024463D01*
X98572168Y-41726912D01*
X98635000Y-41411033D01*
X98635000Y-41088967D01*
X98572168Y-40773088D01*
X98448918Y-40475537D01*
X98269987Y-40207748D01*
X98222239Y-40160000D01*
X113407023Y-40160000D01*
X114740000Y-40174459D01*
X114740000Y-79279012D01*
X114652545Y-79247061D01*
X113689605Y-80210000D01*
X114652545Y-81172939D01*
X114740000Y-81140988D01*
X114740000Y-81653619D01*
X114558626Y-81472245D01*
X114454601Y-81402738D01*
X114472939Y-81352545D01*
X113510000Y-80389605D01*
X112547061Y-81352545D01*
X112565399Y-81402738D01*
X112461374Y-81472245D01*
X112232245Y-81701374D01*
X112052220Y-81970801D01*
X111928217Y-82270171D01*
X111865000Y-82587982D01*
X111865000Y-82912018D01*
X111928217Y-83229829D01*
X112052220Y-83529199D01*
X112232245Y-83798626D01*
X112453619Y-84020000D01*
X112232245Y-84241374D01*
X112052220Y-84510801D01*
X111928217Y-84810171D01*
X111865000Y-85127982D01*
X111865000Y-85452018D01*
X111928217Y-85769829D01*
X112052220Y-86069199D01*
X112232245Y-86338626D01*
X112453619Y-86560000D01*
X112232245Y-86781374D01*
X112052220Y-87050801D01*
X111928217Y-87350171D01*
X111865000Y-87667982D01*
X111865000Y-87992018D01*
X111928217Y-88309829D01*
X112052220Y-88609199D01*
X112232245Y-88878626D01*
X112453619Y-89100000D01*
X112232245Y-89321374D01*
X112052220Y-89590801D01*
X111928217Y-89890171D01*
X111865000Y-90207982D01*
X111865000Y-90532018D01*
X111928217Y-90849829D01*
X112052220Y-91149199D01*
X112232245Y-91418626D01*
X112453619Y-91640000D01*
X112232245Y-91861374D01*
X112052220Y-92130801D01*
X111928217Y-92430171D01*
X111865000Y-92747982D01*
X111865000Y-93072018D01*
X111928217Y-93389829D01*
X112052220Y-93689199D01*
X112232245Y-93958626D01*
X112453619Y-94180000D01*
X112232245Y-94401374D01*
X112052220Y-94670801D01*
X111928217Y-94970171D01*
X111865000Y-95287982D01*
X111865000Y-95612018D01*
X111928217Y-95929829D01*
X112052220Y-96229199D01*
X112185214Y-96428238D01*
X112145506Y-96449463D01*
X112048815Y-96528815D01*
X111969463Y-96625506D01*
X111910498Y-96735820D01*
X111874188Y-96855518D01*
X111861928Y-96980000D01*
X111861928Y-99000000D01*
X111874188Y-99124482D01*
X111910498Y-99244180D01*
X111969463Y-99354494D01*
X112048815Y-99451185D01*
X112145506Y-99530537D01*
X112255820Y-99589502D01*
X112375518Y-99625812D01*
X112500000Y-99638072D01*
X114520000Y-99638072D01*
X114644482Y-99625812D01*
X114740001Y-99596837D01*
X114740001Y-101200557D01*
X114701898Y-101184774D01*
X114501939Y-101145000D01*
X114298061Y-101145000D01*
X114098102Y-101184774D01*
X113909744Y-101262795D01*
X113740226Y-101376063D01*
X113596063Y-101520226D01*
X113482795Y-101689744D01*
X113404774Y-101878102D01*
X113365000Y-102078061D01*
X113365000Y-102281939D01*
X113404774Y-102481898D01*
X113455761Y-102604989D01*
X113357000Y-102703750D01*
X113357000Y-103853000D01*
X113377000Y-103853000D01*
X113377000Y-104107000D01*
X113357000Y-104107000D01*
X113357000Y-105256250D01*
X113515750Y-105415000D01*
X113640001Y-105415742D01*
X113640000Y-110115198D01*
X113555906Y-110199292D01*
X113511309Y-110185764D01*
X113300492Y-110165000D01*
X113159508Y-110165000D01*
X112948691Y-110185764D01*
X112678192Y-110267818D01*
X112584999Y-110317631D01*
X112584999Y-105417146D01*
X112944250Y-105415000D01*
X113103000Y-105256250D01*
X113103000Y-104107000D01*
X113083000Y-104107000D01*
X113083000Y-103853000D01*
X113103000Y-103853000D01*
X113103000Y-102703750D01*
X112944250Y-102545000D01*
X112430000Y-102541928D01*
X112305518Y-102554188D01*
X112185820Y-102590498D01*
X112075506Y-102649463D01*
X111978815Y-102728815D01*
X111899463Y-102825506D01*
X111840498Y-102935820D01*
X111804188Y-103055518D01*
X111791928Y-103180000D01*
X111794377Y-103590001D01*
X111723060Y-103590001D01*
X111523101Y-103629775D01*
X111334743Y-103707796D01*
X111165225Y-103821064D01*
X111075011Y-103911278D01*
X111075011Y-88498700D01*
X111153937Y-88419774D01*
X111267205Y-88250256D01*
X111345226Y-88061898D01*
X111385000Y-87861939D01*
X111385000Y-87658061D01*
X111345226Y-87458102D01*
X111267205Y-87269744D01*
X111153937Y-87100226D01*
X111075011Y-87021300D01*
X111075011Y-80272200D01*
X111858211Y-80272200D01*
X111902084Y-80593253D01*
X112007749Y-80899578D01*
X112102032Y-81075968D01*
X112367455Y-81172939D01*
X113330395Y-80210000D01*
X112367455Y-79247061D01*
X112102032Y-79344032D01*
X111960144Y-79635353D01*
X111877815Y-79948757D01*
X111858211Y-80272200D01*
X111075011Y-80272200D01*
X111075011Y-79067455D01*
X112547061Y-79067455D01*
X113510000Y-80030395D01*
X114472939Y-79067455D01*
X114375968Y-78802032D01*
X114084647Y-78660144D01*
X113771243Y-78577815D01*
X113447800Y-78558211D01*
X113126747Y-78602084D01*
X112820422Y-78707749D01*
X112644032Y-78802032D01*
X112547061Y-79067455D01*
X111075011Y-79067455D01*
X111075011Y-64691663D01*
X111120147Y-64918574D01*
X111228320Y-65179727D01*
X111385363Y-65414759D01*
X111585241Y-65614637D01*
X111820273Y-65771680D01*
X112081426Y-65879853D01*
X112358665Y-65935000D01*
X112641335Y-65935000D01*
X112918574Y-65879853D01*
X113179727Y-65771680D01*
X113414759Y-65614637D01*
X113614637Y-65414759D01*
X113771680Y-65179727D01*
X113879853Y-64918574D01*
X113935000Y-64641335D01*
X113935000Y-64358665D01*
X113879853Y-64081426D01*
X113771680Y-63820273D01*
X113614637Y-63585241D01*
X113414759Y-63385363D01*
X113179727Y-63228320D01*
X112918574Y-63120147D01*
X112641335Y-63065000D01*
X112358665Y-63065000D01*
X112081426Y-63120147D01*
X111820273Y-63228320D01*
X111585241Y-63385363D01*
X111385363Y-63585241D01*
X111228320Y-63820273D01*
X111120147Y-64081426D01*
X111075011Y-64308337D01*
X111075011Y-58104393D01*
X111078061Y-58105000D01*
X111281939Y-58105000D01*
X111481898Y-58065226D01*
X111670256Y-57987205D01*
X111839774Y-57873937D01*
X111983937Y-57729774D01*
X112097205Y-57560256D01*
X112175226Y-57371898D01*
X112215000Y-57171939D01*
X112215000Y-56968061D01*
X112175226Y-56768102D01*
X112097205Y-56579744D01*
X111983937Y-56410226D01*
X111940000Y-56366289D01*
X111940000Y-55667803D01*
X111948192Y-55672182D01*
X112218691Y-55754236D01*
X112429508Y-55775000D01*
X112570492Y-55775000D01*
X112781309Y-55754236D01*
X113051808Y-55672182D01*
X113301101Y-55538932D01*
X113519608Y-55359608D01*
X113698932Y-55141101D01*
X113832182Y-54891808D01*
X113914236Y-54621309D01*
X113941943Y-54340000D01*
X113914236Y-54058691D01*
X113832182Y-53788192D01*
X113698932Y-53538899D01*
X113519608Y-53320392D01*
X113401674Y-53223606D01*
X113564759Y-53114637D01*
X113764637Y-52914759D01*
X113921680Y-52679727D01*
X114029853Y-52418574D01*
X114085000Y-52141335D01*
X114085000Y-51858665D01*
X114029853Y-51581426D01*
X113921680Y-51320273D01*
X113764637Y-51085241D01*
X113564759Y-50885363D01*
X113329727Y-50728320D01*
X113068574Y-50620147D01*
X112791335Y-50565000D01*
X112508665Y-50565000D01*
X112231426Y-50620147D01*
X111970273Y-50728320D01*
X111735241Y-50885363D01*
X111535363Y-51085241D01*
X111378320Y-51320273D01*
X111270147Y-51581426D01*
X111215000Y-51858665D01*
X111215000Y-52141335D01*
X111251312Y-52323886D01*
X111075011Y-52500188D01*
X111075011Y-51002334D01*
X111078687Y-50965011D01*
X111075011Y-50927688D01*
X111075011Y-50927678D01*
X111064014Y-50816025D01*
X111020557Y-50672764D01*
X110949985Y-50540735D01*
X110855012Y-50425010D01*
X110826008Y-50401207D01*
X110563808Y-50139007D01*
X110563799Y-50138996D01*
X110485000Y-50060197D01*
X110485000Y-49998061D01*
X110445226Y-49798102D01*
X110367205Y-49609744D01*
X110253937Y-49440226D01*
X110109774Y-49296063D01*
X109940256Y-49182795D01*
X109751898Y-49104774D01*
X109582191Y-49071017D01*
X109584475Y-49064080D01*
X108700000Y-48179605D01*
X108685858Y-48193748D01*
X108506253Y-48014143D01*
X108520395Y-48000000D01*
X108879605Y-48000000D01*
X109764080Y-48884475D01*
X110018261Y-48800792D01*
X110149158Y-48528225D01*
X110224365Y-48235358D01*
X110240991Y-47933447D01*
X110198397Y-47634093D01*
X110098222Y-47348801D01*
X110018261Y-47199208D01*
X109764080Y-47115525D01*
X108879605Y-48000000D01*
X108520395Y-48000000D01*
X108506253Y-47985858D01*
X108685858Y-47806253D01*
X108700000Y-47820395D01*
X109584475Y-46935920D01*
X109500792Y-46681739D01*
X109228225Y-46550842D01*
X109057739Y-46507062D01*
X112324094Y-43240708D01*
X112368691Y-43254236D01*
X112579508Y-43275000D01*
X112720492Y-43275000D01*
X112931309Y-43254236D01*
X113201808Y-43172182D01*
X113451101Y-43038932D01*
X113669608Y-42859608D01*
X113848932Y-42641101D01*
X113982182Y-42391808D01*
X114064236Y-42121309D01*
X114091943Y-41840000D01*
X114064236Y-41558691D01*
X113982182Y-41288192D01*
X113848932Y-41038899D01*
X113669608Y-40820392D01*
X113451101Y-40641068D01*
X113201808Y-40507818D01*
X112931309Y-40425764D01*
X112720492Y-40405000D01*
X112579508Y-40405000D01*
X112368691Y-40425764D01*
X112098192Y-40507818D01*
X111848899Y-40641068D01*
X111630392Y-40820392D01*
X111451068Y-41038899D01*
X111317818Y-41288192D01*
X111235764Y-41558691D01*
X111208057Y-41840000D01*
X111235764Y-42121309D01*
X111249292Y-42165906D01*
X106953271Y-46461928D01*
X105260000Y-46461928D01*
X105135518Y-46474188D01*
X105015820Y-46510498D01*
X104905506Y-46569463D01*
X104808815Y-46648815D01*
X104729463Y-46745506D01*
X104670498Y-46855820D01*
X104634188Y-46975518D01*
X104621928Y-47100000D01*
X104621928Y-48900000D01*
X104634188Y-49024482D01*
X104670498Y-49144180D01*
X104729463Y-49254494D01*
X104808815Y-49351185D01*
X104905506Y-49430537D01*
X105015820Y-49489502D01*
X105135518Y-49525812D01*
X105260000Y-49538072D01*
X107060000Y-49538072D01*
X107184482Y-49525812D01*
X107304180Y-49489502D01*
X107414494Y-49430537D01*
X107511185Y-49351185D01*
X107590537Y-49254494D01*
X107649502Y-49144180D01*
X107652813Y-49133265D01*
X107699578Y-49180030D01*
X107815526Y-49064082D01*
X107899208Y-49318261D01*
X108171775Y-49449158D01*
X108464642Y-49524365D01*
X108585400Y-49531015D01*
X108532795Y-49609744D01*
X108454774Y-49798102D01*
X108415000Y-49998061D01*
X108415000Y-50201939D01*
X108454774Y-50401898D01*
X108532795Y-50590256D01*
X108646063Y-50759774D01*
X108790226Y-50903937D01*
X108959744Y-51017205D01*
X109148102Y-51095226D01*
X109348061Y-51135000D01*
X109410197Y-51135000D01*
X109488996Y-51213799D01*
X109489007Y-51213808D01*
X109555012Y-51279813D01*
X109555012Y-51558414D01*
X109351100Y-51391068D01*
X109101807Y-51257818D01*
X108831308Y-51175764D01*
X108550000Y-51148057D01*
X108268691Y-51175764D01*
X107998192Y-51257818D01*
X107748899Y-51391068D01*
X107695927Y-51434541D01*
X107692364Y-51416627D01*
X107559692Y-51096327D01*
X107367081Y-50808065D01*
X107121935Y-50562919D01*
X106833673Y-50370308D01*
X106513373Y-50237636D01*
X106173345Y-50170000D01*
X105826655Y-50170000D01*
X105486627Y-50237636D01*
X105166327Y-50370308D01*
X104878065Y-50562919D01*
X104632919Y-50808065D01*
X104440308Y-51096327D01*
X104307636Y-51416627D01*
X104240000Y-51756655D01*
X104240000Y-52103345D01*
X104307636Y-52443373D01*
X104319273Y-52471468D01*
X103986627Y-52537636D01*
X103666327Y-52670308D01*
X103378065Y-52862919D01*
X103132919Y-53108065D01*
X102940308Y-53396327D01*
X102807636Y-53716627D01*
X102740000Y-54056655D01*
X102740000Y-54403345D01*
X102807636Y-54743373D01*
X102940308Y-55063673D01*
X103132919Y-55351935D01*
X103378065Y-55597081D01*
X103666327Y-55789692D01*
X103986627Y-55922364D01*
X104326655Y-55990000D01*
X104673345Y-55990000D01*
X105013373Y-55922364D01*
X105333673Y-55789692D01*
X105621935Y-55597081D01*
X105867081Y-55351935D01*
X106059692Y-55063673D01*
X106192364Y-54743373D01*
X106260000Y-54403345D01*
X106260000Y-54056655D01*
X106192364Y-53716627D01*
X106180727Y-53688532D01*
X106513373Y-53622364D01*
X106833673Y-53489692D01*
X107115000Y-53301715D01*
X107115000Y-53660492D01*
X107135764Y-53871309D01*
X107217818Y-54141808D01*
X107351068Y-54391101D01*
X107530393Y-54609608D01*
X107748900Y-54788932D01*
X107998193Y-54922182D01*
X108268692Y-55004236D01*
X108550000Y-55031943D01*
X108831309Y-55004236D01*
X109101808Y-54922182D01*
X109351101Y-54788932D01*
X109555012Y-54621587D01*
X109555012Y-58745616D01*
X109464759Y-58655363D01*
X109229727Y-58498320D01*
X108968574Y-58390147D01*
X108691335Y-58335000D01*
X108408665Y-58335000D01*
X108131426Y-58390147D01*
X107870273Y-58498320D01*
X107635241Y-58655363D01*
X107435363Y-58855241D01*
X107278320Y-59090273D01*
X107170147Y-59351426D01*
X107143650Y-59484634D01*
X107121935Y-59462919D01*
X106833673Y-59270308D01*
X106513373Y-59137636D01*
X106215247Y-59078335D01*
X106260000Y-58853345D01*
X106260000Y-58506655D01*
X106192364Y-58166627D01*
X106059692Y-57846327D01*
X105867081Y-57558065D01*
X105621935Y-57312919D01*
X105333673Y-57120308D01*
X105013373Y-56987636D01*
X104673345Y-56920000D01*
X104326655Y-56920000D01*
X103986627Y-56987636D01*
X103855000Y-57042157D01*
X103855000Y-56968061D01*
X103815226Y-56768102D01*
X103737205Y-56579744D01*
X103623937Y-56410226D01*
X103479774Y-56266063D01*
X103310256Y-56152795D01*
X103121898Y-56074774D01*
X102921939Y-56035000D01*
X102718061Y-56035000D01*
X102650001Y-56048538D01*
X102650001Y-53213710D01*
X102693938Y-53169773D01*
X102807206Y-53000255D01*
X102885227Y-52811897D01*
X102925001Y-52611938D01*
X102925001Y-52408060D01*
X102885227Y-52208101D01*
X102807206Y-52019743D01*
X102693938Y-51850225D01*
X102549775Y-51706062D01*
X102380257Y-51592794D01*
X102191899Y-51514773D01*
X101991940Y-51474999D01*
X101788062Y-51474999D01*
X101588103Y-51514773D01*
X101399745Y-51592794D01*
X101230227Y-51706062D01*
X101086064Y-51850225D01*
X100972796Y-52019743D01*
X100894775Y-52208101D01*
X100855001Y-52408060D01*
X100855001Y-52611938D01*
X100894775Y-52811897D01*
X100972796Y-53000255D01*
X101086064Y-53169773D01*
X101130002Y-53213711D01*
X101130002Y-54038638D01*
X101106043Y-54022629D01*
X100853989Y-53918225D01*
X100586411Y-53865000D01*
X100313589Y-53865000D01*
X100046011Y-53918225D01*
X99793957Y-54022629D01*
X99567114Y-54174201D01*
X99374201Y-54367114D01*
X99222629Y-54593957D01*
X99150000Y-54769299D01*
X99077371Y-54593957D01*
X98925799Y-54367114D01*
X98732886Y-54174201D01*
X98506043Y-54022629D01*
X98253989Y-53918225D01*
X97986411Y-53865000D01*
X97713589Y-53865000D01*
X97446011Y-53918225D01*
X97193957Y-54022629D01*
X96967114Y-54174201D01*
X96774201Y-54367114D01*
X96638072Y-54570845D01*
X96638072Y-54500000D01*
X96625812Y-54375518D01*
X96589502Y-54255820D01*
X96530537Y-54145506D01*
X96451185Y-54048815D01*
X96354494Y-53969463D01*
X96244180Y-53910498D01*
X96124482Y-53874188D01*
X96000000Y-53861928D01*
X94934000Y-53861928D01*
X94934000Y-52305014D01*
X97511003Y-49728012D01*
X97540001Y-49704214D01*
X97570339Y-49667247D01*
X97634974Y-49588490D01*
X97705546Y-49456460D01*
X97710470Y-49440226D01*
X97749003Y-49313199D01*
X97759655Y-49205052D01*
X97774463Y-49198918D01*
X98042252Y-49019987D01*
X98269987Y-48792252D01*
X98448918Y-48524463D01*
X98572168Y-48226912D01*
X98635000Y-47911033D01*
X98635000Y-47588967D01*
X98572168Y-47273088D01*
X98448918Y-46975537D01*
X98269987Y-46707748D01*
X98042252Y-46480013D01*
X97774463Y-46301082D01*
X97476912Y-46177832D01*
X97161033Y-46115000D01*
X96838967Y-46115000D01*
X96523088Y-46177832D01*
X96225537Y-46301082D01*
X95957748Y-46480013D01*
X95730013Y-46707748D01*
X95551082Y-46975537D01*
X95427832Y-47273088D01*
X95365000Y-47588967D01*
X95365000Y-47911033D01*
X95427832Y-48226912D01*
X95551082Y-48524463D01*
X95730013Y-48792252D01*
X95957748Y-49019987D01*
X96024693Y-49064718D01*
X93668585Y-51420827D01*
X93633999Y-51449211D01*
X93539026Y-51564937D01*
X93468454Y-51696966D01*
X93424997Y-51840227D01*
X93414000Y-51951880D01*
X93414000Y-51962053D01*
X93411325Y-51989212D01*
X93414000Y-52016371D01*
X93414000Y-53403316D01*
X93191309Y-53335764D01*
X92980492Y-53315000D01*
X92839508Y-53315000D01*
X92628691Y-53335764D01*
X92358192Y-53417818D01*
X92108899Y-53551068D01*
X91890392Y-53730392D01*
X91711068Y-53948899D01*
X91577818Y-54198192D01*
X91495764Y-54468691D01*
X91468057Y-54750000D01*
X91495764Y-55031309D01*
X91577818Y-55301808D01*
X91711068Y-55551101D01*
X91890392Y-55769608D01*
X92108899Y-55948932D01*
X92358192Y-56082182D01*
X92628691Y-56164236D01*
X92839508Y-56185000D01*
X92980492Y-56185000D01*
X93191309Y-56164236D01*
X93414000Y-56096684D01*
X93414000Y-58443082D01*
X93353989Y-58418225D01*
X93086411Y-58365000D01*
X92813589Y-58365000D01*
X92546011Y-58418225D01*
X92293957Y-58522629D01*
X92067114Y-58674201D01*
X91874201Y-58867114D01*
X91722629Y-59093957D01*
X91650000Y-59269299D01*
X91577371Y-59093957D01*
X91425799Y-58867114D01*
X91232886Y-58674201D01*
X91006043Y-58522629D01*
X90753989Y-58418225D01*
X90486411Y-58365000D01*
X90213589Y-58365000D01*
X89946011Y-58418225D01*
X89693957Y-58522629D01*
X89467114Y-58674201D01*
X89274201Y-58867114D01*
X89138072Y-59070845D01*
X89138072Y-59000000D01*
X89125812Y-58875518D01*
X89089502Y-58755820D01*
X89030537Y-58645506D01*
X88951185Y-58548815D01*
X88854494Y-58469463D01*
X88744180Y-58410498D01*
X88624482Y-58374188D01*
X88500000Y-58361928D01*
X87000000Y-58361928D01*
X86875518Y-58374188D01*
X86811223Y-58393692D01*
X86796001Y-58381199D01*
X86385000Y-57970199D01*
X86385000Y-57908061D01*
X86345226Y-57708102D01*
X86267205Y-57519744D01*
X86153937Y-57350226D01*
X86009774Y-57206063D01*
X85840256Y-57092795D01*
X85651898Y-57014774D01*
X85451939Y-56975000D01*
X85248061Y-56975000D01*
X85048102Y-57014774D01*
X84859744Y-57092795D01*
X84690226Y-57206063D01*
X84546063Y-57350226D01*
X84432795Y-57519744D01*
X84354774Y-57708102D01*
X84315000Y-57908061D01*
X84315000Y-58111939D01*
X84354774Y-58311898D01*
X84432795Y-58500256D01*
X84546063Y-58669774D01*
X84690226Y-58813937D01*
X84859744Y-58927205D01*
X85048102Y-59005226D01*
X85248061Y-59045000D01*
X85310199Y-59045000D01*
X85525000Y-59259802D01*
X85524999Y-71767389D01*
X85355239Y-71697072D01*
X85093456Y-71645000D01*
X84826544Y-71645000D01*
X84704148Y-71669346D01*
X83610000Y-70575199D01*
X83610000Y-69888043D01*
X83764759Y-69784637D01*
X83964637Y-69584759D01*
X84121680Y-69349727D01*
X84229853Y-69088574D01*
X84285000Y-68811335D01*
X84285000Y-68528665D01*
X84229853Y-68251426D01*
X84121680Y-67990273D01*
X83964637Y-67755241D01*
X83764759Y-67555363D01*
X83610000Y-67451957D01*
X83610000Y-63357322D01*
X83613676Y-63319999D01*
X83610000Y-63282676D01*
X83610000Y-63282667D01*
X83599003Y-63171014D01*
X83555546Y-63027753D01*
X83484974Y-62895724D01*
X83469701Y-62877114D01*
X83413799Y-62808996D01*
X83413795Y-62808992D01*
X83390001Y-62779999D01*
X83361009Y-62756206D01*
X81420708Y-60815906D01*
X81434236Y-60771309D01*
X81461943Y-60490000D01*
X81434236Y-60208691D01*
X81408849Y-60124999D01*
X81957679Y-60124999D01*
X81995001Y-60128675D01*
X82032323Y-60124999D01*
X82032334Y-60124999D01*
X82143987Y-60114002D01*
X82287248Y-60070545D01*
X82419277Y-59999973D01*
X82526980Y-59911583D01*
X82568691Y-59924236D01*
X82779508Y-59945000D01*
X82920492Y-59945000D01*
X83131309Y-59924236D01*
X83401808Y-59842182D01*
X83651101Y-59708932D01*
X83869608Y-59529608D01*
X84048932Y-59311101D01*
X84182182Y-59061808D01*
X84264236Y-58791309D01*
X84291943Y-58510000D01*
X84264236Y-58228691D01*
X84182182Y-57958192D01*
X84048932Y-57708899D01*
X83869608Y-57490392D01*
X83651101Y-57311068D01*
X83401808Y-57177818D01*
X83131309Y-57095764D01*
X82920492Y-57075000D01*
X82779508Y-57075000D01*
X82568691Y-57095764D01*
X82298192Y-57177818D01*
X82048899Y-57311068D01*
X81830392Y-57490392D01*
X81651068Y-57708899D01*
X81517818Y-57958192D01*
X81435764Y-58228691D01*
X81408057Y-58510000D01*
X81417414Y-58604999D01*
X81297025Y-58604999D01*
X81352182Y-58501808D01*
X81434236Y-58231309D01*
X81461943Y-57950000D01*
X81434236Y-57668691D01*
X81352182Y-57398192D01*
X81218932Y-57148899D01*
X81039608Y-56930392D01*
X80821101Y-56751068D01*
X80571808Y-56617818D01*
X80301309Y-56535764D01*
X80090492Y-56515000D01*
X79949508Y-56515000D01*
X79738691Y-56535764D01*
X79468192Y-56617818D01*
X79218899Y-56751068D01*
X79000392Y-56930392D01*
X78821068Y-57148899D01*
X78687818Y-57398192D01*
X78605764Y-57668691D01*
X78578057Y-57950000D01*
X78605764Y-58231309D01*
X78687818Y-58501808D01*
X78821068Y-58751101D01*
X78910330Y-58859867D01*
X78383997Y-59386200D01*
X78354999Y-59409998D01*
X78331201Y-59438996D01*
X78331200Y-59438997D01*
X78260025Y-59525723D01*
X78189453Y-59657753D01*
X78168653Y-59726324D01*
X78149558Y-59789276D01*
X78145997Y-59801014D01*
X78131323Y-59949999D01*
X78135000Y-59987331D01*
X78134999Y-61867676D01*
X78131323Y-61904999D01*
X78134999Y-61942321D01*
X78134999Y-61942331D01*
X78145996Y-62053984D01*
X78168353Y-62127685D01*
X78189453Y-62197245D01*
X78260025Y-62329275D01*
X78267500Y-62338383D01*
X78354998Y-62445000D01*
X78384001Y-62468803D01*
X78619292Y-62704094D01*
X78605764Y-62748691D01*
X78578057Y-63030000D01*
X78605764Y-63311309D01*
X78619292Y-63355906D01*
X78134002Y-63841197D01*
X78104998Y-63865000D01*
X78051878Y-63929727D01*
X78010025Y-63980725D01*
X77994911Y-64009002D01*
X77939453Y-64112755D01*
X77895996Y-64256016D01*
X77884999Y-64367669D01*
X77884999Y-64367679D01*
X77881323Y-64405001D01*
X77884999Y-64442324D01*
X77885000Y-71067667D01*
X77881323Y-71104999D01*
X77885000Y-71142332D01*
X77895997Y-71253985D01*
X77908122Y-71293957D01*
X77939453Y-71397245D01*
X78010025Y-71529275D01*
X78081200Y-71616001D01*
X78104999Y-71645000D01*
X78133997Y-71668798D01*
X78411312Y-71946113D01*
X78375000Y-72128665D01*
X78375000Y-72411335D01*
X78430147Y-72688574D01*
X78538320Y-72949727D01*
X78695363Y-73184759D01*
X78895241Y-73384637D01*
X79130273Y-73541680D01*
X79391426Y-73649853D01*
X79477954Y-73667065D01*
X79504774Y-73801898D01*
X79582795Y-73990256D01*
X79696063Y-74159774D01*
X79840226Y-74303937D01*
X80009744Y-74417205D01*
X80198102Y-74495226D01*
X80398061Y-74535000D01*
X80460198Y-74535000D01*
X80581787Y-74656589D01*
X80585728Y-87297592D01*
X80321335Y-87245000D01*
X80038665Y-87245000D01*
X79761426Y-87300147D01*
X79500273Y-87408320D01*
X79265241Y-87565363D01*
X79065363Y-87765241D01*
X78908320Y-88000273D01*
X78800147Y-88261426D01*
X78745000Y-88538665D01*
X78745000Y-88821335D01*
X78781312Y-89003886D01*
X77264002Y-90521197D01*
X77234998Y-90545000D01*
X77194786Y-90593999D01*
X77140025Y-90660725D01*
X77099616Y-90736324D01*
X77069453Y-90792755D01*
X77025996Y-90936016D01*
X77020564Y-90991168D01*
X76914759Y-90885363D01*
X76679727Y-90728320D01*
X76418574Y-90620147D01*
X76141335Y-90565000D01*
X75858665Y-90565000D01*
X75680816Y-90600377D01*
X77399188Y-88922438D01*
X77469277Y-88884974D01*
X77585002Y-88790001D01*
X77679975Y-88674276D01*
X77750547Y-88542247D01*
X77794004Y-88398986D01*
X77805001Y-88287333D01*
X77805001Y-86934969D01*
X77975537Y-87048918D01*
X78273088Y-87172168D01*
X78588967Y-87235000D01*
X78911033Y-87235000D01*
X79226912Y-87172168D01*
X79524463Y-87048918D01*
X79792252Y-86869987D01*
X80019987Y-86642252D01*
X80198918Y-86374463D01*
X80322168Y-86076912D01*
X80385000Y-85761033D01*
X80385000Y-85438967D01*
X80322168Y-85123088D01*
X80198918Y-84825537D01*
X80019987Y-84557748D01*
X79792252Y-84330013D01*
X79524463Y-84151082D01*
X79226912Y-84027832D01*
X78911033Y-83965000D01*
X78588967Y-83965000D01*
X78273088Y-84027832D01*
X77975537Y-84151082D01*
X77805001Y-84265031D01*
X77805001Y-80434969D01*
X77975537Y-80548918D01*
X78273088Y-80672168D01*
X78588967Y-80735000D01*
X78911033Y-80735000D01*
X79226912Y-80672168D01*
X79524463Y-80548918D01*
X79792252Y-80369987D01*
X80019987Y-80142252D01*
X80198918Y-79874463D01*
X80322168Y-79576912D01*
X80385000Y-79261033D01*
X80385000Y-78938967D01*
X80322168Y-78623088D01*
X80198918Y-78325537D01*
X80019987Y-78057748D01*
X79792252Y-77830013D01*
X79524463Y-77651082D01*
X79226912Y-77527832D01*
X78911033Y-77465000D01*
X78588967Y-77465000D01*
X78273088Y-77527832D01*
X77975537Y-77651082D01*
X77805001Y-77765031D01*
X77805001Y-60955722D01*
X77808677Y-60918399D01*
X77805001Y-60881076D01*
X77805001Y-60881066D01*
X77794004Y-60769413D01*
X77750547Y-60626152D01*
X77710857Y-60551898D01*
X77679975Y-60494122D01*
X77608800Y-60407396D01*
X77585002Y-60378398D01*
X77556005Y-60354601D01*
X77134999Y-59933596D01*
X77134999Y-56327780D01*
X77381426Y-56429853D01*
X77658665Y-56485000D01*
X77941335Y-56485000D01*
X78218574Y-56429853D01*
X78479727Y-56321680D01*
X78714759Y-56164637D01*
X78914637Y-55964759D01*
X79071680Y-55729727D01*
X79179853Y-55468574D01*
X79235000Y-55191335D01*
X79235000Y-54908665D01*
X79179853Y-54631426D01*
X79170426Y-54608665D01*
X81315000Y-54608665D01*
X81315000Y-54891335D01*
X81370147Y-55168574D01*
X81478320Y-55429727D01*
X81635363Y-55664759D01*
X81835241Y-55864637D01*
X82070273Y-56021680D01*
X82331426Y-56129853D01*
X82608665Y-56185000D01*
X82891335Y-56185000D01*
X83168574Y-56129853D01*
X83429727Y-56021680D01*
X83664759Y-55864637D01*
X83864637Y-55664759D01*
X84021680Y-55429727D01*
X84129853Y-55168574D01*
X84185000Y-54891335D01*
X84185000Y-54608665D01*
X84129853Y-54331426D01*
X84021680Y-54070273D01*
X83864637Y-53835241D01*
X83664759Y-53635363D01*
X83429727Y-53478320D01*
X83168574Y-53370147D01*
X82891335Y-53315000D01*
X82608665Y-53315000D01*
X82331426Y-53370147D01*
X82070273Y-53478320D01*
X81835241Y-53635363D01*
X81635363Y-53835241D01*
X81478320Y-54070273D01*
X81370147Y-54331426D01*
X81315000Y-54608665D01*
X79170426Y-54608665D01*
X79071680Y-54370273D01*
X78914637Y-54135241D01*
X78714759Y-53935363D01*
X78479727Y-53778320D01*
X78411356Y-53750000D01*
X78479727Y-53721680D01*
X78714759Y-53564637D01*
X78914637Y-53364759D01*
X79071680Y-53129727D01*
X79179853Y-52868574D01*
X79235000Y-52591335D01*
X79235000Y-52308665D01*
X79179853Y-52031426D01*
X79071680Y-51770273D01*
X78914637Y-51535241D01*
X78717378Y-51337982D01*
X79795000Y-51337982D01*
X79795000Y-51662018D01*
X79858217Y-51979829D01*
X79982220Y-52279199D01*
X80162245Y-52548626D01*
X80391374Y-52777755D01*
X80660801Y-52957780D01*
X80960171Y-53081783D01*
X81277982Y-53145000D01*
X81602018Y-53145000D01*
X81919829Y-53081783D01*
X82219199Y-52957780D01*
X82488626Y-52777755D01*
X82623836Y-52642545D01*
X83017061Y-52642545D01*
X83114032Y-52907968D01*
X83405353Y-53049856D01*
X83718757Y-53132185D01*
X84042200Y-53151789D01*
X84363253Y-53107916D01*
X84669578Y-53002251D01*
X84845968Y-52907968D01*
X84942939Y-52642545D01*
X83980000Y-51679605D01*
X83017061Y-52642545D01*
X82623836Y-52642545D01*
X82717755Y-52548626D01*
X82787262Y-52444601D01*
X82837455Y-52462939D01*
X83800395Y-51500000D01*
X84159605Y-51500000D01*
X85122545Y-52462939D01*
X85172738Y-52444601D01*
X85242245Y-52548626D01*
X85471374Y-52777755D01*
X85740801Y-52957780D01*
X86040171Y-53081783D01*
X86357982Y-53145000D01*
X86682018Y-53145000D01*
X86999829Y-53081783D01*
X87299199Y-52957780D01*
X87568626Y-52777755D01*
X87790000Y-52556381D01*
X88011374Y-52777755D01*
X88280801Y-52957780D01*
X88580171Y-53081783D01*
X88897982Y-53145000D01*
X89222018Y-53145000D01*
X89539829Y-53081783D01*
X89839199Y-52957780D01*
X90108626Y-52777755D01*
X90337755Y-52548626D01*
X90517780Y-52279199D01*
X90641783Y-51979829D01*
X90705000Y-51662018D01*
X90705000Y-51337982D01*
X90641783Y-51020171D01*
X90517780Y-50720801D01*
X90337755Y-50451374D01*
X90108626Y-50222245D01*
X89839199Y-50042220D01*
X89820000Y-50034268D01*
X89820000Y-47588967D01*
X90865000Y-47588967D01*
X90865000Y-47911033D01*
X90927832Y-48226912D01*
X91051082Y-48524463D01*
X91230013Y-48792252D01*
X91457748Y-49019987D01*
X91725537Y-49198918D01*
X92023088Y-49322168D01*
X92338967Y-49385000D01*
X92661033Y-49385000D01*
X92976912Y-49322168D01*
X93274463Y-49198918D01*
X93542252Y-49019987D01*
X93769987Y-48792252D01*
X93948918Y-48524463D01*
X94072168Y-48226912D01*
X94135000Y-47911033D01*
X94135000Y-47588967D01*
X94072168Y-47273088D01*
X93948918Y-46975537D01*
X93769987Y-46707748D01*
X93542252Y-46480013D01*
X93274463Y-46301082D01*
X92976912Y-46177832D01*
X92661033Y-46115000D01*
X92338967Y-46115000D01*
X92023088Y-46177832D01*
X91725537Y-46301082D01*
X91457748Y-46480013D01*
X91230013Y-46707748D01*
X91051082Y-46975537D01*
X90927832Y-47273088D01*
X90865000Y-47588967D01*
X89820000Y-47588967D01*
X89820000Y-47123709D01*
X89858936Y-47084773D01*
X89972204Y-46915255D01*
X90050225Y-46726897D01*
X90089999Y-46526938D01*
X90089999Y-46323060D01*
X90050225Y-46123101D01*
X89972204Y-45934743D01*
X89858936Y-45765225D01*
X89714773Y-45621062D01*
X89545255Y-45507794D01*
X89356897Y-45429773D01*
X89156938Y-45389999D01*
X88953060Y-45389999D01*
X88753101Y-45429773D01*
X88564743Y-45507794D01*
X88395225Y-45621062D01*
X88251062Y-45765225D01*
X88137794Y-45934743D01*
X88059773Y-46123101D01*
X88019999Y-46323060D01*
X88019999Y-46526938D01*
X88059773Y-46726897D01*
X88137794Y-46915255D01*
X88251062Y-47084773D01*
X88300001Y-47133712D01*
X88300000Y-50034267D01*
X88280801Y-50042220D01*
X88011374Y-50222245D01*
X87790000Y-50443619D01*
X87568626Y-50222245D01*
X87299199Y-50042220D01*
X87280000Y-50034268D01*
X87280000Y-49933711D01*
X87323937Y-49889774D01*
X87437205Y-49720256D01*
X87515226Y-49531898D01*
X87555000Y-49331939D01*
X87555000Y-49128061D01*
X87515226Y-48928102D01*
X87437205Y-48739744D01*
X87323937Y-48570226D01*
X87179774Y-48426063D01*
X87010256Y-48312795D01*
X86821898Y-48234774D01*
X86621939Y-48195000D01*
X86418061Y-48195000D01*
X86218102Y-48234774D01*
X86029744Y-48312795D01*
X85860226Y-48426063D01*
X85716063Y-48570226D01*
X85602795Y-48739744D01*
X85524774Y-48928102D01*
X85485000Y-49128061D01*
X85485000Y-49331939D01*
X85524774Y-49531898D01*
X85602795Y-49720256D01*
X85716063Y-49889774D01*
X85760000Y-49933711D01*
X85760000Y-50034267D01*
X85740801Y-50042220D01*
X85471374Y-50222245D01*
X85242245Y-50451374D01*
X85172738Y-50555399D01*
X85122545Y-50537061D01*
X84159605Y-51500000D01*
X83800395Y-51500000D01*
X82837455Y-50537061D01*
X82787262Y-50555399D01*
X82717755Y-50451374D01*
X82623836Y-50357455D01*
X83017061Y-50357455D01*
X83980000Y-51320395D01*
X84942939Y-50357455D01*
X84845968Y-50092032D01*
X84554647Y-49950144D01*
X84241243Y-49867815D01*
X83917800Y-49848211D01*
X83596747Y-49892084D01*
X83290422Y-49997749D01*
X83114032Y-50092032D01*
X83017061Y-50357455D01*
X82623836Y-50357455D01*
X82488626Y-50222245D01*
X82219199Y-50042220D01*
X81919829Y-49918217D01*
X81602018Y-49855000D01*
X81277982Y-49855000D01*
X80960171Y-49918217D01*
X80660801Y-50042220D01*
X80391374Y-50222245D01*
X80162245Y-50451374D01*
X79982220Y-50720801D01*
X79858217Y-51020171D01*
X79795000Y-51337982D01*
X78717378Y-51337982D01*
X78714759Y-51335363D01*
X78479727Y-51178320D01*
X78218574Y-51070147D01*
X77941335Y-51015000D01*
X77658665Y-51015000D01*
X77381426Y-51070147D01*
X77134999Y-51172220D01*
X77134999Y-49689802D01*
X77508625Y-49316177D01*
X77523088Y-49322168D01*
X77838967Y-49385000D01*
X78161033Y-49385000D01*
X78476912Y-49322168D01*
X78774463Y-49198918D01*
X79042252Y-49019987D01*
X79269987Y-48792252D01*
X79448918Y-48524463D01*
X79572168Y-48226912D01*
X79635000Y-47911033D01*
X79635000Y-47588967D01*
X79572168Y-47273088D01*
X79448918Y-46975537D01*
X79269987Y-46707748D01*
X79042252Y-46480013D01*
X78774463Y-46301082D01*
X78476912Y-46177832D01*
X78161033Y-46115000D01*
X77838967Y-46115000D01*
X77523088Y-46177832D01*
X77225537Y-46301082D01*
X76957748Y-46480013D01*
X76730013Y-46707748D01*
X76551082Y-46975537D01*
X76427832Y-47273088D01*
X76365000Y-47588967D01*
X76365000Y-47911033D01*
X76427832Y-48226912D01*
X76433823Y-48241375D01*
X75864001Y-48811198D01*
X75834998Y-48835000D01*
X75781654Y-48900000D01*
X75740025Y-48950725D01*
X75700601Y-49024482D01*
X75669453Y-49082755D01*
X75625996Y-49226016D01*
X75614999Y-49337669D01*
X75614999Y-49337679D01*
X75611323Y-49375001D01*
X75614999Y-49412323D01*
X75614999Y-50053701D01*
X75551667Y-50011384D01*
X75363309Y-49933363D01*
X75163350Y-49893589D01*
X74959472Y-49893589D01*
X74759513Y-49933363D01*
X74571155Y-50011384D01*
X74401637Y-50124652D01*
X74257474Y-50268815D01*
X74144206Y-50438333D01*
X74066185Y-50626691D01*
X74026411Y-50826650D01*
X74026411Y-51030528D01*
X74066185Y-51230487D01*
X74144206Y-51418845D01*
X74257474Y-51588363D01*
X74301411Y-51632300D01*
X74301412Y-60528945D01*
X74286824Y-60556238D01*
X74249453Y-60626153D01*
X74205996Y-60769414D01*
X74194999Y-60881067D01*
X74194999Y-60881077D01*
X74191323Y-60918399D01*
X74194999Y-60955722D01*
X74195000Y-66964269D01*
X74191323Y-67001601D01*
X74195000Y-67038934D01*
X74205997Y-67150587D01*
X74214582Y-67178889D01*
X74249453Y-67293847D01*
X74301411Y-67391053D01*
X74301411Y-67475922D01*
X74301412Y-67475932D01*
X74301411Y-70842785D01*
X71464002Y-73680195D01*
X71434998Y-73703998D01*
X71386021Y-73763677D01*
X71340025Y-73819723D01*
X71315739Y-73865159D01*
X71269453Y-73951753D01*
X71225996Y-74095014D01*
X71214999Y-74206667D01*
X71214999Y-74206677D01*
X71211323Y-74243999D01*
X71214999Y-74281322D01*
X71215000Y-77626451D01*
X70976912Y-77527832D01*
X70661033Y-77465000D01*
X70338967Y-77465000D01*
X70023088Y-77527832D01*
X69725537Y-77651082D01*
X69645347Y-77704663D01*
X69644002Y-77691011D01*
X69600545Y-77547750D01*
X69596936Y-77540998D01*
X69529973Y-77415720D01*
X69458798Y-77328994D01*
X69435000Y-77299996D01*
X69406003Y-77276199D01*
X67406086Y-75276282D01*
X67504745Y-75342204D01*
X67693103Y-75420225D01*
X67893062Y-75459999D01*
X68096940Y-75459999D01*
X68296899Y-75420225D01*
X68485257Y-75342204D01*
X68654775Y-75228936D01*
X68798938Y-75084773D01*
X68912206Y-74915255D01*
X68990227Y-74726897D01*
X69030001Y-74526938D01*
X69030001Y-74323060D01*
X68990227Y-74123101D01*
X68912206Y-73934743D01*
X68798938Y-73765225D01*
X68755001Y-73721288D01*
X68755001Y-73391872D01*
X68848899Y-73468932D01*
X69098192Y-73602182D01*
X69368691Y-73684236D01*
X69579508Y-73705000D01*
X69720492Y-73705000D01*
X69931309Y-73684236D01*
X70201808Y-73602182D01*
X70451101Y-73468932D01*
X70669608Y-73289608D01*
X70848932Y-73071101D01*
X70982182Y-72821808D01*
X71064236Y-72551309D01*
X71091943Y-72270000D01*
X71064236Y-71988691D01*
X70982182Y-71718192D01*
X70848932Y-71468899D01*
X70669608Y-71250392D01*
X70451101Y-71071068D01*
X70201808Y-70937818D01*
X69931309Y-70855764D01*
X69720492Y-70835000D01*
X69579508Y-70835000D01*
X69368691Y-70855764D01*
X69098192Y-70937818D01*
X68848899Y-71071068D01*
X68755001Y-71148128D01*
X68755001Y-69824567D01*
X68930273Y-69941680D01*
X69191426Y-70049853D01*
X69468665Y-70105000D01*
X69751335Y-70105000D01*
X70028574Y-70049853D01*
X70289727Y-69941680D01*
X70524759Y-69784637D01*
X70724637Y-69584759D01*
X70881680Y-69349727D01*
X70989853Y-69088574D01*
X71045000Y-68811335D01*
X71045000Y-68528665D01*
X70989853Y-68251426D01*
X70881680Y-67990273D01*
X70724637Y-67755241D01*
X70524759Y-67555363D01*
X70370000Y-67451957D01*
X70370000Y-66951591D01*
X70431101Y-66918932D01*
X70649608Y-66739608D01*
X70828932Y-66521101D01*
X70962182Y-66271808D01*
X71037751Y-66022688D01*
X71067818Y-66121808D01*
X71201068Y-66371101D01*
X71380392Y-66589608D01*
X71598899Y-66768932D01*
X71848192Y-66902182D01*
X72118691Y-66984236D01*
X72329508Y-67005000D01*
X72470492Y-67005000D01*
X72681309Y-66984236D01*
X72951808Y-66902182D01*
X73201101Y-66768932D01*
X73419608Y-66589608D01*
X73598932Y-66371101D01*
X73732182Y-66121808D01*
X73814236Y-65851309D01*
X73841943Y-65570000D01*
X73814236Y-65288691D01*
X73732182Y-65018192D01*
X73598932Y-64768899D01*
X73419608Y-64550392D01*
X73201101Y-64371068D01*
X73068142Y-64300000D01*
X73201101Y-64228932D01*
X73419608Y-64049608D01*
X73598932Y-63831101D01*
X73732182Y-63581808D01*
X73814236Y-63311309D01*
X73841943Y-63030000D01*
X73814236Y-62748691D01*
X73732182Y-62478192D01*
X73598932Y-62228899D01*
X73419608Y-62010392D01*
X73201101Y-61831068D01*
X73068142Y-61760000D01*
X73201101Y-61688932D01*
X73419608Y-61509608D01*
X73598932Y-61291101D01*
X73732182Y-61041808D01*
X73814236Y-60771309D01*
X73841943Y-60490000D01*
X73814236Y-60208691D01*
X73732182Y-59938192D01*
X73598932Y-59688899D01*
X73419608Y-59470392D01*
X73306518Y-59377581D01*
X73324482Y-59375812D01*
X73444180Y-59339502D01*
X73554494Y-59280537D01*
X73651185Y-59201185D01*
X73730537Y-59104494D01*
X73789502Y-58994180D01*
X73825812Y-58874482D01*
X73838072Y-58750000D01*
X73838072Y-57150000D01*
X73825812Y-57025518D01*
X73789502Y-56905820D01*
X73730537Y-56795506D01*
X73651185Y-56698815D01*
X73554494Y-56619463D01*
X73444180Y-56560498D01*
X73324482Y-56524188D01*
X73200000Y-56511928D01*
X71656730Y-56511928D01*
X71028688Y-55883886D01*
X71065000Y-55701335D01*
X71065000Y-55418665D01*
X71009853Y-55141426D01*
X70901680Y-54880273D01*
X70744637Y-54645241D01*
X70544759Y-54445363D01*
X70309727Y-54288320D01*
X70048574Y-54180147D01*
X69771335Y-54125000D01*
X69488665Y-54125000D01*
X69211426Y-54180147D01*
X68950273Y-54288320D01*
X68755001Y-54418796D01*
X68755001Y-52308665D01*
X71365000Y-52308665D01*
X71365000Y-52591335D01*
X71420147Y-52868574D01*
X71528320Y-53129727D01*
X71685363Y-53364759D01*
X71885241Y-53564637D01*
X72120273Y-53721680D01*
X72188644Y-53750000D01*
X72120273Y-53778320D01*
X71885241Y-53935363D01*
X71685363Y-54135241D01*
X71528320Y-54370273D01*
X71420147Y-54631426D01*
X71365000Y-54908665D01*
X71365000Y-55191335D01*
X71420147Y-55468574D01*
X71528320Y-55729727D01*
X71685363Y-55964759D01*
X71885241Y-56164637D01*
X72120273Y-56321680D01*
X72381426Y-56429853D01*
X72658665Y-56485000D01*
X72941335Y-56485000D01*
X73218574Y-56429853D01*
X73479727Y-56321680D01*
X73714759Y-56164637D01*
X73914637Y-55964759D01*
X74071680Y-55729727D01*
X74179853Y-55468574D01*
X74235000Y-55191335D01*
X74235000Y-54908665D01*
X74179853Y-54631426D01*
X74071680Y-54370273D01*
X73914637Y-54135241D01*
X73714759Y-53935363D01*
X73479727Y-53778320D01*
X73411356Y-53750000D01*
X73479727Y-53721680D01*
X73714759Y-53564637D01*
X73914637Y-53364759D01*
X74071680Y-53129727D01*
X74179853Y-52868574D01*
X74235000Y-52591335D01*
X74235000Y-52308665D01*
X74179853Y-52031426D01*
X74071680Y-51770273D01*
X73914637Y-51535241D01*
X73714759Y-51335363D01*
X73479727Y-51178320D01*
X73218574Y-51070147D01*
X72941335Y-51015000D01*
X72658665Y-51015000D01*
X72381426Y-51070147D01*
X72120273Y-51178320D01*
X71885241Y-51335363D01*
X71685363Y-51535241D01*
X71528320Y-51770273D01*
X71420147Y-52031426D01*
X71365000Y-52308665D01*
X68755001Y-52308665D01*
X68755001Y-51765785D01*
X68874743Y-51845794D01*
X69063101Y-51923815D01*
X69263060Y-51963589D01*
X69466938Y-51963589D01*
X69666897Y-51923815D01*
X69855255Y-51845794D01*
X70024773Y-51732526D01*
X70168936Y-51588363D01*
X70282204Y-51418845D01*
X70360225Y-51230487D01*
X70399999Y-51030528D01*
X70399999Y-50826650D01*
X70360225Y-50626691D01*
X70337678Y-50572258D01*
X70467050Y-50585000D01*
X70612950Y-50585000D01*
X70831111Y-50563513D01*
X71111034Y-50478599D01*
X71369014Y-50340706D01*
X71595134Y-50155134D01*
X71780706Y-49929014D01*
X71918599Y-49671034D01*
X72003513Y-49391111D01*
X72032185Y-49100000D01*
X72003513Y-48808889D01*
X71918599Y-48528966D01*
X71780706Y-48270986D01*
X71595134Y-48044866D01*
X71369014Y-47859294D01*
X71314209Y-47830000D01*
X71369014Y-47800706D01*
X71595134Y-47615134D01*
X71616608Y-47588967D01*
X71865000Y-47588967D01*
X71865000Y-47911033D01*
X71927832Y-48226912D01*
X72051082Y-48524463D01*
X72230013Y-48792252D01*
X72457748Y-49019987D01*
X72725537Y-49198918D01*
X73023088Y-49322168D01*
X73338967Y-49385000D01*
X73661033Y-49385000D01*
X73976912Y-49322168D01*
X74274463Y-49198918D01*
X74542252Y-49019987D01*
X74769987Y-48792252D01*
X74948918Y-48524463D01*
X75072168Y-48226912D01*
X75135000Y-47911033D01*
X75135000Y-47588967D01*
X75072168Y-47273088D01*
X74948918Y-46975537D01*
X74769987Y-46707748D01*
X74542252Y-46480013D01*
X74274463Y-46301082D01*
X73976912Y-46177832D01*
X73661033Y-46115000D01*
X73338967Y-46115000D01*
X73023088Y-46177832D01*
X72725537Y-46301082D01*
X72457748Y-46480013D01*
X72230013Y-46707748D01*
X72051082Y-46975537D01*
X71927832Y-47273088D01*
X71865000Y-47588967D01*
X71616608Y-47588967D01*
X71780706Y-47389014D01*
X71918599Y-47131034D01*
X72003513Y-46851111D01*
X72032185Y-46560000D01*
X72003513Y-46268889D01*
X71918599Y-45988966D01*
X71780706Y-45730986D01*
X71595134Y-45504866D01*
X71369014Y-45319294D01*
X71314209Y-45290000D01*
X71369014Y-45260706D01*
X71595134Y-45075134D01*
X71780706Y-44849014D01*
X71844550Y-44729570D01*
X99585000Y-44729570D01*
X99585000Y-45130430D01*
X99663204Y-45523587D01*
X99816607Y-45893934D01*
X100039313Y-46227237D01*
X100322763Y-46510687D01*
X100656066Y-46733393D01*
X101026413Y-46886796D01*
X101419570Y-46965000D01*
X101820430Y-46965000D01*
X102213587Y-46886796D01*
X102583934Y-46733393D01*
X102917237Y-46510687D01*
X103200687Y-46227237D01*
X103423393Y-45893934D01*
X103576796Y-45523587D01*
X103655000Y-45130430D01*
X103655000Y-44729570D01*
X103576796Y-44336413D01*
X103423393Y-43966066D01*
X103200687Y-43632763D01*
X102917237Y-43349313D01*
X102583934Y-43126607D01*
X102213587Y-42973204D01*
X101820430Y-42895000D01*
X101419570Y-42895000D01*
X101026413Y-42973204D01*
X100656066Y-43126607D01*
X100322763Y-43349313D01*
X100039313Y-43632763D01*
X99816607Y-43966066D01*
X99663204Y-44336413D01*
X99585000Y-44729570D01*
X71844550Y-44729570D01*
X71918599Y-44591034D01*
X72003513Y-44311111D01*
X72032185Y-44020000D01*
X72003513Y-43728889D01*
X71918599Y-43448966D01*
X71780706Y-43190986D01*
X71595134Y-42964866D01*
X71369014Y-42779294D01*
X71314209Y-42750000D01*
X71369014Y-42720706D01*
X71595134Y-42535134D01*
X71780706Y-42309014D01*
X71918599Y-42051034D01*
X71979259Y-41851067D01*
X72051082Y-42024463D01*
X72230013Y-42292252D01*
X72457748Y-42519987D01*
X72725537Y-42698918D01*
X73023088Y-42822168D01*
X73338967Y-42885000D01*
X73661033Y-42885000D01*
X73976912Y-42822168D01*
X74274463Y-42698918D01*
X74542252Y-42519987D01*
X74769987Y-42292252D01*
X74948918Y-42024463D01*
X75072168Y-41726912D01*
X75135000Y-41411033D01*
X75135000Y-41088967D01*
X75072168Y-40773088D01*
X74948918Y-40475537D01*
X74769987Y-40207748D01*
X74722239Y-40160000D01*
X76777761Y-40160000D01*
X76730013Y-40207748D01*
X76730013Y-40207748D01*
G37*
X76730013Y-40207748D02*
X76551082Y-40475537D01*
X76427832Y-40773088D01*
X76365000Y-41088967D01*
X76365000Y-41411033D01*
X76427832Y-41726912D01*
X76551082Y-42024463D01*
X76730013Y-42292252D01*
X76957748Y-42519987D01*
X77225537Y-42698918D01*
X77523088Y-42822168D01*
X77838967Y-42885000D01*
X78161033Y-42885000D01*
X78476912Y-42822168D01*
X78774463Y-42698918D01*
X79042252Y-42519987D01*
X79269987Y-42292252D01*
X79448918Y-42024463D01*
X79572168Y-41726912D01*
X79635000Y-41411033D01*
X79635000Y-41088967D01*
X79572168Y-40773088D01*
X79448918Y-40475537D01*
X79269987Y-40207748D01*
X79222239Y-40160000D01*
X91277761Y-40160000D01*
X91230013Y-40207748D01*
X91051082Y-40475537D01*
X90927832Y-40773088D01*
X90865000Y-41088967D01*
X90865000Y-41411033D01*
X90927832Y-41726912D01*
X91051082Y-42024463D01*
X91230013Y-42292252D01*
X91457748Y-42519987D01*
X91725537Y-42698918D01*
X92023088Y-42822168D01*
X92338967Y-42885000D01*
X92661033Y-42885000D01*
X92976912Y-42822168D01*
X93274463Y-42698918D01*
X93542252Y-42519987D01*
X93769987Y-42292252D01*
X93948918Y-42024463D01*
X94072168Y-41726912D01*
X94135000Y-41411033D01*
X94135000Y-41088967D01*
X94072168Y-40773088D01*
X93948918Y-40475537D01*
X93769987Y-40207748D01*
X93722239Y-40160000D01*
X95777761Y-40160000D01*
X95730013Y-40207748D01*
X95551082Y-40475537D01*
X95427832Y-40773088D01*
X95365000Y-41088967D01*
X95365000Y-41411033D01*
X95427832Y-41726912D01*
X95551082Y-42024463D01*
X95730013Y-42292252D01*
X95957748Y-42519987D01*
X96225537Y-42698918D01*
X96523088Y-42822168D01*
X96838967Y-42885000D01*
X97161033Y-42885000D01*
X97476912Y-42822168D01*
X97774463Y-42698918D01*
X98042252Y-42519987D01*
X98247895Y-42314344D01*
X105615000Y-42314344D01*
X105615000Y-42685656D01*
X105687439Y-43049834D01*
X105829534Y-43392882D01*
X106035825Y-43701618D01*
X106298382Y-43964175D01*
X106607118Y-44170466D01*
X106950166Y-44312561D01*
X107314344Y-44385000D01*
X107685656Y-44385000D01*
X108049834Y-44312561D01*
X108392882Y-44170466D01*
X108701618Y-43964175D01*
X108964175Y-43701618D01*
X109170466Y-43392882D01*
X109312561Y-43049834D01*
X109385000Y-42685656D01*
X109385000Y-42314344D01*
X109312561Y-41950166D01*
X109170466Y-41607118D01*
X108964175Y-41298382D01*
X108701618Y-41035825D01*
X108392882Y-40829534D01*
X108049834Y-40687439D01*
X107685656Y-40615000D01*
X107314344Y-40615000D01*
X106950166Y-40687439D01*
X106607118Y-40829534D01*
X106298382Y-41035825D01*
X106035825Y-41298382D01*
X105829534Y-41607118D01*
X105687439Y-41950166D01*
X105615000Y-42314344D01*
X98247895Y-42314344D01*
X98269987Y-42292252D01*
X98448918Y-42024463D01*
X98572168Y-41726912D01*
X98635000Y-41411033D01*
X98635000Y-41088967D01*
X98572168Y-40773088D01*
X98448918Y-40475537D01*
X98269987Y-40207748D01*
X98222239Y-40160000D01*
X113407023Y-40160000D01*
X114740000Y-40174459D01*
X114740000Y-79279012D01*
X114652545Y-79247061D01*
X113689605Y-80210000D01*
X114652545Y-81172939D01*
X114740000Y-81140988D01*
X114740000Y-81653619D01*
X114558626Y-81472245D01*
X114454601Y-81402738D01*
X114472939Y-81352545D01*
X113510000Y-80389605D01*
X112547061Y-81352545D01*
X112565399Y-81402738D01*
X112461374Y-81472245D01*
X112232245Y-81701374D01*
X112052220Y-81970801D01*
X111928217Y-82270171D01*
X111865000Y-82587982D01*
X111865000Y-82912018D01*
X111928217Y-83229829D01*
X112052220Y-83529199D01*
X112232245Y-83798626D01*
X112453619Y-84020000D01*
X112232245Y-84241374D01*
X112052220Y-84510801D01*
X111928217Y-84810171D01*
X111865000Y-85127982D01*
X111865000Y-85452018D01*
X111928217Y-85769829D01*
X112052220Y-86069199D01*
X112232245Y-86338626D01*
X112453619Y-86560000D01*
X112232245Y-86781374D01*
X112052220Y-87050801D01*
X111928217Y-87350171D01*
X111865000Y-87667982D01*
X111865000Y-87992018D01*
X111928217Y-88309829D01*
X112052220Y-88609199D01*
X112232245Y-88878626D01*
X112453619Y-89100000D01*
X112232245Y-89321374D01*
X112052220Y-89590801D01*
X111928217Y-89890171D01*
X111865000Y-90207982D01*
X111865000Y-90532018D01*
X111928217Y-90849829D01*
X112052220Y-91149199D01*
X112232245Y-91418626D01*
X112453619Y-91640000D01*
X112232245Y-91861374D01*
X112052220Y-92130801D01*
X111928217Y-92430171D01*
X111865000Y-92747982D01*
X111865000Y-93072018D01*
X111928217Y-93389829D01*
X112052220Y-93689199D01*
X112232245Y-93958626D01*
X112453619Y-94180000D01*
X112232245Y-94401374D01*
X112052220Y-94670801D01*
X111928217Y-94970171D01*
X111865000Y-95287982D01*
X111865000Y-95612018D01*
X111928217Y-95929829D01*
X112052220Y-96229199D01*
X112185214Y-96428238D01*
X112145506Y-96449463D01*
X112048815Y-96528815D01*
X111969463Y-96625506D01*
X111910498Y-96735820D01*
X111874188Y-96855518D01*
X111861928Y-96980000D01*
X111861928Y-99000000D01*
X111874188Y-99124482D01*
X111910498Y-99244180D01*
X111969463Y-99354494D01*
X112048815Y-99451185D01*
X112145506Y-99530537D01*
X112255820Y-99589502D01*
X112375518Y-99625812D01*
X112500000Y-99638072D01*
X114520000Y-99638072D01*
X114644482Y-99625812D01*
X114740001Y-99596837D01*
X114740001Y-101200557D01*
X114701898Y-101184774D01*
X114501939Y-101145000D01*
X114298061Y-101145000D01*
X114098102Y-101184774D01*
X113909744Y-101262795D01*
X113740226Y-101376063D01*
X113596063Y-101520226D01*
X113482795Y-101689744D01*
X113404774Y-101878102D01*
X113365000Y-102078061D01*
X113365000Y-102281939D01*
X113404774Y-102481898D01*
X113455761Y-102604989D01*
X113357000Y-102703750D01*
X113357000Y-103853000D01*
X113377000Y-103853000D01*
X113377000Y-104107000D01*
X113357000Y-104107000D01*
X113357000Y-105256250D01*
X113515750Y-105415000D01*
X113640001Y-105415742D01*
X113640000Y-110115198D01*
X113555906Y-110199292D01*
X113511309Y-110185764D01*
X113300492Y-110165000D01*
X113159508Y-110165000D01*
X112948691Y-110185764D01*
X112678192Y-110267818D01*
X112584999Y-110317631D01*
X112584999Y-105417146D01*
X112944250Y-105415000D01*
X113103000Y-105256250D01*
X113103000Y-104107000D01*
X113083000Y-104107000D01*
X113083000Y-103853000D01*
X113103000Y-103853000D01*
X113103000Y-102703750D01*
X112944250Y-102545000D01*
X112430000Y-102541928D01*
X112305518Y-102554188D01*
X112185820Y-102590498D01*
X112075506Y-102649463D01*
X111978815Y-102728815D01*
X111899463Y-102825506D01*
X111840498Y-102935820D01*
X111804188Y-103055518D01*
X111791928Y-103180000D01*
X111794377Y-103590001D01*
X111723060Y-103590001D01*
X111523101Y-103629775D01*
X111334743Y-103707796D01*
X111165225Y-103821064D01*
X111075011Y-103911278D01*
X111075011Y-88498700D01*
X111153937Y-88419774D01*
X111267205Y-88250256D01*
X111345226Y-88061898D01*
X111385000Y-87861939D01*
X111385000Y-87658061D01*
X111345226Y-87458102D01*
X111267205Y-87269744D01*
X111153937Y-87100226D01*
X111075011Y-87021300D01*
X111075011Y-80272200D01*
X111858211Y-80272200D01*
X111902084Y-80593253D01*
X112007749Y-80899578D01*
X112102032Y-81075968D01*
X112367455Y-81172939D01*
X113330395Y-80210000D01*
X112367455Y-79247061D01*
X112102032Y-79344032D01*
X111960144Y-79635353D01*
X111877815Y-79948757D01*
X111858211Y-80272200D01*
X111075011Y-80272200D01*
X111075011Y-79067455D01*
X112547061Y-79067455D01*
X113510000Y-80030395D01*
X114472939Y-79067455D01*
X114375968Y-78802032D01*
X114084647Y-78660144D01*
X113771243Y-78577815D01*
X113447800Y-78558211D01*
X113126747Y-78602084D01*
X112820422Y-78707749D01*
X112644032Y-78802032D01*
X112547061Y-79067455D01*
X111075011Y-79067455D01*
X111075011Y-64691663D01*
X111120147Y-64918574D01*
X111228320Y-65179727D01*
X111385363Y-65414759D01*
X111585241Y-65614637D01*
X111820273Y-65771680D01*
X112081426Y-65879853D01*
X112358665Y-65935000D01*
X112641335Y-65935000D01*
X112918574Y-65879853D01*
X113179727Y-65771680D01*
X113414759Y-65614637D01*
X113614637Y-65414759D01*
X113771680Y-65179727D01*
X113879853Y-64918574D01*
X113935000Y-64641335D01*
X113935000Y-64358665D01*
X113879853Y-64081426D01*
X113771680Y-63820273D01*
X113614637Y-63585241D01*
X113414759Y-63385363D01*
X113179727Y-63228320D01*
X112918574Y-63120147D01*
X112641335Y-63065000D01*
X112358665Y-63065000D01*
X112081426Y-63120147D01*
X111820273Y-63228320D01*
X111585241Y-63385363D01*
X111385363Y-63585241D01*
X111228320Y-63820273D01*
X111120147Y-64081426D01*
X111075011Y-64308337D01*
X111075011Y-58104393D01*
X111078061Y-58105000D01*
X111281939Y-58105000D01*
X111481898Y-58065226D01*
X111670256Y-57987205D01*
X111839774Y-57873937D01*
X111983937Y-57729774D01*
X112097205Y-57560256D01*
X112175226Y-57371898D01*
X112215000Y-57171939D01*
X112215000Y-56968061D01*
X112175226Y-56768102D01*
X112097205Y-56579744D01*
X111983937Y-56410226D01*
X111940000Y-56366289D01*
X111940000Y-55667803D01*
X111948192Y-55672182D01*
X112218691Y-55754236D01*
X112429508Y-55775000D01*
X112570492Y-55775000D01*
X112781309Y-55754236D01*
X113051808Y-55672182D01*
X113301101Y-55538932D01*
X113519608Y-55359608D01*
X113698932Y-55141101D01*
X113832182Y-54891808D01*
X113914236Y-54621309D01*
X113941943Y-54340000D01*
X113914236Y-54058691D01*
X113832182Y-53788192D01*
X113698932Y-53538899D01*
X113519608Y-53320392D01*
X113401674Y-53223606D01*
X113564759Y-53114637D01*
X113764637Y-52914759D01*
X113921680Y-52679727D01*
X114029853Y-52418574D01*
X114085000Y-52141335D01*
X114085000Y-51858665D01*
X114029853Y-51581426D01*
X113921680Y-51320273D01*
X113764637Y-51085241D01*
X113564759Y-50885363D01*
X113329727Y-50728320D01*
X113068574Y-50620147D01*
X112791335Y-50565000D01*
X112508665Y-50565000D01*
X112231426Y-50620147D01*
X111970273Y-50728320D01*
X111735241Y-50885363D01*
X111535363Y-51085241D01*
X111378320Y-51320273D01*
X111270147Y-51581426D01*
X111215000Y-51858665D01*
X111215000Y-52141335D01*
X111251312Y-52323886D01*
X111075011Y-52500188D01*
X111075011Y-51002334D01*
X111078687Y-50965011D01*
X111075011Y-50927688D01*
X111075011Y-50927678D01*
X111064014Y-50816025D01*
X111020557Y-50672764D01*
X110949985Y-50540735D01*
X110855012Y-50425010D01*
X110826008Y-50401207D01*
X110563808Y-50139007D01*
X110563799Y-50138996D01*
X110485000Y-50060197D01*
X110485000Y-49998061D01*
X110445226Y-49798102D01*
X110367205Y-49609744D01*
X110253937Y-49440226D01*
X110109774Y-49296063D01*
X109940256Y-49182795D01*
X109751898Y-49104774D01*
X109582191Y-49071017D01*
X109584475Y-49064080D01*
X108700000Y-48179605D01*
X108685858Y-48193748D01*
X108506253Y-48014143D01*
X108520395Y-48000000D01*
X108879605Y-48000000D01*
X109764080Y-48884475D01*
X110018261Y-48800792D01*
X110149158Y-48528225D01*
X110224365Y-48235358D01*
X110240991Y-47933447D01*
X110198397Y-47634093D01*
X110098222Y-47348801D01*
X110018261Y-47199208D01*
X109764080Y-47115525D01*
X108879605Y-48000000D01*
X108520395Y-48000000D01*
X108506253Y-47985858D01*
X108685858Y-47806253D01*
X108700000Y-47820395D01*
X109584475Y-46935920D01*
X109500792Y-46681739D01*
X109228225Y-46550842D01*
X109057739Y-46507062D01*
X112324094Y-43240708D01*
X112368691Y-43254236D01*
X112579508Y-43275000D01*
X112720492Y-43275000D01*
X112931309Y-43254236D01*
X113201808Y-43172182D01*
X113451101Y-43038932D01*
X113669608Y-42859608D01*
X113848932Y-42641101D01*
X113982182Y-42391808D01*
X114064236Y-42121309D01*
X114091943Y-41840000D01*
X114064236Y-41558691D01*
X113982182Y-41288192D01*
X113848932Y-41038899D01*
X113669608Y-40820392D01*
X113451101Y-40641068D01*
X113201808Y-40507818D01*
X112931309Y-40425764D01*
X112720492Y-40405000D01*
X112579508Y-40405000D01*
X112368691Y-40425764D01*
X112098192Y-40507818D01*
X111848899Y-40641068D01*
X111630392Y-40820392D01*
X111451068Y-41038899D01*
X111317818Y-41288192D01*
X111235764Y-41558691D01*
X111208057Y-41840000D01*
X111235764Y-42121309D01*
X111249292Y-42165906D01*
X106953271Y-46461928D01*
X105260000Y-46461928D01*
X105135518Y-46474188D01*
X105015820Y-46510498D01*
X104905506Y-46569463D01*
X104808815Y-46648815D01*
X104729463Y-46745506D01*
X104670498Y-46855820D01*
X104634188Y-46975518D01*
X104621928Y-47100000D01*
X104621928Y-48900000D01*
X104634188Y-49024482D01*
X104670498Y-49144180D01*
X104729463Y-49254494D01*
X104808815Y-49351185D01*
X104905506Y-49430537D01*
X105015820Y-49489502D01*
X105135518Y-49525812D01*
X105260000Y-49538072D01*
X107060000Y-49538072D01*
X107184482Y-49525812D01*
X107304180Y-49489502D01*
X107414494Y-49430537D01*
X107511185Y-49351185D01*
X107590537Y-49254494D01*
X107649502Y-49144180D01*
X107652813Y-49133265D01*
X107699578Y-49180030D01*
X107815526Y-49064082D01*
X107899208Y-49318261D01*
X108171775Y-49449158D01*
X108464642Y-49524365D01*
X108585400Y-49531015D01*
X108532795Y-49609744D01*
X108454774Y-49798102D01*
X108415000Y-49998061D01*
X108415000Y-50201939D01*
X108454774Y-50401898D01*
X108532795Y-50590256D01*
X108646063Y-50759774D01*
X108790226Y-50903937D01*
X108959744Y-51017205D01*
X109148102Y-51095226D01*
X109348061Y-51135000D01*
X109410197Y-51135000D01*
X109488996Y-51213799D01*
X109489007Y-51213808D01*
X109555012Y-51279813D01*
X109555012Y-51558414D01*
X109351100Y-51391068D01*
X109101807Y-51257818D01*
X108831308Y-51175764D01*
X108550000Y-51148057D01*
X108268691Y-51175764D01*
X107998192Y-51257818D01*
X107748899Y-51391068D01*
X107695927Y-51434541D01*
X107692364Y-51416627D01*
X107559692Y-51096327D01*
X107367081Y-50808065D01*
X107121935Y-50562919D01*
X106833673Y-50370308D01*
X106513373Y-50237636D01*
X106173345Y-50170000D01*
X105826655Y-50170000D01*
X105486627Y-50237636D01*
X105166327Y-50370308D01*
X104878065Y-50562919D01*
X104632919Y-50808065D01*
X104440308Y-51096327D01*
X104307636Y-51416627D01*
X104240000Y-51756655D01*
X104240000Y-52103345D01*
X104307636Y-52443373D01*
X104319273Y-52471468D01*
X103986627Y-52537636D01*
X103666327Y-52670308D01*
X103378065Y-52862919D01*
X103132919Y-53108065D01*
X102940308Y-53396327D01*
X102807636Y-53716627D01*
X102740000Y-54056655D01*
X102740000Y-54403345D01*
X102807636Y-54743373D01*
X102940308Y-55063673D01*
X103132919Y-55351935D01*
X103378065Y-55597081D01*
X103666327Y-55789692D01*
X103986627Y-55922364D01*
X104326655Y-55990000D01*
X104673345Y-55990000D01*
X105013373Y-55922364D01*
X105333673Y-55789692D01*
X105621935Y-55597081D01*
X105867081Y-55351935D01*
X106059692Y-55063673D01*
X106192364Y-54743373D01*
X106260000Y-54403345D01*
X106260000Y-54056655D01*
X106192364Y-53716627D01*
X106180727Y-53688532D01*
X106513373Y-53622364D01*
X106833673Y-53489692D01*
X107115000Y-53301715D01*
X107115000Y-53660492D01*
X107135764Y-53871309D01*
X107217818Y-54141808D01*
X107351068Y-54391101D01*
X107530393Y-54609608D01*
X107748900Y-54788932D01*
X107998193Y-54922182D01*
X108268692Y-55004236D01*
X108550000Y-55031943D01*
X108831309Y-55004236D01*
X109101808Y-54922182D01*
X109351101Y-54788932D01*
X109555012Y-54621587D01*
X109555012Y-58745616D01*
X109464759Y-58655363D01*
X109229727Y-58498320D01*
X108968574Y-58390147D01*
X108691335Y-58335000D01*
X108408665Y-58335000D01*
X108131426Y-58390147D01*
X107870273Y-58498320D01*
X107635241Y-58655363D01*
X107435363Y-58855241D01*
X107278320Y-59090273D01*
X107170147Y-59351426D01*
X107143650Y-59484634D01*
X107121935Y-59462919D01*
X106833673Y-59270308D01*
X106513373Y-59137636D01*
X106215247Y-59078335D01*
X106260000Y-58853345D01*
X106260000Y-58506655D01*
X106192364Y-58166627D01*
X106059692Y-57846327D01*
X105867081Y-57558065D01*
X105621935Y-57312919D01*
X105333673Y-57120308D01*
X105013373Y-56987636D01*
X104673345Y-56920000D01*
X104326655Y-56920000D01*
X103986627Y-56987636D01*
X103855000Y-57042157D01*
X103855000Y-56968061D01*
X103815226Y-56768102D01*
X103737205Y-56579744D01*
X103623937Y-56410226D01*
X103479774Y-56266063D01*
X103310256Y-56152795D01*
X103121898Y-56074774D01*
X102921939Y-56035000D01*
X102718061Y-56035000D01*
X102650001Y-56048538D01*
X102650001Y-53213710D01*
X102693938Y-53169773D01*
X102807206Y-53000255D01*
X102885227Y-52811897D01*
X102925001Y-52611938D01*
X102925001Y-52408060D01*
X102885227Y-52208101D01*
X102807206Y-52019743D01*
X102693938Y-51850225D01*
X102549775Y-51706062D01*
X102380257Y-51592794D01*
X102191899Y-51514773D01*
X101991940Y-51474999D01*
X101788062Y-51474999D01*
X101588103Y-51514773D01*
X101399745Y-51592794D01*
X101230227Y-51706062D01*
X101086064Y-51850225D01*
X100972796Y-52019743D01*
X100894775Y-52208101D01*
X100855001Y-52408060D01*
X100855001Y-52611938D01*
X100894775Y-52811897D01*
X100972796Y-53000255D01*
X101086064Y-53169773D01*
X101130002Y-53213711D01*
X101130002Y-54038638D01*
X101106043Y-54022629D01*
X100853989Y-53918225D01*
X100586411Y-53865000D01*
X100313589Y-53865000D01*
X100046011Y-53918225D01*
X99793957Y-54022629D01*
X99567114Y-54174201D01*
X99374201Y-54367114D01*
X99222629Y-54593957D01*
X99150000Y-54769299D01*
X99077371Y-54593957D01*
X98925799Y-54367114D01*
X98732886Y-54174201D01*
X98506043Y-54022629D01*
X98253989Y-53918225D01*
X97986411Y-53865000D01*
X97713589Y-53865000D01*
X97446011Y-53918225D01*
X97193957Y-54022629D01*
X96967114Y-54174201D01*
X96774201Y-54367114D01*
X96638072Y-54570845D01*
X96638072Y-54500000D01*
X96625812Y-54375518D01*
X96589502Y-54255820D01*
X96530537Y-54145506D01*
X96451185Y-54048815D01*
X96354494Y-53969463D01*
X96244180Y-53910498D01*
X96124482Y-53874188D01*
X96000000Y-53861928D01*
X94934000Y-53861928D01*
X94934000Y-52305014D01*
X97511003Y-49728012D01*
X97540001Y-49704214D01*
X97570339Y-49667247D01*
X97634974Y-49588490D01*
X97705546Y-49456460D01*
X97710470Y-49440226D01*
X97749003Y-49313199D01*
X97759655Y-49205052D01*
X97774463Y-49198918D01*
X98042252Y-49019987D01*
X98269987Y-48792252D01*
X98448918Y-48524463D01*
X98572168Y-48226912D01*
X98635000Y-47911033D01*
X98635000Y-47588967D01*
X98572168Y-47273088D01*
X98448918Y-46975537D01*
X98269987Y-46707748D01*
X98042252Y-46480013D01*
X97774463Y-46301082D01*
X97476912Y-46177832D01*
X97161033Y-46115000D01*
X96838967Y-46115000D01*
X96523088Y-46177832D01*
X96225537Y-46301082D01*
X95957748Y-46480013D01*
X95730013Y-46707748D01*
X95551082Y-46975537D01*
X95427832Y-47273088D01*
X95365000Y-47588967D01*
X95365000Y-47911033D01*
X95427832Y-48226912D01*
X95551082Y-48524463D01*
X95730013Y-48792252D01*
X95957748Y-49019987D01*
X96024693Y-49064718D01*
X93668585Y-51420827D01*
X93633999Y-51449211D01*
X93539026Y-51564937D01*
X93468454Y-51696966D01*
X93424997Y-51840227D01*
X93414000Y-51951880D01*
X93414000Y-51962053D01*
X93411325Y-51989212D01*
X93414000Y-52016371D01*
X93414000Y-53403316D01*
X93191309Y-53335764D01*
X92980492Y-53315000D01*
X92839508Y-53315000D01*
X92628691Y-53335764D01*
X92358192Y-53417818D01*
X92108899Y-53551068D01*
X91890392Y-53730392D01*
X91711068Y-53948899D01*
X91577818Y-54198192D01*
X91495764Y-54468691D01*
X91468057Y-54750000D01*
X91495764Y-55031309D01*
X91577818Y-55301808D01*
X91711068Y-55551101D01*
X91890392Y-55769608D01*
X92108899Y-55948932D01*
X92358192Y-56082182D01*
X92628691Y-56164236D01*
X92839508Y-56185000D01*
X92980492Y-56185000D01*
X93191309Y-56164236D01*
X93414000Y-56096684D01*
X93414000Y-58443082D01*
X93353989Y-58418225D01*
X93086411Y-58365000D01*
X92813589Y-58365000D01*
X92546011Y-58418225D01*
X92293957Y-58522629D01*
X92067114Y-58674201D01*
X91874201Y-58867114D01*
X91722629Y-59093957D01*
X91650000Y-59269299D01*
X91577371Y-59093957D01*
X91425799Y-58867114D01*
X91232886Y-58674201D01*
X91006043Y-58522629D01*
X90753989Y-58418225D01*
X90486411Y-58365000D01*
X90213589Y-58365000D01*
X89946011Y-58418225D01*
X89693957Y-58522629D01*
X89467114Y-58674201D01*
X89274201Y-58867114D01*
X89138072Y-59070845D01*
X89138072Y-59000000D01*
X89125812Y-58875518D01*
X89089502Y-58755820D01*
X89030537Y-58645506D01*
X88951185Y-58548815D01*
X88854494Y-58469463D01*
X88744180Y-58410498D01*
X88624482Y-58374188D01*
X88500000Y-58361928D01*
X87000000Y-58361928D01*
X86875518Y-58374188D01*
X86811223Y-58393692D01*
X86796001Y-58381199D01*
X86385000Y-57970199D01*
X86385000Y-57908061D01*
X86345226Y-57708102D01*
X86267205Y-57519744D01*
X86153937Y-57350226D01*
X86009774Y-57206063D01*
X85840256Y-57092795D01*
X85651898Y-57014774D01*
X85451939Y-56975000D01*
X85248061Y-56975000D01*
X85048102Y-57014774D01*
X84859744Y-57092795D01*
X84690226Y-57206063D01*
X84546063Y-57350226D01*
X84432795Y-57519744D01*
X84354774Y-57708102D01*
X84315000Y-57908061D01*
X84315000Y-58111939D01*
X84354774Y-58311898D01*
X84432795Y-58500256D01*
X84546063Y-58669774D01*
X84690226Y-58813937D01*
X84859744Y-58927205D01*
X85048102Y-59005226D01*
X85248061Y-59045000D01*
X85310199Y-59045000D01*
X85525000Y-59259802D01*
X85524999Y-71767389D01*
X85355239Y-71697072D01*
X85093456Y-71645000D01*
X84826544Y-71645000D01*
X84704148Y-71669346D01*
X83610000Y-70575199D01*
X83610000Y-69888043D01*
X83764759Y-69784637D01*
X83964637Y-69584759D01*
X84121680Y-69349727D01*
X84229853Y-69088574D01*
X84285000Y-68811335D01*
X84285000Y-68528665D01*
X84229853Y-68251426D01*
X84121680Y-67990273D01*
X83964637Y-67755241D01*
X83764759Y-67555363D01*
X83610000Y-67451957D01*
X83610000Y-63357322D01*
X83613676Y-63319999D01*
X83610000Y-63282676D01*
X83610000Y-63282667D01*
X83599003Y-63171014D01*
X83555546Y-63027753D01*
X83484974Y-62895724D01*
X83469701Y-62877114D01*
X83413799Y-62808996D01*
X83413795Y-62808992D01*
X83390001Y-62779999D01*
X83361009Y-62756206D01*
X81420708Y-60815906D01*
X81434236Y-60771309D01*
X81461943Y-60490000D01*
X81434236Y-60208691D01*
X81408849Y-60124999D01*
X81957679Y-60124999D01*
X81995001Y-60128675D01*
X82032323Y-60124999D01*
X82032334Y-60124999D01*
X82143987Y-60114002D01*
X82287248Y-60070545D01*
X82419277Y-59999973D01*
X82526980Y-59911583D01*
X82568691Y-59924236D01*
X82779508Y-59945000D01*
X82920492Y-59945000D01*
X83131309Y-59924236D01*
X83401808Y-59842182D01*
X83651101Y-59708932D01*
X83869608Y-59529608D01*
X84048932Y-59311101D01*
X84182182Y-59061808D01*
X84264236Y-58791309D01*
X84291943Y-58510000D01*
X84264236Y-58228691D01*
X84182182Y-57958192D01*
X84048932Y-57708899D01*
X83869608Y-57490392D01*
X83651101Y-57311068D01*
X83401808Y-57177818D01*
X83131309Y-57095764D01*
X82920492Y-57075000D01*
X82779508Y-57075000D01*
X82568691Y-57095764D01*
X82298192Y-57177818D01*
X82048899Y-57311068D01*
X81830392Y-57490392D01*
X81651068Y-57708899D01*
X81517818Y-57958192D01*
X81435764Y-58228691D01*
X81408057Y-58510000D01*
X81417414Y-58604999D01*
X81297025Y-58604999D01*
X81352182Y-58501808D01*
X81434236Y-58231309D01*
X81461943Y-57950000D01*
X81434236Y-57668691D01*
X81352182Y-57398192D01*
X81218932Y-57148899D01*
X81039608Y-56930392D01*
X80821101Y-56751068D01*
X80571808Y-56617818D01*
X80301309Y-56535764D01*
X80090492Y-56515000D01*
X79949508Y-56515000D01*
X79738691Y-56535764D01*
X79468192Y-56617818D01*
X79218899Y-56751068D01*
X79000392Y-56930392D01*
X78821068Y-57148899D01*
X78687818Y-57398192D01*
X78605764Y-57668691D01*
X78578057Y-57950000D01*
X78605764Y-58231309D01*
X78687818Y-58501808D01*
X78821068Y-58751101D01*
X78910330Y-58859867D01*
X78383997Y-59386200D01*
X78354999Y-59409998D01*
X78331201Y-59438996D01*
X78331200Y-59438997D01*
X78260025Y-59525723D01*
X78189453Y-59657753D01*
X78168653Y-59726324D01*
X78149558Y-59789276D01*
X78145997Y-59801014D01*
X78131323Y-59949999D01*
X78135000Y-59987331D01*
X78134999Y-61867676D01*
X78131323Y-61904999D01*
X78134999Y-61942321D01*
X78134999Y-61942331D01*
X78145996Y-62053984D01*
X78168353Y-62127685D01*
X78189453Y-62197245D01*
X78260025Y-62329275D01*
X78267500Y-62338383D01*
X78354998Y-62445000D01*
X78384001Y-62468803D01*
X78619292Y-62704094D01*
X78605764Y-62748691D01*
X78578057Y-63030000D01*
X78605764Y-63311309D01*
X78619292Y-63355906D01*
X78134002Y-63841197D01*
X78104998Y-63865000D01*
X78051878Y-63929727D01*
X78010025Y-63980725D01*
X77994911Y-64009002D01*
X77939453Y-64112755D01*
X77895996Y-64256016D01*
X77884999Y-64367669D01*
X77884999Y-64367679D01*
X77881323Y-64405001D01*
X77884999Y-64442324D01*
X77885000Y-71067667D01*
X77881323Y-71104999D01*
X77885000Y-71142332D01*
X77895997Y-71253985D01*
X77908122Y-71293957D01*
X77939453Y-71397245D01*
X78010025Y-71529275D01*
X78081200Y-71616001D01*
X78104999Y-71645000D01*
X78133997Y-71668798D01*
X78411312Y-71946113D01*
X78375000Y-72128665D01*
X78375000Y-72411335D01*
X78430147Y-72688574D01*
X78538320Y-72949727D01*
X78695363Y-73184759D01*
X78895241Y-73384637D01*
X79130273Y-73541680D01*
X79391426Y-73649853D01*
X79477954Y-73667065D01*
X79504774Y-73801898D01*
X79582795Y-73990256D01*
X79696063Y-74159774D01*
X79840226Y-74303937D01*
X80009744Y-74417205D01*
X80198102Y-74495226D01*
X80398061Y-74535000D01*
X80460198Y-74535000D01*
X80581787Y-74656589D01*
X80585728Y-87297592D01*
X80321335Y-87245000D01*
X80038665Y-87245000D01*
X79761426Y-87300147D01*
X79500273Y-87408320D01*
X79265241Y-87565363D01*
X79065363Y-87765241D01*
X78908320Y-88000273D01*
X78800147Y-88261426D01*
X78745000Y-88538665D01*
X78745000Y-88821335D01*
X78781312Y-89003886D01*
X77264002Y-90521197D01*
X77234998Y-90545000D01*
X77194786Y-90593999D01*
X77140025Y-90660725D01*
X77099616Y-90736324D01*
X77069453Y-90792755D01*
X77025996Y-90936016D01*
X77020564Y-90991168D01*
X76914759Y-90885363D01*
X76679727Y-90728320D01*
X76418574Y-90620147D01*
X76141335Y-90565000D01*
X75858665Y-90565000D01*
X75680816Y-90600377D01*
X77399188Y-88922438D01*
X77469277Y-88884974D01*
X77585002Y-88790001D01*
X77679975Y-88674276D01*
X77750547Y-88542247D01*
X77794004Y-88398986D01*
X77805001Y-88287333D01*
X77805001Y-86934969D01*
X77975537Y-87048918D01*
X78273088Y-87172168D01*
X78588967Y-87235000D01*
X78911033Y-87235000D01*
X79226912Y-87172168D01*
X79524463Y-87048918D01*
X79792252Y-86869987D01*
X80019987Y-86642252D01*
X80198918Y-86374463D01*
X80322168Y-86076912D01*
X80385000Y-85761033D01*
X80385000Y-85438967D01*
X80322168Y-85123088D01*
X80198918Y-84825537D01*
X80019987Y-84557748D01*
X79792252Y-84330013D01*
X79524463Y-84151082D01*
X79226912Y-84027832D01*
X78911033Y-83965000D01*
X78588967Y-83965000D01*
X78273088Y-84027832D01*
X77975537Y-84151082D01*
X77805001Y-84265031D01*
X77805001Y-80434969D01*
X77975537Y-80548918D01*
X78273088Y-80672168D01*
X78588967Y-80735000D01*
X78911033Y-80735000D01*
X79226912Y-80672168D01*
X79524463Y-80548918D01*
X79792252Y-80369987D01*
X80019987Y-80142252D01*
X80198918Y-79874463D01*
X80322168Y-79576912D01*
X80385000Y-79261033D01*
X80385000Y-78938967D01*
X80322168Y-78623088D01*
X80198918Y-78325537D01*
X80019987Y-78057748D01*
X79792252Y-77830013D01*
X79524463Y-77651082D01*
X79226912Y-77527832D01*
X78911033Y-77465000D01*
X78588967Y-77465000D01*
X78273088Y-77527832D01*
X77975537Y-77651082D01*
X77805001Y-77765031D01*
X77805001Y-60955722D01*
X77808677Y-60918399D01*
X77805001Y-60881076D01*
X77805001Y-60881066D01*
X77794004Y-60769413D01*
X77750547Y-60626152D01*
X77710857Y-60551898D01*
X77679975Y-60494122D01*
X77608800Y-60407396D01*
X77585002Y-60378398D01*
X77556005Y-60354601D01*
X77134999Y-59933596D01*
X77134999Y-56327780D01*
X77381426Y-56429853D01*
X77658665Y-56485000D01*
X77941335Y-56485000D01*
X78218574Y-56429853D01*
X78479727Y-56321680D01*
X78714759Y-56164637D01*
X78914637Y-55964759D01*
X79071680Y-55729727D01*
X79179853Y-55468574D01*
X79235000Y-55191335D01*
X79235000Y-54908665D01*
X79179853Y-54631426D01*
X79170426Y-54608665D01*
X81315000Y-54608665D01*
X81315000Y-54891335D01*
X81370147Y-55168574D01*
X81478320Y-55429727D01*
X81635363Y-55664759D01*
X81835241Y-55864637D01*
X82070273Y-56021680D01*
X82331426Y-56129853D01*
X82608665Y-56185000D01*
X82891335Y-56185000D01*
X83168574Y-56129853D01*
X83429727Y-56021680D01*
X83664759Y-55864637D01*
X83864637Y-55664759D01*
X84021680Y-55429727D01*
X84129853Y-55168574D01*
X84185000Y-54891335D01*
X84185000Y-54608665D01*
X84129853Y-54331426D01*
X84021680Y-54070273D01*
X83864637Y-53835241D01*
X83664759Y-53635363D01*
X83429727Y-53478320D01*
X83168574Y-53370147D01*
X82891335Y-53315000D01*
X82608665Y-53315000D01*
X82331426Y-53370147D01*
X82070273Y-53478320D01*
X81835241Y-53635363D01*
X81635363Y-53835241D01*
X81478320Y-54070273D01*
X81370147Y-54331426D01*
X81315000Y-54608665D01*
X79170426Y-54608665D01*
X79071680Y-54370273D01*
X78914637Y-54135241D01*
X78714759Y-53935363D01*
X78479727Y-53778320D01*
X78411356Y-53750000D01*
X78479727Y-53721680D01*
X78714759Y-53564637D01*
X78914637Y-53364759D01*
X79071680Y-53129727D01*
X79179853Y-52868574D01*
X79235000Y-52591335D01*
X79235000Y-52308665D01*
X79179853Y-52031426D01*
X79071680Y-51770273D01*
X78914637Y-51535241D01*
X78717378Y-51337982D01*
X79795000Y-51337982D01*
X79795000Y-51662018D01*
X79858217Y-51979829D01*
X79982220Y-52279199D01*
X80162245Y-52548626D01*
X80391374Y-52777755D01*
X80660801Y-52957780D01*
X80960171Y-53081783D01*
X81277982Y-53145000D01*
X81602018Y-53145000D01*
X81919829Y-53081783D01*
X82219199Y-52957780D01*
X82488626Y-52777755D01*
X82623836Y-52642545D01*
X83017061Y-52642545D01*
X83114032Y-52907968D01*
X83405353Y-53049856D01*
X83718757Y-53132185D01*
X84042200Y-53151789D01*
X84363253Y-53107916D01*
X84669578Y-53002251D01*
X84845968Y-52907968D01*
X84942939Y-52642545D01*
X83980000Y-51679605D01*
X83017061Y-52642545D01*
X82623836Y-52642545D01*
X82717755Y-52548626D01*
X82787262Y-52444601D01*
X82837455Y-52462939D01*
X83800395Y-51500000D01*
X84159605Y-51500000D01*
X85122545Y-52462939D01*
X85172738Y-52444601D01*
X85242245Y-52548626D01*
X85471374Y-52777755D01*
X85740801Y-52957780D01*
X86040171Y-53081783D01*
X86357982Y-53145000D01*
X86682018Y-53145000D01*
X86999829Y-53081783D01*
X87299199Y-52957780D01*
X87568626Y-52777755D01*
X87790000Y-52556381D01*
X88011374Y-52777755D01*
X88280801Y-52957780D01*
X88580171Y-53081783D01*
X88897982Y-53145000D01*
X89222018Y-53145000D01*
X89539829Y-53081783D01*
X89839199Y-52957780D01*
X90108626Y-52777755D01*
X90337755Y-52548626D01*
X90517780Y-52279199D01*
X90641783Y-51979829D01*
X90705000Y-51662018D01*
X90705000Y-51337982D01*
X90641783Y-51020171D01*
X90517780Y-50720801D01*
X90337755Y-50451374D01*
X90108626Y-50222245D01*
X89839199Y-50042220D01*
X89820000Y-50034268D01*
X89820000Y-47588967D01*
X90865000Y-47588967D01*
X90865000Y-47911033D01*
X90927832Y-48226912D01*
X91051082Y-48524463D01*
X91230013Y-48792252D01*
X91457748Y-49019987D01*
X91725537Y-49198918D01*
X92023088Y-49322168D01*
X92338967Y-49385000D01*
X92661033Y-49385000D01*
X92976912Y-49322168D01*
X93274463Y-49198918D01*
X93542252Y-49019987D01*
X93769987Y-48792252D01*
X93948918Y-48524463D01*
X94072168Y-48226912D01*
X94135000Y-47911033D01*
X94135000Y-47588967D01*
X94072168Y-47273088D01*
X93948918Y-46975537D01*
X93769987Y-46707748D01*
X93542252Y-46480013D01*
X93274463Y-46301082D01*
X92976912Y-46177832D01*
X92661033Y-46115000D01*
X92338967Y-46115000D01*
X92023088Y-46177832D01*
X91725537Y-46301082D01*
X91457748Y-46480013D01*
X91230013Y-46707748D01*
X91051082Y-46975537D01*
X90927832Y-47273088D01*
X90865000Y-47588967D01*
X89820000Y-47588967D01*
X89820000Y-47123709D01*
X89858936Y-47084773D01*
X89972204Y-46915255D01*
X90050225Y-46726897D01*
X90089999Y-46526938D01*
X90089999Y-46323060D01*
X90050225Y-46123101D01*
X89972204Y-45934743D01*
X89858936Y-45765225D01*
X89714773Y-45621062D01*
X89545255Y-45507794D01*
X89356897Y-45429773D01*
X89156938Y-45389999D01*
X88953060Y-45389999D01*
X88753101Y-45429773D01*
X88564743Y-45507794D01*
X88395225Y-45621062D01*
X88251062Y-45765225D01*
X88137794Y-45934743D01*
X88059773Y-46123101D01*
X88019999Y-46323060D01*
X88019999Y-46526938D01*
X88059773Y-46726897D01*
X88137794Y-46915255D01*
X88251062Y-47084773D01*
X88300001Y-47133712D01*
X88300000Y-50034267D01*
X88280801Y-50042220D01*
X88011374Y-50222245D01*
X87790000Y-50443619D01*
X87568626Y-50222245D01*
X87299199Y-50042220D01*
X87280000Y-50034268D01*
X87280000Y-49933711D01*
X87323937Y-49889774D01*
X87437205Y-49720256D01*
X87515226Y-49531898D01*
X87555000Y-49331939D01*
X87555000Y-49128061D01*
X87515226Y-48928102D01*
X87437205Y-48739744D01*
X87323937Y-48570226D01*
X87179774Y-48426063D01*
X87010256Y-48312795D01*
X86821898Y-48234774D01*
X86621939Y-48195000D01*
X86418061Y-48195000D01*
X86218102Y-48234774D01*
X86029744Y-48312795D01*
X85860226Y-48426063D01*
X85716063Y-48570226D01*
X85602795Y-48739744D01*
X85524774Y-48928102D01*
X85485000Y-49128061D01*
X85485000Y-49331939D01*
X85524774Y-49531898D01*
X85602795Y-49720256D01*
X85716063Y-49889774D01*
X85760000Y-49933711D01*
X85760000Y-50034267D01*
X85740801Y-50042220D01*
X85471374Y-50222245D01*
X85242245Y-50451374D01*
X85172738Y-50555399D01*
X85122545Y-50537061D01*
X84159605Y-51500000D01*
X83800395Y-51500000D01*
X82837455Y-50537061D01*
X82787262Y-50555399D01*
X82717755Y-50451374D01*
X82623836Y-50357455D01*
X83017061Y-50357455D01*
X83980000Y-51320395D01*
X84942939Y-50357455D01*
X84845968Y-50092032D01*
X84554647Y-49950144D01*
X84241243Y-49867815D01*
X83917800Y-49848211D01*
X83596747Y-49892084D01*
X83290422Y-49997749D01*
X83114032Y-50092032D01*
X83017061Y-50357455D01*
X82623836Y-50357455D01*
X82488626Y-50222245D01*
X82219199Y-50042220D01*
X81919829Y-49918217D01*
X81602018Y-49855000D01*
X81277982Y-49855000D01*
X80960171Y-49918217D01*
X80660801Y-50042220D01*
X80391374Y-50222245D01*
X80162245Y-50451374D01*
X79982220Y-50720801D01*
X79858217Y-51020171D01*
X79795000Y-51337982D01*
X78717378Y-51337982D01*
X78714759Y-51335363D01*
X78479727Y-51178320D01*
X78218574Y-51070147D01*
X77941335Y-51015000D01*
X77658665Y-51015000D01*
X77381426Y-51070147D01*
X77134999Y-51172220D01*
X77134999Y-49689802D01*
X77508625Y-49316177D01*
X77523088Y-49322168D01*
X77838967Y-49385000D01*
X78161033Y-49385000D01*
X78476912Y-49322168D01*
X78774463Y-49198918D01*
X79042252Y-49019987D01*
X79269987Y-48792252D01*
X79448918Y-48524463D01*
X79572168Y-48226912D01*
X79635000Y-47911033D01*
X79635000Y-47588967D01*
X79572168Y-47273088D01*
X79448918Y-46975537D01*
X79269987Y-46707748D01*
X79042252Y-46480013D01*
X78774463Y-46301082D01*
X78476912Y-46177832D01*
X78161033Y-46115000D01*
X77838967Y-46115000D01*
X77523088Y-46177832D01*
X77225537Y-46301082D01*
X76957748Y-46480013D01*
X76730013Y-46707748D01*
X76551082Y-46975537D01*
X76427832Y-47273088D01*
X76365000Y-47588967D01*
X76365000Y-47911033D01*
X76427832Y-48226912D01*
X76433823Y-48241375D01*
X75864001Y-48811198D01*
X75834998Y-48835000D01*
X75781654Y-48900000D01*
X75740025Y-48950725D01*
X75700601Y-49024482D01*
X75669453Y-49082755D01*
X75625996Y-49226016D01*
X75614999Y-49337669D01*
X75614999Y-49337679D01*
X75611323Y-49375001D01*
X75614999Y-49412323D01*
X75614999Y-50053701D01*
X75551667Y-50011384D01*
X75363309Y-49933363D01*
X75163350Y-49893589D01*
X74959472Y-49893589D01*
X74759513Y-49933363D01*
X74571155Y-50011384D01*
X74401637Y-50124652D01*
X74257474Y-50268815D01*
X74144206Y-50438333D01*
X74066185Y-50626691D01*
X74026411Y-50826650D01*
X74026411Y-51030528D01*
X74066185Y-51230487D01*
X74144206Y-51418845D01*
X74257474Y-51588363D01*
X74301411Y-51632300D01*
X74301412Y-60528945D01*
X74286824Y-60556238D01*
X74249453Y-60626153D01*
X74205996Y-60769414D01*
X74194999Y-60881067D01*
X74194999Y-60881077D01*
X74191323Y-60918399D01*
X74194999Y-60955722D01*
X74195000Y-66964269D01*
X74191323Y-67001601D01*
X74195000Y-67038934D01*
X74205997Y-67150587D01*
X74214582Y-67178889D01*
X74249453Y-67293847D01*
X74301411Y-67391053D01*
X74301411Y-67475922D01*
X74301412Y-67475932D01*
X74301411Y-70842785D01*
X71464002Y-73680195D01*
X71434998Y-73703998D01*
X71386021Y-73763677D01*
X71340025Y-73819723D01*
X71315739Y-73865159D01*
X71269453Y-73951753D01*
X71225996Y-74095014D01*
X71214999Y-74206667D01*
X71214999Y-74206677D01*
X71211323Y-74243999D01*
X71214999Y-74281322D01*
X71215000Y-77626451D01*
X70976912Y-77527832D01*
X70661033Y-77465000D01*
X70338967Y-77465000D01*
X70023088Y-77527832D01*
X69725537Y-77651082D01*
X69645347Y-77704663D01*
X69644002Y-77691011D01*
X69600545Y-77547750D01*
X69596936Y-77540998D01*
X69529973Y-77415720D01*
X69458798Y-77328994D01*
X69435000Y-77299996D01*
X69406003Y-77276199D01*
X67406086Y-75276282D01*
X67504745Y-75342204D01*
X67693103Y-75420225D01*
X67893062Y-75459999D01*
X68096940Y-75459999D01*
X68296899Y-75420225D01*
X68485257Y-75342204D01*
X68654775Y-75228936D01*
X68798938Y-75084773D01*
X68912206Y-74915255D01*
X68990227Y-74726897D01*
X69030001Y-74526938D01*
X69030001Y-74323060D01*
X68990227Y-74123101D01*
X68912206Y-73934743D01*
X68798938Y-73765225D01*
X68755001Y-73721288D01*
X68755001Y-73391872D01*
X68848899Y-73468932D01*
X69098192Y-73602182D01*
X69368691Y-73684236D01*
X69579508Y-73705000D01*
X69720492Y-73705000D01*
X69931309Y-73684236D01*
X70201808Y-73602182D01*
X70451101Y-73468932D01*
X70669608Y-73289608D01*
X70848932Y-73071101D01*
X70982182Y-72821808D01*
X71064236Y-72551309D01*
X71091943Y-72270000D01*
X71064236Y-71988691D01*
X70982182Y-71718192D01*
X70848932Y-71468899D01*
X70669608Y-71250392D01*
X70451101Y-71071068D01*
X70201808Y-70937818D01*
X69931309Y-70855764D01*
X69720492Y-70835000D01*
X69579508Y-70835000D01*
X69368691Y-70855764D01*
X69098192Y-70937818D01*
X68848899Y-71071068D01*
X68755001Y-71148128D01*
X68755001Y-69824567D01*
X68930273Y-69941680D01*
X69191426Y-70049853D01*
X69468665Y-70105000D01*
X69751335Y-70105000D01*
X70028574Y-70049853D01*
X70289727Y-69941680D01*
X70524759Y-69784637D01*
X70724637Y-69584759D01*
X70881680Y-69349727D01*
X70989853Y-69088574D01*
X71045000Y-68811335D01*
X71045000Y-68528665D01*
X70989853Y-68251426D01*
X70881680Y-67990273D01*
X70724637Y-67755241D01*
X70524759Y-67555363D01*
X70370000Y-67451957D01*
X70370000Y-66951591D01*
X70431101Y-66918932D01*
X70649608Y-66739608D01*
X70828932Y-66521101D01*
X70962182Y-66271808D01*
X71037751Y-66022688D01*
X71067818Y-66121808D01*
X71201068Y-66371101D01*
X71380392Y-66589608D01*
X71598899Y-66768932D01*
X71848192Y-66902182D01*
X72118691Y-66984236D01*
X72329508Y-67005000D01*
X72470492Y-67005000D01*
X72681309Y-66984236D01*
X72951808Y-66902182D01*
X73201101Y-66768932D01*
X73419608Y-66589608D01*
X73598932Y-66371101D01*
X73732182Y-66121808D01*
X73814236Y-65851309D01*
X73841943Y-65570000D01*
X73814236Y-65288691D01*
X73732182Y-65018192D01*
X73598932Y-64768899D01*
X73419608Y-64550392D01*
X73201101Y-64371068D01*
X73068142Y-64300000D01*
X73201101Y-64228932D01*
X73419608Y-64049608D01*
X73598932Y-63831101D01*
X73732182Y-63581808D01*
X73814236Y-63311309D01*
X73841943Y-63030000D01*
X73814236Y-62748691D01*
X73732182Y-62478192D01*
X73598932Y-62228899D01*
X73419608Y-62010392D01*
X73201101Y-61831068D01*
X73068142Y-61760000D01*
X73201101Y-61688932D01*
X73419608Y-61509608D01*
X73598932Y-61291101D01*
X73732182Y-61041808D01*
X73814236Y-60771309D01*
X73841943Y-60490000D01*
X73814236Y-60208691D01*
X73732182Y-59938192D01*
X73598932Y-59688899D01*
X73419608Y-59470392D01*
X73306518Y-59377581D01*
X73324482Y-59375812D01*
X73444180Y-59339502D01*
X73554494Y-59280537D01*
X73651185Y-59201185D01*
X73730537Y-59104494D01*
X73789502Y-58994180D01*
X73825812Y-58874482D01*
X73838072Y-58750000D01*
X73838072Y-57150000D01*
X73825812Y-57025518D01*
X73789502Y-56905820D01*
X73730537Y-56795506D01*
X73651185Y-56698815D01*
X73554494Y-56619463D01*
X73444180Y-56560498D01*
X73324482Y-56524188D01*
X73200000Y-56511928D01*
X71656730Y-56511928D01*
X71028688Y-55883886D01*
X71065000Y-55701335D01*
X71065000Y-55418665D01*
X71009853Y-55141426D01*
X70901680Y-54880273D01*
X70744637Y-54645241D01*
X70544759Y-54445363D01*
X70309727Y-54288320D01*
X70048574Y-54180147D01*
X69771335Y-54125000D01*
X69488665Y-54125000D01*
X69211426Y-54180147D01*
X68950273Y-54288320D01*
X68755001Y-54418796D01*
X68755001Y-52308665D01*
X71365000Y-52308665D01*
X71365000Y-52591335D01*
X71420147Y-52868574D01*
X71528320Y-53129727D01*
X71685363Y-53364759D01*
X71885241Y-53564637D01*
X72120273Y-53721680D01*
X72188644Y-53750000D01*
X72120273Y-53778320D01*
X71885241Y-53935363D01*
X71685363Y-54135241D01*
X71528320Y-54370273D01*
X71420147Y-54631426D01*
X71365000Y-54908665D01*
X71365000Y-55191335D01*
X71420147Y-55468574D01*
X71528320Y-55729727D01*
X71685363Y-55964759D01*
X71885241Y-56164637D01*
X72120273Y-56321680D01*
X72381426Y-56429853D01*
X72658665Y-56485000D01*
X72941335Y-56485000D01*
X73218574Y-56429853D01*
X73479727Y-56321680D01*
X73714759Y-56164637D01*
X73914637Y-55964759D01*
X74071680Y-55729727D01*
X74179853Y-55468574D01*
X74235000Y-55191335D01*
X74235000Y-54908665D01*
X74179853Y-54631426D01*
X74071680Y-54370273D01*
X73914637Y-54135241D01*
X73714759Y-53935363D01*
X73479727Y-53778320D01*
X73411356Y-53750000D01*
X73479727Y-53721680D01*
X73714759Y-53564637D01*
X73914637Y-53364759D01*
X74071680Y-53129727D01*
X74179853Y-52868574D01*
X74235000Y-52591335D01*
X74235000Y-52308665D01*
X74179853Y-52031426D01*
X74071680Y-51770273D01*
X73914637Y-51535241D01*
X73714759Y-51335363D01*
X73479727Y-51178320D01*
X73218574Y-51070147D01*
X72941335Y-51015000D01*
X72658665Y-51015000D01*
X72381426Y-51070147D01*
X72120273Y-51178320D01*
X71885241Y-51335363D01*
X71685363Y-51535241D01*
X71528320Y-51770273D01*
X71420147Y-52031426D01*
X71365000Y-52308665D01*
X68755001Y-52308665D01*
X68755001Y-51765785D01*
X68874743Y-51845794D01*
X69063101Y-51923815D01*
X69263060Y-51963589D01*
X69466938Y-51963589D01*
X69666897Y-51923815D01*
X69855255Y-51845794D01*
X70024773Y-51732526D01*
X70168936Y-51588363D01*
X70282204Y-51418845D01*
X70360225Y-51230487D01*
X70399999Y-51030528D01*
X70399999Y-50826650D01*
X70360225Y-50626691D01*
X70337678Y-50572258D01*
X70467050Y-50585000D01*
X70612950Y-50585000D01*
X70831111Y-50563513D01*
X71111034Y-50478599D01*
X71369014Y-50340706D01*
X71595134Y-50155134D01*
X71780706Y-49929014D01*
X71918599Y-49671034D01*
X72003513Y-49391111D01*
X72032185Y-49100000D01*
X72003513Y-48808889D01*
X71918599Y-48528966D01*
X71780706Y-48270986D01*
X71595134Y-48044866D01*
X71369014Y-47859294D01*
X71314209Y-47830000D01*
X71369014Y-47800706D01*
X71595134Y-47615134D01*
X71616608Y-47588967D01*
X71865000Y-47588967D01*
X71865000Y-47911033D01*
X71927832Y-48226912D01*
X72051082Y-48524463D01*
X72230013Y-48792252D01*
X72457748Y-49019987D01*
X72725537Y-49198918D01*
X73023088Y-49322168D01*
X73338967Y-49385000D01*
X73661033Y-49385000D01*
X73976912Y-49322168D01*
X74274463Y-49198918D01*
X74542252Y-49019987D01*
X74769987Y-48792252D01*
X74948918Y-48524463D01*
X75072168Y-48226912D01*
X75135000Y-47911033D01*
X75135000Y-47588967D01*
X75072168Y-47273088D01*
X74948918Y-46975537D01*
X74769987Y-46707748D01*
X74542252Y-46480013D01*
X74274463Y-46301082D01*
X73976912Y-46177832D01*
X73661033Y-46115000D01*
X73338967Y-46115000D01*
X73023088Y-46177832D01*
X72725537Y-46301082D01*
X72457748Y-46480013D01*
X72230013Y-46707748D01*
X72051082Y-46975537D01*
X71927832Y-47273088D01*
X71865000Y-47588967D01*
X71616608Y-47588967D01*
X71780706Y-47389014D01*
X71918599Y-47131034D01*
X72003513Y-46851111D01*
X72032185Y-46560000D01*
X72003513Y-46268889D01*
X71918599Y-45988966D01*
X71780706Y-45730986D01*
X71595134Y-45504866D01*
X71369014Y-45319294D01*
X71314209Y-45290000D01*
X71369014Y-45260706D01*
X71595134Y-45075134D01*
X71780706Y-44849014D01*
X71844550Y-44729570D01*
X99585000Y-44729570D01*
X99585000Y-45130430D01*
X99663204Y-45523587D01*
X99816607Y-45893934D01*
X100039313Y-46227237D01*
X100322763Y-46510687D01*
X100656066Y-46733393D01*
X101026413Y-46886796D01*
X101419570Y-46965000D01*
X101820430Y-46965000D01*
X102213587Y-46886796D01*
X102583934Y-46733393D01*
X102917237Y-46510687D01*
X103200687Y-46227237D01*
X103423393Y-45893934D01*
X103576796Y-45523587D01*
X103655000Y-45130430D01*
X103655000Y-44729570D01*
X103576796Y-44336413D01*
X103423393Y-43966066D01*
X103200687Y-43632763D01*
X102917237Y-43349313D01*
X102583934Y-43126607D01*
X102213587Y-42973204D01*
X101820430Y-42895000D01*
X101419570Y-42895000D01*
X101026413Y-42973204D01*
X100656066Y-43126607D01*
X100322763Y-43349313D01*
X100039313Y-43632763D01*
X99816607Y-43966066D01*
X99663204Y-44336413D01*
X99585000Y-44729570D01*
X71844550Y-44729570D01*
X71918599Y-44591034D01*
X72003513Y-44311111D01*
X72032185Y-44020000D01*
X72003513Y-43728889D01*
X71918599Y-43448966D01*
X71780706Y-43190986D01*
X71595134Y-42964866D01*
X71369014Y-42779294D01*
X71314209Y-42750000D01*
X71369014Y-42720706D01*
X71595134Y-42535134D01*
X71780706Y-42309014D01*
X71918599Y-42051034D01*
X71979259Y-41851067D01*
X72051082Y-42024463D01*
X72230013Y-42292252D01*
X72457748Y-42519987D01*
X72725537Y-42698918D01*
X73023088Y-42822168D01*
X73338967Y-42885000D01*
X73661033Y-42885000D01*
X73976912Y-42822168D01*
X74274463Y-42698918D01*
X74542252Y-42519987D01*
X74769987Y-42292252D01*
X74948918Y-42024463D01*
X75072168Y-41726912D01*
X75135000Y-41411033D01*
X75135000Y-41088967D01*
X75072168Y-40773088D01*
X74948918Y-40475537D01*
X74769987Y-40207748D01*
X74722239Y-40160000D01*
X76777761Y-40160000D01*
X76730013Y-40207748D01*
G36*
X108867000Y-106853000D02*
G01*
X108887000Y-106853000D01*
X108887000Y-107107000D01*
X108867000Y-107107000D01*
X108867000Y-107127000D01*
X108613000Y-107127000D01*
X108613000Y-107107000D01*
X108593000Y-107107000D01*
X108593000Y-106853000D01*
X108613000Y-106853000D01*
X108613000Y-106833000D01*
X108867000Y-106833000D01*
X108867000Y-106853000D01*
X108867000Y-106853000D01*
G37*
X108867000Y-106853000D02*
X108887000Y-106853000D01*
X108887000Y-107107000D01*
X108867000Y-107107000D01*
X108867000Y-107127000D01*
X108613000Y-107127000D01*
X108613000Y-107107000D01*
X108593000Y-107107000D01*
X108593000Y-106853000D01*
X108613000Y-106853000D01*
X108613000Y-106833000D01*
X108867000Y-106833000D01*
X108867000Y-106853000D01*
G36*
X108893748Y-77985858D02*
G01*
X108879605Y-78000000D01*
X108893748Y-78014143D01*
X108714143Y-78193748D01*
X108700000Y-78179605D01*
X108685858Y-78193748D01*
X108506253Y-78014143D01*
X108520395Y-78000000D01*
X108506253Y-77985858D01*
X108685858Y-77806253D01*
X108700000Y-77820395D01*
X108714143Y-77806253D01*
X108893748Y-77985858D01*
X108893748Y-77985858D01*
G37*
X108893748Y-77985858D02*
X108879605Y-78000000D01*
X108893748Y-78014143D01*
X108714143Y-78193748D01*
X108700000Y-78179605D01*
X108685858Y-78193748D01*
X108506253Y-78014143D01*
X108520395Y-78000000D01*
X108506253Y-77985858D01*
X108685858Y-77806253D01*
X108700000Y-77820395D01*
X108714143Y-77806253D01*
X108893748Y-77985858D01*
M02*
